<svg width="414" height="389" viewBox="0 0 414 389" fill="none" xmlns="http://www.w3.org/2000/svg">
<rect x="0.5" y="0.5" width="413" height="388" rx="9.5" fill="#FFE9D0"/>
<path d="M320 311C320 305.477 324.477 301 330 301H365C370.523 301 375 305.477 375 311V347C375 352.523 370.523 357 365 357H330C324.477 357 320 352.523 320 347V311Z" fill="#E7740A"/>
<path d="M330 302H365V300H330V302ZM374 311V347H376V311H374ZM365 356H330V358H365V356ZM321 347V311H319V347H321ZM330 356C325.029 356 321 351.971 321 347H319C319 353.075 323.925 358 330 358V356ZM374 347C374 351.971 369.971 356 365 356V358C371.075 358 376 353.075 376 347H374ZM365 302C369.971 302 374 306.029 374 311H376C376 304.925 371.075 300 365 300V302ZM330 300C323.925 300 319 304.925 319 311H321C321 306.029 325.029 302 330 302V300Z" fill="#C4C4C4"/>
<path d="M27.904 41.744H19.008L17.536 46H12.832L20.864 23.632H26.08L34.112 46H29.376L27.904 41.744ZM26.688 38.16L23.456 28.816L20.224 38.16H26.688ZM35.9622 37.072C35.9622 35.28 36.3142 33.6907 37.0182 32.304C37.7436 30.9173 38.7249 29.8507 39.9623 29.104C41.1996 28.3573 42.5756 27.984 44.0903 27.984C45.2423 27.984 46.3409 28.24 47.3863 28.752C48.4316 29.2427 49.2636 29.904 49.8823 30.736V22.32H54.4263V46H49.8823V43.376C49.3276 44.2507 48.5489 44.9547 47.5463 45.488C46.5436 46.0213 45.3809 46.288 44.0583 46.288C42.5649 46.288 41.1996 45.904 39.9623 45.136C38.7249 44.368 37.7436 43.2907 37.0182 41.904C36.3142 40.496 35.9622 38.8853 35.9622 37.072ZM49.9143 37.136C49.9143 36.048 49.7009 35.12 49.2743 34.352C48.8476 33.5627 48.2716 32.9653 47.5463 32.56C46.8209 32.1333 46.0423 31.92 45.2103 31.92C44.3783 31.92 43.6103 32.1227 42.9062 32.528C42.2023 32.9333 41.6263 33.5307 41.1783 34.32C40.7516 35.088 40.5383 36.0053 40.5383 37.072C40.5383 38.1387 40.7516 39.0773 41.1783 39.888C41.6263 40.6773 42.2023 41.2853 42.9062 41.712C43.6316 42.1387 44.3996 42.352 45.2103 42.352C46.0423 42.352 46.8209 42.1493 47.5463 41.744C48.2716 41.3173 48.8476 40.72 49.2743 39.952C49.7009 39.1627 49.9143 38.224 49.9143 37.136ZM57.6497 37.072C57.6497 35.28 58.0017 33.6907 58.7057 32.304C59.4311 30.9173 60.4124 29.8507 61.6498 29.104C62.8871 28.3573 64.2631 27.984 65.7778 27.984C66.9298 27.984 68.0284 28.24 69.0738 28.752C70.1191 29.2427 70.9511 29.904 71.5698 30.736V22.32H76.1138V46H71.5698V43.376C71.0151 44.2507 70.2364 44.9547 69.2338 45.488C68.2311 46.0213 67.0684 46.288 65.7458 46.288C64.2524 46.288 62.8871 45.904 61.6498 45.136C60.4124 44.368 59.4311 43.2907 58.7057 41.904C58.0017 40.496 57.6497 38.8853 57.6497 37.072ZM71.6018 37.136C71.6018 36.048 71.3884 35.12 70.9618 34.352C70.5351 33.5627 69.9591 32.9653 69.2338 32.56C68.5084 32.1333 67.7298 31.92 66.8978 31.92C66.0658 31.92 65.2978 32.1227 64.5938 32.528C63.8898 32.9333 63.3138 33.5307 62.8658 34.32C62.4391 35.088 62.2258 36.0053 62.2258 37.072C62.2258 38.1387 62.4391 39.0773 62.8658 39.888C63.3138 40.6773 63.8898 41.2853 64.5938 41.712C65.3191 42.1387 66.0871 42.352 66.8978 42.352C67.7298 42.352 68.5084 42.1493 69.2338 41.744C69.9591 41.3173 70.5351 40.72 70.9618 39.952C71.3884 39.1627 71.6018 38.224 71.6018 37.136ZM92.5943 30.864C93.1703 30.0107 93.9596 29.3173 94.9623 28.784C95.9863 28.2507 97.1489 27.984 98.4503 27.984C99.9649 27.984 101.33 28.3573 102.546 29.104C103.784 29.8507 104.754 30.9173 105.458 32.304C106.184 33.6693 106.546 35.2587 106.546 37.072C106.546 38.8853 106.184 40.496 105.458 41.904C104.754 43.2907 103.784 44.368 102.546 45.136C101.33 45.904 99.9649 46.288 98.4503 46.288C97.1276 46.288 95.9649 46.032 94.9623 45.52C93.9809 44.9867 93.1916 44.304 92.5943 43.472V46H88.1143V22.32H92.5943V30.864ZM101.97 37.072C101.97 36.0053 101.746 35.088 101.298 34.32C100.872 33.5307 100.296 32.9333 99.5703 32.528C98.8663 32.1227 98.0983 31.92 97.2663 31.92C96.4556 31.92 95.6876 32.1333 94.9623 32.56C94.2583 32.9653 93.6823 33.5627 93.2343 34.352C92.8076 35.1413 92.5943 36.0693 92.5943 37.136C92.5943 38.2027 92.8076 39.1307 93.2343 39.92C93.6823 40.7093 94.2583 41.3173 94.9623 41.744C95.6876 42.1493 96.4556 42.352 97.2663 42.352C98.0983 42.352 98.8663 42.1387 99.5703 41.712C100.296 41.2853 100.872 40.6773 101.298 39.888C101.746 39.0987 101.97 38.16 101.97 37.072ZM126.762 28.272L115.786 54.384H111.018L114.858 45.552L107.754 28.272H112.778L117.354 40.656L121.994 28.272H126.762ZM141.282 30.832C141.858 30.0213 142.647 29.3493 143.65 28.816C144.674 28.2613 145.836 27.984 147.138 27.984C148.652 27.984 150.018 28.3573 151.234 29.104C152.471 29.8507 153.442 30.9173 154.146 32.304C154.871 33.6693 155.234 35.2587 155.234 37.072C155.234 38.8853 154.871 40.496 154.146 41.904C153.442 43.2907 152.471 44.368 151.234 45.136C150.018 45.904 148.652 46.288 147.138 46.288C145.836 46.288 144.684 46.0213 143.682 45.488C142.7 44.9547 141.9 44.2827 141.282 43.472V54.448H136.802V28.272H141.282V30.832ZM150.658 37.072C150.658 36.0053 150.434 35.088 149.986 34.32C149.559 33.5307 148.983 32.9333 148.258 32.528C147.554 32.1227 146.786 31.92 145.954 31.92C145.143 31.92 144.375 32.1333 143.65 32.56C142.946 32.9653 142.37 33.5627 141.922 34.352C141.495 35.1413 141.282 36.0693 141.282 37.136C141.282 38.2027 141.495 39.1307 141.922 39.92C142.37 40.7093 142.946 41.3173 143.65 41.744C144.375 42.1493 145.143 42.352 145.954 42.352C146.786 42.352 147.554 42.1387 148.258 41.712C148.983 41.2853 149.559 40.6773 149.986 39.888C150.434 39.0987 150.658 38.16 150.658 37.072ZM168.473 28.016C169.817 28.016 171.012 28.3147 172.057 28.912C173.103 29.488 173.913 30.352 174.489 31.504C175.087 32.6347 175.385 34 175.385 35.6V46H170.905V36.208C170.905 34.8 170.553 33.7227 169.849 32.976C169.145 32.208 168.185 31.824 166.969 31.824C165.732 31.824 164.751 32.208 164.025 32.976C163.321 33.7227 162.969 34.8 162.969 36.208V46H158.489V22.32H162.969V30.48C163.545 29.712 164.313 29.1147 165.273 28.688C166.233 28.24 167.3 28.016 168.473 28.016ZM187.518 46.288C185.811 46.288 184.275 45.9147 182.91 45.168C181.544 44.4 180.467 43.3227 179.678 41.936C178.91 40.5493 178.526 38.9493 178.526 37.136C178.526 35.3227 178.92 33.7227 179.71 32.336C180.52 30.9493 181.619 29.8827 183.006 29.136C184.392 28.368 185.939 27.984 187.646 27.984C189.352 27.984 190.899 28.368 192.286 29.136C193.672 29.8827 194.76 30.9493 195.55 32.336C196.36 33.7227 196.766 35.3227 196.766 37.136C196.766 38.9493 196.35 40.5493 195.517 41.936C194.707 43.3227 193.598 44.4 192.19 45.168C190.803 45.9147 189.246 46.288 187.518 46.288ZM187.518 42.384C188.328 42.384 189.086 42.192 189.79 41.808C190.515 41.4027 191.091 40.8053 191.518 40.016C191.944 39.2267 192.158 38.2667 192.158 37.136C192.158 35.4507 191.71 34.16 190.814 33.264C189.939 32.3467 188.862 31.888 187.582 31.888C186.302 31.888 185.224 32.3467 184.35 33.264C183.496 34.16 183.07 35.4507 183.07 37.136C183.07 38.8213 183.486 40.1227 184.318 41.04C185.171 41.936 186.238 42.384 187.518 42.384ZM209.876 28.016C211.988 28.016 213.694 28.688 214.996 30.032C216.297 31.3547 216.948 33.2107 216.948 35.6V46H212.468V36.208C212.468 34.8 212.116 33.7227 211.412 32.976C210.708 32.208 209.748 31.824 208.532 31.824C207.294 31.824 206.313 32.208 205.588 32.976C204.884 33.7227 204.532 34.8 204.532 36.208V46H200.052V28.272H204.532V30.48C205.129 29.712 205.886 29.1147 206.804 28.688C207.742 28.24 208.766 28.016 209.876 28.016ZM237.688 36.752C237.688 37.392 237.645 37.968 237.56 38.48H224.6C224.707 39.76 225.155 40.7627 225.944 41.488C226.733 42.2133 227.704 42.576 228.856 42.576C230.52 42.576 231.704 41.8613 232.408 40.432H237.24C236.728 42.1387 235.747 43.5467 234.296 44.656C232.845 45.744 231.064 46.288 228.952 46.288C227.245 46.288 225.709 45.9147 224.344 45.168C223 44.4 221.944 43.3227 221.176 41.936C220.429 40.5493 220.056 38.9493 220.056 37.136C220.056 35.3013 220.429 33.6907 221.176 32.304C221.923 30.9173 222.968 29.8507 224.312 29.104C225.656 28.3573 227.203 27.984 228.952 27.984C230.637 27.984 232.141 28.3467 233.464 29.072C234.808 29.7973 235.843 30.832 236.568 32.176C237.315 33.4987 237.688 35.024 237.688 36.752ZM233.048 35.472C233.027 34.32 232.611 33.4027 231.8 32.72C230.989 32.016 229.997 31.664 228.824 31.664C227.715 31.664 226.776 32.0053 226.008 32.688C225.261 33.3493 224.803 34.2773 224.632 35.472H233.048ZM258.407 28.016C260.519 28.016 262.226 28.688 263.527 30.032C264.828 31.3547 265.479 33.2107 265.479 35.6V46H260.999V36.208C260.999 34.8 260.647 33.7227 259.943 32.976C259.239 32.208 258.279 31.824 257.063 31.824C255.826 31.824 254.844 32.208 254.119 32.976C253.415 33.7227 253.063 34.8 253.063 36.208V46H248.583V28.272H253.063V30.48C253.66 29.712 254.418 29.1147 255.335 28.688C256.274 28.24 257.298 28.016 258.407 28.016ZM286.475 28.272V46H281.963V43.76C281.387 44.528 280.63 45.136 279.691 45.584C278.774 46.0107 277.771 46.224 276.683 46.224C275.297 46.224 274.07 45.936 273.003 45.36C271.937 44.7627 271.094 43.8987 270.475 42.768C269.878 41.616 269.579 40.2507 269.579 38.672V28.272H274.059V38.032C274.059 39.44 274.411 40.528 275.115 41.296C275.819 42.0427 276.779 42.416 277.995 42.416C279.233 42.416 280.203 42.0427 280.907 41.296C281.611 40.528 281.963 39.44 281.963 38.032V28.272H286.475ZM312.912 28.016C315.088 28.016 316.837 28.688 318.16 30.032C319.504 31.3547 320.176 33.2107 320.176 35.6V46H315.696V36.208C315.696 34.8213 315.344 33.7653 314.64 33.04C313.936 32.2933 312.976 31.92 311.76 31.92C310.544 31.92 309.573 32.2933 308.848 33.04C308.144 33.7653 307.792 34.8213 307.792 36.208V46H303.312V36.208C303.312 34.8213 302.96 33.7653 302.256 33.04C301.552 32.2933 300.592 31.92 299.376 31.92C298.138 31.92 297.157 32.2933 296.432 33.04C295.728 33.7653 295.376 34.8213 295.376 36.208V46H290.896V28.272H295.376V30.416C295.952 29.6693 296.688 29.0827 297.584 28.656C298.501 28.2293 299.504 28.016 300.592 28.016C301.978 28.016 303.216 28.3147 304.304 28.912C305.392 29.488 306.234 30.32 306.832 31.408C307.408 30.384 308.24 29.5627 309.328 28.944C310.437 28.3253 311.632 28.016 312.912 28.016ZM328.907 30.864C329.483 30.0107 330.272 29.3173 331.275 28.784C332.299 28.2507 333.461 27.984 334.763 27.984C336.277 27.984 337.643 28.3573 338.859 29.104C340.096 29.8507 341.067 30.9173 341.771 32.304C342.496 33.6693 342.859 35.2587 342.859 37.072C342.859 38.8853 342.496 40.496 341.771 41.904C341.067 43.2907 340.096 44.368 338.859 45.136C337.643 45.904 336.277 46.288 334.763 46.288C333.44 46.288 332.277 46.032 331.275 45.52C330.293 44.9867 329.504 44.304 328.907 43.472V46H324.427V22.32H328.907V30.864ZM338.283 37.072C338.283 36.0053 338.059 35.088 337.611 34.32C337.184 33.5307 336.608 32.9333 335.883 32.528C335.179 32.1227 334.411 31.92 333.579 31.92C332.768 31.92 332 32.1333 331.275 32.56C330.571 32.9653 329.995 33.5627 329.547 34.352C329.12 35.1413 328.907 36.0693 328.907 37.136C328.907 38.2027 329.12 39.1307 329.547 39.92C329.995 40.7093 330.571 41.3173 331.275 41.744C332 42.1493 332.768 42.352 333.579 42.352C334.411 42.352 335.179 42.1387 335.883 41.712C336.608 41.2853 337.184 40.6773 337.611 39.888C338.059 39.0987 338.283 38.16 338.283 37.072ZM362.594 36.752C362.594 37.392 362.552 37.968 362.466 38.48H349.506C349.613 39.76 350.061 40.7627 350.85 41.488C351.64 42.2133 352.61 42.576 353.762 42.576C355.426 42.576 356.61 41.8613 357.314 40.432H362.146C361.634 42.1387 360.653 43.5467 359.202 44.656C357.752 45.744 355.97 46.288 353.858 46.288C352.152 46.288 350.616 45.9147 349.25 45.168C347.906 44.4 346.85 43.3227 346.082 41.936C345.336 40.5493 344.962 38.9493 344.962 37.136C344.962 35.3013 345.336 33.6907 346.082 32.304C346.829 30.9173 347.874 29.8507 349.218 29.104C350.562 28.3573 352.109 27.984 353.858 27.984C355.544 27.984 357.048 28.3467 358.37 29.072C359.714 29.7973 360.749 30.832 361.474 32.176C362.221 33.4987 362.594 35.024 362.594 36.752ZM357.954 35.472C357.933 34.32 357.517 33.4027 356.706 32.72C355.896 32.016 354.904 31.664 353.73 31.664C352.621 31.664 351.682 32.0053 350.914 32.688C350.168 33.3493 349.709 34.2773 349.538 35.472H357.954ZM370.344 31.024C370.92 30.0853 371.667 29.3493 372.584 28.816C373.523 28.2827 374.59 28.016 375.784 28.016V32.72H374.6C373.192 32.72 372.126 33.0507 371.4 33.712C370.696 34.3733 370.344 35.5253 370.344 37.168V46H365.864V28.272H370.344V31.024Z" fill="#121111"/>
<rect x="42" y="147" width="333" height="40" rx="10" fill="#C4C4C4"/>
<path d="M124.36 161.54V166.2H129.44V167.7H124.36V172.5H130.04V174H122.54V160.04H130.04V161.54H124.36ZM138.134 162.84C139.467 162.84 140.547 163.247 141.374 164.06C142.201 164.86 142.614 166.02 142.614 167.54V174H140.814V167.8C140.814 166.707 140.541 165.873 139.994 165.3C139.447 164.713 138.701 164.42 137.754 164.42C136.794 164.42 136.027 164.72 135.454 165.32C134.894 165.92 134.614 166.793 134.614 167.94V174H132.794V163.04H134.614V164.6C134.974 164.04 135.461 163.607 136.074 163.3C136.701 162.993 137.387 162.84 138.134 162.84ZM147.807 164.54V171C147.807 171.533 147.92 171.913 148.147 172.14C148.374 172.353 148.767 172.46 149.327 172.46H150.667V174H149.027C148.014 174 147.254 173.767 146.747 173.3C146.24 172.833 145.987 172.067 145.987 171V164.54H144.567V163.04H145.987V160.28H147.807V163.04H150.667V164.54H147.807ZM162.872 168.1C162.872 168.447 162.852 168.813 162.812 169.2H154.052C154.119 170.28 154.485 171.127 155.152 171.74C155.832 172.34 156.652 172.64 157.612 172.64C158.399 172.64 159.052 172.46 159.572 172.1C160.105 171.727 160.479 171.233 160.692 170.62H162.652C162.359 171.673 161.772 172.533 160.892 173.2C160.012 173.853 158.919 174.18 157.612 174.18C156.572 174.18 155.639 173.947 154.812 173.48C153.999 173.013 153.359 172.353 152.892 171.5C152.425 170.633 152.192 169.633 152.192 168.5C152.192 167.367 152.419 166.373 152.872 165.52C153.325 164.667 153.959 164.013 154.772 163.56C155.599 163.093 156.545 162.86 157.612 162.86C158.652 162.86 159.572 163.087 160.372 163.54C161.172 163.993 161.785 164.62 162.212 165.42C162.652 166.207 162.872 167.1 162.872 168.1ZM160.992 167.72C160.992 167.027 160.839 166.433 160.532 165.94C160.225 165.433 159.805 165.053 159.272 164.8C158.752 164.533 158.172 164.4 157.532 164.4C156.612 164.4 155.825 164.693 155.172 165.28C154.532 165.867 154.165 166.68 154.072 167.72H160.992ZM167.094 164.82C167.414 164.193 167.868 163.707 168.454 163.36C169.054 163.013 169.781 162.84 170.634 162.84V164.72H170.154C168.114 164.72 167.094 165.827 167.094 168.04V174H165.274V163.04H167.094V164.82ZM177.387 168.48C177.387 167.36 177.614 166.38 178.067 165.54C178.521 164.687 179.141 164.027 179.927 163.56C180.727 163.093 181.614 162.86 182.587 162.86C183.547 162.86 184.381 163.067 185.087 163.48C185.794 163.893 186.321 164.413 186.667 165.04V163.04H188.507V174H186.667V171.96C186.307 172.6 185.767 173.133 185.047 173.56C184.341 173.973 183.514 174.18 182.567 174.18C181.594 174.18 180.714 173.94 179.927 173.46C179.141 172.98 178.521 172.307 178.067 171.44C177.614 170.573 177.387 169.587 177.387 168.48ZM186.667 168.5C186.667 167.673 186.501 166.953 186.167 166.34C185.834 165.727 185.381 165.26 184.807 164.94C184.247 164.607 183.627 164.44 182.947 164.44C182.267 164.44 181.647 164.6 181.087 164.92C180.527 165.24 180.081 165.707 179.747 166.32C179.414 166.933 179.247 167.653 179.247 168.48C179.247 169.32 179.414 170.053 179.747 170.68C180.081 171.293 180.527 171.767 181.087 172.1C181.647 172.42 182.267 172.58 182.947 172.58C183.627 172.58 184.247 172.42 184.807 172.1C185.381 171.767 185.834 171.293 186.167 170.68C186.501 170.053 186.667 169.327 186.667 168.5ZM198.735 165.06C199.095 164.433 199.628 163.913 200.335 163.5C201.055 163.073 201.888 162.86 202.835 162.86C203.808 162.86 204.688 163.093 205.475 163.56C206.275 164.027 206.902 164.687 207.355 165.54C207.808 166.38 208.035 167.36 208.035 168.48C208.035 169.587 207.808 170.573 207.355 171.44C206.902 172.307 206.275 172.98 205.475 173.46C204.688 173.94 203.808 174.18 202.835 174.18C201.902 174.18 201.075 173.973 200.355 173.56C199.648 173.133 199.108 172.607 198.735 171.98V179.2H196.915V163.04H198.735V165.06ZM206.175 168.48C206.175 167.653 206.008 166.933 205.675 166.32C205.342 165.707 204.888 165.24 204.315 164.92C203.755 164.6 203.135 164.44 202.455 164.44C201.788 164.44 201.168 164.607 200.595 164.94C200.035 165.26 199.582 165.733 199.235 166.36C198.902 166.973 198.735 167.687 198.735 168.5C198.735 169.327 198.902 170.053 199.235 170.68C199.582 171.293 200.035 171.767 200.595 172.1C201.168 172.42 201.788 172.58 202.455 172.58C203.135 172.58 203.755 172.42 204.315 172.1C204.888 171.767 205.342 171.293 205.675 170.68C206.008 170.053 206.175 169.32 206.175 168.48ZM215.871 162.84C216.697 162.84 217.444 163.02 218.111 163.38C218.777 163.727 219.297 164.253 219.671 164.96C220.057 165.667 220.251 166.527 220.251 167.54V174H218.451V167.8C218.451 166.707 218.177 165.873 217.631 165.3C217.084 164.713 216.337 164.42 215.391 164.42C214.431 164.42 213.664 164.72 213.091 165.32C212.531 165.92 212.251 166.793 212.251 167.94V174H210.431V159.2H212.251V164.6C212.611 164.04 213.104 163.607 213.731 163.3C214.371 162.993 215.084 162.84 215.871 162.84ZM228.004 174.18C226.977 174.18 226.044 173.947 225.204 173.48C224.377 173.013 223.724 172.353 223.244 171.5C222.777 170.633 222.544 169.633 222.544 168.5C222.544 167.38 222.784 166.393 223.264 165.54C223.757 164.673 224.424 164.013 225.264 163.56C226.104 163.093 227.044 162.86 228.084 162.86C229.124 162.86 230.064 163.093 230.904 163.56C231.744 164.013 232.404 164.667 232.884 165.52C233.377 166.373 233.624 167.367 233.624 168.5C233.624 169.633 233.37 170.633 232.864 171.5C232.37 172.353 231.697 173.013 230.844 173.48C229.99 173.947 229.044 174.18 228.004 174.18ZM228.004 172.58C228.657 172.58 229.27 172.427 229.844 172.12C230.417 171.813 230.877 171.353 231.224 170.74C231.584 170.127 231.764 169.38 231.764 168.5C231.764 167.62 231.59 166.873 231.244 166.26C230.897 165.647 230.444 165.193 229.884 164.9C229.324 164.593 228.717 164.44 228.064 164.44C227.397 164.44 226.784 164.593 226.224 164.9C225.677 165.193 225.237 165.647 224.904 166.26C224.57 166.873 224.404 167.62 224.404 168.5C224.404 169.393 224.564 170.147 224.884 170.76C225.217 171.373 225.657 171.833 226.204 172.14C226.75 172.433 227.35 172.58 228.004 172.58ZM241.357 162.84C242.69 162.84 243.77 163.247 244.597 164.06C245.423 164.86 245.837 166.02 245.837 167.54V174H244.037V167.8C244.037 166.707 243.763 165.873 243.217 165.3C242.67 164.713 241.923 164.42 240.977 164.42C240.017 164.42 239.25 164.72 238.677 165.32C238.117 165.92 237.837 166.793 237.837 167.94V174H236.017V163.04H237.837V164.6C238.197 164.04 238.683 163.607 239.297 163.3C239.923 162.993 240.61 162.84 241.357 162.84ZM258.81 168.1C258.81 168.447 258.79 168.813 258.75 169.2H249.99C250.056 170.28 250.423 171.127 251.09 171.74C251.77 172.34 252.59 172.64 253.55 172.64C254.336 172.64 254.99 172.46 255.51 172.1C256.043 171.727 256.416 171.233 256.63 170.62H258.59C258.296 171.673 257.71 172.533 256.83 173.2C255.95 173.853 254.856 174.18 253.55 174.18C252.51 174.18 251.576 173.947 250.75 173.48C249.936 173.013 249.296 172.353 248.83 171.5C248.363 170.633 248.13 169.633 248.13 168.5C248.13 167.367 248.356 166.373 248.81 165.52C249.263 164.667 249.896 164.013 250.71 163.56C251.536 163.093 252.483 162.86 253.55 162.86C254.59 162.86 255.51 163.087 256.31 163.54C257.11 163.993 257.723 164.62 258.15 165.42C258.59 166.207 258.81 167.1 258.81 168.1ZM256.93 167.72C256.93 167.027 256.776 166.433 256.47 165.94C256.163 165.433 255.743 165.053 255.21 164.8C254.69 164.533 254.11 164.4 253.47 164.4C252.55 164.4 251.763 164.693 251.11 165.28C250.47 165.867 250.103 166.68 250.01 167.72H256.93ZM271.884 162.84C273.217 162.84 274.297 163.247 275.124 164.06C275.951 164.86 276.364 166.02 276.364 167.54V174H274.564V167.8C274.564 166.707 274.291 165.873 273.744 165.3C273.197 164.713 272.451 164.42 271.504 164.42C270.544 164.42 269.777 164.72 269.204 165.32C268.644 165.92 268.364 166.793 268.364 167.94V174H266.544V163.04H268.364V164.6C268.724 164.04 269.211 163.607 269.824 163.3C270.451 162.993 271.137 162.84 271.884 162.84ZM289.057 163.04V174H287.237V172.38C286.89 172.94 286.404 173.38 285.777 173.7C285.164 174.007 284.484 174.16 283.737 174.16C282.884 174.16 282.117 173.987 281.437 173.64C280.757 173.28 280.217 172.747 279.817 172.04C279.43 171.333 279.237 170.473 279.237 169.46V163.04H281.037V169.22C281.037 170.3 281.31 171.133 281.857 171.72C282.404 172.293 283.15 172.58 284.097 172.58C285.07 172.58 285.837 172.28 286.397 171.68C286.957 171.08 287.237 170.207 287.237 169.06V163.04H289.057ZM305.31 162.84C306.163 162.84 306.923 163.02 307.59 163.38C308.257 163.727 308.783 164.253 309.17 164.96C309.557 165.667 309.75 166.527 309.75 167.54V174H307.95V167.8C307.95 166.707 307.677 165.873 307.13 165.3C306.597 164.713 305.87 164.42 304.95 164.42C304.003 164.42 303.25 164.727 302.69 165.34C302.13 165.94 301.85 166.813 301.85 167.96V174H300.05V167.8C300.05 166.707 299.777 165.873 299.23 165.3C298.697 164.713 297.97 164.42 297.05 164.42C296.103 164.42 295.35 164.727 294.79 165.34C294.23 165.94 293.95 166.813 293.95 167.96V174H292.13V163.04H293.95V164.62C294.31 164.047 294.79 163.607 295.39 163.3C296.003 162.993 296.677 162.84 297.41 162.84C298.33 162.84 299.143 163.047 299.85 163.46C300.557 163.873 301.083 164.48 301.43 165.28C301.737 164.507 302.243 163.907 302.95 163.48C303.657 163.053 304.443 162.84 305.31 162.84ZM314.555 165.08C314.929 164.427 315.475 163.893 316.195 163.48C316.915 163.067 317.735 162.86 318.655 162.86C319.642 162.86 320.529 163.093 321.315 163.56C322.102 164.027 322.722 164.687 323.175 165.54C323.629 166.38 323.855 167.36 323.855 168.48C323.855 169.587 323.629 170.573 323.175 171.44C322.722 172.307 322.095 172.98 321.295 173.46C320.509 173.94 319.629 174.18 318.655 174.18C317.709 174.18 316.875 173.973 316.155 173.56C315.449 173.147 314.915 172.62 314.555 171.98V174H312.735V159.2H314.555V165.08ZM321.995 168.48C321.995 167.653 321.829 166.933 321.495 166.32C321.162 165.707 320.709 165.24 320.135 164.92C319.575 164.6 318.955 164.44 318.275 164.44C317.609 164.44 316.989 164.607 316.415 164.94C315.855 165.26 315.402 165.733 315.055 166.36C314.722 166.973 314.555 167.687 314.555 168.5C314.555 169.327 314.722 170.053 315.055 170.68C315.402 171.293 315.855 171.767 316.415 172.1C316.989 172.42 317.609 172.58 318.275 172.58C318.955 172.58 319.575 172.42 320.135 172.1C320.709 171.767 321.162 171.293 321.495 170.68C321.829 170.053 321.995 169.32 321.995 168.48ZM336.251 168.1C336.251 168.447 336.231 168.813 336.191 169.2H327.431C327.498 170.28 327.864 171.127 328.531 171.74C329.211 172.34 330.031 172.64 330.991 172.64C331.778 172.64 332.431 172.46 332.951 172.1C333.484 171.727 333.858 171.233 334.071 170.62H336.031C335.738 171.673 335.151 172.533 334.271 173.2C333.391 173.853 332.298 174.18 330.991 174.18C329.951 174.18 329.018 173.947 328.191 173.48C327.378 173.013 326.738 172.353 326.271 171.5C325.804 170.633 325.571 169.633 325.571 168.5C325.571 167.367 325.798 166.373 326.251 165.52C326.704 164.667 327.338 164.013 328.151 163.56C328.978 163.093 329.924 162.86 330.991 162.86C332.031 162.86 332.951 163.087 333.751 163.54C334.551 163.993 335.164 164.62 335.591 165.42C336.031 166.207 336.251 167.1 336.251 168.1ZM334.371 167.72C334.371 167.027 334.218 166.433 333.911 165.94C333.604 165.433 333.184 165.053 332.651 164.8C332.131 164.533 331.551 164.4 330.911 164.4C329.991 164.4 329.204 164.693 328.551 165.28C327.911 165.867 327.544 166.68 327.451 167.72H334.371ZM340.473 164.82C340.793 164.193 341.247 163.707 341.833 163.36C342.433 163.013 343.16 162.84 344.013 162.84V164.72H343.533C341.493 164.72 340.473 165.827 340.473 168.04V174H338.653V163.04H340.473V164.82Z" fill="black" fill-opacity="0.37"/>
<path d="M358.831 316.984L360.873 318.968L342.294 337.016L334.127 329.083L336.169 327.099L342.294 333.049L358.831 316.984ZM358.831 312.975L342.294 329.04L336.169 323.09L330 329.083L342.294 341.025L365 318.968L358.831 312.975Z" fill="white"/>
<rect x="45" y="150" width="45" height="34" rx="10" fill="#8E8787"/>
<path d="M59.94 167.46H55.68V171.78H53.98V167.46H49.74V165.92H53.98V161.58H55.68V165.92H59.94V167.46ZM65.5323 166.48C64.7857 166.187 64.2123 165.76 63.8123 165.2C63.4123 164.64 63.2123 163.96 63.2123 163.16C63.2123 162.44 63.3923 161.793 63.7523 161.22C64.1123 160.633 64.6457 160.173 65.3523 159.84C66.0723 159.493 66.939 159.32 67.9523 159.32C68.9657 159.32 69.8257 159.493 70.5323 159.84C71.2523 160.173 71.7923 160.633 72.1523 161.22C72.5257 161.793 72.7123 162.44 72.7123 163.16C72.7123 163.933 72.5057 164.613 72.0923 165.2C71.679 165.773 71.1123 166.2 70.3923 166.48C71.219 166.733 71.8723 167.18 72.3523 167.82C72.8457 168.447 73.0923 169.207 73.0923 170.1C73.0923 170.967 72.879 171.727 72.4523 172.38C72.0257 173.02 71.419 173.52 70.6323 173.88C69.859 174.227 68.9657 174.4 67.9523 174.4C66.939 174.4 66.0457 174.227 65.2723 173.88C64.5123 173.52 63.919 173.02 63.4923 172.38C63.0657 171.727 62.8523 170.967 62.8523 170.1C62.8523 169.207 63.0923 168.44 63.5723 167.8C64.0523 167.16 64.7057 166.72 65.5323 166.48ZM70.9523 163.38C70.9523 162.567 70.6857 161.94 70.1523 161.5C69.619 161.06 68.8857 160.84 67.9523 160.84C67.0323 160.84 66.3057 161.06 65.7723 161.5C65.239 161.94 64.9723 162.573 64.9723 163.4C64.9723 164.147 65.2457 164.747 65.7923 165.2C66.3523 165.653 67.0723 165.88 67.9523 165.88C68.8457 165.88 69.5657 165.653 70.1123 165.2C70.6723 164.733 70.9523 164.127 70.9523 163.38ZM67.9523 167.28C66.9657 167.28 66.159 167.513 65.5323 167.98C64.9057 168.433 64.5923 169.12 64.5923 170.04C64.5923 170.893 64.8923 171.58 65.4923 172.1C66.1057 172.62 66.9257 172.88 67.9523 172.88C68.979 172.88 69.7923 172.62 70.3923 172.1C70.9923 171.58 71.2923 170.893 71.2923 170.04C71.2923 169.147 70.9857 168.467 70.3723 168C69.759 167.52 68.9523 167.28 67.9523 167.28ZM75.0695 170.78V169.4L82.0895 159.68H84.2695V169.2H86.2695V170.78H84.2695V174H82.4695V170.78H75.0695ZM82.5495 161.58L77.1695 169.2H82.5495V161.58Z" fill="#FEFAFA"/>
<path d="M42 311C42 305.477 46.4772 301 52 301H87C92.5228 301 97 305.477 97 311V347C97 352.523 92.5228 357 87 357H52C46.4772 357 42 352.523 42 347V311Z" fill="#E7740A"/>
<path d="M82.9049 314.615C82.0372 313.723 80.6356 313.723 79.768 314.615L68.889 324.692L58.0099 314.592C57.1423 313.7 55.7407 313.7 54.873 314.592C54.0054 315.484 54.0054 316.925 54.873 317.817L65.2223 329L54.873 340.183C54.0054 341.075 54.0054 342.516 54.873 343.408C55.7407 344.3 57.1423 344.3 58.0099 343.408L68.889 331.872L79.768 343.408C80.6356 344.3 82.0372 344.3 82.9049 343.408C83.7725 342.516 83.7725 341.075 82.9049 340.183L73.1667 329L82.9049 317.817C83.7503 316.948 83.7503 315.484 82.9049 314.615Z" fill="#FFFDFD"/>
<path d="M52 302H87V300H52V302ZM96 311V347H98V311H96ZM87 356H52V358H87V356ZM43 347V311H41V347H43ZM52 356C47.0294 356 43 351.971 43 347H41C41 353.075 45.9249 358 52 358V356ZM96 347C96 351.971 91.9706 356 87 356V358C93.0751 358 98 353.075 98 347H96ZM87 302C91.9706 302 96 306.029 96 311H98C98 304.925 93.0751 300 87 300V302ZM52 300C45.9249 300 41 304.925 41 311H43C43 306.029 47.0294 302 52 302V300Z" fill="#C4C4C4"/>
<path d="M42 311C42 305.477 46.4772 301 52 301H87C92.5228 301 97 305.477 97 311V347C97 352.523 92.5228 357 87 357H52C46.4772 357 42 352.523 42 347V311Z" fill="#E7740A"/>
<path d="M82.9049 314.615C82.0372 313.723 80.6356 313.723 79.768 314.615L68.889 324.692L58.0099 314.592C57.1423 313.7 55.7407 313.7 54.873 314.592C54.0054 315.484 54.0054 316.925 54.873 317.817L65.2223 329L54.873 340.183C54.0054 341.075 54.0054 342.516 54.873 343.408C55.7407 344.3 57.1423 344.3 58.0099 343.408L68.889 331.872L79.768 343.408C80.6356 344.3 82.0372 344.3 82.9049 343.408C83.7725 342.516 83.7725 341.075 82.9049 340.183L73.1667 329L82.9049 317.817C83.7503 316.948 83.7503 315.484 82.9049 314.615Z" fill="#FFFDFD"/>
<path d="M52 302H87V300H52V302ZM96 311V347H98V311H96ZM87 356H52V358H87V356ZM43 347V311H41V347H43ZM52 356C47.0294 356 43 351.971 43 347H41C41 353.075 45.9249 358 52 358V356ZM96 347C96 351.971 91.9706 356 87 356V358C93.0751 358 98 353.075 98 347H96ZM87 302C91.9706 302 96 306.029 96 311H98C98 304.925 93.0751 300 87 300V302ZM52 300C45.9249 300 41 304.925 41 311H43C43 306.029 47.0294 302 52 302V300Z" fill="#C4C4C4"/>
<rect x="0.5" y="0.5" width="413" height="388" rx="9.5" stroke="#D5C2C2"/>
</svg>
