<svg width="647" height="349" viewBox="0 0 647 349" fill="none" xmlns="http://www.w3.org/2000/svg">
<g clip-path="url(#clip0_611_2079)">
<rect width="647" height="349" rx="10" fill="white"/>
<path d="M0 15C0 6.71573 6.71573 0 15 0H632C640.284 0 647 6.71573 647 15V334C647 342.284 640.284 349 632 349H15C6.71574 349 0 342.284 0 334V15Z" fill="white"/>
<rect x="296" y="273.152" width="334" height="52.6609" rx="13.0556" fill="#C80A0A"/>
<path d="M317.872 308.174L311.522 300.399V308.174H308.022V290.724H311.522V298.549L317.872 290.724H322.097L314.897 299.374L322.297 308.174H317.872ZM328.099 293.549V297.924H333.974V300.699H328.099V305.324H334.724V308.174H324.599V290.699H334.724V293.549H328.099ZM341.404 293.549V297.924H347.279V300.699H341.404V305.324H348.029V308.174H337.904V290.699H348.029V293.549H341.404ZM363.935 296.124C363.935 297.057 363.71 297.932 363.26 298.749C362.827 299.565 362.135 300.224 361.185 300.724C360.252 301.224 359.068 301.474 357.635 301.474H354.71V308.174H351.21V290.724H357.635C358.985 290.724 360.135 290.957 361.085 291.424C362.035 291.89 362.743 292.532 363.21 293.349C363.693 294.165 363.935 295.09 363.935 296.124ZM357.485 298.649C358.452 298.649 359.168 298.432 359.635 297.999C360.102 297.549 360.335 296.924 360.335 296.124C360.335 294.424 359.385 293.574 357.485 293.574H354.71V298.649H357.485ZM375.877 290.724V308.174H372.377V290.724H375.877ZM391.21 290.724V293.549H386.56V308.174H383.06V293.549H378.41V290.724H391.21ZM410.421 304.849H403.471L402.321 308.174H398.646L404.921 290.699H408.996L415.271 308.174H411.571L410.421 304.849ZM409.471 302.049L406.946 294.749L404.421 302.049H409.471ZM423.641 308.349C422.425 308.349 421.325 308.14 420.341 307.724C419.375 307.307 418.608 306.707 418.041 305.924C417.475 305.14 417.183 304.215 417.166 303.149H420.916C420.966 303.865 421.216 304.432 421.666 304.849C422.133 305.265 422.766 305.474 423.566 305.474C424.383 305.474 425.025 305.282 425.491 304.899C425.958 304.499 426.191 303.982 426.191 303.349C426.191 302.832 426.033 302.407 425.716 302.074C425.4 301.74 425 301.482 424.516 301.299C424.05 301.099 423.4 300.882 422.566 300.649C421.433 300.315 420.508 299.99 419.791 299.674C419.091 299.34 418.483 298.849 417.966 298.199C417.466 297.532 417.216 296.649 417.216 295.549C417.216 294.515 417.475 293.615 417.991 292.849C418.508 292.082 419.233 291.499 420.166 291.099C421.1 290.682 422.166 290.474 423.366 290.474C425.166 290.474 426.625 290.915 427.741 291.799C428.875 292.665 429.5 293.882 429.616 295.449H425.766C425.733 294.849 425.475 294.357 424.991 293.974C424.525 293.574 423.9 293.374 423.116 293.374C422.433 293.374 421.883 293.549 421.466 293.899C421.066 294.249 420.866 294.757 420.866 295.424C420.866 295.89 421.016 296.282 421.316 296.599C421.633 296.899 422.016 297.149 422.466 297.349C422.933 297.532 423.583 297.749 424.416 297.999C425.55 298.332 426.475 298.665 427.191 298.999C427.908 299.332 428.525 299.832 429.041 300.499C429.558 301.165 429.816 302.04 429.816 303.124C429.816 304.057 429.575 304.924 429.091 305.724C428.608 306.524 427.9 307.165 426.966 307.649C426.033 308.115 424.925 308.349 423.641 308.349ZM451.533 296.124C451.533 297.057 451.308 297.932 450.858 298.749C450.424 299.565 449.733 300.224 448.783 300.724C447.849 301.224 446.666 301.474 445.233 301.474H442.308V308.174H438.808V290.724H445.233C446.583 290.724 447.733 290.957 448.683 291.424C449.633 291.89 450.341 292.532 450.808 293.349C451.291 294.165 451.533 295.09 451.533 296.124ZM445.083 298.649C446.049 298.649 446.766 298.432 447.233 297.999C447.699 297.549 447.933 296.924 447.933 296.124C447.933 294.424 446.983 293.574 445.083 293.574H442.308V298.649H445.083ZM457.468 290.724V301.524C457.468 302.707 457.776 303.615 458.393 304.249C459.009 304.865 459.876 305.174 460.993 305.174C462.126 305.174 463.001 304.865 463.618 304.249C464.234 303.615 464.543 302.707 464.543 301.524V290.724H468.068V301.499C468.068 302.982 467.743 304.24 467.093 305.274C466.459 306.29 465.601 307.057 464.518 307.574C463.451 308.09 462.259 308.349 460.943 308.349C459.643 308.349 458.459 308.09 457.393 307.574C456.343 307.057 455.509 306.29 454.893 305.274C454.276 304.24 453.968 302.982 453.968 301.499V290.724H457.468ZM481.349 299.224C482.333 299.407 483.141 299.899 483.774 300.699C484.408 301.499 484.724 302.415 484.724 303.449C484.724 304.382 484.491 305.207 484.024 305.924C483.574 306.624 482.916 307.174 482.049 307.574C481.183 307.974 480.158 308.174 478.974 308.174H471.449V290.724H478.649C479.833 290.724 480.849 290.915 481.699 291.299C482.566 291.682 483.216 292.215 483.649 292.899C484.099 293.582 484.324 294.357 484.324 295.224C484.324 296.24 484.049 297.09 483.499 297.774C482.966 298.457 482.249 298.94 481.349 299.224ZM474.949 297.924H478.149C478.983 297.924 479.624 297.74 480.074 297.374C480.524 296.99 480.749 296.449 480.749 295.749C480.749 295.049 480.524 294.507 480.074 294.124C479.624 293.74 478.983 293.549 478.149 293.549H474.949V297.924ZM478.474 305.324C479.324 305.324 479.983 305.124 480.449 304.724C480.933 304.324 481.174 303.757 481.174 303.024C481.174 302.274 480.924 301.69 480.424 301.274C479.924 300.84 479.249 300.624 478.399 300.624H474.949V305.324H478.474ZM491.014 305.399H496.764V308.174H487.514V290.724H491.014V305.399ZM502.488 290.724V308.174H498.988V290.724H502.488ZM505.096 299.424C505.096 297.707 505.48 296.174 506.246 294.824C507.03 293.457 508.088 292.399 509.421 291.649C510.771 290.882 512.28 290.499 513.946 290.499C515.896 290.499 517.605 290.999 519.071 291.999C520.538 292.999 521.563 294.382 522.146 296.149H518.121C517.721 295.315 517.155 294.69 516.421 294.274C515.705 293.857 514.871 293.649 513.921 293.649C512.905 293.649 511.996 293.89 511.196 294.374C510.413 294.84 509.796 295.507 509.346 296.374C508.913 297.24 508.696 298.257 508.696 299.424C508.696 300.574 508.913 301.59 509.346 302.474C509.796 303.34 510.413 304.015 511.196 304.499C511.996 304.965 512.905 305.199 513.921 305.199C514.871 305.199 515.705 304.99 516.421 304.574C517.155 304.14 517.721 303.507 518.121 302.674H522.146C521.563 304.457 520.538 305.849 519.071 306.849C517.621 307.832 515.913 308.324 513.946 308.324C512.28 308.324 510.771 307.949 509.421 307.199C508.088 306.432 507.03 305.374 506.246 304.024C505.48 302.674 505.096 301.14 505.096 299.424ZM537.118 308.349C535.901 308.349 534.801 308.14 533.818 307.724C532.851 307.307 532.085 306.707 531.518 305.924C530.951 305.14 530.66 304.215 530.643 303.149H534.393C534.443 303.865 534.693 304.432 535.143 304.849C535.61 305.265 536.243 305.474 537.043 305.474C537.86 305.474 538.501 305.282 538.968 304.899C539.435 304.499 539.668 303.982 539.668 303.349C539.668 302.832 539.51 302.407 539.193 302.074C538.876 301.74 538.476 301.482 537.993 301.299C537.526 301.099 536.876 300.882 536.043 300.649C534.91 300.315 533.985 299.99 533.268 299.674C532.568 299.34 531.96 298.849 531.443 298.199C530.943 297.532 530.693 296.649 530.693 295.549C530.693 294.515 530.951 293.615 531.468 292.849C531.985 292.082 532.71 291.499 533.643 291.099C534.576 290.682 535.643 290.474 536.843 290.474C538.643 290.474 540.101 290.915 541.218 291.799C542.351 292.665 542.976 293.882 543.093 295.449H539.243C539.21 294.849 538.951 294.357 538.468 293.974C538.001 293.574 537.376 293.374 536.593 293.374C535.91 293.374 535.36 293.549 534.943 293.899C534.543 294.249 534.343 294.757 534.343 295.424C534.343 295.89 534.493 296.282 534.793 296.599C535.11 296.899 535.493 297.149 535.943 297.349C536.41 297.532 537.06 297.749 537.893 297.999C539.026 298.332 539.951 298.665 540.668 298.999C541.385 299.332 542.001 299.832 542.518 300.499C543.035 301.165 543.293 302.04 543.293 303.124C543.293 304.057 543.051 304.924 542.568 305.724C542.085 306.524 541.376 307.165 540.443 307.649C539.51 308.115 538.401 308.349 537.118 308.349ZM549.827 290.724V308.174H546.327V290.724H549.827ZM565.435 295.974C565.035 295.24 564.485 294.682 563.785 294.299C563.085 293.915 562.269 293.724 561.335 293.724C560.302 293.724 559.385 293.957 558.585 294.424C557.785 294.89 557.16 295.557 556.71 296.424C556.26 297.29 556.035 298.29 556.035 299.424C556.035 300.59 556.26 301.607 556.71 302.474C557.177 303.34 557.819 304.007 558.635 304.474C559.452 304.94 560.402 305.174 561.485 305.174C562.819 305.174 563.91 304.824 564.76 304.124C565.61 303.407 566.169 302.415 566.435 301.149H560.435V298.474H569.885V301.524C569.652 302.74 569.152 303.865 568.385 304.899C567.619 305.932 566.627 306.765 565.41 307.399C564.21 308.015 562.86 308.324 561.36 308.324C559.677 308.324 558.152 307.949 556.785 307.199C555.435 306.432 554.369 305.374 553.585 304.024C552.819 302.674 552.435 301.14 552.435 299.424C552.435 297.707 552.819 296.174 553.585 294.824C554.369 293.457 555.435 292.399 556.785 291.649C558.152 290.882 559.669 290.499 561.335 290.499C563.302 290.499 565.01 290.982 566.46 291.949C567.91 292.899 568.91 294.24 569.46 295.974H565.435ZM587.4 308.174H583.9L575.975 296.199V308.174H572.475V290.699H575.975L583.9 302.699V290.699H587.4V308.174ZM601.559 304.849H594.609L593.459 308.174H589.784L596.059 290.699H600.134L606.409 308.174H602.709L601.559 304.849ZM600.609 302.049L598.084 294.749L595.559 302.049H600.609ZM612.254 305.399H618.004V308.174H608.754V290.724H612.254V305.399Z" fill="white" fill-opacity="0.98"/>
<rect x="17" y="273" width="270" height="53" rx="13.0556" fill="#ADADAD"/>
<path d="M40.1593 291.55C41.9926 291.55 43.6009 291.908 44.9843 292.625C46.3843 293.342 47.4593 294.367 48.2093 295.7C48.9759 297.017 49.3593 298.55 49.3593 300.3C49.3593 302.05 48.9759 303.583 48.2093 304.9C47.4593 306.2 46.3843 307.208 44.9843 307.925C43.6009 308.642 41.9926 309 40.1593 309H34.0593V291.55H40.1593ZM40.0343 306.025C41.8676 306.025 43.2843 305.525 44.2843 304.525C45.2843 303.525 45.7843 302.117 45.7843 300.3C45.7843 298.483 45.2843 297.067 44.2843 296.05C43.2843 295.017 41.8676 294.5 40.0343 294.5H37.5593V306.025H40.0343ZM55.4792 294.375V298.75H61.3542V301.525H55.4792V306.15H62.1042V309H51.9792V291.525H62.1042V294.375H55.4792ZM68.7848 306.225H74.5348V309H65.2848V291.55H68.7848V306.225ZM80.2595 294.375V298.75H86.1345V301.525H80.2595V306.15H86.8845V309H76.7595V291.525H86.8845V294.375H80.2595ZM101.94 291.55V294.375H97.2901V309H93.7901V294.375H89.1401V291.55H101.94ZM107.994 294.375V298.75H113.869V301.525H107.994V306.15H114.619V309H104.494V291.525H114.619V294.375H107.994ZM135.632 291.55V294.375H130.982V309H127.482V294.375H122.832V291.55H135.632ZM152.66 291.55V309H149.16V301.575H141.685V309H138.185V291.55H141.685V298.725H149.16V291.55H152.66ZM159.605 291.55V309H156.105V291.55H159.605ZM169.088 309.175C167.871 309.175 166.771 308.967 165.788 308.55C164.821 308.133 164.055 307.533 163.488 306.75C162.921 305.967 162.63 305.042 162.613 303.975H166.363C166.413 304.692 166.663 305.258 167.113 305.675C167.58 306.092 168.213 306.3 169.013 306.3C169.83 306.3 170.471 306.108 170.938 305.725C171.405 305.325 171.638 304.808 171.638 304.175C171.638 303.658 171.48 303.233 171.163 302.9C170.846 302.567 170.446 302.308 169.963 302.125C169.496 301.925 168.846 301.708 168.013 301.475C166.88 301.142 165.955 300.817 165.238 300.5C164.538 300.167 163.93 299.675 163.413 299.025C162.913 298.358 162.663 297.475 162.663 296.375C162.663 295.342 162.921 294.442 163.438 293.675C163.955 292.908 164.68 292.325 165.613 291.925C166.546 291.508 167.613 291.3 168.813 291.3C170.613 291.3 172.071 291.742 173.188 292.625C174.321 293.492 174.946 294.708 175.063 296.275H171.213C171.18 295.675 170.921 295.183 170.438 294.8C169.971 294.4 169.346 294.2 168.563 294.2C167.88 294.2 167.33 294.375 166.913 294.725C166.513 295.075 166.313 295.583 166.313 296.25C166.313 296.717 166.463 297.108 166.763 297.425C167.08 297.725 167.463 297.975 167.913 298.175C168.38 298.358 169.03 298.575 169.863 298.825C170.996 299.158 171.921 299.492 172.638 299.825C173.355 300.158 173.971 300.658 174.488 301.325C175.005 301.992 175.263 302.867 175.263 303.95C175.263 304.883 175.021 305.75 174.538 306.55C174.055 307.35 173.346 307.992 172.413 308.475C171.48 308.942 170.371 309.175 169.088 309.175ZM190.28 309.175C189.063 309.175 187.963 308.967 186.98 308.55C186.013 308.133 185.246 307.533 184.68 306.75C184.113 305.967 183.821 305.042 183.805 303.975H187.555C187.605 304.692 187.855 305.258 188.305 305.675C188.771 306.092 189.405 306.3 190.205 306.3C191.021 306.3 191.663 306.108 192.13 305.725C192.596 305.325 192.83 304.808 192.83 304.175C192.83 303.658 192.671 303.233 192.355 302.9C192.038 302.567 191.638 302.308 191.155 302.125C190.688 301.925 190.038 301.708 189.205 301.475C188.071 301.142 187.146 300.817 186.43 300.5C185.73 300.167 185.121 299.675 184.605 299.025C184.105 298.358 183.855 297.475 183.855 296.375C183.855 295.342 184.113 294.442 184.63 293.675C185.146 292.908 185.871 292.325 186.805 291.925C187.738 291.508 188.805 291.3 190.005 291.3C191.805 291.3 193.263 291.742 194.38 292.625C195.513 293.492 196.138 294.708 196.255 296.275H192.405C192.371 295.675 192.113 295.183 191.63 294.8C191.163 294.4 190.538 294.2 189.755 294.2C189.071 294.2 188.521 294.375 188.105 294.725C187.705 295.075 187.505 295.583 187.505 296.25C187.505 296.717 187.655 297.108 187.955 297.425C188.271 297.725 188.655 297.975 189.105 298.175C189.571 298.358 190.221 298.575 191.055 298.825C192.188 299.158 193.113 299.492 193.83 299.825C194.546 300.158 195.163 300.658 195.68 301.325C196.196 301.992 196.455 302.867 196.455 303.95C196.455 304.883 196.213 305.75 195.73 306.55C195.246 307.35 194.538 307.992 193.605 308.475C192.671 308.942 191.563 309.175 190.28 309.175ZM202.989 291.55V309H199.489V291.55H202.989ZM218.597 296.8C218.197 296.067 217.647 295.508 216.947 295.125C216.247 294.742 215.43 294.55 214.497 294.55C213.464 294.55 212.547 294.783 211.747 295.25C210.947 295.717 210.322 296.383 209.872 297.25C209.422 298.117 209.197 299.117 209.197 300.25C209.197 301.417 209.422 302.433 209.872 303.3C210.339 304.167 210.98 304.833 211.797 305.3C212.614 305.767 213.564 306 214.647 306C215.98 306 217.072 305.65 217.922 304.95C218.772 304.233 219.33 303.242 219.597 301.975H213.597V299.3H223.047V302.35C222.814 303.567 222.314 304.692 221.547 305.725C220.78 306.758 219.789 307.592 218.572 308.225C217.372 308.842 216.022 309.15 214.522 309.15C212.839 309.15 211.314 308.775 209.947 308.025C208.597 307.258 207.53 306.2 206.747 304.85C205.98 303.5 205.597 301.967 205.597 300.25C205.597 298.533 205.98 297 206.747 295.65C207.53 294.283 208.597 293.225 209.947 292.475C211.314 291.708 212.83 291.325 214.497 291.325C216.464 291.325 218.172 291.808 219.622 292.775C221.072 293.725 222.072 295.067 222.622 296.8H218.597ZM240.561 309H237.061L229.136 297.025V309H225.636V291.525H229.136L237.061 303.525V291.525H240.561V309ZM254.72 305.675H247.77L246.62 309H242.945L249.22 291.525H253.295L259.57 309H255.87L254.72 305.675ZM253.77 302.875L251.245 295.575L248.72 302.875H253.77ZM265.416 306.225H271.166V309H261.916V291.55H265.416V306.225Z" fill="white" fill-opacity="0.98"/>
<line x1="1.35196e-08" y1="67.747" x2="647" y2="67.747" stroke="#CCCCCC" stroke-width="0.3"/>
<path d="M33.95 86.09L27.14 99.11V107H24.41V99.11L17.57 86.09H20.6L25.76 96.68L30.92 86.09H33.95ZM43.9995 107.27C42.4595 107.27 41.0595 106.92 39.7995 106.22C38.5595 105.52 37.5795 104.53 36.8595 103.25C36.1595 101.95 35.8095 100.45 35.8095 98.75C35.8095 97.07 36.1695 95.59 36.8895 94.31C37.6295 93.01 38.6295 92.02 39.8895 91.34C41.1495 90.64 42.5595 90.29 44.1195 90.29C45.6795 90.29 47.0895 90.64 48.3495 91.34C49.6095 92.02 50.5995 93 51.3195 94.28C52.0595 95.56 52.4295 97.05 52.4295 98.75C52.4295 100.45 52.0495 101.95 51.2895 103.25C50.5495 104.53 49.5395 105.52 48.2595 106.22C46.9795 106.92 45.5595 107.27 43.9995 107.27ZM43.9995 104.87C44.9795 104.87 45.8995 104.64 46.7595 104.18C47.6195 103.72 48.3095 103.03 48.8295 102.11C49.3695 101.19 49.6395 100.07 49.6395 98.75C49.6395 97.43 49.3795 96.31 48.8595 95.39C48.3395 94.47 47.6595 93.79 46.8195 93.35C45.9795 92.89 45.0695 92.66 44.0895 92.66C43.0895 92.66 42.1695 92.89 41.3295 93.35C40.5095 93.79 39.8495 94.47 39.3495 95.39C38.8495 96.31 38.5995 97.43 38.5995 98.75C38.5995 100.09 38.8395 101.22 39.3195 102.14C39.8195 103.06 40.4795 103.75 41.2995 104.21C42.1195 104.65 43.0195 104.87 43.9995 104.87ZM70.599 90.56V107H67.869V104.57C67.349 105.41 66.619 106.07 65.679 106.55C64.759 107.01 63.739 107.24 62.619 107.24C61.339 107.24 60.189 106.98 59.169 106.46C58.149 105.92 57.339 105.12 56.739 104.06C56.159 103 55.869 101.71 55.869 100.19V90.56H58.569V99.83C58.569 101.45 58.979 102.7 59.799 103.58C60.619 104.44 61.739 104.87 63.159 104.87C64.619 104.87 65.769 104.42 66.609 103.52C67.449 102.62 67.869 101.31 67.869 99.59V90.56H70.599ZM77.9384 93.23C78.4184 92.29 79.0984 91.56 79.9784 91.04C80.8784 90.52 81.9684 90.26 83.2484 90.26V93.08H82.5284C79.4684 93.08 77.9384 94.74 77.9384 98.06V107H75.2084V90.56H77.9384V93.23ZM100.218 107.27C98.9579 107.27 97.8279 107.06 96.8279 106.64C95.8279 106.2 95.0379 105.6 94.4579 104.84C93.8779 104.06 93.5579 103.17 93.4979 102.17H96.3179C96.3979 102.99 96.7779 103.66 97.4579 104.18C98.1579 104.7 99.0679 104.96 100.188 104.96C101.228 104.96 102.048 104.73 102.648 104.27C103.248 103.81 103.548 103.23 103.548 102.53C103.548 101.81 103.228 101.28 102.588 100.94C101.948 100.58 100.958 100.23 99.6179 99.89C98.3979 99.57 97.3979 99.25 96.6179 98.93C95.8579 98.59 95.1979 98.1 94.6379 97.46C94.0979 96.8 93.8279 95.94 93.8279 94.88C93.8279 94.04 94.0779 93.27 94.5779 92.57C95.0779 91.87 95.7879 91.32 96.7079 90.92C97.6279 90.5 98.6779 90.29 99.8579 90.29C101.678 90.29 103.148 90.75 104.268 91.67C105.388 92.59 105.988 93.85 106.068 95.45H103.338C103.278 94.59 102.928 93.9 102.288 93.38C101.668 92.86 100.828 92.6 99.7679 92.6C98.7879 92.6 98.0079 92.81 97.4279 93.23C96.8479 93.65 96.5579 94.2 96.5579 94.88C96.5579 95.42 96.7279 95.87 97.0679 96.23C97.4279 96.57 97.8679 96.85 98.3879 97.07C98.9279 97.27 99.6679 97.5 100.608 97.76C101.788 98.08 102.748 98.4 103.488 98.72C104.228 99.02 104.858 99.48 105.378 100.1C105.918 100.72 106.198 101.53 106.218 102.53C106.218 103.43 105.968 104.24 105.468 104.96C104.968 105.68 104.258 106.25 103.338 106.67C102.438 107.07 101.398 107.27 100.218 107.27ZM111.482 87.89C110.962 87.89 110.522 87.71 110.162 87.35C109.802 86.99 109.622 86.55 109.622 86.03C109.622 85.51 109.802 85.07 110.162 84.71C110.522 84.35 110.962 84.17 111.482 84.17C111.982 84.17 112.402 84.35 112.742 84.71C113.102 85.07 113.282 85.51 113.282 86.03C113.282 86.55 113.102 86.99 112.742 87.35C112.402 87.71 111.982 87.89 111.482 87.89ZM112.802 90.56V107H110.072V90.56H112.802ZM124.235 90.29C125.655 90.29 126.895 90.6 127.955 91.22C129.035 91.84 129.835 92.62 130.355 93.56V90.56H133.115V107.36C133.115 108.86 132.795 110.19 132.155 111.35C131.515 112.53 130.595 113.45 129.395 114.11C128.215 114.77 126.835 115.1 125.255 115.1C123.095 115.1 121.295 114.59 119.855 113.57C118.415 112.55 117.565 111.16 117.305 109.4H120.005C120.305 110.4 120.925 111.2 121.865 111.8C122.805 112.42 123.935 112.73 125.255 112.73C126.755 112.73 127.975 112.26 128.915 111.32C129.875 110.38 130.355 109.06 130.355 107.36V103.91C129.815 104.87 129.015 105.67 127.955 106.31C126.895 106.95 125.655 107.27 124.235 107.27C122.775 107.27 121.445 106.91 120.245 106.19C119.065 105.47 118.135 104.46 117.455 103.16C116.775 101.86 116.435 100.38 116.435 98.72C116.435 97.04 116.775 95.57 117.455 94.31C118.135 93.03 119.065 92.04 120.245 91.34C121.445 90.64 122.775 90.29 124.235 90.29ZM130.355 98.75C130.355 97.51 130.105 96.43 129.605 95.51C129.105 94.59 128.425 93.89 127.565 93.41C126.725 92.91 125.795 92.66 124.775 92.66C123.755 92.66 122.825 92.9 121.985 93.38C121.145 93.86 120.475 94.56 119.975 95.48C119.475 96.4 119.225 97.48 119.225 98.72C119.225 99.98 119.475 101.08 119.975 102.02C120.475 102.94 121.145 103.65 121.985 104.15C122.825 104.63 123.755 104.87 124.775 104.87C125.795 104.87 126.725 104.63 127.565 104.15C128.425 103.65 129.105 102.94 129.605 102.02C130.105 101.08 130.355 99.99 130.355 98.75ZM145.738 90.26C147.738 90.26 149.358 90.87 150.598 92.09C151.838 93.29 152.458 95.03 152.458 97.31V107H149.758V97.7C149.758 96.06 149.348 94.81 148.528 93.95C147.708 93.07 146.588 92.63 145.168 92.63C143.728 92.63 142.578 93.08 141.718 93.98C140.878 94.88 140.458 96.19 140.458 97.91V107H137.728V90.56H140.458V92.9C140.998 92.06 141.728 91.41 142.648 90.95C143.588 90.49 144.618 90.26 145.738 90.26ZM155.897 98.72C155.897 97.04 156.237 95.57 156.917 94.31C157.597 93.03 158.527 92.04 159.707 91.34C160.907 90.64 162.237 90.29 163.697 90.29C165.137 90.29 166.387 90.6 167.447 91.22C168.507 91.84 169.297 92.62 169.817 93.56V90.56H172.577V107H169.817V103.94C169.277 104.9 168.467 105.7 167.387 106.34C166.327 106.96 165.087 107.27 163.667 107.27C162.207 107.27 160.887 106.91 159.707 106.19C158.527 105.47 157.597 104.46 156.917 103.16C156.237 101.86 155.897 100.38 155.897 98.72ZM169.817 98.75C169.817 97.51 169.567 96.43 169.067 95.51C168.567 94.59 167.887 93.89 167.027 93.41C166.187 92.91 165.257 92.66 164.237 92.66C163.217 92.66 162.287 92.9 161.447 93.38C160.607 93.86 159.937 94.56 159.437 95.48C158.937 96.4 158.687 97.48 158.687 98.72C158.687 99.98 158.937 101.08 159.437 102.02C159.937 102.94 160.607 103.65 161.447 104.15C162.287 104.63 163.217 104.87 164.237 104.87C165.257 104.87 166.187 104.63 167.027 104.15C167.887 103.65 168.567 102.94 169.067 102.02C169.567 101.08 169.817 99.99 169.817 98.75ZM179.921 84.8V107H177.191V84.8H179.921ZM193.982 87.89C193.462 87.89 193.022 87.71 192.662 87.35C192.302 86.99 192.122 86.55 192.122 86.03C192.122 85.51 192.302 85.07 192.662 84.71C193.022 84.35 193.462 84.17 193.982 84.17C194.482 84.17 194.902 84.35 195.242 84.71C195.602 85.07 195.782 85.51 195.782 86.03C195.782 86.55 195.602 86.99 195.242 87.35C194.902 87.71 194.482 87.89 193.982 87.89ZM195.302 90.56V107H192.572V90.56H195.302ZM205.775 107.27C204.515 107.27 203.385 107.06 202.385 106.64C201.385 106.2 200.595 105.6 200.015 104.84C199.435 104.06 199.115 103.17 199.055 102.17H201.875C201.955 102.99 202.335 103.66 203.015 104.18C203.715 104.7 204.625 104.96 205.745 104.96C206.785 104.96 207.605 104.73 208.205 104.27C208.805 103.81 209.105 103.23 209.105 102.53C209.105 101.81 208.785 101.28 208.145 100.94C207.505 100.58 206.515 100.23 205.175 99.89C203.955 99.57 202.955 99.25 202.175 98.93C201.415 98.59 200.755 98.1 200.195 97.46C199.655 96.8 199.385 95.94 199.385 94.88C199.385 94.04 199.635 93.27 200.135 92.57C200.635 91.87 201.345 91.32 202.265 90.92C203.185 90.5 204.235 90.29 205.415 90.29C207.235 90.29 208.705 90.75 209.825 91.67C210.945 92.59 211.545 93.85 211.625 95.45H208.895C208.835 94.59 208.485 93.9 207.845 93.38C207.225 92.86 206.385 92.6 205.325 92.6C204.345 92.6 203.565 92.81 202.985 93.23C202.405 93.65 202.115 94.2 202.115 94.88C202.115 95.42 202.285 95.87 202.625 96.23C202.985 96.57 203.425 96.85 203.945 97.07C204.485 97.27 205.225 97.5 206.165 97.76C207.345 98.08 208.305 98.4 209.045 98.72C209.785 99.02 210.415 99.48 210.935 100.1C211.475 100.72 211.755 101.53 211.775 102.53C211.775 103.43 211.525 104.24 211.025 104.96C210.525 105.68 209.815 106.25 208.895 106.67C207.995 107.07 206.955 107.27 205.775 107.27ZM226.356 93.59C226.896 92.65 227.696 91.87 228.756 91.25C229.836 90.61 231.086 90.29 232.506 90.29C233.966 90.29 235.286 90.64 236.466 91.34C237.666 92.04 238.606 93.03 239.286 94.31C239.966 95.57 240.306 97.04 240.306 98.72C240.306 100.38 239.966 101.86 239.286 103.16C238.606 104.46 237.666 105.47 236.466 106.19C235.286 106.91 233.966 107.27 232.506 107.27C231.106 107.27 229.866 106.96 228.786 106.34C227.726 105.7 226.916 104.91 226.356 103.97V114.8H223.626V90.56H226.356V93.59ZM237.516 98.72C237.516 97.48 237.266 96.4 236.766 95.48C236.266 94.56 235.586 93.86 234.726 93.38C233.886 92.9 232.956 92.66 231.936 92.66C230.936 92.66 230.006 92.91 229.146 93.41C228.306 93.89 227.626 94.6 227.106 95.54C226.606 96.46 226.356 97.53 226.356 98.75C226.356 99.99 226.606 101.08 227.106 102.02C227.626 102.94 228.306 103.65 229.146 104.15C230.006 104.63 230.936 104.87 231.936 104.87C232.956 104.87 233.886 104.63 234.726 104.15C235.586 103.65 236.266 102.94 236.766 102.02C237.266 101.08 237.516 99.98 237.516 98.72ZM258.48 90.56V107H255.75V104.57C255.23 105.41 254.5 106.07 253.56 106.55C252.64 107.01 251.62 107.24 250.5 107.24C249.22 107.24 248.07 106.98 247.05 106.46C246.03 105.92 245.22 105.12 244.62 104.06C244.04 103 243.75 101.71 243.75 100.19V90.56H246.45V99.83C246.45 101.45 246.86 102.7 247.68 103.58C248.5 104.44 249.62 104.87 251.04 104.87C252.5 104.87 253.65 104.42 254.49 103.52C255.33 102.62 255.75 101.31 255.75 99.59V90.56H258.48ZM265.819 93.62C266.379 92.64 267.199 91.84 268.279 91.22C269.359 90.6 270.589 90.29 271.969 90.29C273.449 90.29 274.779 90.64 275.959 91.34C277.139 92.04 278.069 93.03 278.749 94.31C279.429 95.57 279.769 97.04 279.769 98.72C279.769 100.38 279.429 101.86 278.749 103.16C278.069 104.46 277.129 105.47 275.929 106.19C274.749 106.91 273.429 107.27 271.969 107.27C270.549 107.27 269.299 106.96 268.219 106.34C267.159 105.72 266.359 104.93 265.819 103.97V107H263.089V84.8H265.819V93.62ZM276.979 98.72C276.979 97.48 276.729 96.4 276.229 95.48C275.729 94.56 275.049 93.86 274.189 93.38C273.349 92.9 272.419 92.66 271.399 92.66C270.399 92.66 269.469 92.91 268.609 93.41C267.769 93.89 267.089 94.6 266.569 95.54C266.069 96.46 265.819 97.53 265.819 98.75C265.819 99.99 266.069 101.08 266.569 102.02C267.089 102.94 267.769 103.65 268.609 104.15C269.469 104.63 270.399 104.87 271.399 104.87C272.419 104.87 273.349 104.63 274.189 104.15C275.049 103.65 275.729 102.94 276.229 102.02C276.729 101.08 276.979 99.98 276.979 98.72ZM286.093 84.8V107H283.363V84.8H286.093ZM292.156 87.89C291.636 87.89 291.196 87.71 290.836 87.35C290.476 86.99 290.296 86.55 290.296 86.03C290.296 85.51 290.476 85.07 290.836 84.71C291.196 84.35 291.636 84.17 292.156 84.17C292.656 84.17 293.076 84.35 293.416 84.71C293.776 85.07 293.956 85.51 293.956 86.03C293.956 86.55 293.776 86.99 293.416 87.35C293.076 87.71 292.656 87.89 292.156 87.89ZM293.476 90.56V107H290.746V90.56H293.476ZM297.108 98.75C297.108 97.05 297.448 95.57 298.128 94.31C298.808 93.03 299.748 92.04 300.948 91.34C302.168 90.64 303.558 90.29 305.118 90.29C307.138 90.29 308.798 90.78 310.098 91.76C311.418 92.74 312.288 94.1 312.708 95.84H309.768C309.488 94.84 308.938 94.05 308.118 93.47C307.318 92.89 306.318 92.6 305.118 92.6C303.558 92.6 302.298 93.14 301.338 94.22C300.378 95.28 299.898 96.79 299.898 98.75C299.898 100.73 300.378 102.26 301.338 103.34C302.298 104.42 303.558 104.96 305.118 104.96C306.318 104.96 307.318 104.68 308.118 104.12C308.918 103.56 309.468 102.76 309.768 101.72H312.708C312.268 103.4 311.388 104.75 310.068 105.77C308.748 106.77 307.098 107.27 305.118 107.27C303.558 107.27 302.168 106.92 300.948 106.22C299.748 105.52 298.808 104.53 298.128 103.25C297.448 101.97 297.108 100.47 297.108 98.75ZM332.359 90.26C334.359 90.26 335.979 90.87 337.219 92.09C338.459 93.29 339.079 95.03 339.079 97.31V107H336.379V97.7C336.379 96.06 335.969 94.81 335.149 93.95C334.329 93.07 333.209 92.63 331.789 92.63C330.349 92.63 329.199 93.08 328.339 93.98C327.499 94.88 327.079 96.19 327.079 97.91V107H324.349V90.56H327.079V92.9C327.619 92.06 328.349 91.41 329.269 90.95C330.209 90.49 331.239 90.26 332.359 90.26ZM350.709 107.27C349.169 107.27 347.769 106.92 346.509 106.22C345.269 105.52 344.289 104.53 343.569 103.25C342.869 101.95 342.519 100.45 342.519 98.75C342.519 97.07 342.879 95.59 343.599 94.31C344.339 93.01 345.339 92.02 346.599 91.34C347.859 90.64 349.269 90.29 350.829 90.29C352.389 90.29 353.799 90.64 355.059 91.34C356.319 92.02 357.309 93 358.029 94.28C358.769 95.56 359.139 97.05 359.139 98.75C359.139 100.45 358.759 101.95 357.999 103.25C357.259 104.53 356.249 105.52 354.969 106.22C353.689 106.92 352.269 107.27 350.709 107.27ZM350.709 104.87C351.689 104.87 352.609 104.64 353.469 104.18C354.329 103.72 355.019 103.03 355.539 102.11C356.079 101.19 356.349 100.07 356.349 98.75C356.349 97.43 356.089 96.31 355.569 95.39C355.049 94.47 354.369 93.79 353.529 93.35C352.689 92.89 351.779 92.66 350.799 92.66C349.799 92.66 348.879 92.89 348.039 93.35C347.219 93.79 346.559 94.47 346.059 95.39C345.559 96.31 345.309 97.43 345.309 98.75C345.309 100.09 345.549 101.22 346.029 102.14C346.529 103.06 347.189 103.75 348.009 104.21C348.829 104.65 349.729 104.87 350.709 104.87ZM384.628 90.56L379.498 107H376.678L372.718 93.95L368.758 107H365.938L360.778 90.56H363.568L367.348 104.36L371.428 90.56H374.218L378.208 104.39L381.928 90.56H384.628ZM394.315 98.72C394.315 97.04 394.655 95.57 395.335 94.31C396.015 93.03 396.945 92.04 398.125 91.34C399.325 90.64 400.655 90.29 402.115 90.29C403.555 90.29 404.805 90.6 405.865 91.22C406.925 91.84 407.715 92.62 408.235 93.56V90.56H410.995V107H408.235V103.94C407.695 104.9 406.885 105.7 405.805 106.34C404.745 106.96 403.505 107.27 402.085 107.27C400.625 107.27 399.305 106.91 398.125 106.19C396.945 105.47 396.015 104.46 395.335 103.16C394.655 101.86 394.315 100.38 394.315 98.72ZM408.235 98.75C408.235 97.51 407.985 96.43 407.485 95.51C406.985 94.59 406.305 93.89 405.445 93.41C404.605 92.91 403.675 92.66 402.655 92.66C401.635 92.66 400.705 92.9 399.865 93.38C399.025 93.86 398.355 94.56 397.855 95.48C397.355 96.4 397.105 97.48 397.105 98.72C397.105 99.98 397.355 101.08 397.855 102.02C398.355 102.94 399.025 103.65 399.865 104.15C400.705 104.63 401.635 104.87 402.655 104.87C403.675 104.87 404.605 104.63 405.445 104.15C406.305 103.65 406.985 102.94 407.485 102.02C407.985 101.08 408.235 99.99 408.235 98.75ZM423.619 90.26C425.619 90.26 427.239 90.87 428.479 92.09C429.719 93.29 430.339 95.03 430.339 97.31V107H427.639V97.7C427.639 96.06 427.229 94.81 426.409 93.95C425.589 93.07 424.469 92.63 423.049 92.63C421.609 92.63 420.459 93.08 419.599 93.98C418.759 94.88 418.339 96.19 418.339 97.91V107H415.609V90.56H418.339V92.9C418.879 92.06 419.609 91.41 420.529 90.95C421.469 90.49 422.499 90.26 423.619 90.26ZM433.778 98.72C433.778 97.04 434.118 95.57 434.798 94.31C435.478 93.03 436.408 92.04 437.588 91.34C438.788 90.64 440.128 90.29 441.608 90.29C442.888 90.29 444.078 90.59 445.178 91.19C446.278 91.77 447.118 92.54 447.698 93.5V84.8H450.458V107H447.698V103.91C447.158 104.89 446.358 105.7 445.298 106.34C444.238 106.96 442.998 107.27 441.578 107.27C440.118 107.27 438.788 106.91 437.588 106.19C436.408 105.47 435.478 104.46 434.798 103.16C434.118 101.86 433.778 100.38 433.778 98.72ZM447.698 98.75C447.698 97.51 447.448 96.43 446.948 95.51C446.448 94.59 445.768 93.89 444.908 93.41C444.068 92.91 443.138 92.66 442.118 92.66C441.098 92.66 440.168 92.9 439.328 93.38C438.488 93.86 437.818 94.56 437.318 95.48C436.818 96.4 436.568 97.48 436.568 98.72C436.568 99.98 436.818 101.08 437.318 102.02C437.818 102.94 438.488 103.65 439.328 104.15C440.168 104.63 441.098 104.87 442.118 104.87C443.138 104.87 444.068 104.63 444.908 104.15C445.768 103.65 446.448 102.94 446.948 102.02C447.448 101.08 447.698 99.99 447.698 98.75ZM477.23 90.56L467.33 114.74H464.51L467.75 106.82L461.12 90.56H464.15L469.31 103.88L474.41 90.56H477.23ZM487.144 107.27C485.604 107.27 484.204 106.92 482.944 106.22C481.704 105.52 480.724 104.53 480.004 103.25C479.304 101.95 478.954 100.45 478.954 98.75C478.954 97.07 479.314 95.59 480.034 94.31C480.774 93.01 481.774 92.02 483.034 91.34C484.294 90.64 485.704 90.29 487.264 90.29C488.824 90.29 490.234 90.64 491.494 91.34C492.754 92.02 493.744 93 494.464 94.28C495.204 95.56 495.574 97.05 495.574 98.75C495.574 100.45 495.194 101.95 494.434 103.25C493.694 104.53 492.684 105.52 491.404 106.22C490.124 106.92 488.704 107.27 487.144 107.27ZM487.144 104.87C488.124 104.87 489.044 104.64 489.904 104.18C490.764 103.72 491.454 103.03 491.974 102.11C492.514 101.19 492.784 100.07 492.784 98.75C492.784 97.43 492.524 96.31 492.004 95.39C491.484 94.47 490.804 93.79 489.964 93.35C489.124 92.89 488.214 92.66 487.234 92.66C486.234 92.66 485.314 92.89 484.474 93.35C483.654 93.79 482.994 94.47 482.494 95.39C481.994 96.31 481.744 97.43 481.744 98.75C481.744 100.09 481.984 101.22 482.464 102.14C482.964 103.06 483.624 103.75 484.444 104.21C485.264 104.65 486.164 104.87 487.144 104.87ZM513.744 90.56V107H511.014V104.57C510.494 105.41 509.764 106.07 508.824 106.55C507.904 107.01 506.884 107.24 505.764 107.24C504.484 107.24 503.334 106.98 502.314 106.46C501.294 105.92 500.484 105.12 499.884 104.06C499.304 103 499.014 101.71 499.014 100.19V90.56H501.714V99.83C501.714 101.45 502.124 102.7 502.944 103.58C503.764 104.44 504.884 104.87 506.304 104.87C507.764 104.87 508.914 104.42 509.754 103.52C510.594 102.62 511.014 101.31 511.014 99.59V90.56H513.744ZM525.331 98.75C525.331 97.05 525.671 95.57 526.351 94.31C527.031 93.03 527.971 92.04 529.171 91.34C530.391 90.64 531.781 90.29 533.341 90.29C535.361 90.29 537.021 90.78 538.321 91.76C539.641 92.74 540.511 94.1 540.931 95.84H537.991C537.711 94.84 537.161 94.05 536.341 93.47C535.541 92.89 534.541 92.6 533.341 92.6C531.781 92.6 530.521 93.14 529.561 94.22C528.601 95.28 528.121 96.79 528.121 98.75C528.121 100.73 528.601 102.26 529.561 103.34C530.521 104.42 531.781 104.96 533.341 104.96C534.541 104.96 535.541 104.68 536.341 104.12C537.141 103.56 537.691 102.76 537.991 101.72H540.931C540.491 103.4 539.611 104.75 538.291 105.77C536.971 106.77 535.321 107.27 533.341 107.27C531.781 107.27 530.391 106.92 529.171 106.22C527.971 105.52 527.031 104.53 526.351 103.25C525.671 101.97 525.331 100.47 525.331 98.75ZM543.554 98.72C543.554 97.04 543.894 95.57 544.574 94.31C545.254 93.03 546.184 92.04 547.364 91.34C548.564 90.64 549.894 90.29 551.354 90.29C552.794 90.29 554.044 90.6 555.104 91.22C556.164 91.84 556.954 92.62 557.474 93.56V90.56H560.234V107H557.474V103.94C556.934 104.9 556.124 105.7 555.044 106.34C553.984 106.96 552.744 107.27 551.324 107.27C549.864 107.27 548.544 106.91 547.364 106.19C546.184 105.47 545.254 104.46 544.574 103.16C543.894 101.86 543.554 100.38 543.554 98.72ZM557.474 98.75C557.474 97.51 557.224 96.43 556.724 95.51C556.224 94.59 555.544 93.89 554.684 93.41C553.844 92.91 552.914 92.66 551.894 92.66C550.874 92.66 549.944 92.9 549.104 93.38C548.264 93.86 547.594 94.56 547.094 95.48C546.594 96.4 546.344 97.48 546.344 98.72C546.344 99.98 546.594 101.08 547.094 102.02C547.594 102.94 548.264 103.65 549.104 104.15C549.944 104.63 550.874 104.87 551.894 104.87C552.914 104.87 553.844 104.63 554.684 104.15C555.544 103.65 556.224 102.94 556.724 102.02C557.224 101.08 557.474 99.99 557.474 98.75ZM572.857 90.26C574.857 90.26 576.477 90.87 577.717 92.09C578.957 93.29 579.577 95.03 579.577 97.31V107H576.877V97.7C576.877 96.06 576.467 94.81 575.647 93.95C574.827 93.07 573.707 92.63 572.287 92.63C570.847 92.63 569.697 93.08 568.837 93.98C567.997 94.88 567.577 96.19 567.577 97.91V107H564.847V90.56H567.577V92.9C568.117 92.06 568.847 91.41 569.767 90.95C570.707 90.49 571.737 90.26 572.857 90.26ZM584.457 86.09H587.487L584.607 92.9H582.687L584.457 86.09ZM593.929 92.81V102.5C593.929 103.3 594.099 103.87 594.439 104.21C594.779 104.53 595.369 104.69 596.209 104.69H598.219V107H595.759C594.239 107 593.099 106.65 592.339 105.95C591.579 105.25 591.199 104.1 591.199 102.5V92.81H589.069V90.56H591.199V86.42H593.929V90.56H598.219V92.81H593.929ZM18.29 143.75C18.29 142.05 18.63 140.57 19.31 139.31C19.99 138.03 20.93 137.04 22.13 136.34C23.35 135.64 24.74 135.29 26.3 135.29C28.32 135.29 29.98 135.78 31.28 136.76C32.6 137.74 33.47 139.1 33.89 140.84H30.95C30.67 139.84 30.12 139.05 29.3 138.47C28.5 137.89 27.5 137.6 26.3 137.6C24.74 137.6 23.48 138.14 22.52 139.22C21.56 140.28 21.08 141.79 21.08 143.75C21.08 145.73 21.56 147.26 22.52 148.34C23.48 149.42 24.74 149.96 26.3 149.96C27.5 149.96 28.5 149.68 29.3 149.12C30.1 148.56 30.65 147.76 30.95 146.72H33.89C33.45 148.4 32.57 149.75 31.25 150.77C29.93 151.77 28.28 152.27 26.3 152.27C24.74 152.27 23.35 151.92 22.13 151.22C20.93 150.52 19.99 149.53 19.31 148.25C18.63 146.97 18.29 145.47 18.29 143.75ZM45.6927 135.26C46.9327 135.26 48.0527 135.53 49.0527 136.07C50.0527 136.59 50.8327 137.38 51.3927 138.44C51.9727 139.5 52.2627 140.79 52.2627 142.31V152H49.5627V142.7C49.5627 141.06 49.1527 139.81 48.3327 138.95C47.5127 138.07 46.3927 137.63 44.9727 137.63C43.5327 137.63 42.3827 138.08 41.5227 138.98C40.6827 139.88 40.2627 141.19 40.2627 142.91V152H37.5327V129.8H40.2627V137.9C40.8027 137.06 41.5427 136.41 42.4827 135.95C43.4427 135.49 44.5127 135.26 45.6927 135.26ZM55.7021 143.72C55.7021 142.04 56.0421 140.57 56.7221 139.31C57.4021 138.03 58.3321 137.04 59.5121 136.34C60.7121 135.64 62.0421 135.29 63.5021 135.29C64.9421 135.29 66.1921 135.6 67.2521 136.22C68.3121 136.84 69.1021 137.62 69.6221 138.56V135.56H72.3821V152H69.6221V148.94C69.0821 149.9 68.2721 150.7 67.1921 151.34C66.1321 151.96 64.8921 152.27 63.4721 152.27C62.0121 152.27 60.6921 151.91 59.5121 151.19C58.3321 150.47 57.4021 149.46 56.7221 148.16C56.0421 146.86 55.7021 145.38 55.7021 143.72ZM69.6221 143.75C69.6221 142.51 69.3721 141.43 68.8721 140.51C68.3721 139.59 67.6921 138.89 66.8321 138.41C65.9921 137.91 65.0621 137.66 64.0421 137.66C63.0221 137.66 62.0921 137.9 61.2521 138.38C60.4121 138.86 59.7421 139.56 59.2421 140.48C58.7421 141.4 58.4921 142.48 58.4921 143.72C58.4921 144.98 58.7421 146.08 59.2421 147.02C59.7421 147.94 60.4121 148.65 61.2521 149.15C62.0921 149.63 63.0221 149.87 64.0421 149.87C65.0621 149.87 65.9921 149.63 66.8321 149.15C67.6921 148.65 68.3721 147.94 68.8721 147.02C69.3721 146.08 69.6221 144.99 69.6221 143.75ZM85.0055 135.26C87.0055 135.26 88.6255 135.87 89.8655 137.09C91.1055 138.29 91.7255 140.03 91.7255 142.31V152H89.0255V142.7C89.0255 141.06 88.6155 139.81 87.7955 138.95C86.9755 138.07 85.8555 137.63 84.4355 137.63C82.9955 137.63 81.8455 138.08 80.9855 138.98C80.1455 139.88 79.7255 141.19 79.7255 142.91V152H76.9955V135.56H79.7255V137.9C80.2655 137.06 80.9955 136.41 81.9155 135.95C82.8555 135.49 83.8855 135.26 85.0055 135.26ZM102.965 135.29C104.385 135.29 105.625 135.6 106.685 136.22C107.765 136.84 108.565 137.62 109.085 138.56V135.56H111.845V152.36C111.845 153.86 111.525 155.19 110.885 156.35C110.245 157.53 109.325 158.45 108.125 159.11C106.945 159.77 105.565 160.1 103.985 160.1C101.825 160.1 100.025 159.59 98.585 158.57C97.145 157.55 96.295 156.16 96.035 154.4H98.735C99.035 155.4 99.655 156.2 100.595 156.8C101.535 157.42 102.665 157.73 103.985 157.73C105.485 157.73 106.705 157.26 107.645 156.32C108.605 155.38 109.085 154.06 109.085 152.36V148.91C108.545 149.87 107.745 150.67 106.685 151.31C105.625 151.95 104.385 152.27 102.965 152.27C101.505 152.27 100.175 151.91 98.975 151.19C97.795 150.47 96.865 149.46 96.185 148.16C95.505 146.86 95.165 145.38 95.165 143.72C95.165 142.04 95.505 140.57 96.185 139.31C96.865 138.03 97.795 137.04 98.975 136.34C100.175 135.64 101.505 135.29 102.965 135.29ZM109.085 143.75C109.085 142.51 108.835 141.43 108.335 140.51C107.835 139.59 107.155 138.89 106.295 138.41C105.455 137.91 104.525 137.66 103.505 137.66C102.485 137.66 101.555 137.9 100.715 138.38C99.875 138.86 99.205 139.56 98.705 140.48C98.205 141.4 97.955 142.48 97.955 143.72C97.955 144.98 98.205 146.08 98.705 147.02C99.205 147.94 99.875 148.65 100.715 149.15C101.555 149.63 102.485 149.87 103.505 149.87C104.525 149.87 105.455 149.63 106.295 149.15C107.155 148.65 107.835 147.94 108.335 147.02C108.835 146.08 109.085 144.99 109.085 143.75ZM131.458 143.15C131.458 143.67 131.428 144.22 131.368 144.8H118.228C118.328 146.42 118.878 147.69 119.878 148.61C120.898 149.51 122.128 149.96 123.568 149.96C124.748 149.96 125.728 149.69 126.508 149.15C127.308 148.59 127.868 147.85 128.188 146.93H131.128C130.688 148.51 129.808 149.8 128.488 150.8C127.168 151.78 125.528 152.27 123.568 152.27C122.008 152.27 120.608 151.92 119.368 151.22C118.148 150.52 117.188 149.53 116.488 148.25C115.788 146.95 115.438 145.45 115.438 143.75C115.438 142.05 115.778 140.56 116.458 139.28C117.138 138 118.088 137.02 119.308 136.34C120.548 135.64 121.968 135.29 123.568 135.29C125.128 135.29 126.508 135.63 127.708 136.31C128.908 136.99 129.828 137.93 130.468 139.13C131.128 140.31 131.458 141.65 131.458 143.15ZM128.638 142.58C128.638 141.54 128.408 140.65 127.948 139.91C127.488 139.15 126.858 138.58 126.058 138.2C125.278 137.8 124.408 137.6 123.448 137.6C122.068 137.6 120.888 138.04 119.908 138.92C118.948 139.8 118.398 141.02 118.258 142.58H128.638ZM144.47 132.89C143.95 132.89 143.51 132.71 143.15 132.35C142.79 131.99 142.61 131.55 142.61 131.03C142.61 130.51 142.79 130.07 143.15 129.71C143.51 129.35 143.95 129.17 144.47 129.17C144.97 129.17 145.39 129.35 145.73 129.71C146.09 130.07 146.27 130.51 146.27 131.03C146.27 131.55 146.09 131.99 145.73 132.35C145.39 132.71 144.97 132.89 144.47 132.89ZM145.79 135.56V152H143.06V135.56H145.79ZM153.773 137.81V147.5C153.773 148.3 153.943 148.87 154.283 149.21C154.623 149.53 155.213 149.69 156.053 149.69H158.063V152H155.603C154.083 152 152.943 151.65 152.183 150.95C151.423 150.25 151.043 149.1 151.043 147.5V137.81H148.913V135.56H151.043V131.42H153.773V135.56H158.063V137.81H153.773ZM172.099 138.62C172.659 137.64 173.479 136.84 174.559 136.22C175.639 135.6 176.869 135.29 178.249 135.29C179.729 135.29 181.059 135.64 182.239 136.34C183.419 137.04 184.349 138.03 185.029 139.31C185.709 140.57 186.049 142.04 186.049 143.72C186.049 145.38 185.709 146.86 185.029 148.16C184.349 149.46 183.409 150.47 182.209 151.19C181.029 151.91 179.709 152.27 178.249 152.27C176.829 152.27 175.579 151.96 174.499 151.34C173.439 150.72 172.639 149.93 172.099 148.97V152H169.369V129.8H172.099V138.62ZM183.259 143.72C183.259 142.48 183.009 141.4 182.509 140.48C182.009 139.56 181.329 138.86 180.469 138.38C179.629 137.9 178.699 137.66 177.679 137.66C176.679 137.66 175.749 137.91 174.889 138.41C174.049 138.89 173.369 139.6 172.849 140.54C172.349 141.46 172.099 142.53 172.099 143.75C172.099 144.99 172.349 146.08 172.849 147.02C173.369 147.94 174.049 148.65 174.889 149.15C175.749 149.63 176.679 149.87 177.679 149.87C178.699 149.87 179.629 149.63 180.469 149.15C181.329 148.65 182.009 147.94 182.509 147.02C183.009 146.08 183.259 144.98 183.259 143.72ZM188.622 143.72C188.622 142.04 188.962 140.57 189.642 139.31C190.322 138.03 191.252 137.04 192.432 136.34C193.632 135.64 194.962 135.29 196.422 135.29C197.862 135.29 199.112 135.6 200.172 136.22C201.232 136.84 202.022 137.62 202.542 138.56V135.56H205.302V152H202.542V148.94C202.002 149.9 201.192 150.7 200.112 151.34C199.052 151.96 197.812 152.27 196.392 152.27C194.932 152.27 193.612 151.91 192.432 151.19C191.252 150.47 190.322 149.46 189.642 148.16C188.962 146.86 188.622 145.38 188.622 143.72ZM202.542 143.75C202.542 142.51 202.292 141.43 201.792 140.51C201.292 139.59 200.612 138.89 199.752 138.41C198.912 137.91 197.982 137.66 196.962 137.66C195.942 137.66 195.012 137.9 194.172 138.38C193.332 138.86 192.662 139.56 192.162 140.48C191.662 141.4 191.412 142.48 191.412 143.72C191.412 144.98 191.662 146.08 192.162 147.02C192.662 147.94 193.332 148.65 194.172 149.15C195.012 149.63 195.942 149.87 196.962 149.87C197.982 149.87 198.912 149.63 199.752 149.15C200.612 148.65 201.292 147.94 201.792 147.02C202.292 146.08 202.542 144.99 202.542 143.75ZM208.895 143.75C208.895 142.05 209.235 140.57 209.915 139.31C210.595 138.03 211.535 137.04 212.735 136.34C213.955 135.64 215.345 135.29 216.905 135.29C218.925 135.29 220.585 135.78 221.885 136.76C223.205 137.74 224.075 139.1 224.495 140.84H221.555C221.275 139.84 220.725 139.05 219.905 138.47C219.105 137.89 218.105 137.6 216.905 137.6C215.345 137.6 214.085 138.14 213.125 139.22C212.165 140.28 211.685 141.79 211.685 143.75C211.685 145.73 212.165 147.26 213.125 148.34C214.085 149.42 215.345 149.96 216.905 149.96C218.105 149.96 219.105 149.68 219.905 149.12C220.705 148.56 221.255 147.76 221.555 146.72H224.495C224.055 148.4 223.175 149.75 221.855 150.77C220.535 151.77 218.885 152.27 216.905 152.27C215.345 152.27 213.955 151.92 212.735 151.22C211.535 150.52 210.595 149.53 209.915 148.25C209.235 146.97 208.895 145.47 208.895 143.75ZM237.318 152L230.868 144.74V152H228.138V129.8H230.868V142.85L237.198 135.56H241.008L233.268 143.75L241.038 152H237.318ZM252.986 132.89C252.466 132.89 252.026 132.71 251.666 132.35C251.306 131.99 251.126 131.55 251.126 131.03C251.126 130.51 251.306 130.07 251.666 129.71C252.026 129.35 252.466 129.17 252.986 129.17C253.486 129.17 253.906 129.35 254.246 129.71C254.606 130.07 254.786 130.51 254.786 131.03C254.786 131.55 254.606 131.99 254.246 132.35C253.906 132.71 253.486 132.89 252.986 132.89ZM254.306 135.56V152H251.576V135.56H254.306ZM266.968 135.26C268.968 135.26 270.588 135.87 271.828 137.09C273.068 138.29 273.688 140.03 273.688 142.31V152H270.988V142.7C270.988 141.06 270.578 139.81 269.758 138.95C268.938 138.07 267.818 137.63 266.398 137.63C264.958 137.63 263.808 138.08 262.948 138.98C262.108 139.88 261.688 141.19 261.688 142.91V152H258.958V135.56H261.688V137.9C262.228 137.06 262.958 136.41 263.878 135.95C264.818 135.49 265.848 135.26 266.968 135.26ZM281.478 137.81V147.5C281.478 148.3 281.648 148.87 281.988 149.21C282.328 149.53 282.918 149.69 283.758 149.69H285.768V152H283.308C281.788 152 280.648 151.65 279.888 150.95C279.128 150.25 278.748 149.1 278.748 147.5V137.81H276.618V135.56H278.748V131.42H281.478V135.56H285.768V137.81H281.478ZM296.246 152.27C294.706 152.27 293.306 151.92 292.046 151.22C290.806 150.52 289.826 149.53 289.106 148.25C288.406 146.95 288.056 145.45 288.056 143.75C288.056 142.07 288.416 140.59 289.136 139.31C289.876 138.01 290.876 137.02 292.136 136.34C293.396 135.64 294.806 135.29 296.366 135.29C297.926 135.29 299.336 135.64 300.596 136.34C301.856 137.02 302.846 138 303.566 139.28C304.306 140.56 304.676 142.05 304.676 143.75C304.676 145.45 304.296 146.95 303.536 148.25C302.796 149.53 301.786 150.52 300.506 151.22C299.226 151.92 297.806 152.27 296.246 152.27ZM296.246 149.87C297.226 149.87 298.146 149.64 299.006 149.18C299.866 148.72 300.556 148.03 301.076 147.11C301.616 146.19 301.886 145.07 301.886 143.75C301.886 142.43 301.626 141.31 301.106 140.39C300.586 139.47 299.906 138.79 299.066 138.35C298.226 137.89 297.316 137.66 296.336 137.66C295.336 137.66 294.416 137.89 293.576 138.35C292.756 138.79 292.096 139.47 291.596 140.39C291.096 141.31 290.846 142.43 290.846 143.75C290.846 145.09 291.086 146.22 291.566 147.14C292.066 148.06 292.726 148.75 293.546 149.21C294.366 149.65 295.266 149.87 296.246 149.87ZM318.993 138.59C319.533 137.65 320.333 136.87 321.393 136.25C322.473 135.61 323.723 135.29 325.143 135.29C326.603 135.29 327.923 135.64 329.103 136.34C330.303 137.04 331.243 138.03 331.923 139.31C332.603 140.57 332.943 142.04 332.943 143.72C332.943 145.38 332.603 146.86 331.923 148.16C331.243 149.46 330.303 150.47 329.103 151.19C327.923 151.91 326.603 152.27 325.143 152.27C323.743 152.27 322.503 151.96 321.423 151.34C320.363 150.7 319.553 149.91 318.993 148.97V159.8H316.263V135.56H318.993V138.59ZM330.153 143.72C330.153 142.48 329.903 141.4 329.403 140.48C328.903 139.56 328.223 138.86 327.363 138.38C326.523 137.9 325.593 137.66 324.573 137.66C323.573 137.66 322.643 137.91 321.783 138.41C320.943 138.89 320.263 139.6 319.743 140.54C319.243 141.46 318.993 142.53 318.993 143.75C318.993 144.99 319.243 146.08 319.743 147.02C320.263 147.94 320.943 148.65 321.783 149.15C322.643 149.63 323.573 149.87 324.573 149.87C325.593 149.87 326.523 149.63 327.363 149.15C328.223 148.65 328.903 147.94 329.403 147.02C329.903 146.08 330.153 144.98 330.153 143.72ZM339.267 138.23C339.747 137.29 340.427 136.56 341.307 136.04C342.207 135.52 343.297 135.26 344.577 135.26V138.08H343.857C340.797 138.08 339.267 139.74 339.267 143.06V152H336.537V135.56H339.267V138.23ZM349.138 132.89C348.618 132.89 348.178 132.71 347.818 132.35C347.458 131.99 347.278 131.55 347.278 131.03C347.278 130.51 347.458 130.07 347.818 129.71C348.178 129.35 348.618 129.17 349.138 129.17C349.638 129.17 350.058 129.35 350.398 129.71C350.758 130.07 350.938 130.51 350.938 131.03C350.938 131.55 350.758 131.99 350.398 132.35C350.058 132.71 349.638 132.89 349.138 132.89ZM350.458 135.56V152H347.728V135.56H350.458ZM361.231 149.48L366.331 135.56H369.241L362.791 152H359.611L353.161 135.56H356.101L361.231 149.48ZM370.907 143.72C370.907 142.04 371.247 140.57 371.927 139.31C372.607 138.03 373.537 137.04 374.717 136.34C375.917 135.64 377.247 135.29 378.707 135.29C380.147 135.29 381.397 135.6 382.457 136.22C383.517 136.84 384.307 137.62 384.827 138.56V135.56H387.587V152H384.827V148.94C384.287 149.9 383.477 150.7 382.397 151.34C381.337 151.96 380.097 152.27 378.677 152.27C377.217 152.27 375.897 151.91 374.717 151.19C373.537 150.47 372.607 149.46 371.927 148.16C371.247 146.86 370.907 145.38 370.907 143.72ZM384.827 143.75C384.827 142.51 384.577 141.43 384.077 140.51C383.577 139.59 382.897 138.89 382.037 138.41C381.197 137.91 380.267 137.66 379.247 137.66C378.227 137.66 377.297 137.9 376.457 138.38C375.617 138.86 374.947 139.56 374.447 140.48C373.947 141.4 373.697 142.48 373.697 143.72C373.697 144.98 373.947 146.08 374.447 147.02C374.947 147.94 375.617 148.65 376.457 149.15C377.297 149.63 378.227 149.87 379.247 149.87C380.267 149.87 381.197 149.63 382.037 149.15C382.897 148.65 383.577 147.94 384.077 147.02C384.577 146.08 384.827 144.99 384.827 143.75ZM395.531 137.81V147.5C395.531 148.3 395.701 148.87 396.041 149.21C396.381 149.53 396.971 149.69 397.811 149.69H399.821V152H397.361C395.841 152 394.701 151.65 393.941 150.95C393.181 150.25 392.801 149.1 392.801 147.5V137.81H390.671V135.56H392.801V131.42H395.531V135.56H399.821V137.81H395.531ZM418.128 143.15C418.128 143.67 418.098 144.22 418.038 144.8H404.898C404.998 146.42 405.548 147.69 406.548 148.61C407.568 149.51 408.798 149.96 410.238 149.96C411.418 149.96 412.398 149.69 413.178 149.15C413.978 148.59 414.538 147.85 414.858 146.93H417.798C417.358 148.51 416.478 149.8 415.158 150.8C413.838 151.78 412.198 152.27 410.238 152.27C408.678 152.27 407.278 151.92 406.038 151.22C404.818 150.52 403.858 149.53 403.158 148.25C402.458 146.95 402.108 145.45 402.108 143.75C402.108 142.05 402.448 140.56 403.128 139.28C403.808 138 404.758 137.02 405.978 136.34C407.218 135.64 408.638 135.29 410.238 135.29C411.798 135.29 413.178 135.63 414.378 136.31C415.578 136.99 416.498 137.93 417.138 139.13C417.798 140.31 418.128 141.65 418.128 143.15ZM415.308 142.58C415.308 141.54 415.078 140.65 414.618 139.91C414.158 139.15 413.528 138.58 412.728 138.2C411.948 137.8 411.078 137.6 410.118 137.6C408.738 137.6 407.558 138.04 406.578 138.92C405.618 139.8 405.068 141.02 404.928 142.58H415.308ZM422.602 152.18C422.082 152.18 421.642 152 421.282 151.64C420.922 151.28 420.742 150.84 420.742 150.32C420.742 149.8 420.922 149.36 421.282 149C421.642 148.64 422.082 148.46 422.602 148.46C423.102 148.46 423.522 148.64 423.862 149C424.222 149.36 424.402 149.8 424.402 150.32C424.402 150.84 424.222 151.28 423.862 151.64C423.522 152 423.102 152.18 422.602 152.18ZM25.82 221.09C28.1 221.09 30.07 221.52 31.73 222.38C33.41 223.22 34.69 224.43 35.57 226.01C36.47 227.59 36.92 229.45 36.92 231.59C36.92 233.73 36.47 235.59 35.57 237.17C34.69 238.73 33.41 239.93 31.73 240.77C30.07 241.59 28.1 242 25.82 242H19.31V221.09H25.82ZM25.82 239.75C28.52 239.75 30.58 239.04 32 237.62C33.42 236.18 34.13 234.17 34.13 231.59C34.13 228.99 33.41 226.96 31.97 225.5C30.55 224.04 28.5 223.31 25.82 223.31H22.04V239.75H25.82ZM47.6909 242.27C46.1509 242.27 44.7509 241.92 43.4909 241.22C42.2509 240.52 41.2709 239.53 40.5509 238.25C39.8509 236.95 39.5009 235.45 39.5009 233.75C39.5009 232.07 39.8609 230.59 40.5809 229.31C41.3209 228.01 42.3209 227.02 43.5809 226.34C44.8409 225.64 46.2509 225.29 47.8109 225.29C49.3709 225.29 50.7809 225.64 52.0409 226.34C53.3009 227.02 54.2909 228 55.0109 229.28C55.7509 230.56 56.1209 232.05 56.1209 233.75C56.1209 235.45 55.7409 236.95 54.9809 238.25C54.2409 239.53 53.2309 240.52 51.9509 241.22C50.6709 241.92 49.2509 242.27 47.6909 242.27ZM47.6909 239.87C48.6709 239.87 49.5909 239.64 50.4509 239.18C51.3109 238.72 52.0009 238.03 52.5209 237.11C53.0609 236.19 53.3309 235.07 53.3309 233.75C53.3309 232.43 53.0709 231.31 52.5509 230.39C52.0309 229.47 51.3509 228.79 50.5109 228.35C49.6709 227.89 48.7609 227.66 47.7809 227.66C46.7809 227.66 45.8609 227.89 45.0209 228.35C44.2009 228.79 43.5409 229.47 43.0409 230.39C42.5409 231.31 42.2909 232.43 42.2909 233.75C42.2909 235.09 42.5309 236.22 43.0109 237.14C43.5109 238.06 44.1709 238.75 44.9909 239.21C45.8109 239.65 46.7109 239.87 47.6909 239.87ZM81.8684 225.56L71.9684 249.74H69.1484L72.3884 241.82L65.7584 225.56H68.7884L73.9484 238.88L79.0484 225.56H81.8684ZM91.7827 242.27C90.2427 242.27 88.8427 241.92 87.5827 241.22C86.3427 240.52 85.3627 239.53 84.6427 238.25C83.9427 236.95 83.5927 235.45 83.5927 233.75C83.5927 232.07 83.9527 230.59 84.6727 229.31C85.4127 228.01 86.4127 227.02 87.6727 226.34C88.9327 225.64 90.3427 225.29 91.9027 225.29C93.4627 225.29 94.8727 225.64 96.1327 226.34C97.3927 227.02 98.3827 228 99.1027 229.28C99.8427 230.56 100.213 232.05 100.213 233.75C100.213 235.45 99.8327 236.95 99.0727 238.25C98.3327 239.53 97.3227 240.52 96.0427 241.22C94.7627 241.92 93.3427 242.27 91.7827 242.27ZM91.7827 239.87C92.7627 239.87 93.6827 239.64 94.5427 239.18C95.4027 238.72 96.0927 238.03 96.6127 237.11C97.1527 236.19 97.4227 235.07 97.4227 233.75C97.4227 232.43 97.1627 231.31 96.6427 230.39C96.1227 229.47 95.4427 228.79 94.6027 228.35C93.7627 227.89 92.8527 227.66 91.8727 227.66C90.8727 227.66 89.9527 227.89 89.1127 228.35C88.2927 228.79 87.6327 229.47 87.1327 230.39C86.6327 231.31 86.3827 232.43 86.3827 233.75C86.3827 235.09 86.6227 236.22 87.1027 237.14C87.6027 238.06 88.2627 238.75 89.0827 239.21C89.9027 239.65 90.8027 239.87 91.7827 239.87ZM118.382 225.56V242H115.652V239.57C115.132 240.41 114.402 241.07 113.462 241.55C112.542 242.01 111.522 242.24 110.402 242.24C109.122 242.24 107.972 241.98 106.952 241.46C105.932 240.92 105.122 240.12 104.522 239.06C103.942 238 103.652 236.71 103.652 235.19V225.56H106.352V234.83C106.352 236.45 106.762 237.7 107.582 238.58C108.402 239.44 109.522 239.87 110.942 239.87C112.402 239.87 113.552 239.42 114.392 238.52C115.232 237.62 115.652 236.31 115.652 234.59V225.56H118.382ZM152.89 225.56L147.76 242H144.94L140.98 228.95L137.02 242H134.2L129.04 225.56H131.83L135.61 239.36L139.69 225.56H142.48L146.47 239.39L150.19 225.56H152.89ZM154.579 233.72C154.579 232.04 154.919 230.57 155.599 229.31C156.279 228.03 157.209 227.04 158.389 226.34C159.589 225.64 160.919 225.29 162.379 225.29C163.819 225.29 165.069 225.6 166.129 226.22C167.189 226.84 167.979 227.62 168.499 228.56V225.56H171.259V242H168.499V238.94C167.959 239.9 167.149 240.7 166.069 241.34C165.009 241.96 163.769 242.27 162.349 242.27C160.889 242.27 159.569 241.91 158.389 241.19C157.209 240.47 156.279 239.46 155.599 238.16C154.919 236.86 154.579 235.38 154.579 233.72ZM168.499 233.75C168.499 232.51 168.249 231.43 167.749 230.51C167.249 229.59 166.569 228.89 165.709 228.41C164.869 227.91 163.939 227.66 162.919 227.66C161.899 227.66 160.969 227.9 160.129 228.38C159.289 228.86 158.619 229.56 158.119 230.48C157.619 231.4 157.369 232.48 157.369 233.72C157.369 234.98 157.619 236.08 158.119 237.02C158.619 237.94 159.289 238.65 160.129 239.15C160.969 239.63 161.899 239.87 162.919 239.87C163.939 239.87 164.869 239.63 165.709 239.15C166.569 238.65 167.249 237.94 167.749 237.02C168.249 236.08 168.499 234.99 168.499 233.75ZM183.883 225.26C185.883 225.26 187.503 225.87 188.743 227.09C189.983 228.29 190.603 230.03 190.603 232.31V242H187.903V232.7C187.903 231.06 187.493 229.81 186.673 228.95C185.853 228.07 184.733 227.63 183.313 227.63C181.873 227.63 180.723 228.08 179.863 228.98C179.023 229.88 178.603 231.19 178.603 232.91V242H175.873V225.56H178.603V227.9C179.143 227.06 179.873 226.41 180.793 225.95C181.733 225.49 182.763 225.26 183.883 225.26ZM198.392 227.81V237.5C198.392 238.3 198.562 238.87 198.902 239.21C199.242 239.53 199.832 239.69 200.672 239.69H202.682V242H200.222C198.702 242 197.562 241.65 196.802 240.95C196.042 240.25 195.662 239.1 195.662 237.5V227.81H193.532V225.56H195.662V221.42H198.392V225.56H202.682V227.81H198.392ZM217.318 227.81V237.5C217.318 238.3 217.488 238.87 217.828 239.21C218.168 239.53 218.758 239.69 219.598 239.69H221.608V242H219.148C217.628 242 216.488 241.65 215.728 240.95C214.968 240.25 214.588 239.1 214.588 237.5V227.81H212.458V225.56H214.588V221.42H217.318V225.56H221.608V227.81H217.318ZM232.085 242.27C230.545 242.27 229.145 241.92 227.885 241.22C226.645 240.52 225.665 239.53 224.945 238.25C224.245 236.95 223.895 235.45 223.895 233.75C223.895 232.07 224.255 230.59 224.975 229.31C225.715 228.01 226.715 227.02 227.975 226.34C229.235 225.64 230.645 225.29 232.205 225.29C233.765 225.29 235.175 225.64 236.435 226.34C237.695 227.02 238.685 228 239.405 229.28C240.145 230.56 240.515 232.05 240.515 233.75C240.515 235.45 240.135 236.95 239.375 238.25C238.635 239.53 237.625 240.52 236.345 241.22C235.065 241.92 233.645 242.27 232.085 242.27ZM232.085 239.87C233.065 239.87 233.985 239.64 234.845 239.18C235.705 238.72 236.395 238.03 236.915 237.11C237.455 236.19 237.725 235.07 237.725 233.75C237.725 232.43 237.465 231.31 236.945 230.39C236.425 229.47 235.745 228.79 234.905 228.35C234.065 227.89 233.155 227.66 232.175 227.66C231.175 227.66 230.255 227.89 229.415 228.35C228.595 228.79 227.935 229.47 227.435 230.39C226.935 231.31 226.685 232.43 226.685 233.75C226.685 235.09 226.925 236.22 227.405 237.14C227.905 238.06 228.565 238.75 229.385 239.21C230.205 239.65 231.105 239.87 232.085 239.87ZM261.283 242L254.833 234.74V242H252.103V219.8H254.833V232.85L261.163 225.56H264.973L257.233 233.75L265.003 242H261.283ZM282.542 233.15C282.542 233.67 282.512 234.22 282.452 234.8H269.312C269.412 236.42 269.962 237.69 270.962 238.61C271.982 239.51 273.212 239.96 274.652 239.96C275.832 239.96 276.812 239.69 277.592 239.15C278.392 238.59 278.952 237.85 279.272 236.93H282.212C281.772 238.51 280.892 239.8 279.572 240.8C278.252 241.78 276.612 242.27 274.652 242.27C273.092 242.27 271.692 241.92 270.452 241.22C269.232 240.52 268.272 239.53 267.572 238.25C266.872 236.95 266.522 235.45 266.522 233.75C266.522 232.05 266.862 230.56 267.542 229.28C268.222 228 269.172 227.02 270.392 226.34C271.632 225.64 273.052 225.29 274.652 225.29C276.212 225.29 277.592 225.63 278.792 226.31C279.992 226.99 280.912 227.93 281.552 229.13C282.212 230.31 282.542 231.65 282.542 233.15ZM279.722 232.58C279.722 231.54 279.492 230.65 279.032 229.91C278.572 229.15 277.942 228.58 277.142 228.2C276.362 227.8 275.492 227.6 274.532 227.6C273.152 227.6 271.972 228.04 270.992 228.92C270.032 229.8 269.482 231.02 269.342 232.58H279.722ZM301.146 233.15C301.146 233.67 301.116 234.22 301.056 234.8H287.916C288.016 236.42 288.566 237.69 289.566 238.61C290.586 239.51 291.816 239.96 293.256 239.96C294.436 239.96 295.416 239.69 296.196 239.15C296.996 238.59 297.556 237.85 297.876 236.93H300.816C300.376 238.51 299.496 239.8 298.176 240.8C296.856 241.78 295.216 242.27 293.256 242.27C291.696 242.27 290.296 241.92 289.056 241.22C287.836 240.52 286.876 239.53 286.176 238.25C285.476 236.95 285.126 235.45 285.126 233.75C285.126 232.05 285.466 230.56 286.146 229.28C286.826 228 287.776 227.02 288.996 226.34C290.236 225.64 291.656 225.29 293.256 225.29C294.816 225.29 296.196 225.63 297.396 226.31C298.596 226.99 299.516 227.93 300.156 229.13C300.816 230.31 301.146 231.65 301.146 233.15ZM298.326 232.58C298.326 231.54 298.096 230.65 297.636 229.91C297.176 229.15 296.546 228.58 295.746 228.2C294.966 227.8 294.096 227.6 293.136 227.6C291.756 227.6 290.576 228.04 289.596 228.92C288.636 229.8 288.086 231.02 287.946 232.58H298.326ZM307.479 228.59C308.019 227.65 308.819 226.87 309.879 226.25C310.959 225.61 312.209 225.29 313.629 225.29C315.089 225.29 316.409 225.64 317.589 226.34C318.789 227.04 319.729 228.03 320.409 229.31C321.089 230.57 321.429 232.04 321.429 233.72C321.429 235.38 321.089 236.86 320.409 238.16C319.729 239.46 318.789 240.47 317.589 241.19C316.409 241.91 315.089 242.27 313.629 242.27C312.229 242.27 310.989 241.96 309.909 241.34C308.849 240.7 308.039 239.91 307.479 238.97V249.8H304.749V225.56H307.479V228.59ZM318.639 233.72C318.639 232.48 318.389 231.4 317.889 230.48C317.389 229.56 316.709 228.86 315.849 228.38C315.009 227.9 314.079 227.66 313.059 227.66C312.059 227.66 311.129 227.91 310.269 228.41C309.429 228.89 308.749 229.6 308.229 230.54C307.729 231.46 307.479 232.53 307.479 233.75C307.479 234.99 307.729 236.08 308.229 237.02C308.749 237.94 309.429 238.65 310.269 239.15C311.129 239.63 312.059 239.87 313.059 239.87C314.079 239.87 315.009 239.63 315.849 239.15C316.709 238.65 317.389 237.94 317.889 237.02C318.389 236.08 318.639 234.98 318.639 233.72ZM347.181 225.56L337.281 249.74H334.461L337.701 241.82L331.071 225.56H334.101L339.261 238.88L344.361 225.56H347.181ZM357.095 242.27C355.555 242.27 354.155 241.92 352.895 241.22C351.655 240.52 350.675 239.53 349.955 238.25C349.255 236.95 348.905 235.45 348.905 233.75C348.905 232.07 349.265 230.59 349.985 229.31C350.725 228.01 351.725 227.02 352.985 226.34C354.245 225.64 355.655 225.29 357.215 225.29C358.775 225.29 360.185 225.64 361.445 226.34C362.705 227.02 363.695 228 364.415 229.28C365.155 230.56 365.525 232.05 365.525 233.75C365.525 235.45 365.145 236.95 364.385 238.25C363.645 239.53 362.635 240.52 361.355 241.22C360.075 241.92 358.655 242.27 357.095 242.27ZM357.095 239.87C358.075 239.87 358.995 239.64 359.855 239.18C360.715 238.72 361.405 238.03 361.925 237.11C362.465 236.19 362.735 235.07 362.735 233.75C362.735 232.43 362.475 231.31 361.955 230.39C361.435 229.47 360.755 228.79 359.915 228.35C359.075 227.89 358.165 227.66 357.185 227.66C356.185 227.66 355.265 227.89 354.425 228.35C353.605 228.79 352.945 229.47 352.445 230.39C351.945 231.31 351.695 232.43 351.695 233.75C351.695 235.09 351.935 236.22 352.415 237.14C352.915 238.06 353.575 238.75 354.395 239.21C355.215 239.65 356.115 239.87 357.095 239.87ZM383.695 225.56V242H380.965V239.57C380.445 240.41 379.715 241.07 378.775 241.55C377.855 242.01 376.835 242.24 375.715 242.24C374.435 242.24 373.285 241.98 372.265 241.46C371.245 240.92 370.435 240.12 369.835 239.06C369.255 238 368.965 236.71 368.965 235.19V225.56H371.665V234.83C371.665 236.45 372.075 237.7 372.895 238.58C373.715 239.44 374.835 239.87 376.255 239.87C377.715 239.87 378.865 239.42 379.705 238.52C380.545 237.62 380.965 236.31 380.965 234.59V225.56H383.695ZM391.034 228.23C391.514 227.29 392.194 226.56 393.074 226.04C393.974 225.52 395.064 225.26 396.344 225.26V228.08H395.624C392.564 228.08 391.034 229.74 391.034 233.06V242H388.304V225.56H391.034V228.23ZM413.314 242.27C412.054 242.27 410.924 242.06 409.924 241.64C408.924 241.2 408.134 240.6 407.554 239.84C406.974 239.06 406.654 238.17 406.594 237.17H409.414C409.494 237.99 409.874 238.66 410.554 239.18C411.254 239.7 412.164 239.96 413.284 239.96C414.324 239.96 415.144 239.73 415.744 239.27C416.344 238.81 416.644 238.23 416.644 237.53C416.644 236.81 416.324 236.28 415.684 235.94C415.044 235.58 414.054 235.23 412.714 234.89C411.494 234.57 410.494 234.25 409.714 233.93C408.954 233.59 408.294 233.1 407.734 232.46C407.194 231.8 406.924 230.94 406.924 229.88C406.924 229.04 407.174 228.27 407.674 227.57C408.174 226.87 408.884 226.32 409.804 225.92C410.724 225.5 411.774 225.29 412.954 225.29C414.774 225.29 416.244 225.75 417.364 226.67C418.484 227.59 419.084 228.85 419.164 230.45H416.434C416.374 229.59 416.024 228.9 415.384 228.38C414.764 227.86 413.924 227.6 412.864 227.6C411.884 227.6 411.104 227.81 410.524 228.23C409.944 228.65 409.654 229.2 409.654 229.88C409.654 230.42 409.824 230.87 410.164 231.23C410.524 231.57 410.964 231.85 411.484 232.07C412.024 232.27 412.764 232.5 413.704 232.76C414.884 233.08 415.844 233.4 416.584 233.72C417.324 234.02 417.954 234.48 418.474 235.1C419.014 235.72 419.294 236.53 419.314 237.53C419.314 238.43 419.064 239.24 418.564 239.96C418.064 240.68 417.354 241.25 416.434 241.67C415.534 242.07 414.494 242.27 413.314 242.27ZM424.577 222.89C424.057 222.89 423.617 222.71 423.257 222.35C422.897 221.99 422.717 221.55 422.717 221.03C422.717 220.51 422.897 220.07 423.257 219.71C423.617 219.35 424.057 219.17 424.577 219.17C425.077 219.17 425.497 219.35 425.837 219.71C426.197 220.07 426.377 220.51 426.377 221.03C426.377 221.55 426.197 221.99 425.837 222.35C425.497 222.71 425.077 222.89 424.577 222.89ZM425.897 225.56V242H423.167V225.56H425.897ZM437.33 225.29C438.75 225.29 439.99 225.6 441.05 226.22C442.13 226.84 442.93 227.62 443.45 228.56V225.56H446.21V242.36C446.21 243.86 445.89 245.19 445.25 246.35C444.61 247.53 443.69 248.45 442.49 249.11C441.31 249.77 439.93 250.1 438.35 250.1C436.19 250.1 434.39 249.59 432.95 248.57C431.51 247.55 430.66 246.16 430.4 244.4H433.1C433.4 245.4 434.02 246.2 434.96 246.8C435.9 247.42 437.03 247.73 438.35 247.73C439.85 247.73 441.07 247.26 442.01 246.32C442.97 245.38 443.45 244.06 443.45 242.36V238.91C442.91 239.87 442.11 240.67 441.05 241.31C439.99 241.95 438.75 242.27 437.33 242.27C435.87 242.27 434.54 241.91 433.34 241.19C432.16 240.47 431.23 239.46 430.55 238.16C429.87 236.86 429.53 235.38 429.53 233.72C429.53 232.04 429.87 230.57 430.55 229.31C431.23 228.03 432.16 227.04 433.34 226.34C434.54 225.64 435.87 225.29 437.33 225.29ZM443.45 233.75C443.45 232.51 443.2 231.43 442.7 230.51C442.2 229.59 441.52 228.89 440.66 228.41C439.82 227.91 438.89 227.66 437.87 227.66C436.85 227.66 435.92 227.9 435.08 228.38C434.24 228.86 433.57 229.56 433.07 230.48C432.57 231.4 432.32 232.48 432.32 233.72C432.32 234.98 432.57 236.08 433.07 237.02C433.57 237.94 434.24 238.65 435.08 239.15C435.92 239.63 436.85 239.87 437.87 239.87C438.89 239.87 439.82 239.63 440.66 239.15C441.52 238.65 442.2 237.94 442.7 237.02C443.2 236.08 443.45 234.99 443.45 233.75ZM458.834 225.26C460.834 225.26 462.454 225.87 463.694 227.09C464.934 228.29 465.554 230.03 465.554 232.31V242H462.854V232.7C462.854 231.06 462.444 229.81 461.624 228.95C460.804 228.07 459.684 227.63 458.264 227.63C456.824 227.63 455.674 228.08 454.814 228.98C453.974 229.88 453.554 231.19 453.554 232.91V242H450.824V225.56H453.554V227.9C454.094 227.06 454.824 226.41 455.744 225.95C456.684 225.49 457.714 225.26 458.834 225.26ZM468.993 233.72C468.993 232.04 469.333 230.57 470.013 229.31C470.693 228.03 471.623 227.04 472.803 226.34C474.003 225.64 475.333 225.29 476.793 225.29C478.233 225.29 479.483 225.6 480.543 226.22C481.603 226.84 482.393 227.62 482.913 228.56V225.56H485.673V242H482.913V238.94C482.373 239.9 481.563 240.7 480.483 241.34C479.423 241.96 478.183 242.27 476.763 242.27C475.303 242.27 473.983 241.91 472.803 241.19C471.623 240.47 470.693 239.46 470.013 238.16C469.333 236.86 468.993 235.38 468.993 233.72ZM482.913 233.75C482.913 232.51 482.663 231.43 482.163 230.51C481.663 229.59 480.983 228.89 480.123 228.41C479.283 227.91 478.353 227.66 477.333 227.66C476.313 227.66 475.383 227.9 474.543 228.38C473.703 228.86 473.033 229.56 472.533 230.48C472.033 231.4 471.783 232.48 471.783 233.72C471.783 234.98 472.033 236.08 472.533 237.02C473.033 237.94 473.703 238.65 474.543 239.15C475.383 239.63 476.313 239.87 477.333 239.87C478.353 239.87 479.283 239.63 480.123 239.15C480.983 238.65 481.663 237.94 482.163 237.02C482.663 236.08 482.913 234.99 482.913 233.75ZM493.017 219.8V242H490.287V219.8H493.017ZM503.009 220.82C504.989 220.82 506.589 221.38 507.809 222.5C509.029 223.62 509.639 225.12 509.639 227C509.639 229.1 508.989 230.66 507.689 231.68C506.389 232.68 504.629 233.18 502.409 233.18L502.319 236.03H499.949L499.829 231.29H500.699C502.679 231.29 504.229 230.99 505.349 230.39C506.469 229.79 507.029 228.66 507.029 227C507.029 225.8 506.669 224.85 505.949 224.15C505.229 223.45 504.259 223.1 503.039 223.1C501.799 223.1 500.819 223.44 500.099 224.12C499.399 224.78 499.049 225.69 499.049 226.85H496.469C496.469 225.65 496.739 224.6 497.279 223.7C497.819 222.78 498.579 222.07 499.559 221.57C500.559 221.07 501.709 220.82 503.009 220.82ZM501.119 242.18C500.599 242.18 500.159 242 499.799 241.64C499.439 241.28 499.259 240.84 499.259 240.32C499.259 239.8 499.439 239.36 499.799 239C500.159 238.64 500.599 238.46 501.119 238.46C501.619 238.46 502.039 238.64 502.379 239C502.739 239.36 502.919 239.8 502.919 240.32C502.919 240.84 502.739 241.28 502.379 241.64C502.039 242 501.619 242.18 501.119 242.18Z" fill="black"/>
<path d="M30.79 43.245C28.48 43.245 26.3567 42.7083 24.42 41.635C22.4833 40.5383 20.9433 39.0333 19.8 37.12C18.68 35.1833 18.12 33.0017 18.12 30.575C18.12 28.1483 18.68 25.9783 19.8 24.065C20.9433 22.1283 22.4833 20.6233 24.42 19.55C26.3567 18.4767 28.48 17.94 30.79 17.94C33.1233 17.94 35.2467 18.4767 37.16 19.55C39.0967 20.6233 40.625 22.1283 41.745 24.065C42.865 25.9783 43.425 28.1483 43.425 30.575C43.425 33.0017 42.865 35.1833 41.745 37.12C40.625 39.0333 39.0967 40.5383 37.16 41.635C35.2233 42.7083 33.1 43.245 30.79 43.245ZM30.79 36.875C32.54 36.875 33.9167 36.3033 34.92 35.16C35.9467 34.0167 36.46 32.4883 36.46 30.575C36.46 28.615 35.9467 27.075 34.92 25.955C33.9167 24.8117 32.54 24.24 30.79 24.24C29.0167 24.24 27.6283 24.8117 26.625 25.955C25.6217 27.075 25.12 28.615 25.12 30.575C25.12 32.5117 25.6217 34.0517 26.625 35.195C27.6283 36.315 29.0167 36.875 30.79 36.875ZM58.3388 43.245C56.0288 43.245 53.9055 42.7083 51.9688 41.635C50.0322 40.5383 48.4922 39.0333 47.3488 37.12C46.2288 35.1833 45.6688 33.0017 45.6688 30.575C45.6688 28.1483 46.2288 25.9783 47.3488 24.065C48.4922 22.1283 50.0322 20.6233 51.9688 19.55C53.9055 18.4767 56.0288 17.94 58.3388 17.94C60.6722 17.94 62.7955 18.4767 64.7088 19.55C66.6455 20.6233 68.1738 22.1283 69.2938 24.065C70.4138 25.9783 70.9738 28.1483 70.9738 30.575C70.9738 33.0017 70.4138 35.1833 69.2938 37.12C68.1738 39.0333 66.6455 40.5383 64.7088 41.635C62.7722 42.7083 60.6488 43.245 58.3388 43.245ZM58.3388 36.875C60.0888 36.875 61.4655 36.3033 62.4688 35.16C63.4955 34.0167 64.0088 32.4883 64.0088 30.575C64.0088 28.615 63.4955 27.075 62.4688 25.955C61.4655 24.8117 60.0888 24.24 58.3388 24.24C56.5655 24.24 55.1772 24.8117 54.1738 25.955C53.1705 27.075 52.6688 28.615 52.6688 30.575C52.6688 32.5117 53.1705 34.0517 54.1738 35.195C55.1772 36.315 56.5655 36.875 58.3388 36.875ZM93.5527 26.55C93.5527 28.0433 93.2027 29.4083 92.5027 30.645C91.826 31.8583 90.7877 32.8383 89.3877 33.585C88.011 34.3083 86.3193 34.67 84.3127 34.67H80.9177V43H74.0577V18.325H84.3127C86.296 18.325 87.976 18.675 89.3527 19.375C90.7527 20.075 91.8027 21.0433 92.5027 22.28C93.2027 23.5167 93.5527 24.94 93.5527 26.55ZM83.6477 29.21C85.5843 29.21 86.5527 28.3233 86.5527 26.55C86.5527 24.7533 85.5843 23.855 83.6477 23.855H80.9177V29.21H83.6477ZM105.619 43.245C102.749 43.245 100.392 42.5683 98.5486 41.215C96.7053 39.8383 95.7136 37.8783 95.5736 35.335H102.889C102.959 36.1983 103.215 36.8283 103.659 37.225C104.102 37.6217 104.674 37.82 105.374 37.82C106.004 37.82 106.517 37.6683 106.914 37.365C107.334 37.0383 107.544 36.595 107.544 36.035C107.544 35.3117 107.205 34.7517 106.529 34.355C105.852 33.9583 104.755 33.515 103.239 33.025C101.629 32.4883 100.322 31.975 99.3186 31.485C98.3386 30.9717 97.4753 30.2367 96.7286 29.28C96.0053 28.3 95.6436 27.0283 95.6436 25.465C95.6436 23.8783 96.0403 22.525 96.8336 21.405C97.627 20.2617 98.7236 19.3983 100.124 18.815C101.524 18.2317 103.11 17.94 104.884 17.94C107.754 17.94 110.04 18.6167 111.744 19.97C113.47 21.3 114.392 23.1783 114.509 25.605H107.054C107.03 24.8583 106.797 24.2983 106.354 23.925C105.934 23.5517 105.385 23.365 104.709 23.365C104.195 23.365 103.775 23.5167 103.449 23.82C103.122 24.1233 102.959 24.555 102.959 25.115C102.959 25.5817 103.134 25.99 103.484 26.34C103.857 26.6667 104.312 26.9583 104.849 27.215C105.385 27.4483 106.179 27.7517 107.229 28.125C108.792 28.6617 110.075 29.1983 111.079 29.735C112.105 30.2483 112.98 30.9833 113.704 31.94C114.45 32.8733 114.824 34.0633 114.824 35.51C114.824 36.98 114.45 38.2983 113.704 39.465C112.98 40.6317 111.919 41.5533 110.519 42.23C109.142 42.9067 107.509 43.245 105.619 43.245ZM127.183 17.065L126.378 33.76H120.533L119.728 17.065H127.183ZM123.473 43.28C122.259 43.28 121.279 42.9533 120.533 42.3C119.809 41.6233 119.448 40.7717 119.448 39.745C119.448 38.7183 119.809 37.8667 120.533 37.19C121.279 36.5133 122.259 36.175 123.473 36.175C124.663 36.175 125.619 36.5133 126.343 37.19C127.089 37.8667 127.463 38.7183 127.463 39.745C127.463 40.7483 127.089 41.5883 126.343 42.265C125.619 42.9417 124.663 43.28 123.473 43.28Z" fill="#F10A0A"/>
</g>
<defs>
<clipPath id="clip0_611_2079">
<rect width="647" height="349" rx="10" fill="white"/>
</clipPath>
</defs>
</svg>
