<svg width="647" height="266" viewBox="0 0 647 266" fill="none" xmlns="http://www.w3.org/2000/svg">
<g clip-path="url(#clip0_588_2233)">
<rect width="647" height="266" rx="10" fill="white"/>
<path d="M0 15C0 6.71573 6.71573 0 15 0H632C640.284 0 647 6.71573 647 15V364C647 372.284 640.284 379 632 379H15C6.71574 379 0 372.284 0 364V15Z" fill="white"/>
<line x1="1.35196e-08" y1="67.747" x2="647" y2="67.747" stroke="#CCCCCC" stroke-width="0.3"/>
<path d="M21.98 86.09V99.32C21.98 101.18 22.43 102.56 23.33 103.46C24.25 104.36 25.52 104.81 27.14 104.81C28.74 104.81 29.99 104.36 30.89 103.46C31.81 102.56 32.27 101.18 32.27 99.32V86.09H35V99.29C35 101.03 34.65 102.5 33.95 103.7C33.25 104.88 32.3 105.76 31.1 106.34C29.92 106.92 28.59 107.21 27.11 107.21C25.63 107.21 24.29 106.92 23.09 106.34C21.91 105.76 20.97 104.88 20.27 103.7C19.59 102.5 19.25 101.03 19.25 99.29V86.09H21.98ZM47.5641 90.26C49.5641 90.26 51.1841 90.87 52.4241 92.09C53.6641 93.29 54.2841 95.03 54.2841 97.31V107H51.5841V97.7C51.5841 96.06 51.1741 94.81 50.3541 93.95C49.5341 93.07 48.4141 92.63 46.9941 92.63C45.5541 92.63 44.4041 93.08 43.5441 93.98C42.7041 94.88 42.2841 96.19 42.2841 97.91V107H39.5541V90.56H42.2841V92.9C42.8241 92.06 43.5541 91.41 44.4741 90.95C45.4141 90.49 46.4441 90.26 47.5641 90.26ZM65.4336 92.81H61.9836V107H59.2536V92.81H57.1236V90.56H59.2536V89.39C59.2536 87.55 59.7236 86.21 60.6636 85.37C61.6236 84.51 63.1536 84.08 65.2536 84.08V86.36C64.0536 86.36 63.2036 86.6 62.7036 87.08C62.2236 87.54 61.9836 88.31 61.9836 89.39V90.56H65.4336V92.81ZM75.7866 107.27C74.2466 107.27 72.8466 106.92 71.5866 106.22C70.3466 105.52 69.3666 104.53 68.6466 103.25C67.9466 101.95 67.5966 100.45 67.5966 98.75C67.5966 97.07 67.9566 95.59 68.6766 94.31C69.4166 93.01 70.4166 92.02 71.6766 91.34C72.9366 90.64 74.3466 90.29 75.9066 90.29C77.4666 90.29 78.8766 90.64 80.1366 91.34C81.3966 92.02 82.3866 93 83.1066 94.28C83.8466 95.56 84.2166 97.05 84.2166 98.75C84.2166 100.45 83.8366 101.95 83.0766 103.25C82.3366 104.53 81.3266 105.52 80.0466 106.22C78.7666 106.92 77.3466 107.27 75.7866 107.27ZM75.7866 104.87C76.7666 104.87 77.6866 104.64 78.5466 104.18C79.4066 103.72 80.0966 103.03 80.6166 102.11C81.1566 101.19 81.4266 100.07 81.4266 98.75C81.4266 97.43 81.1666 96.31 80.6466 95.39C80.1266 94.47 79.4466 93.79 78.6066 93.35C77.7666 92.89 76.8566 92.66 75.8766 92.66C74.8766 92.66 73.9566 92.89 73.1166 93.35C72.2966 93.79 71.6366 94.47 71.1366 95.39C70.6366 96.31 70.3866 97.43 70.3866 98.75C70.3866 100.09 70.6266 101.22 71.1066 102.14C71.6066 103.06 72.2666 103.75 73.0866 104.21C73.9066 104.65 74.8066 104.87 75.7866 104.87ZM90.5361 93.23C91.0161 92.29 91.6961 91.56 92.5761 91.04C93.4761 90.52 94.5661 90.26 95.8461 90.26V93.08H95.1261C92.0661 93.08 90.5361 94.74 90.5361 98.06V107H87.8061V90.56H90.5361V93.23ZM102.328 92.81V102.5C102.328 103.3 102.498 103.87 102.838 104.21C103.178 104.53 103.768 104.69 104.607 104.69H106.618V107H104.158C102.638 107 101.498 106.65 100.738 105.95C99.9775 105.25 99.5975 104.1 99.5975 102.5V92.81H97.4675V90.56H99.5975V86.42H102.328V90.56H106.618V92.81H102.328ZM124.505 90.56V107H121.775V104.57C121.255 105.41 120.525 106.07 119.585 106.55C118.665 107.01 117.645 107.24 116.525 107.24C115.245 107.24 114.095 106.98 113.075 106.46C112.055 105.92 111.245 105.12 110.645 104.06C110.065 103 109.775 101.71 109.775 100.19V90.56H112.475V99.83C112.475 101.45 112.885 102.7 113.705 103.58C114.525 104.44 115.645 104.87 117.065 104.87C118.525 104.87 119.675 104.42 120.515 103.52C121.355 102.62 121.775 101.31 121.775 99.59V90.56H124.505ZM137.125 90.26C139.125 90.26 140.745 90.87 141.985 92.09C143.225 93.29 143.845 95.03 143.845 97.31V107H141.145V97.7C141.145 96.06 140.735 94.81 139.915 93.95C139.095 93.07 137.975 92.63 136.555 92.63C135.115 92.63 133.965 93.08 133.105 93.98C132.265 94.88 131.845 96.19 131.845 97.91V107H129.115V90.56H131.845V92.9C132.385 92.06 133.115 91.41 134.035 90.95C134.975 90.49 136.005 90.26 137.125 90.26ZM147.284 98.72C147.284 97.04 147.624 95.57 148.304 94.31C148.984 93.03 149.914 92.04 151.094 91.34C152.294 90.64 153.624 90.29 155.084 90.29C156.524 90.29 157.774 90.6 158.834 91.22C159.894 91.84 160.684 92.62 161.204 93.56V90.56H163.964V107H161.204V103.94C160.664 104.9 159.854 105.7 158.774 106.34C157.714 106.96 156.474 107.27 155.054 107.27C153.594 107.27 152.274 106.91 151.094 106.19C149.914 105.47 148.984 104.46 148.304 103.16C147.624 101.86 147.284 100.38 147.284 98.72ZM161.204 98.75C161.204 97.51 160.954 96.43 160.454 95.51C159.954 94.59 159.274 93.89 158.414 93.41C157.574 92.91 156.644 92.66 155.624 92.66C154.604 92.66 153.674 92.9 152.834 93.38C151.994 93.86 151.324 94.56 150.824 95.48C150.324 96.4 150.074 97.48 150.074 98.72C150.074 99.98 150.324 101.08 150.824 102.02C151.324 102.94 151.994 103.65 152.834 104.15C153.674 104.63 154.604 104.87 155.624 104.87C156.644 104.87 157.574 104.63 158.414 104.15C159.274 103.65 159.954 102.94 160.454 102.02C160.954 101.08 161.204 99.99 161.204 98.75ZM171.908 92.81V102.5C171.908 103.3 172.078 103.87 172.418 104.21C172.758 104.53 173.348 104.69 174.188 104.69H176.198V107H173.738C172.218 107 171.078 106.65 170.318 105.95C169.558 105.25 169.178 104.1 169.178 102.5V92.81H167.048V90.56H169.178V86.42H171.908V90.56H176.198V92.81H171.908ZM194.505 98.15C194.505 98.67 194.475 99.22 194.415 99.8H181.275C181.375 101.42 181.925 102.69 182.925 103.61C183.945 104.51 185.175 104.96 186.615 104.96C187.795 104.96 188.775 104.69 189.555 104.15C190.355 103.59 190.915 102.85 191.235 101.93H194.175C193.735 103.51 192.855 104.8 191.535 105.8C190.215 106.78 188.575 107.27 186.615 107.27C185.055 107.27 183.655 106.92 182.415 106.22C181.195 105.52 180.235 104.53 179.535 103.25C178.835 101.95 178.485 100.45 178.485 98.75C178.485 97.05 178.825 95.56 179.505 94.28C180.185 93 181.135 92.02 182.355 91.34C183.595 90.64 185.015 90.29 186.615 90.29C188.175 90.29 189.555 90.63 190.755 91.31C191.955 91.99 192.875 92.93 193.515 94.13C194.175 95.31 194.505 96.65 194.505 98.15ZM191.685 97.58C191.685 96.54 191.455 95.65 190.995 94.91C190.535 94.15 189.905 93.58 189.105 93.2C188.325 92.8 187.455 92.6 186.495 92.6C185.115 92.6 183.935 93.04 182.955 93.92C181.995 94.8 181.445 96.02 181.305 97.58H191.685ZM200.839 84.8V107H198.109V84.8H200.839ZM219.652 90.56L209.752 114.74H206.932L210.172 106.82L203.542 90.56H206.572L211.732 103.88L216.832 90.56H219.652ZM225.216 103.22L221.856 111.29H220.026L222.216 103.22H225.216ZM239.671 92.81V102.5C239.671 103.3 239.841 103.87 240.181 104.21C240.521 104.53 241.111 104.69 241.951 104.69H243.961V107H241.501C239.981 107 238.841 106.65 238.081 105.95C237.321 105.25 236.941 104.1 236.941 102.5V92.81H234.811V90.56H236.941V86.42H239.671V90.56H243.961V92.81H239.671ZM255.429 90.26C256.669 90.26 257.789 90.53 258.789 91.07C259.789 91.59 260.569 92.38 261.129 93.44C261.709 94.5 261.999 95.79 261.999 97.31V107H259.299V97.7C259.299 96.06 258.889 94.81 258.069 93.95C257.249 93.07 256.129 92.63 254.709 92.63C253.269 92.63 252.119 93.08 251.259 93.98C250.419 94.88 249.999 96.19 249.999 97.91V107H247.269V84.8H249.999V92.9C250.539 92.06 251.279 91.41 252.219 90.95C253.179 90.49 254.249 90.26 255.429 90.26ZM267.868 87.89C267.348 87.89 266.908 87.71 266.548 87.35C266.188 86.99 266.008 86.55 266.008 86.03C266.008 85.51 266.188 85.07 266.548 84.71C266.908 84.35 267.348 84.17 267.868 84.17C268.368 84.17 268.788 84.35 269.128 84.71C269.488 85.07 269.668 85.51 269.668 86.03C269.668 86.55 269.488 86.99 269.128 87.35C268.788 87.71 268.368 87.89 267.868 87.89ZM269.188 90.56V107H266.458V90.56H269.188ZM279.661 107.27C278.401 107.27 277.271 107.06 276.271 106.64C275.271 106.2 274.481 105.6 273.901 104.84C273.321 104.06 273.001 103.17 272.941 102.17H275.761C275.841 102.99 276.221 103.66 276.901 104.18C277.601 104.7 278.511 104.96 279.631 104.96C280.671 104.96 281.491 104.73 282.091 104.27C282.691 103.81 282.991 103.23 282.991 102.53C282.991 101.81 282.671 101.28 282.031 100.94C281.391 100.58 280.401 100.23 279.061 99.89C277.841 99.57 276.841 99.25 276.061 98.93C275.301 98.59 274.641 98.1 274.081 97.46C273.541 96.8 273.271 95.94 273.271 94.88C273.271 94.04 273.521 93.27 274.021 92.57C274.521 91.87 275.231 91.32 276.151 90.92C277.071 90.5 278.121 90.29 279.301 90.29C281.121 90.29 282.591 90.75 283.711 91.67C284.831 92.59 285.431 93.85 285.511 95.45H282.781C282.721 94.59 282.371 93.9 281.731 93.38C281.111 92.86 280.271 92.6 279.211 92.6C278.231 92.6 277.451 92.81 276.871 93.23C276.291 93.65 276.001 94.2 276.001 94.88C276.001 95.42 276.171 95.87 276.511 96.23C276.871 96.57 277.311 96.85 277.831 97.07C278.371 97.27 279.111 97.5 280.051 97.76C281.231 98.08 282.191 98.4 282.931 98.72C283.671 99.02 284.301 99.48 284.821 100.1C285.361 100.72 285.641 101.53 285.661 102.53C285.661 103.43 285.411 104.24 284.911 104.96C284.411 105.68 283.701 106.25 282.781 106.67C281.881 107.07 280.841 107.27 279.661 107.27ZM300.243 93.59C300.783 92.65 301.583 91.87 302.643 91.25C303.723 90.61 304.973 90.29 306.393 90.29C307.853 90.29 309.173 90.64 310.353 91.34C311.553 92.04 312.493 93.03 313.173 94.31C313.853 95.57 314.193 97.04 314.193 98.72C314.193 100.38 313.853 101.86 313.173 103.16C312.493 104.46 311.553 105.47 310.353 106.19C309.173 106.91 307.853 107.27 306.393 107.27C304.993 107.27 303.753 106.96 302.673 106.34C301.613 105.7 300.803 104.91 300.243 103.97V114.8H297.513V90.56H300.243V93.59ZM311.403 98.72C311.403 97.48 311.153 96.4 310.653 95.48C310.153 94.56 309.473 93.86 308.613 93.38C307.773 92.9 306.843 92.66 305.823 92.66C304.823 92.66 303.893 92.91 303.033 93.41C302.193 93.89 301.513 94.6 300.993 95.54C300.493 96.46 300.243 97.53 300.243 98.75C300.243 99.99 300.493 101.08 300.993 102.02C301.513 102.94 302.193 103.65 303.033 104.15C303.893 104.63 304.823 104.87 305.823 104.87C306.843 104.87 307.773 104.63 308.613 104.15C309.473 103.65 310.153 102.94 310.653 102.02C311.153 101.08 311.403 99.98 311.403 98.72ZM332.787 98.15C332.787 98.67 332.757 99.22 332.697 99.8H319.557C319.657 101.42 320.207 102.69 321.207 103.61C322.227 104.51 323.457 104.96 324.897 104.96C326.077 104.96 327.057 104.69 327.837 104.15C328.637 103.59 329.197 102.85 329.517 101.93H332.457C332.017 103.51 331.137 104.8 329.817 105.8C328.497 106.78 326.857 107.27 324.897 107.27C323.337 107.27 321.937 106.92 320.697 106.22C319.477 105.52 318.517 104.53 317.817 103.25C317.117 101.95 316.767 100.45 316.767 98.75C316.767 97.05 317.107 95.56 317.787 94.28C318.467 93 319.417 92.02 320.637 91.34C321.877 90.64 323.297 90.29 324.897 90.29C326.457 90.29 327.837 90.63 329.037 91.31C330.237 91.99 331.157 92.93 331.797 94.13C332.457 95.31 332.787 96.65 332.787 98.15ZM329.967 97.58C329.967 96.54 329.737 95.65 329.277 94.91C328.817 94.15 328.187 93.58 327.387 93.2C326.607 92.8 325.737 92.6 324.777 92.6C323.397 92.6 322.217 93.04 321.237 93.92C320.277 94.8 319.727 96.02 319.587 97.58H329.967ZM339.12 93.23C339.6 92.29 340.28 91.56 341.16 91.04C342.06 90.52 343.15 90.26 344.43 90.26V93.08H343.71C340.65 93.08 339.12 94.74 339.12 98.06V107H336.39V90.56H339.12V93.23ZM353.401 107.27C352.141 107.27 351.011 107.06 350.011 106.64C349.011 106.2 348.221 105.6 347.641 104.84C347.061 104.06 346.741 103.17 346.681 102.17H349.501C349.581 102.99 349.961 103.66 350.641 104.18C351.341 104.7 352.251 104.96 353.371 104.96C354.411 104.96 355.231 104.73 355.831 104.27C356.431 103.81 356.731 103.23 356.731 102.53C356.731 101.81 356.411 101.28 355.771 100.94C355.131 100.58 354.141 100.23 352.801 99.89C351.581 99.57 350.581 99.25 349.801 98.93C349.041 98.59 348.381 98.1 347.821 97.46C347.281 96.8 347.011 95.94 347.011 94.88C347.011 94.04 347.261 93.27 347.761 92.57C348.261 91.87 348.971 91.32 349.891 90.92C350.811 90.5 351.861 90.29 353.041 90.29C354.861 90.29 356.331 90.75 357.451 91.67C358.571 92.59 359.171 93.85 359.251 95.45H356.521C356.461 94.59 356.111 93.9 355.471 93.38C354.851 92.86 354.011 92.6 352.951 92.6C351.971 92.6 351.191 92.81 350.611 93.23C350.031 93.65 349.741 94.2 349.741 94.88C349.741 95.42 349.911 95.87 350.251 96.23C350.611 96.57 351.051 96.85 351.571 97.07C352.111 97.27 352.851 97.5 353.791 97.76C354.971 98.08 355.931 98.4 356.671 98.72C357.411 99.02 358.041 99.48 358.561 100.1C359.101 100.72 359.381 101.53 359.401 102.53C359.401 103.43 359.151 104.24 358.651 104.96C358.151 105.68 357.441 106.25 356.521 106.67C355.621 107.07 354.581 107.27 353.401 107.27ZM370.425 107.27C368.885 107.27 367.485 106.92 366.225 106.22C364.985 105.52 364.005 104.53 363.285 103.25C362.585 101.95 362.235 100.45 362.235 98.75C362.235 97.07 362.595 95.59 363.315 94.31C364.055 93.01 365.055 92.02 366.315 91.34C367.575 90.64 368.985 90.29 370.545 90.29C372.105 90.29 373.515 90.64 374.775 91.34C376.035 92.02 377.025 93 377.745 94.28C378.485 95.56 378.855 97.05 378.855 98.75C378.855 100.45 378.475 101.95 377.715 103.25C376.975 104.53 375.965 105.52 374.685 106.22C373.405 106.92 371.985 107.27 370.425 107.27ZM370.425 104.87C371.405 104.87 372.325 104.64 373.185 104.18C374.045 103.72 374.735 103.03 375.255 102.11C375.795 101.19 376.065 100.07 376.065 98.75C376.065 97.43 375.805 96.31 375.285 95.39C374.765 94.47 374.085 93.79 373.245 93.35C372.405 92.89 371.495 92.66 370.515 92.66C369.515 92.66 368.595 92.89 367.755 93.35C366.935 93.79 366.275 94.47 365.775 95.39C365.275 96.31 365.025 97.43 365.025 98.75C365.025 100.09 365.265 101.22 365.745 102.14C366.245 103.06 366.905 103.75 367.725 104.21C368.545 104.65 369.445 104.87 370.425 104.87ZM390.455 90.26C392.455 90.26 394.075 90.87 395.315 92.09C396.555 93.29 397.175 95.03 397.175 97.31V107H394.475V97.7C394.475 96.06 394.065 94.81 393.245 93.95C392.425 93.07 391.305 92.63 389.885 92.63C388.445 92.63 387.295 93.08 386.435 93.98C385.595 94.88 385.175 96.19 385.175 97.91V107H382.445V90.56H385.175V92.9C385.715 92.06 386.445 91.41 387.365 90.95C388.305 90.49 389.335 90.26 390.455 90.26ZM417.792 90.26C419.032 90.26 420.152 90.53 421.152 91.07C422.152 91.59 422.932 92.38 423.492 93.44C424.072 94.5 424.362 95.79 424.362 97.31V107H421.662V97.7C421.662 96.06 421.252 94.81 420.432 93.95C419.612 93.07 418.492 92.63 417.072 92.63C415.632 92.63 414.482 93.08 413.622 93.98C412.782 94.88 412.362 96.19 412.362 97.91V107H409.632V84.8H412.362V92.9C412.902 92.06 413.642 91.41 414.582 90.95C415.542 90.49 416.612 90.26 417.792 90.26ZM427.802 98.72C427.802 97.04 428.142 95.57 428.822 94.31C429.502 93.03 430.432 92.04 431.612 91.34C432.812 90.64 434.142 90.29 435.602 90.29C437.042 90.29 438.292 90.6 439.352 91.22C440.412 91.84 441.202 92.62 441.722 93.56V90.56H444.482V107H441.722V103.94C441.182 104.9 440.372 105.7 439.292 106.34C438.232 106.96 436.992 107.27 435.572 107.27C434.112 107.27 432.792 106.91 431.612 106.19C430.432 105.47 429.502 104.46 428.822 103.16C428.142 101.86 427.802 100.38 427.802 98.72ZM441.722 98.75C441.722 97.51 441.472 96.43 440.972 95.51C440.472 94.59 439.792 93.89 438.932 93.41C438.092 92.91 437.162 92.66 436.142 92.66C435.122 92.66 434.192 92.9 433.352 93.38C432.512 93.86 431.842 94.56 431.342 95.48C430.842 96.4 430.592 97.48 430.592 98.72C430.592 99.98 430.842 101.08 431.342 102.02C431.842 102.94 432.512 103.65 433.352 104.15C434.192 104.63 435.122 104.87 436.142 104.87C437.162 104.87 438.092 104.63 438.932 104.15C439.792 103.65 440.472 102.94 440.972 102.02C441.472 101.08 441.722 99.99 441.722 98.75ZM454.915 107.27C453.655 107.27 452.525 107.06 451.525 106.64C450.525 106.2 449.735 105.6 449.155 104.84C448.575 104.06 448.255 103.17 448.195 102.17H451.015C451.095 102.99 451.475 103.66 452.155 104.18C452.855 104.7 453.765 104.96 454.885 104.96C455.925 104.96 456.745 104.73 457.345 104.27C457.945 103.81 458.245 103.23 458.245 102.53C458.245 101.81 457.925 101.28 457.285 100.94C456.645 100.58 455.655 100.23 454.315 99.89C453.095 99.57 452.095 99.25 451.315 98.93C450.555 98.59 449.895 98.1 449.335 97.46C448.795 96.8 448.525 95.94 448.525 94.88C448.525 94.04 448.775 93.27 449.275 92.57C449.775 91.87 450.485 91.32 451.405 90.92C452.325 90.5 453.375 90.29 454.555 90.29C456.375 90.29 457.845 90.75 458.965 91.67C460.085 92.59 460.685 93.85 460.765 95.45H458.035C457.975 94.59 457.625 93.9 456.985 93.38C456.365 92.86 455.525 92.6 454.465 92.6C453.485 92.6 452.705 92.81 452.125 93.23C451.545 93.65 451.255 94.2 451.255 94.88C451.255 95.42 451.425 95.87 451.765 96.23C452.125 96.57 452.565 96.85 453.085 97.07C453.625 97.27 454.365 97.5 455.305 97.76C456.485 98.08 457.445 98.4 458.185 98.72C458.925 99.02 459.555 99.48 460.075 100.1C460.615 100.72 460.895 101.53 460.915 102.53C460.915 103.43 460.665 104.24 460.165 104.96C459.665 105.68 458.955 106.25 458.035 106.67C457.135 107.07 456.095 107.27 454.915 107.27ZM471.747 98.72C471.747 97.04 472.087 95.57 472.767 94.31C473.447 93.03 474.377 92.04 475.557 91.34C476.757 90.64 478.087 90.29 479.547 90.29C480.987 90.29 482.237 90.6 483.297 91.22C484.357 91.84 485.147 92.62 485.667 93.56V90.56H488.427V107H485.667V103.94C485.127 104.9 484.317 105.7 483.237 106.34C482.177 106.96 480.937 107.27 479.517 107.27C478.057 107.27 476.737 106.91 475.557 106.19C474.377 105.47 473.447 104.46 472.767 103.16C472.087 101.86 471.747 100.38 471.747 98.72ZM485.667 98.75C485.667 97.51 485.417 96.43 484.917 95.51C484.417 94.59 483.737 93.89 482.877 93.41C482.037 92.91 481.107 92.66 480.087 92.66C479.067 92.66 478.137 92.9 477.297 93.38C476.457 93.86 475.787 94.56 475.287 95.48C474.787 96.4 474.537 97.48 474.537 98.72C474.537 99.98 474.787 101.08 475.287 102.02C475.787 102.94 476.457 103.65 477.297 104.15C478.137 104.63 479.067 104.87 480.087 104.87C481.107 104.87 482.037 104.63 482.877 104.15C483.737 103.65 484.417 102.94 484.917 102.02C485.417 101.08 485.667 99.99 485.667 98.75ZM495.77 93.62C496.33 92.64 497.15 91.84 498.23 91.22C499.31 90.6 500.54 90.29 501.92 90.29C503.4 90.29 504.73 90.64 505.91 91.34C507.09 92.04 508.02 93.03 508.7 94.31C509.38 95.57 509.72 97.04 509.72 98.72C509.72 100.38 509.38 101.86 508.7 103.16C508.02 104.46 507.08 105.47 505.88 106.19C504.7 106.91 503.38 107.27 501.92 107.27C500.5 107.27 499.25 106.96 498.17 106.34C497.11 105.72 496.31 104.93 495.77 103.97V107H493.04V84.8H495.77V93.62ZM506.93 98.72C506.93 97.48 506.68 96.4 506.18 95.48C505.68 94.56 505 93.86 504.14 93.38C503.3 92.9 502.37 92.66 501.35 92.66C500.35 92.66 499.42 92.91 498.56 93.41C497.72 93.89 497.04 94.6 496.52 95.54C496.02 96.46 495.77 97.53 495.77 98.75C495.77 99.99 496.02 101.08 496.52 102.02C497.04 102.94 497.72 103.65 498.56 104.15C499.42 104.63 500.35 104.87 501.35 104.87C502.37 104.87 503.3 104.63 504.14 104.15C505 103.65 505.68 102.94 506.18 102.02C506.68 101.08 506.93 99.98 506.93 98.72ZM520.484 107.27C518.944 107.27 517.544 106.92 516.284 106.22C515.044 105.52 514.064 104.53 513.344 103.25C512.644 101.95 512.294 100.45 512.294 98.75C512.294 97.07 512.654 95.59 513.374 94.31C514.114 93.01 515.114 92.02 516.374 91.34C517.634 90.64 519.044 90.29 520.604 90.29C522.164 90.29 523.574 90.64 524.834 91.34C526.094 92.02 527.084 93 527.804 94.28C528.544 95.56 528.914 97.05 528.914 98.75C528.914 100.45 528.534 101.95 527.774 103.25C527.034 104.53 526.024 105.52 524.744 106.22C523.464 106.92 522.044 107.27 520.484 107.27ZM520.484 104.87C521.464 104.87 522.384 104.64 523.244 104.18C524.104 103.72 524.794 103.03 525.314 102.11C525.854 101.19 526.124 100.07 526.124 98.75C526.124 97.43 525.864 96.31 525.344 95.39C524.824 94.47 524.144 93.79 523.304 93.35C522.464 92.89 521.554 92.66 520.574 92.66C519.574 92.66 518.654 92.89 517.814 93.35C516.994 93.79 516.334 94.47 515.834 95.39C515.334 96.31 515.084 97.43 515.084 98.75C515.084 100.09 515.324 101.22 515.804 102.14C516.304 103.06 516.964 103.75 517.784 104.21C518.604 104.65 519.504 104.87 520.484 104.87ZM535.233 93.23C535.713 92.29 536.393 91.56 537.273 91.04C538.173 90.52 539.263 90.26 540.543 90.26V93.08H539.823C536.763 93.08 535.233 94.74 535.233 98.06V107H532.503V90.56H535.233V93.23ZM547.025 92.81V102.5C547.025 103.3 547.195 103.87 547.535 104.21C547.875 104.53 548.465 104.69 549.305 104.69H551.315V107H548.855C547.335 107 546.195 106.65 545.435 105.95C544.675 105.25 544.295 104.1 544.295 102.5V92.81H542.165V90.56H544.295V86.42H547.025V90.56H551.315V92.81H547.025ZM569.623 98.15C569.623 98.67 569.593 99.22 569.533 99.8H556.393C556.493 101.42 557.043 102.69 558.043 103.61C559.063 104.51 560.293 104.96 561.733 104.96C562.913 104.96 563.893 104.69 564.673 104.15C565.473 103.59 566.033 102.85 566.353 101.93H569.293C568.853 103.51 567.973 104.8 566.653 105.8C565.333 106.78 563.693 107.27 561.733 107.27C560.173 107.27 558.773 106.92 557.533 106.22C556.313 105.52 555.353 104.53 554.653 103.25C553.953 101.95 553.603 100.45 553.603 98.75C553.603 97.05 553.943 95.56 554.623 94.28C555.303 93 556.253 92.02 557.473 91.34C558.713 90.64 560.133 90.29 561.733 90.29C563.293 90.29 564.673 90.63 565.873 91.31C567.073 91.99 567.993 92.93 568.633 94.13C569.293 95.31 569.623 96.65 569.623 98.15ZM566.803 97.58C566.803 96.54 566.573 95.65 566.113 94.91C565.653 94.15 565.023 93.58 564.223 93.2C563.443 92.8 562.573 92.6 561.613 92.6C560.233 92.6 559.053 93.04 558.073 93.92C557.113 94.8 556.563 96.02 556.423 97.58H566.803ZM572.206 98.72C572.206 97.04 572.546 95.57 573.226 94.31C573.906 93.03 574.836 92.04 576.016 91.34C577.216 90.64 578.556 90.29 580.036 90.29C581.316 90.29 582.506 90.59 583.606 91.19C584.706 91.77 585.546 92.54 586.126 93.5V84.8H588.886V107H586.126V103.91C585.586 104.89 584.786 105.7 583.726 106.34C582.666 106.96 581.426 107.27 580.006 107.27C578.546 107.27 577.216 106.91 576.016 106.19C574.836 105.47 573.906 104.46 573.226 103.16C572.546 101.86 572.206 100.38 572.206 98.72ZM586.126 98.75C586.126 97.51 585.876 96.43 585.376 95.51C584.876 94.59 584.196 93.89 583.336 93.41C582.496 92.91 581.566 92.66 580.546 92.66C579.526 92.66 578.596 92.9 577.756 93.38C576.916 93.86 576.246 94.56 575.746 95.48C575.246 96.4 574.996 97.48 574.996 98.72C574.996 99.98 575.246 101.08 575.746 102.02C576.246 102.94 576.916 103.65 577.756 104.15C578.596 104.63 579.526 104.87 580.546 104.87C581.566 104.87 582.496 104.63 583.336 104.15C584.196 103.65 584.876 102.94 585.376 102.02C585.876 101.08 586.126 99.99 586.126 98.75ZM33.47 135.56L23.57 159.74H20.75L23.99 151.82L17.36 135.56H20.39L25.55 148.88L30.65 135.56H33.47ZM43.3843 152.27C41.8443 152.27 40.4443 151.92 39.1843 151.22C37.9443 150.52 36.9643 149.53 36.2443 148.25C35.5443 146.95 35.1943 145.45 35.1943 143.75C35.1943 142.07 35.5543 140.59 36.2743 139.31C37.0143 138.01 38.0143 137.02 39.2743 136.34C40.5343 135.64 41.9443 135.29 43.5043 135.29C45.0643 135.29 46.4743 135.64 47.7343 136.34C48.9943 137.02 49.9843 138 50.7043 139.28C51.4443 140.56 51.8143 142.05 51.8143 143.75C51.8143 145.45 51.4343 146.95 50.6743 148.25C49.9343 149.53 48.9243 150.52 47.6443 151.22C46.3643 151.92 44.9443 152.27 43.3843 152.27ZM43.3843 149.87C44.3643 149.87 45.2843 149.64 46.1443 149.18C47.0043 148.72 47.6943 148.03 48.2143 147.11C48.7543 146.19 49.0243 145.07 49.0243 143.75C49.0243 142.43 48.7643 141.31 48.2443 140.39C47.7243 139.47 47.0443 138.79 46.2043 138.35C45.3643 137.89 44.4543 137.66 43.4743 137.66C42.4743 137.66 41.5543 137.89 40.7143 138.35C39.8943 138.79 39.2343 139.47 38.7343 140.39C38.2343 141.31 37.9843 142.43 37.9843 143.75C37.9843 145.09 38.2243 146.22 38.7043 147.14C39.2043 148.06 39.8643 148.75 40.6843 149.21C41.5043 149.65 42.4043 149.87 43.3843 149.87ZM69.9838 135.56V152H67.2538V149.57C66.7338 150.41 66.0038 151.07 65.0638 151.55C64.1438 152.01 63.1238 152.24 62.0038 152.24C60.7238 152.24 59.5738 151.98 58.5538 151.46C57.5338 150.92 56.7238 150.12 56.1238 149.06C55.5438 148 55.2538 146.71 55.2538 145.19V135.56H57.9538V144.83C57.9538 146.45 58.3638 147.7 59.1838 148.58C60.0038 149.44 61.1238 149.87 62.5438 149.87C64.0038 149.87 65.1538 149.42 65.9938 148.52C66.8338 147.62 67.2538 146.31 67.2538 144.59V135.56H69.9838ZM77.3232 138.23C77.8032 137.29 78.4832 136.56 79.3632 136.04C80.2632 135.52 81.3532 135.26 82.6332 135.26V138.08H81.9132C78.8532 138.08 77.3232 139.74 77.3232 143.06V152H74.5932V135.56H77.3232V138.23ZM99.6027 152.27C98.3427 152.27 97.2127 152.06 96.2127 151.64C95.2127 151.2 94.4227 150.6 93.8427 149.84C93.2627 149.06 92.9427 148.17 92.8827 147.17H95.7027C95.7827 147.99 96.1627 148.66 96.8427 149.18C97.5427 149.7 98.4527 149.96 99.5727 149.96C100.613 149.96 101.433 149.73 102.033 149.27C102.633 148.81 102.933 148.23 102.933 147.53C102.933 146.81 102.613 146.28 101.973 145.94C101.333 145.58 100.343 145.23 99.0027 144.89C97.7827 144.57 96.7827 144.25 96.0027 143.93C95.2427 143.59 94.5827 143.1 94.0227 142.46C93.4827 141.8 93.2127 140.94 93.2127 139.88C93.2127 139.04 93.4627 138.27 93.9627 137.57C94.4627 136.87 95.1727 136.32 96.0927 135.92C97.0127 135.5 98.0627 135.29 99.2427 135.29C101.063 135.29 102.533 135.75 103.653 136.67C104.773 137.59 105.373 138.85 105.453 140.45H102.723C102.663 139.59 102.313 138.9 101.673 138.38C101.053 137.86 100.213 137.6 99.1527 137.6C98.1727 137.6 97.3927 137.81 96.8127 138.23C96.2327 138.65 95.9427 139.2 95.9427 139.88C95.9427 140.42 96.1127 140.87 96.4527 141.23C96.8127 141.57 97.2527 141.85 97.7727 142.07C98.3127 142.27 99.0527 142.5 99.9927 142.76C101.173 143.08 102.133 143.4 102.873 143.72C103.613 144.02 104.243 144.48 104.763 145.1C105.303 145.72 105.583 146.53 105.603 147.53C105.603 148.43 105.353 149.24 104.853 149.96C104.353 150.68 103.643 151.25 102.723 151.67C101.823 152.07 100.783 152.27 99.6027 152.27ZM110.866 132.89C110.346 132.89 109.906 132.71 109.546 132.35C109.186 131.99 109.006 131.55 109.006 131.03C109.006 130.51 109.186 130.07 109.546 129.71C109.906 129.35 110.346 129.17 110.866 129.17C111.366 129.17 111.786 129.35 112.126 129.71C112.486 130.07 112.666 130.51 112.666 131.03C112.666 131.55 112.486 131.99 112.126 132.35C111.786 132.71 111.366 132.89 110.866 132.89ZM112.186 135.56V152H109.456V135.56H112.186ZM123.619 135.29C125.039 135.29 126.279 135.6 127.339 136.22C128.419 136.84 129.219 137.62 129.739 138.56V135.56H132.499V152.36C132.499 153.86 132.179 155.19 131.539 156.35C130.899 157.53 129.979 158.45 128.779 159.11C127.599 159.77 126.219 160.1 124.639 160.1C122.479 160.1 120.679 159.59 119.239 158.57C117.799 157.55 116.949 156.16 116.689 154.4H119.389C119.689 155.4 120.309 156.2 121.249 156.8C122.189 157.42 123.319 157.73 124.639 157.73C126.139 157.73 127.359 157.26 128.299 156.32C129.259 155.38 129.739 154.06 129.739 152.36V148.91C129.199 149.87 128.399 150.67 127.339 151.31C126.279 151.95 125.039 152.27 123.619 152.27C122.159 152.27 120.829 151.91 119.629 151.19C118.449 150.47 117.519 149.46 116.839 148.16C116.159 146.86 115.819 145.38 115.819 143.72C115.819 142.04 116.159 140.57 116.839 139.31C117.519 138.03 118.449 137.04 119.629 136.34C120.829 135.64 122.159 135.29 123.619 135.29ZM129.739 143.75C129.739 142.51 129.489 141.43 128.989 140.51C128.489 139.59 127.809 138.89 126.949 138.41C126.109 137.91 125.179 137.66 124.159 137.66C123.139 137.66 122.209 137.9 121.369 138.38C120.529 138.86 119.859 139.56 119.359 140.48C118.859 141.4 118.609 142.48 118.609 143.72C118.609 144.98 118.859 146.08 119.359 147.02C119.859 147.94 120.529 148.65 121.369 149.15C122.209 149.63 123.139 149.87 124.159 149.87C125.179 149.87 126.109 149.63 126.949 149.15C127.809 148.65 128.489 147.94 128.989 147.02C129.489 146.08 129.739 144.99 129.739 143.75ZM145.123 135.26C147.123 135.26 148.743 135.87 149.983 137.09C151.223 138.29 151.843 140.03 151.843 142.31V152H149.143V142.7C149.143 141.06 148.733 139.81 147.913 138.95C147.093 138.07 145.973 137.63 144.553 137.63C143.113 137.63 141.963 138.08 141.103 138.98C140.263 139.88 139.843 141.19 139.843 142.91V152H137.113V135.56H139.843V137.9C140.383 137.06 141.113 136.41 142.033 135.95C142.973 135.49 144.003 135.26 145.123 135.26ZM155.282 143.72C155.282 142.04 155.622 140.57 156.302 139.31C156.982 138.03 157.912 137.04 159.092 136.34C160.292 135.64 161.622 135.29 163.082 135.29C164.522 135.29 165.772 135.6 166.832 136.22C167.892 136.84 168.682 137.62 169.202 138.56V135.56H171.962V152H169.202V148.94C168.662 149.9 167.852 150.7 166.772 151.34C165.712 151.96 164.472 152.27 163.052 152.27C161.592 152.27 160.272 151.91 159.092 151.19C157.912 150.47 156.982 149.46 156.302 148.16C155.622 146.86 155.282 145.38 155.282 143.72ZM169.202 143.75C169.202 142.51 168.952 141.43 168.452 140.51C167.952 139.59 167.272 138.89 166.412 138.41C165.572 137.91 164.642 137.66 163.622 137.66C162.602 137.66 161.672 137.9 160.832 138.38C159.992 138.86 159.322 139.56 158.822 140.48C158.322 141.4 158.072 142.48 158.072 143.72C158.072 144.98 158.322 146.08 158.822 147.02C159.322 147.94 159.992 148.65 160.832 149.15C161.672 149.63 162.602 149.87 163.622 149.87C164.642 149.87 165.572 149.63 166.412 149.15C167.272 148.65 167.952 147.94 168.452 147.02C168.952 146.08 169.202 144.99 169.202 143.75ZM179.306 129.8V152H176.576V129.8H179.306ZM184.828 152.18C184.308 152.18 183.868 152 183.508 151.64C183.148 151.28 182.968 150.84 182.968 150.32C182.968 149.8 183.148 149.36 183.508 149C183.868 148.64 184.308 148.46 184.828 148.46C185.328 148.46 185.748 148.64 186.088 149C186.448 149.36 186.628 149.8 186.628 150.32C186.628 150.84 186.448 151.28 186.088 151.64C185.748 152 185.328 152.18 184.828 152.18ZM204.765 131.09C207.045 131.09 209.015 131.52 210.675 132.38C212.355 133.22 213.635 134.43 214.515 136.01C215.415 137.59 215.865 139.45 215.865 141.59C215.865 143.73 215.415 145.59 214.515 147.17C213.635 148.73 212.355 149.93 210.675 150.77C209.015 151.59 207.045 152 204.765 152H198.255V131.09H204.765ZM204.765 149.75C207.465 149.75 209.525 149.04 210.945 147.62C212.365 146.18 213.075 144.17 213.075 141.59C213.075 138.99 212.355 136.96 210.915 135.5C209.495 134.04 207.445 133.31 204.765 133.31H200.985V149.75H204.765ZM226.636 152.27C225.096 152.27 223.696 151.92 222.436 151.22C221.196 150.52 220.216 149.53 219.496 148.25C218.796 146.95 218.446 145.45 218.446 143.75C218.446 142.07 218.806 140.59 219.526 139.31C220.266 138.01 221.266 137.02 222.526 136.34C223.786 135.64 225.196 135.29 226.756 135.29C228.316 135.29 229.726 135.64 230.986 136.34C232.246 137.02 233.236 138 233.956 139.28C234.696 140.56 235.066 142.05 235.066 143.75C235.066 145.45 234.686 146.95 233.926 148.25C233.186 149.53 232.176 150.52 230.896 151.22C229.616 151.92 228.196 152.27 226.636 152.27ZM226.636 149.87C227.616 149.87 228.536 149.64 229.396 149.18C230.256 148.72 230.946 148.03 231.466 147.11C232.006 146.19 232.276 145.07 232.276 143.75C232.276 142.43 232.016 141.31 231.496 140.39C230.976 139.47 230.296 138.79 229.456 138.35C228.616 137.89 227.706 137.66 226.726 137.66C225.726 137.66 224.806 137.89 223.966 138.35C223.146 138.79 222.486 139.47 221.986 140.39C221.486 141.31 221.236 142.43 221.236 143.75C221.236 145.09 221.476 146.22 221.956 147.14C222.456 148.06 223.116 148.75 223.936 149.21C224.756 149.65 225.656 149.87 226.636 149.87ZM260.814 135.56L250.914 159.74H248.094L251.334 151.82L244.704 135.56H247.734L252.894 148.88L257.994 135.56H260.814ZM270.728 152.27C269.188 152.27 267.788 151.92 266.528 151.22C265.288 150.52 264.308 149.53 263.588 148.25C262.888 146.95 262.538 145.45 262.538 143.75C262.538 142.07 262.898 140.59 263.618 139.31C264.358 138.01 265.358 137.02 266.618 136.34C267.878 135.64 269.288 135.29 270.848 135.29C272.408 135.29 273.818 135.64 275.078 136.34C276.338 137.02 277.328 138 278.048 139.28C278.788 140.56 279.158 142.05 279.158 143.75C279.158 145.45 278.778 146.95 278.018 148.25C277.278 149.53 276.268 150.52 274.988 151.22C273.708 151.92 272.288 152.27 270.728 152.27ZM270.728 149.87C271.708 149.87 272.628 149.64 273.488 149.18C274.348 148.72 275.038 148.03 275.558 147.11C276.098 146.19 276.368 145.07 276.368 143.75C276.368 142.43 276.108 141.31 275.588 140.39C275.068 139.47 274.388 138.79 273.548 138.35C272.708 137.89 271.798 137.66 270.818 137.66C269.818 137.66 268.898 137.89 268.058 138.35C267.238 138.79 266.578 139.47 266.078 140.39C265.578 141.31 265.328 142.43 265.328 143.75C265.328 145.09 265.568 146.22 266.048 147.14C266.548 148.06 267.208 148.75 268.028 149.21C268.848 149.65 269.748 149.87 270.728 149.87ZM297.328 135.56V152H294.598V149.57C294.078 150.41 293.348 151.07 292.408 151.55C291.488 152.01 290.468 152.24 289.348 152.24C288.068 152.24 286.918 151.98 285.898 151.46C284.878 150.92 284.068 150.12 283.468 149.06C282.888 148 282.598 146.71 282.598 145.19V135.56H285.298V144.83C285.298 146.45 285.708 147.7 286.528 148.58C287.348 149.44 288.468 149.87 289.888 149.87C291.348 149.87 292.498 149.42 293.338 148.52C294.178 147.62 294.598 146.31 294.598 144.59V135.56H297.328ZM315.755 152.27C314.495 152.27 313.365 152.06 312.365 151.64C311.365 151.2 310.575 150.6 309.995 149.84C309.415 149.06 309.095 148.17 309.035 147.17H311.855C311.935 147.99 312.315 148.66 312.995 149.18C313.695 149.7 314.605 149.96 315.725 149.96C316.765 149.96 317.585 149.73 318.185 149.27C318.785 148.81 319.085 148.23 319.085 147.53C319.085 146.81 318.765 146.28 318.125 145.94C317.485 145.58 316.495 145.23 315.155 144.89C313.935 144.57 312.935 144.25 312.155 143.93C311.395 143.59 310.735 143.1 310.175 142.46C309.635 141.8 309.365 140.94 309.365 139.88C309.365 139.04 309.615 138.27 310.115 137.57C310.615 136.87 311.325 136.32 312.245 135.92C313.165 135.5 314.215 135.29 315.395 135.29C317.215 135.29 318.685 135.75 319.805 136.67C320.925 137.59 321.525 138.85 321.605 140.45H318.875C318.815 139.59 318.465 138.9 317.825 138.38C317.205 137.86 316.365 137.6 315.305 137.6C314.325 137.6 313.545 137.81 312.965 138.23C312.385 138.65 312.095 139.2 312.095 139.88C312.095 140.42 312.265 140.87 312.605 141.23C312.965 141.57 313.405 141.85 313.925 142.07C314.465 142.27 315.205 142.5 316.145 142.76C317.325 143.08 318.285 143.4 319.025 143.72C319.765 144.02 320.395 144.48 320.915 145.1C321.455 145.72 321.735 146.53 321.755 147.53C321.755 148.43 321.505 149.24 321.005 149.96C320.505 150.68 319.795 151.25 318.875 151.67C317.975 152.07 316.935 152.27 315.755 152.27ZM328.939 137.81V147.5C328.939 148.3 329.109 148.87 329.449 149.21C329.789 149.53 330.379 149.69 331.219 149.69H333.229V152H330.769C329.249 152 328.109 151.65 327.349 150.95C326.589 150.25 326.209 149.1 326.209 147.5V137.81H324.079V135.56H326.209V131.42H328.939V135.56H333.229V137.81H328.939ZM337.947 132.89C337.427 132.89 336.987 132.71 336.627 132.35C336.267 131.99 336.087 131.55 336.087 131.03C336.087 130.51 336.267 130.07 336.627 129.71C336.987 129.35 337.427 129.17 337.947 129.17C338.447 129.17 338.867 129.35 339.207 129.71C339.567 130.07 339.747 130.51 339.747 131.03C339.747 131.55 339.567 131.99 339.207 132.35C338.867 132.71 338.447 132.89 337.947 132.89ZM339.267 135.56V152H336.537V135.56H339.267ZM346.649 129.8V152H343.919V129.8H346.649ZM354.032 129.8V152H351.302V129.8H354.032ZM374.693 135.26C376.693 135.26 378.313 135.87 379.553 137.09C380.793 138.29 381.413 140.03 381.413 142.31V152H378.713V142.7C378.713 141.06 378.303 139.81 377.483 138.95C376.663 138.07 375.543 137.63 374.123 137.63C372.683 137.63 371.533 138.08 370.673 138.98C369.833 139.88 369.413 141.19 369.413 142.91V152H366.683V135.56H369.413V137.9C369.953 137.06 370.683 136.41 371.603 135.95C372.543 135.49 373.573 135.26 374.693 135.26ZM400.873 143.15C400.873 143.67 400.843 144.22 400.783 144.8H387.643C387.743 146.42 388.293 147.69 389.293 148.61C390.313 149.51 391.543 149.96 392.983 149.96C394.163 149.96 395.143 149.69 395.923 149.15C396.723 148.59 397.283 147.85 397.603 146.93H400.543C400.103 148.51 399.223 149.8 397.903 150.8C396.583 151.78 394.943 152.27 392.983 152.27C391.423 152.27 390.023 151.92 388.783 151.22C387.563 150.52 386.603 149.53 385.903 148.25C385.203 146.95 384.853 145.45 384.853 143.75C384.853 142.05 385.193 140.56 385.873 139.28C386.553 138 387.503 137.02 388.723 136.34C389.963 135.64 391.383 135.29 392.983 135.29C394.543 135.29 395.923 135.63 397.123 136.31C398.323 136.99 399.243 137.93 399.883 139.13C400.543 140.31 400.873 141.65 400.873 143.15ZM398.053 142.58C398.053 141.54 397.823 140.65 397.363 139.91C396.903 139.15 396.273 138.58 395.473 138.2C394.693 137.8 393.823 137.6 392.863 137.6C391.483 137.6 390.303 138.04 389.323 138.92C388.363 139.8 387.813 141.02 387.673 142.58H398.053ZM419.476 143.15C419.476 143.67 419.446 144.22 419.386 144.8H406.246C406.346 146.42 406.896 147.69 407.896 148.61C408.916 149.51 410.146 149.96 411.586 149.96C412.766 149.96 413.746 149.69 414.526 149.15C415.326 148.59 415.886 147.85 416.206 146.93H419.146C418.706 148.51 417.826 149.8 416.506 150.8C415.186 151.78 413.546 152.27 411.586 152.27C410.026 152.27 408.626 151.92 407.386 151.22C406.166 150.52 405.206 149.53 404.506 148.25C403.806 146.95 403.456 145.45 403.456 143.75C403.456 142.05 403.796 140.56 404.476 139.28C405.156 138 406.106 137.02 407.326 136.34C408.566 135.64 409.986 135.29 411.586 135.29C413.146 135.29 414.526 135.63 415.726 136.31C416.926 136.99 417.846 137.93 418.486 139.13C419.146 140.31 419.476 141.65 419.476 143.15ZM416.656 142.58C416.656 141.54 416.426 140.65 415.966 139.91C415.506 139.15 414.876 138.58 414.076 138.2C413.296 137.8 412.426 137.6 411.466 137.6C410.086 137.6 408.906 138.04 407.926 138.92C406.966 139.8 406.416 141.02 406.276 142.58H416.656ZM422.06 143.72C422.06 142.04 422.4 140.57 423.08 139.31C423.76 138.03 424.69 137.04 425.87 136.34C427.07 135.64 428.41 135.29 429.89 135.29C431.17 135.29 432.36 135.59 433.46 136.19C434.56 136.77 435.4 137.54 435.98 138.5V129.8H438.74V152H435.98V148.91C435.44 149.89 434.64 150.7 433.58 151.34C432.52 151.96 431.28 152.27 429.86 152.27C428.4 152.27 427.07 151.91 425.87 151.19C424.69 150.47 423.76 149.46 423.08 148.16C422.4 146.86 422.06 145.38 422.06 143.72ZM435.98 143.75C435.98 142.51 435.73 141.43 435.23 140.51C434.73 139.59 434.05 138.89 433.19 138.41C432.35 137.91 431.42 137.66 430.4 137.66C429.38 137.66 428.45 137.9 427.61 138.38C426.77 138.86 426.1 139.56 425.6 140.48C425.1 141.4 424.85 142.48 424.85 143.72C424.85 144.98 425.1 146.08 425.6 147.02C426.1 147.94 426.77 148.65 427.61 149.15C428.45 149.63 429.38 149.87 430.4 149.87C431.42 149.87 432.35 149.63 433.19 149.15C434.05 148.65 434.73 147.94 435.23 147.02C435.73 146.08 435.98 144.99 435.98 143.75ZM459.511 135.26C460.751 135.26 461.871 135.53 462.871 136.07C463.871 136.59 464.651 137.38 465.211 138.44C465.791 139.5 466.081 140.79 466.081 142.31V152H463.381V142.7C463.381 141.06 462.971 139.81 462.151 138.95C461.331 138.07 460.211 137.63 458.791 137.63C457.351 137.63 456.201 138.08 455.341 138.98C454.501 139.88 454.081 141.19 454.081 142.91V152H451.351V129.8H454.081V137.9C454.621 137.06 455.361 136.41 456.301 135.95C457.261 135.49 458.331 135.26 459.511 135.26ZM485.54 143.15C485.54 143.67 485.51 144.22 485.45 144.8H472.31C472.41 146.42 472.96 147.69 473.96 148.61C474.98 149.51 476.21 149.96 477.65 149.96C478.83 149.96 479.81 149.69 480.59 149.15C481.39 148.59 481.95 147.85 482.27 146.93H485.21C484.77 148.51 483.89 149.8 482.57 150.8C481.25 151.78 479.61 152.27 477.65 152.27C476.09 152.27 474.69 151.92 473.45 151.22C472.23 150.52 471.27 149.53 470.57 148.25C469.87 146.95 469.52 145.45 469.52 143.75C469.52 142.05 469.86 140.56 470.54 139.28C471.22 138 472.17 137.02 473.39 136.34C474.63 135.64 476.05 135.29 477.65 135.29C479.21 135.29 480.59 135.63 481.79 136.31C482.99 136.99 483.91 137.93 484.55 139.13C485.21 140.31 485.54 141.65 485.54 143.15ZM482.72 142.58C482.72 141.54 482.49 140.65 482.03 139.91C481.57 139.15 480.94 138.58 480.14 138.2C479.36 137.8 478.49 137.6 477.53 137.6C476.15 137.6 474.97 138.04 473.99 138.92C473.03 139.8 472.48 141.02 472.34 142.58H482.72ZM491.874 129.8V152H489.144V129.8H491.874ZM499.257 138.59C499.797 137.65 500.597 136.87 501.657 136.25C502.737 135.61 503.987 135.29 505.407 135.29C506.867 135.29 508.187 135.64 509.367 136.34C510.567 137.04 511.507 138.03 512.187 139.31C512.867 140.57 513.207 142.04 513.207 143.72C513.207 145.38 512.867 146.86 512.187 148.16C511.507 149.46 510.567 150.47 509.367 151.19C508.187 151.91 506.867 152.27 505.407 152.27C504.007 152.27 502.767 151.96 501.687 151.34C500.627 150.7 499.817 149.91 499.257 148.97V159.8H496.527V135.56H499.257V138.59ZM510.417 143.72C510.417 142.48 510.167 141.4 509.667 140.48C509.167 139.56 508.487 138.86 507.627 138.38C506.787 137.9 505.857 137.66 504.837 137.66C503.837 137.66 502.907 137.91 502.047 138.41C501.207 138.89 500.527 139.6 500.007 140.54C499.507 141.46 499.257 142.53 499.257 143.75C499.257 144.99 499.507 146.08 500.007 147.02C500.527 147.94 501.207 148.65 502.047 149.15C502.907 149.63 503.837 149.87 504.837 149.87C505.857 149.87 506.787 149.63 507.627 149.15C508.487 148.65 509.167 147.94 509.667 147.02C510.167 146.08 510.417 144.98 510.417 143.72ZM522.14 130.82C524.12 130.82 525.72 131.38 526.94 132.5C528.16 133.62 528.77 135.12 528.77 137C528.77 139.1 528.12 140.66 526.82 141.68C525.52 142.68 523.76 143.18 521.54 143.18L521.45 146.03H519.08L518.96 141.29H519.83C521.81 141.29 523.36 140.99 524.48 140.39C525.6 139.79 526.16 138.66 526.16 137C526.16 135.8 525.8 134.85 525.08 134.15C524.36 133.45 523.39 133.1 522.17 133.1C520.93 133.1 519.95 133.44 519.23 134.12C518.53 134.78 518.18 135.69 518.18 136.85H515.6C515.6 135.65 515.87 134.6 516.41 133.7C516.95 132.78 517.71 132.07 518.69 131.57C519.69 131.07 520.84 130.82 522.14 130.82ZM520.25 152.18C519.73 152.18 519.29 152 518.93 151.64C518.57 151.28 518.39 150.84 518.39 150.32C518.39 149.8 518.57 149.36 518.93 149C519.29 148.64 519.73 148.46 520.25 148.46C520.75 148.46 521.17 148.64 521.51 149C521.87 149.36 522.05 149.8 522.05 150.32C522.05 150.84 521.87 151.28 521.51 151.64C521.17 152 520.75 152.18 520.25 152.18Z" fill="black"/>
<path d="M30.79 43.245C28.48 43.245 26.3567 42.7083 24.42 41.635C22.4833 40.5383 20.9433 39.0333 19.8 37.12C18.68 35.1833 18.12 33.0017 18.12 30.575C18.12 28.1483 18.68 25.9783 19.8 24.065C20.9433 22.1283 22.4833 20.6233 24.42 19.55C26.3567 18.4767 28.48 17.94 30.79 17.94C33.1233 17.94 35.2467 18.4767 37.16 19.55C39.0967 20.6233 40.625 22.1283 41.745 24.065C42.865 25.9783 43.425 28.1483 43.425 30.575C43.425 33.0017 42.865 35.1833 41.745 37.12C40.625 39.0333 39.0967 40.5383 37.16 41.635C35.2233 42.7083 33.1 43.245 30.79 43.245ZM30.79 36.875C32.54 36.875 33.9167 36.3033 34.92 35.16C35.9467 34.0167 36.46 32.4883 36.46 30.575C36.46 28.615 35.9467 27.075 34.92 25.955C33.9167 24.8117 32.54 24.24 30.79 24.24C29.0167 24.24 27.6283 24.8117 26.625 25.955C25.6217 27.075 25.12 28.615 25.12 30.575C25.12 32.5117 25.6217 34.0517 26.625 35.195C27.6283 36.315 29.0167 36.875 30.79 36.875ZM58.3388 43.245C56.0288 43.245 53.9055 42.7083 51.9688 41.635C50.0322 40.5383 48.4922 39.0333 47.3488 37.12C46.2288 35.1833 45.6688 33.0017 45.6688 30.575C45.6688 28.1483 46.2288 25.9783 47.3488 24.065C48.4922 22.1283 50.0322 20.6233 51.9688 19.55C53.9055 18.4767 56.0288 17.94 58.3388 17.94C60.6722 17.94 62.7955 18.4767 64.7088 19.55C66.6455 20.6233 68.1738 22.1283 69.2938 24.065C70.4138 25.9783 70.9738 28.1483 70.9738 30.575C70.9738 33.0017 70.4138 35.1833 69.2938 37.12C68.1738 39.0333 66.6455 40.5383 64.7088 41.635C62.7722 42.7083 60.6488 43.245 58.3388 43.245ZM58.3388 36.875C60.0888 36.875 61.4655 36.3033 62.4688 35.16C63.4955 34.0167 64.0088 32.4883 64.0088 30.575C64.0088 28.615 63.4955 27.075 62.4688 25.955C61.4655 24.8117 60.0888 24.24 58.3388 24.24C56.5655 24.24 55.1772 24.8117 54.1738 25.955C53.1705 27.075 52.6688 28.615 52.6688 30.575C52.6688 32.5117 53.1705 34.0517 54.1738 35.195C55.1772 36.315 56.5655 36.875 58.3388 36.875ZM93.5527 26.55C93.5527 28.0433 93.2027 29.4083 92.5027 30.645C91.826 31.8583 90.7877 32.8383 89.3877 33.585C88.011 34.3083 86.3193 34.67 84.3127 34.67H80.9177V43H74.0577V18.325H84.3127C86.296 18.325 87.976 18.675 89.3527 19.375C90.7527 20.075 91.8027 21.0433 92.5027 22.28C93.2027 23.5167 93.5527 24.94 93.5527 26.55ZM83.6477 29.21C85.5843 29.21 86.5527 28.3233 86.5527 26.55C86.5527 24.7533 85.5843 23.855 83.6477 23.855H80.9177V29.21H83.6477ZM105.619 43.245C102.749 43.245 100.392 42.5683 98.5486 41.215C96.7053 39.8383 95.7136 37.8783 95.5736 35.335H102.889C102.959 36.1983 103.215 36.8283 103.659 37.225C104.102 37.6217 104.674 37.82 105.374 37.82C106.004 37.82 106.517 37.6683 106.914 37.365C107.334 37.0383 107.544 36.595 107.544 36.035C107.544 35.3117 107.205 34.7517 106.529 34.355C105.852 33.9583 104.755 33.515 103.239 33.025C101.629 32.4883 100.322 31.975 99.3186 31.485C98.3386 30.9717 97.4753 30.2367 96.7286 29.28C96.0053 28.3 95.6436 27.0283 95.6436 25.465C95.6436 23.8783 96.0403 22.525 96.8336 21.405C97.627 20.2617 98.7236 19.3983 100.124 18.815C101.524 18.2317 103.11 17.94 104.884 17.94C107.754 17.94 110.04 18.6167 111.744 19.97C113.47 21.3 114.392 23.1783 114.509 25.605H107.054C107.03 24.8583 106.797 24.2983 106.354 23.925C105.934 23.5517 105.385 23.365 104.709 23.365C104.195 23.365 103.775 23.5167 103.449 23.82C103.122 24.1233 102.959 24.555 102.959 25.115C102.959 25.5817 103.134 25.99 103.484 26.34C103.857 26.6667 104.312 26.9583 104.849 27.215C105.385 27.4483 106.179 27.7517 107.229 28.125C108.792 28.6617 110.075 29.1983 111.079 29.735C112.105 30.2483 112.98 30.9833 113.704 31.94C114.45 32.8733 114.824 34.0633 114.824 35.51C114.824 36.98 114.45 38.2983 113.704 39.465C112.98 40.6317 111.919 41.5533 110.519 42.23C109.142 42.9067 107.509 43.245 105.619 43.245ZM127.183 17.065L126.378 33.76H120.533L119.728 17.065H127.183ZM123.473 43.28C122.259 43.28 121.279 42.9533 120.533 42.3C119.809 41.6233 119.448 40.7717 119.448 39.745C119.448 38.7183 119.809 37.8667 120.533 37.19C121.279 36.5133 122.259 36.175 123.473 36.175C124.663 36.175 125.619 36.5133 126.343 37.19C127.089 37.8667 127.463 38.7183 127.463 39.745C127.463 40.7483 127.089 41.5883 126.343 42.265C125.619 42.9417 124.663 43.28 123.473 43.28Z" fill="#C80A0A"/>
<rect x="406" y="183" width="224" height="52.6609" rx="13.0556" fill="#C80A0A"/>
<path d="M479.596 200.571L473.696 211.946V218.021H470.196V211.946L464.271 200.571H468.221L471.971 208.546L475.696 200.571H479.596ZM485.115 203.396V207.771H490.99V210.546H485.115V215.171H491.74V218.021H481.615V200.546H491.74V203.396H485.115ZM500.945 218.196C499.729 218.196 498.629 217.988 497.645 217.571C496.679 217.155 495.912 216.555 495.345 215.771C494.779 214.988 494.487 214.063 494.47 212.996H498.22C498.27 213.713 498.52 214.28 498.97 214.696C499.437 215.113 500.07 215.321 500.87 215.321C501.687 215.321 502.329 215.13 502.795 214.746C503.262 214.346 503.495 213.83 503.495 213.196C503.495 212.68 503.337 212.255 503.02 211.921C502.704 211.588 502.304 211.33 501.82 211.146C501.354 210.946 500.704 210.73 499.87 210.496C498.737 210.163 497.812 209.838 497.095 209.521C496.395 209.188 495.787 208.696 495.27 208.046C494.77 207.38 494.52 206.496 494.52 205.396C494.52 204.363 494.779 203.463 495.295 202.696C495.812 201.93 496.537 201.346 497.47 200.946C498.404 200.53 499.47 200.321 500.67 200.321C502.47 200.321 503.929 200.763 505.045 201.646C506.179 202.513 506.804 203.73 506.92 205.296H503.07C503.037 204.696 502.779 204.205 502.295 203.821C501.829 203.421 501.204 203.221 500.42 203.221C499.737 203.221 499.187 203.396 498.77 203.746C498.37 204.096 498.17 204.605 498.17 205.271C498.17 205.738 498.32 206.13 498.62 206.446C498.937 206.746 499.32 206.996 499.77 207.196C500.237 207.38 500.887 207.596 501.72 207.846C502.854 208.18 503.779 208.513 504.495 208.846C505.212 209.18 505.829 209.68 506.345 210.346C506.862 211.013 507.12 211.888 507.12 212.971C507.12 213.905 506.879 214.771 506.395 215.571C505.912 216.371 505.204 217.013 504.27 217.496C503.337 217.963 502.229 218.196 500.945 218.196ZM513.98 214.346L511.055 221.371H508.805L510.43 214.346H513.98ZM525.959 200.571V218.021H522.459V200.571H525.959ZM541.474 200.571C543.308 200.571 544.916 200.93 546.299 201.646C547.699 202.363 548.774 203.388 549.524 204.721C550.291 206.038 550.674 207.571 550.674 209.321C550.674 211.071 550.291 212.605 549.524 213.921C548.774 215.221 547.699 216.23 546.299 216.946C544.916 217.663 543.308 218.021 541.474 218.021H535.374V200.571H541.474ZM541.349 215.046C543.183 215.046 544.599 214.546 545.599 213.546C546.599 212.546 547.099 211.138 547.099 209.321C547.099 207.505 546.599 206.088 545.599 205.071C544.599 204.038 543.183 203.521 541.349 203.521H538.874V215.046H541.349ZM561.394 218.196C559.761 218.196 558.261 217.813 556.894 217.046C555.528 216.28 554.444 215.221 553.644 213.871C552.844 212.505 552.444 210.963 552.444 209.246C552.444 207.546 552.844 206.021 553.644 204.671C554.444 203.305 555.528 202.238 556.894 201.471C558.261 200.705 559.761 200.321 561.394 200.321C563.044 200.321 564.544 200.705 565.894 201.471C567.261 202.238 568.336 203.305 569.119 204.671C569.919 206.021 570.319 207.546 570.319 209.246C570.319 210.963 569.919 212.505 569.119 213.871C568.336 215.221 567.261 216.28 565.894 217.046C564.528 217.813 563.028 218.196 561.394 218.196ZM561.394 215.071C562.444 215.071 563.369 214.838 564.169 214.371C564.969 213.888 565.594 213.205 566.044 212.321C566.494 211.438 566.719 210.413 566.719 209.246C566.719 208.08 566.494 207.063 566.044 206.196C565.594 205.313 564.969 204.638 564.169 204.171C563.369 203.705 562.444 203.471 561.394 203.471C560.344 203.471 559.411 203.705 558.594 204.171C557.794 204.638 557.169 205.313 556.719 206.196C556.269 207.063 556.044 208.08 556.044 209.246C556.044 210.413 556.269 211.438 556.719 212.321C557.169 213.205 557.794 213.888 558.594 214.371C559.411 214.838 560.344 215.071 561.394 215.071Z" fill="white" fill-opacity="0.98"/>
<rect x="17" y="183" width="375" height="53" rx="13.0556" fill="#C4C4C4"/>
<path d="M55.0247 219H51.5247L43.5997 207.025V219H40.0997V201.525H43.5997L51.5247 213.525V201.525H55.0247V219ZM66.5835 219.175C64.9502 219.175 63.4502 218.792 62.0835 218.025C60.7168 217.258 59.6335 216.2 58.8335 214.85C58.0335 213.483 57.6335 211.942 57.6335 210.225C57.6335 208.525 58.0335 207 58.8335 205.65C59.6335 204.283 60.7168 203.217 62.0835 202.45C63.4502 201.683 64.9502 201.3 66.5835 201.3C68.2335 201.3 69.7335 201.683 71.0835 202.45C72.4502 203.217 73.5252 204.283 74.3085 205.65C75.1085 207 75.5085 208.525 75.5085 210.225C75.5085 211.942 75.1085 213.483 74.3085 214.85C73.5252 216.2 72.4502 217.258 71.0835 218.025C69.7168 218.792 68.2168 219.175 66.5835 219.175ZM66.5835 216.05C67.6335 216.05 68.5585 215.817 69.3585 215.35C70.1585 214.867 70.7835 214.183 71.2335 213.3C71.6835 212.417 71.9085 211.392 71.9085 210.225C71.9085 209.058 71.6835 208.042 71.2335 207.175C70.7835 206.292 70.1585 205.617 69.3585 205.15C68.5585 204.683 67.6335 204.45 66.5835 204.45C65.5335 204.45 64.6002 204.683 63.7835 205.15C62.9835 205.617 62.3585 206.292 61.9085 207.175C61.4585 208.042 61.2335 209.058 61.2335 210.225C61.2335 211.392 61.4585 212.417 61.9085 213.3C62.3585 214.183 62.9835 214.867 63.7835 215.35C64.6002 215.817 65.5335 216.05 66.5835 216.05ZM81.9374 215.325L79.0124 222.35H76.7624L78.3874 215.325H81.9374ZM109.442 201.55V219H105.942V207.65L101.267 219H98.6171L93.9171 207.65V219H90.4171V201.55H94.3921L99.9421 214.525L105.492 201.55H109.442ZM126.777 201.55L120.877 212.925V219H117.377V212.925L111.452 201.55H115.402L119.152 209.525L122.877 201.55H126.777ZM147.478 206.95C147.478 207.883 147.253 208.758 146.803 209.575C146.37 210.392 145.678 211.05 144.728 211.55C143.795 212.05 142.611 212.3 141.178 212.3H138.253V219H134.753V201.55H141.178C142.528 201.55 143.678 201.783 144.628 202.25C145.578 202.717 146.286 203.358 146.753 204.175C147.236 204.992 147.478 205.917 147.478 206.95ZM141.028 209.475C141.995 209.475 142.711 209.258 143.178 208.825C143.645 208.375 143.878 207.75 143.878 206.95C143.878 205.25 142.928 204.4 141.028 204.4H138.253V209.475H141.028ZM158.963 219L155.113 212.2H153.463V219H149.963V201.55H156.513C157.863 201.55 159.013 201.792 159.963 202.275C160.913 202.742 161.621 203.383 162.088 204.2C162.571 205 162.813 205.9 162.813 206.9C162.813 208.05 162.48 209.092 161.813 210.025C161.146 210.942 160.155 211.575 158.838 211.925L163.013 219H158.963ZM153.463 209.575H156.388C157.338 209.575 158.046 209.35 158.513 208.9C158.98 208.433 159.213 207.792 159.213 206.975C159.213 206.175 158.98 205.558 158.513 205.125C158.046 204.675 157.338 204.45 156.388 204.45H153.463V209.575ZM174.079 219.175C172.445 219.175 170.945 218.792 169.579 218.025C168.212 217.258 167.129 216.2 166.329 214.85C165.529 213.483 165.129 211.942 165.129 210.225C165.129 208.525 165.529 207 166.329 205.65C167.129 204.283 168.212 203.217 169.579 202.45C170.945 201.683 172.445 201.3 174.079 201.3C175.729 201.3 177.229 201.683 178.579 202.45C179.945 203.217 181.02 204.283 181.804 205.65C182.604 207 183.004 208.525 183.004 210.225C183.004 211.942 182.604 213.483 181.804 214.85C181.02 216.2 179.945 217.258 178.579 218.025C177.212 218.792 175.712 219.175 174.079 219.175ZM174.079 216.05C175.129 216.05 176.054 215.817 176.854 215.35C177.654 214.867 178.279 214.183 178.729 213.3C179.179 212.417 179.404 211.392 179.404 210.225C179.404 209.058 179.179 208.042 178.729 207.175C178.279 206.292 177.654 205.617 176.854 205.15C176.054 204.683 175.129 204.45 174.079 204.45C173.029 204.45 172.095 204.683 171.279 205.15C170.479 205.617 169.854 206.292 169.404 207.175C168.954 208.042 168.729 209.058 168.729 210.225C168.729 211.392 168.954 212.417 169.404 213.3C169.854 214.183 170.479 214.867 171.279 215.35C172.095 215.817 173.029 216.05 174.079 216.05ZM195.508 210.05C196.491 210.233 197.299 210.725 197.933 211.525C198.566 212.325 198.883 213.242 198.883 214.275C198.883 215.208 198.649 216.033 198.183 216.75C197.733 217.45 197.074 218 196.208 218.4C195.341 218.8 194.316 219 193.133 219H185.608V201.55H192.808C193.991 201.55 195.008 201.742 195.858 202.125C196.724 202.508 197.374 203.042 197.808 203.725C198.258 204.408 198.483 205.183 198.483 206.05C198.483 207.067 198.208 207.917 197.658 208.6C197.124 209.283 196.408 209.767 195.508 210.05ZM189.108 208.75H192.308C193.141 208.75 193.783 208.567 194.233 208.2C194.683 207.817 194.908 207.275 194.908 206.575C194.908 205.875 194.683 205.333 194.233 204.95C193.783 204.567 193.141 204.375 192.308 204.375H189.108V208.75ZM192.633 216.15C193.483 216.15 194.141 215.95 194.608 215.55C195.091 215.15 195.333 214.583 195.333 213.85C195.333 213.1 195.083 212.517 194.583 212.1C194.083 211.667 193.408 211.45 192.558 211.45H189.108V216.15H192.633ZM205.172 216.225H210.922V219H201.672V201.55H205.172V216.225ZM216.647 204.375V208.75H222.522V211.525H216.647V216.15H223.272V219H213.147V201.525H223.272V204.375H216.647ZM245.477 201.55V219H241.977V207.65L237.302 219H234.652L229.952 207.65V219H226.452V201.55H230.427L235.977 214.525L241.527 201.55H245.477ZM249.638 201.55H253.313L250.613 207.85H248.213L249.638 201.55ZM261.847 219.175C260.631 219.175 259.531 218.967 258.547 218.55C257.581 218.133 256.814 217.533 256.247 216.75C255.681 215.967 255.389 215.042 255.372 213.975H259.122C259.172 214.692 259.422 215.258 259.872 215.675C260.339 216.092 260.972 216.3 261.772 216.3C262.589 216.3 263.231 216.108 263.697 215.725C264.164 215.325 264.397 214.808 264.397 214.175C264.397 213.658 264.239 213.233 263.922 212.9C263.606 212.567 263.206 212.308 262.722 212.125C262.256 211.925 261.606 211.708 260.772 211.475C259.639 211.142 258.714 210.817 257.997 210.5C257.297 210.167 256.689 209.675 256.172 209.025C255.672 208.358 255.422 207.475 255.422 206.375C255.422 205.342 255.681 204.442 256.197 203.675C256.714 202.908 257.439 202.325 258.372 201.925C259.306 201.508 260.372 201.3 261.572 201.3C263.372 201.3 264.831 201.742 265.947 202.625C267.081 203.492 267.706 204.708 267.822 206.275H263.972C263.939 205.675 263.681 205.183 263.197 204.8C262.731 204.4 262.106 204.2 261.322 204.2C260.639 204.2 260.089 204.375 259.672 204.725C259.272 205.075 259.072 205.583 259.072 206.25C259.072 206.717 259.222 207.108 259.522 207.425C259.839 207.725 260.222 207.975 260.672 208.175C261.139 208.358 261.789 208.575 262.622 208.825C263.756 209.158 264.681 209.492 265.397 209.825C266.114 210.158 266.731 210.658 267.247 211.325C267.764 211.992 268.022 212.867 268.022 213.95C268.022 214.883 267.781 215.75 267.297 216.55C266.814 217.35 266.106 217.992 265.172 218.475C264.239 218.942 263.131 219.175 261.847 219.175ZM283.039 219.175C281.822 219.175 280.722 218.967 279.739 218.55C278.772 218.133 278.005 217.533 277.439 216.75C276.872 215.967 276.58 215.042 276.564 213.975H280.314C280.364 214.692 280.614 215.258 281.064 215.675C281.53 216.092 282.164 216.3 282.964 216.3C283.78 216.3 284.422 216.108 284.889 215.725C285.355 215.325 285.589 214.808 285.589 214.175C285.589 213.658 285.43 213.233 285.114 212.9C284.797 212.567 284.397 212.308 283.914 212.125C283.447 211.925 282.797 211.708 281.964 211.475C280.83 211.142 279.905 210.817 279.189 210.5C278.489 210.167 277.88 209.675 277.364 209.025C276.864 208.358 276.614 207.475 276.614 206.375C276.614 205.342 276.872 204.442 277.389 203.675C277.905 202.908 278.63 202.325 279.564 201.925C280.497 201.508 281.564 201.3 282.764 201.3C284.564 201.3 286.022 201.742 287.139 202.625C288.272 203.492 288.897 204.708 289.014 206.275H285.164C285.13 205.675 284.872 205.183 284.389 204.8C283.922 204.4 283.297 204.2 282.514 204.2C281.83 204.2 281.28 204.375 280.864 204.725C280.464 205.075 280.264 205.583 280.264 206.25C280.264 206.717 280.414 207.108 280.714 207.425C281.03 207.725 281.414 207.975 281.864 208.175C282.33 208.358 282.98 208.575 283.814 208.825C284.947 209.158 285.872 209.492 286.589 209.825C287.305 210.158 287.922 210.658 288.439 211.325C288.955 211.992 289.214 212.867 289.214 213.95C289.214 214.883 288.972 215.75 288.489 216.55C288.005 217.35 287.297 217.992 286.364 218.475C285.43 218.942 284.322 219.175 283.039 219.175ZM300.348 219.175C298.715 219.175 297.215 218.792 295.848 218.025C294.481 217.258 293.398 216.2 292.598 214.85C291.798 213.483 291.398 211.942 291.398 210.225C291.398 208.525 291.798 207 292.598 205.65C293.398 204.283 294.481 203.217 295.848 202.45C297.215 201.683 298.715 201.3 300.348 201.3C301.998 201.3 303.498 201.683 304.848 202.45C306.215 203.217 307.29 204.283 308.073 205.65C308.873 207 309.273 208.525 309.273 210.225C309.273 211.942 308.873 213.483 308.073 214.85C307.29 216.2 306.215 217.258 304.848 218.025C303.481 218.792 301.981 219.175 300.348 219.175ZM300.348 216.05C301.398 216.05 302.323 215.817 303.123 215.35C303.923 214.867 304.548 214.183 304.998 213.3C305.448 212.417 305.673 211.392 305.673 210.225C305.673 209.058 305.448 208.042 304.998 207.175C304.548 206.292 303.923 205.617 303.123 205.15C302.323 204.683 301.398 204.45 300.348 204.45C299.298 204.45 298.365 204.683 297.548 205.15C296.748 205.617 296.123 206.292 295.673 207.175C295.223 208.042 294.998 209.058 294.998 210.225C294.998 211.392 295.223 212.417 295.673 213.3C296.123 214.183 296.748 214.867 297.548 215.35C298.365 215.817 299.298 216.05 300.348 216.05ZM315.377 216.225H321.127V219H311.877V201.55H315.377V216.225ZM339.027 201.55L332.627 219H328.377L321.977 201.55H325.727L330.527 215.425L335.302 201.55H339.027ZM344.625 204.375V208.75H350.5V211.525H344.625V216.15H351.25V219H341.125V201.525H351.25V204.375H344.625ZM360.531 201.55C362.364 201.55 363.972 201.908 365.356 202.625C366.756 203.342 367.831 204.367 368.581 205.7C369.347 207.017 369.731 208.55 369.731 210.3C369.731 212.05 369.347 213.583 368.581 214.9C367.831 216.2 366.756 217.208 365.356 217.925C363.972 218.642 362.364 219 360.531 219H354.431V201.55H360.531ZM360.406 216.025C362.239 216.025 363.656 215.525 364.656 214.525C365.656 213.525 366.156 212.117 366.156 210.3C366.156 208.483 365.656 207.067 364.656 206.05C363.656 205.017 362.239 204.5 360.406 204.5H357.931V216.025H360.406Z" fill="white" fill-opacity="0.98"/>
</g>
<defs>
<clipPath id="clip0_588_2233">
<rect width="647" height="266" rx="10" fill="white"/>
</clipPath>
</defs>
</svg>
