<svg width="647" height="379" viewBox="0 0 647 379" fill="none" xmlns="http://www.w3.org/2000/svg">
<g clip-path="url(#clip0_588_2198)">
<rect width="647" height="379" rx="10" fill="white"/>
<path d="M0 15C0 6.71573 6.71573 0 15 0H632C640.284 0 647 6.71573 647 15V364C647 372.284 640.284 379 632 379H15C6.71574 379 0 372.284 0 364V15Z" fill="white"/>
<line x1="1.35196e-08" y1="67.747" x2="647" y2="67.747" stroke="#CCCCCC" stroke-width="0.3"/>
<path d="M32.18 86.09V88.31H26.48V107H23.75V88.31H18.02V86.09H32.18ZM43.7005 90.26C44.9405 90.26 46.0605 90.53 47.0605 91.07C48.0605 91.59 48.8405 92.38 49.4005 93.44C49.9805 94.5 50.2705 95.79 50.2705 97.31V107H47.5705V97.7C47.5705 96.06 47.1605 94.81 46.3405 93.95C45.5205 93.07 44.4005 92.63 42.9805 92.63C41.5405 92.63 40.3905 93.08 39.5305 93.98C38.6905 94.88 38.2705 96.19 38.2705 97.91V107H35.5405V84.8H38.2705V92.9C38.8105 92.06 39.5505 91.41 40.4905 90.95C41.4505 90.49 42.5205 90.26 43.7005 90.26ZM69.7299 98.15C69.7299 98.67 69.6999 99.22 69.6399 99.8H56.4999C56.5999 101.42 57.1499 102.69 58.1499 103.61C59.1699 104.51 60.3999 104.96 61.8399 104.96C63.0199 104.96 63.9999 104.69 64.7799 104.15C65.5799 103.59 66.1399 102.85 66.4599 101.93H69.3999C68.9599 103.51 68.0799 104.8 66.7599 105.8C65.4399 106.78 63.7999 107.27 61.8399 107.27C60.2799 107.27 58.8799 106.92 57.6399 106.22C56.4199 105.52 55.4599 104.53 54.7599 103.25C54.0599 101.95 53.7099 100.45 53.7099 98.75C53.7099 97.05 54.0499 95.56 54.7299 94.28C55.4099 93 56.3599 92.02 57.5799 91.34C58.8199 90.64 60.2399 90.29 61.8399 90.29C63.3999 90.29 64.7799 90.63 65.9799 91.31C67.1799 91.99 68.0999 92.93 68.7399 94.13C69.3999 95.31 69.7299 96.65 69.7299 98.15ZM66.9099 97.58C66.9099 96.54 66.6799 95.65 66.2199 94.91C65.7599 94.15 65.1299 93.58 64.3299 93.2C63.5499 92.8 62.6799 92.6 61.7199 92.6C60.3399 92.6 59.1599 93.04 58.1799 93.92C57.2199 94.8 56.6699 96.02 56.5299 97.58H66.9099ZM84.0615 93.59C84.6015 92.65 85.4015 91.87 86.4615 91.25C87.5415 90.61 88.7915 90.29 90.2115 90.29C91.6715 90.29 92.9915 90.64 94.1715 91.34C95.3715 92.04 96.3115 93.03 96.9915 94.31C97.6715 95.57 98.0115 97.04 98.0115 98.72C98.0115 100.38 97.6715 101.86 96.9915 103.16C96.3115 104.46 95.3715 105.47 94.1715 106.19C92.9915 106.91 91.6715 107.27 90.2115 107.27C88.8115 107.27 87.5715 106.96 86.4915 106.34C85.4315 105.7 84.6215 104.91 84.0615 103.97V114.8H81.3315V90.56H84.0615V93.59ZM95.2215 98.72C95.2215 97.48 94.9715 96.4 94.4715 95.48C93.9715 94.56 93.2915 93.86 92.4315 93.38C91.5915 92.9 90.6615 92.66 89.6415 92.66C88.6415 92.66 87.7115 92.91 86.8515 93.41C86.0115 93.89 85.3315 94.6 84.8115 95.54C84.3115 96.46 84.0615 97.53 84.0615 98.75C84.0615 99.99 84.3115 101.08 84.8115 102.02C85.3315 102.94 86.0115 103.65 86.8515 104.15C87.7115 104.63 88.6415 104.87 89.6415 104.87C90.6615 104.87 91.5915 104.63 92.4315 104.15C93.2915 103.65 93.9715 102.94 94.4715 102.02C94.9715 101.08 95.2215 99.98 95.2215 98.72ZM116.605 98.15C116.605 98.67 116.575 99.22 116.515 99.8H103.375C103.475 101.42 104.025 102.69 105.025 103.61C106.045 104.51 107.275 104.96 108.715 104.96C109.895 104.96 110.875 104.69 111.655 104.15C112.455 103.59 113.015 102.85 113.335 101.93H116.275C115.835 103.51 114.955 104.8 113.635 105.8C112.315 106.78 110.675 107.27 108.715 107.27C107.155 107.27 105.755 106.92 104.515 106.22C103.295 105.52 102.335 104.53 101.635 103.25C100.935 101.95 100.585 100.45 100.585 98.75C100.585 97.05 100.925 95.56 101.605 94.28C102.285 93 103.235 92.02 104.455 91.34C105.695 90.64 107.115 90.29 108.715 90.29C110.275 90.29 111.655 90.63 112.855 91.31C114.055 91.99 114.975 92.93 115.615 94.13C116.275 95.31 116.605 96.65 116.605 98.15ZM113.785 97.58C113.785 96.54 113.555 95.65 113.095 94.91C112.635 94.15 112.005 93.58 111.205 93.2C110.425 92.8 109.555 92.6 108.595 92.6C107.215 92.6 106.035 93.04 105.055 93.92C104.095 94.8 103.545 96.02 103.405 97.58H113.785ZM122.938 93.23C123.418 92.29 124.098 91.56 124.978 91.04C125.878 90.52 126.968 90.26 128.248 90.26V93.08H127.528C124.468 93.08 122.938 94.74 122.938 98.06V107H120.208V90.56H122.938V93.23ZM137.22 107.27C135.96 107.27 134.83 107.06 133.83 106.64C132.83 106.2 132.04 105.6 131.46 104.84C130.88 104.06 130.56 103.17 130.5 102.17H133.32C133.4 102.99 133.78 103.66 134.46 104.18C135.16 104.7 136.07 104.96 137.19 104.96C138.23 104.96 139.05 104.73 139.65 104.27C140.25 103.81 140.55 103.23 140.55 102.53C140.55 101.81 140.23 101.28 139.59 100.94C138.95 100.58 137.96 100.23 136.62 99.89C135.4 99.57 134.4 99.25 133.62 98.93C132.86 98.59 132.2 98.1 131.64 97.46C131.1 96.8 130.83 95.94 130.83 94.88C130.83 94.04 131.08 93.27 131.58 92.57C132.08 91.87 132.79 91.32 133.71 90.92C134.63 90.5 135.68 90.29 136.86 90.29C138.68 90.29 140.15 90.75 141.27 91.67C142.39 92.59 142.99 93.85 143.07 95.45H140.34C140.28 94.59 139.93 93.9 139.29 93.38C138.67 92.86 137.83 92.6 136.77 92.6C135.79 92.6 135.01 92.81 134.43 93.23C133.85 93.65 133.56 94.2 133.56 94.88C133.56 95.42 133.73 95.87 134.07 96.23C134.43 96.57 134.87 96.85 135.39 97.07C135.93 97.27 136.67 97.5 137.61 97.76C138.79 98.08 139.75 98.4 140.49 98.72C141.23 99.02 141.86 99.48 142.38 100.1C142.92 100.72 143.2 101.53 143.22 102.53C143.22 103.43 142.97 104.24 142.47 104.96C141.97 105.68 141.26 106.25 140.34 106.67C139.44 107.07 138.4 107.27 137.22 107.27ZM154.244 107.27C152.704 107.27 151.304 106.92 150.044 106.22C148.804 105.52 147.824 104.53 147.104 103.25C146.404 101.95 146.054 100.45 146.054 98.75C146.054 97.07 146.414 95.59 147.134 94.31C147.874 93.01 148.874 92.02 150.134 91.34C151.394 90.64 152.804 90.29 154.364 90.29C155.924 90.29 157.334 90.64 158.594 91.34C159.854 92.02 160.844 93 161.564 94.28C162.304 95.56 162.674 97.05 162.674 98.75C162.674 100.45 162.294 101.95 161.534 103.25C160.794 104.53 159.784 105.52 158.504 106.22C157.224 106.92 155.804 107.27 154.244 107.27ZM154.244 104.87C155.224 104.87 156.144 104.64 157.004 104.18C157.864 103.72 158.554 103.03 159.074 102.11C159.614 101.19 159.884 100.07 159.884 98.75C159.884 97.43 159.624 96.31 159.104 95.39C158.584 94.47 157.904 93.79 157.064 93.35C156.224 92.89 155.314 92.66 154.334 92.66C153.334 92.66 152.414 92.89 151.574 93.35C150.754 93.79 150.094 94.47 149.594 95.39C149.094 96.31 148.844 97.43 148.844 98.75C148.844 100.09 149.084 101.22 149.564 102.14C150.064 103.06 150.724 103.75 151.544 104.21C152.364 104.65 153.264 104.87 154.244 104.87ZM174.273 90.26C176.273 90.26 177.893 90.87 179.133 92.09C180.373 93.29 180.993 95.03 180.993 97.31V107H178.293V97.7C178.293 96.06 177.883 94.81 177.063 93.95C176.243 93.07 175.123 92.63 173.703 92.63C172.263 92.63 171.113 93.08 170.253 93.98C169.413 94.88 168.993 96.19 168.993 97.91V107H166.263V90.56H168.993V92.9C169.533 92.06 170.263 91.41 171.183 90.95C172.123 90.49 173.153 90.26 174.273 90.26ZM215.351 90.56L210.221 107H207.401L203.441 93.95L199.481 107H196.661L191.501 90.56H194.291L198.071 104.36L202.151 90.56H204.941L208.931 104.39L212.651 90.56H215.351ZM226.22 90.26C227.46 90.26 228.58 90.53 229.58 91.07C230.58 91.59 231.36 92.38 231.92 93.44C232.5 94.5 232.79 95.79 232.79 97.31V107H230.09V97.7C230.09 96.06 229.68 94.81 228.86 93.95C228.04 93.07 226.92 92.63 225.5 92.63C224.06 92.63 222.91 93.08 222.05 93.98C221.21 94.88 220.79 96.19 220.79 97.91V107H218.06V84.8H220.79V92.9C221.33 92.06 222.07 91.41 223.01 90.95C223.97 90.49 225.04 90.26 226.22 90.26ZM244.419 107.27C242.879 107.27 241.479 106.92 240.219 106.22C238.979 105.52 237.999 104.53 237.279 103.25C236.579 101.95 236.229 100.45 236.229 98.75C236.229 97.07 236.589 95.59 237.309 94.31C238.049 93.01 239.049 92.02 240.309 91.34C241.569 90.64 242.979 90.29 244.539 90.29C246.099 90.29 247.509 90.64 248.769 91.34C250.029 92.02 251.019 93 251.739 94.28C252.479 95.56 252.849 97.05 252.849 98.75C252.849 100.45 252.469 101.95 251.709 103.25C250.969 104.53 249.959 105.52 248.679 106.22C247.399 106.92 245.979 107.27 244.419 107.27ZM244.419 104.87C245.399 104.87 246.319 104.64 247.179 104.18C248.039 103.72 248.729 103.03 249.249 102.11C249.789 101.19 250.059 100.07 250.059 98.75C250.059 97.43 249.799 96.31 249.279 95.39C248.759 94.47 248.079 93.79 247.239 93.35C246.399 92.89 245.489 92.66 244.509 92.66C243.509 92.66 242.589 92.89 241.749 93.35C240.929 93.79 240.269 94.47 239.769 95.39C239.269 96.31 239.019 97.43 239.019 98.75C239.019 100.09 239.259 101.22 239.739 102.14C240.239 103.06 240.899 103.75 241.719 104.21C242.539 104.65 243.439 104.87 244.419 104.87ZM272.597 90.26C273.837 90.26 274.957 90.53 275.957 91.07C276.957 91.59 277.737 92.38 278.297 93.44C278.877 94.5 279.167 95.79 279.167 97.31V107H276.467V97.7C276.467 96.06 276.057 94.81 275.237 93.95C274.417 93.07 273.297 92.63 271.877 92.63C270.437 92.63 269.287 93.08 268.427 93.98C267.587 94.88 267.167 96.19 267.167 97.91V107H264.437V84.8H267.167V92.9C267.707 92.06 268.447 91.41 269.387 90.95C270.347 90.49 271.417 90.26 272.597 90.26ZM298.626 98.15C298.626 98.67 298.596 99.22 298.536 99.8H285.396C285.496 101.42 286.046 102.69 287.046 103.61C288.066 104.51 289.296 104.96 290.736 104.96C291.916 104.96 292.896 104.69 293.676 104.15C294.476 103.59 295.036 102.85 295.356 101.93H298.296C297.856 103.51 296.976 104.8 295.656 105.8C294.336 106.78 292.696 107.27 290.736 107.27C289.176 107.27 287.776 106.92 286.536 106.22C285.316 105.52 284.356 104.53 283.656 103.25C282.956 101.95 282.606 100.45 282.606 98.75C282.606 97.05 282.946 95.56 283.626 94.28C284.306 93 285.256 92.02 286.476 91.34C287.716 90.64 289.136 90.29 290.736 90.29C292.296 90.29 293.676 90.63 294.876 91.31C296.076 91.99 296.996 92.93 297.636 94.13C298.296 95.31 298.626 96.65 298.626 98.15ZM295.806 97.58C295.806 96.54 295.576 95.65 295.116 94.91C294.656 94.15 294.026 93.58 293.226 93.2C292.446 92.8 291.576 92.6 290.616 92.6C289.236 92.6 288.056 93.04 287.076 93.92C286.116 94.8 285.566 96.02 285.426 97.58H295.806ZM304.96 84.8V107H302.23V84.8H304.96ZM312.343 93.59C312.883 92.65 313.683 91.87 314.743 91.25C315.823 90.61 317.073 90.29 318.493 90.29C319.953 90.29 321.273 90.64 322.453 91.34C323.653 92.04 324.593 93.03 325.273 94.31C325.953 95.57 326.293 97.04 326.293 98.72C326.293 100.38 325.953 101.86 325.273 103.16C324.593 104.46 323.653 105.47 322.453 106.19C321.273 106.91 319.953 107.27 318.493 107.27C317.093 107.27 315.853 106.96 314.773 106.34C313.713 105.7 312.903 104.91 312.343 103.97V114.8H309.613V90.56H312.343V93.59ZM323.503 98.72C323.503 97.48 323.253 96.4 322.753 95.48C322.253 94.56 321.573 93.86 320.713 93.38C319.873 92.9 318.943 92.66 317.923 92.66C316.923 92.66 315.993 92.91 315.133 93.41C314.293 93.89 313.613 94.6 313.093 95.54C312.593 96.46 312.343 97.53 312.343 98.75C312.343 99.99 312.593 101.08 313.093 102.02C313.613 102.94 314.293 103.65 315.133 104.15C315.993 104.63 316.923 104.87 317.923 104.87C318.943 104.87 319.873 104.63 320.713 104.15C321.573 103.65 322.253 102.94 322.753 102.02C323.253 101.08 323.503 99.98 323.503 98.72ZM344.886 98.15C344.886 98.67 344.856 99.22 344.796 99.8H331.656C331.756 101.42 332.306 102.69 333.306 103.61C334.326 104.51 335.556 104.96 336.996 104.96C338.176 104.96 339.156 104.69 339.936 104.15C340.736 103.59 341.296 102.85 341.616 101.93H344.556C344.116 103.51 343.236 104.8 341.916 105.8C340.596 106.78 338.956 107.27 336.996 107.27C335.436 107.27 334.036 106.92 332.796 106.22C331.576 105.52 330.616 104.53 329.916 103.25C329.216 101.95 328.866 100.45 328.866 98.75C328.866 97.05 329.206 95.56 329.886 94.28C330.566 93 331.516 92.02 332.736 91.34C333.976 90.64 335.396 90.29 336.996 90.29C338.556 90.29 339.936 90.63 341.136 91.31C342.336 91.99 343.256 92.93 343.896 94.13C344.556 95.31 344.886 96.65 344.886 98.15ZM342.066 97.58C342.066 96.54 341.836 95.65 341.376 94.91C340.916 94.15 340.286 93.58 339.486 93.2C338.706 92.8 337.836 92.6 336.876 92.6C335.496 92.6 334.316 93.04 333.336 93.92C332.376 94.8 331.826 96.02 331.686 97.58H342.066ZM347.47 98.72C347.47 97.04 347.81 95.57 348.49 94.31C349.17 93.03 350.1 92.04 351.28 91.34C352.48 90.64 353.82 90.29 355.3 90.29C356.58 90.29 357.77 90.59 358.87 91.19C359.97 91.77 360.81 92.54 361.39 93.5V84.8H364.15V107H361.39V103.91C360.85 104.89 360.05 105.7 358.99 106.34C357.93 106.96 356.69 107.27 355.27 107.27C353.81 107.27 352.48 106.91 351.28 106.19C350.1 105.47 349.17 104.46 348.49 103.16C347.81 101.86 347.47 100.38 347.47 98.72ZM361.39 98.75C361.39 97.51 361.14 96.43 360.64 95.51C360.14 94.59 359.46 93.89 358.6 93.41C357.76 92.91 356.83 92.66 355.81 92.66C354.79 92.66 353.86 92.9 353.02 93.38C352.18 93.86 351.51 94.56 351.01 95.48C350.51 96.4 350.26 97.48 350.26 98.72C350.26 99.98 350.51 101.08 351.01 102.02C351.51 102.94 352.18 103.65 353.02 104.15C353.86 104.63 354.79 104.87 355.81 104.87C356.83 104.87 357.76 104.63 358.6 104.15C359.46 103.65 360.14 102.94 360.64 102.02C361.14 101.08 361.39 99.99 361.39 98.75ZM390.921 90.56L381.021 114.74H378.201L381.441 106.82L374.811 90.56H377.841L383.001 103.88L388.101 90.56H390.921ZM400.835 107.27C399.295 107.27 397.895 106.92 396.635 106.22C395.395 105.52 394.415 104.53 393.695 103.25C392.995 101.95 392.645 100.45 392.645 98.75C392.645 97.07 393.005 95.59 393.725 94.31C394.465 93.01 395.465 92.02 396.725 91.34C397.985 90.64 399.395 90.29 400.955 90.29C402.515 90.29 403.925 90.64 405.185 91.34C406.445 92.02 407.435 93 408.155 94.28C408.895 95.56 409.265 97.05 409.265 98.75C409.265 100.45 408.885 101.95 408.125 103.25C407.385 104.53 406.375 105.52 405.095 106.22C403.815 106.92 402.395 107.27 400.835 107.27ZM400.835 104.87C401.815 104.87 402.735 104.64 403.595 104.18C404.455 103.72 405.145 103.03 405.665 102.11C406.205 101.19 406.475 100.07 406.475 98.75C406.475 97.43 406.215 96.31 405.695 95.39C405.175 94.47 404.495 93.79 403.655 93.35C402.815 92.89 401.905 92.66 400.925 92.66C399.925 92.66 399.005 92.89 398.165 93.35C397.345 93.79 396.685 94.47 396.185 95.39C395.685 96.31 395.435 97.43 395.435 98.75C395.435 100.09 395.675 101.22 396.155 102.14C396.655 103.06 397.315 103.75 398.135 104.21C398.955 104.65 399.855 104.87 400.835 104.87ZM427.435 90.56V107H424.705V104.57C424.185 105.41 423.455 106.07 422.515 106.55C421.595 107.01 420.575 107.24 419.455 107.24C418.175 107.24 417.025 106.98 416.005 106.46C414.985 105.92 414.175 105.12 413.575 104.06C412.995 103 412.705 101.71 412.705 100.19V90.56H415.405V99.83C415.405 101.45 415.815 102.7 416.635 103.58C417.455 104.44 418.575 104.87 419.995 104.87C421.455 104.87 422.605 104.42 423.445 103.52C424.285 102.62 424.705 101.31 424.705 99.59V90.56H427.435ZM448.202 90.26C449.442 90.26 450.562 90.53 451.562 91.07C452.562 91.59 453.342 92.38 453.902 93.44C454.482 94.5 454.772 95.79 454.772 97.31V107H452.072V97.7C452.072 96.06 451.662 94.81 450.842 93.95C450.022 93.07 448.902 92.63 447.482 92.63C446.042 92.63 444.892 93.08 444.032 93.98C443.192 94.88 442.772 96.19 442.772 97.91V107H440.042V84.8H442.772V92.9C443.312 92.06 444.052 91.41 444.992 90.95C445.952 90.49 447.022 90.26 448.202 90.26ZM458.212 98.72C458.212 97.04 458.552 95.57 459.232 94.31C459.912 93.03 460.842 92.04 462.022 91.34C463.222 90.64 464.552 90.29 466.012 90.29C467.452 90.29 468.702 90.6 469.762 91.22C470.822 91.84 471.612 92.62 472.132 93.56V90.56H474.892V107H472.132V103.94C471.592 104.9 470.782 105.7 469.702 106.34C468.642 106.96 467.402 107.27 465.982 107.27C464.522 107.27 463.202 106.91 462.022 106.19C460.842 105.47 459.912 104.46 459.232 103.16C458.552 101.86 458.212 100.38 458.212 98.72ZM472.132 98.75C472.132 97.51 471.882 96.43 471.382 95.51C470.882 94.59 470.202 93.89 469.342 93.41C468.502 92.91 467.572 92.66 466.552 92.66C465.532 92.66 464.602 92.9 463.762 93.38C462.922 93.86 462.252 94.56 461.752 95.48C461.252 96.4 461.002 97.48 461.002 98.72C461.002 99.98 461.252 101.08 461.752 102.02C462.252 102.94 462.922 103.65 463.762 104.15C464.602 104.63 465.532 104.87 466.552 104.87C467.572 104.87 468.502 104.63 469.342 104.15C470.202 103.65 470.882 102.94 471.382 102.02C471.882 101.08 472.132 99.99 472.132 98.75ZM485.325 107.27C484.065 107.27 482.935 107.06 481.935 106.64C480.935 106.2 480.145 105.6 479.565 104.84C478.985 104.06 478.665 103.17 478.605 102.17H481.425C481.505 102.99 481.885 103.66 482.565 104.18C483.265 104.7 484.175 104.96 485.295 104.96C486.335 104.96 487.155 104.73 487.755 104.27C488.355 103.81 488.655 103.23 488.655 102.53C488.655 101.81 488.335 101.28 487.695 100.94C487.055 100.58 486.065 100.23 484.725 99.89C483.505 99.57 482.505 99.25 481.725 98.93C480.965 98.59 480.305 98.1 479.745 97.46C479.205 96.8 478.935 95.94 478.935 94.88C478.935 94.04 479.185 93.27 479.685 92.57C480.185 91.87 480.895 91.32 481.815 90.92C482.735 90.5 483.785 90.29 484.965 90.29C486.785 90.29 488.255 90.75 489.375 91.67C490.495 92.59 491.095 93.85 491.175 95.45H488.445C488.385 94.59 488.035 93.9 487.395 93.38C486.775 92.86 485.935 92.6 484.875 92.6C483.895 92.6 483.115 92.81 482.535 93.23C481.955 93.65 481.665 94.2 481.665 94.88C481.665 95.42 481.835 95.87 482.175 96.23C482.535 96.57 482.975 96.85 483.495 97.07C484.035 97.27 484.775 97.5 485.715 97.76C486.895 98.08 487.855 98.4 488.595 98.72C489.335 99.02 489.965 99.48 490.485 100.1C491.025 100.72 491.305 101.53 491.325 102.53C491.325 103.43 491.075 104.24 490.575 104.96C490.075 105.68 489.365 106.25 488.445 106.67C487.545 107.07 486.505 107.27 485.325 107.27ZM18.29 143.75C18.29 142.05 18.63 140.57 19.31 139.31C19.99 138.03 20.93 137.04 22.13 136.34C23.35 135.64 24.74 135.29 26.3 135.29C28.32 135.29 29.98 135.78 31.28 136.76C32.6 137.74 33.47 139.1 33.89 140.84H30.95C30.67 139.84 30.12 139.05 29.3 138.47C28.5 137.89 27.5 137.6 26.3 137.6C24.74 137.6 23.48 138.14 22.52 139.22C21.56 140.28 21.08 141.79 21.08 143.75C21.08 145.73 21.56 147.26 22.52 148.34C23.48 149.42 24.74 149.96 26.3 149.96C27.5 149.96 28.5 149.68 29.3 149.12C30.1 148.56 30.65 147.76 30.95 146.72H33.89C33.45 148.4 32.57 149.75 31.25 150.77C29.93 151.77 28.28 152.27 26.3 152.27C24.74 152.27 23.35 151.92 22.13 151.22C20.93 150.52 19.99 149.53 19.31 148.25C18.63 146.97 18.29 145.47 18.29 143.75ZM44.7027 152.27C43.1627 152.27 41.7627 151.92 40.5027 151.22C39.2627 150.52 38.2827 149.53 37.5627 148.25C36.8627 146.95 36.5127 145.45 36.5127 143.75C36.5127 142.07 36.8727 140.59 37.5927 139.31C38.3327 138.01 39.3327 137.02 40.5927 136.34C41.8527 135.64 43.2627 135.29 44.8227 135.29C46.3827 135.29 47.7927 135.64 49.0527 136.34C50.3127 137.02 51.3027 138 52.0227 139.28C52.7627 140.56 53.1327 142.05 53.1327 143.75C53.1327 145.45 52.7527 146.95 51.9927 148.25C51.2527 149.53 50.2427 150.52 48.9627 151.22C47.6827 151.92 46.2627 152.27 44.7027 152.27ZM44.7027 149.87C45.6827 149.87 46.6027 149.64 47.4627 149.18C48.3227 148.72 49.0127 148.03 49.5327 147.11C50.0727 146.19 50.3427 145.07 50.3427 143.75C50.3427 142.43 50.0827 141.31 49.5627 140.39C49.0427 139.47 48.3627 138.79 47.5227 138.35C46.6827 137.89 45.7727 137.66 44.7927 137.66C43.7927 137.66 42.8727 137.89 42.0327 138.35C41.2127 138.79 40.5527 139.47 40.0527 140.39C39.5527 141.31 39.3027 142.43 39.3027 143.75C39.3027 145.09 39.5427 146.22 40.0227 147.14C40.5227 148.06 41.1827 148.75 42.0027 149.21C42.8227 149.65 43.7227 149.87 44.7027 149.87ZM64.7321 135.26C66.7321 135.26 68.3521 135.87 69.5921 137.09C70.8321 138.29 71.4521 140.03 71.4521 142.31V152H68.7521V142.7C68.7521 141.06 68.3421 139.81 67.5221 138.95C66.7021 138.07 65.5821 137.63 64.1621 137.63C62.7221 137.63 61.5721 138.08 60.7121 138.98C59.8721 139.88 59.4521 141.19 59.4521 142.91V152H56.7221V135.56H59.4521V137.9C59.9921 137.06 60.7221 136.41 61.6421 135.95C62.5821 135.49 63.6121 135.26 64.7321 135.26ZM82.6016 137.81H79.1516V152H76.4216V137.81H74.2916V135.56H76.4216V134.39C76.4216 132.55 76.8916 131.21 77.8316 130.37C78.7916 129.51 80.3216 129.08 82.4216 129.08V131.36C81.2216 131.36 80.3716 131.6 79.8716 132.08C79.3916 132.54 79.1516 133.31 79.1516 134.39V135.56H82.6016V137.81ZM87.1946 132.89C86.6746 132.89 86.2346 132.71 85.8746 132.35C85.5146 131.99 85.3346 131.55 85.3346 131.03C85.3346 130.51 85.5146 130.07 85.8746 129.71C86.2346 129.35 86.6746 129.17 87.1946 129.17C87.6946 129.17 88.1146 129.35 88.4546 129.71C88.8146 130.07 88.9946 130.51 88.9946 131.03C88.9946 131.55 88.8146 131.99 88.4546 132.35C88.1146 132.71 87.6946 132.89 87.1946 132.89ZM88.5146 135.56V152H85.7846V135.56H88.5146ZM95.8974 138.23C96.3774 137.29 97.0574 136.56 97.9374 136.04C98.8374 135.52 99.9274 135.26 101.207 135.26V138.08H100.487C97.4274 138.08 95.8974 139.74 95.8974 143.06V152H93.1674V135.56H95.8974V138.23ZM124.129 135.26C125.409 135.26 126.549 135.53 127.549 136.07C128.549 136.59 129.339 137.38 129.919 138.44C130.499 139.5 130.789 140.79 130.789 142.31V152H128.089V142.7C128.089 141.06 127.679 139.81 126.859 138.95C126.059 138.07 124.969 137.63 123.589 137.63C122.169 137.63 121.039 138.09 120.199 139.01C119.359 139.91 118.939 141.22 118.939 142.94V152H116.239V142.7C116.239 141.06 115.829 139.81 115.009 138.95C114.209 138.07 113.119 137.63 111.739 137.63C110.319 137.63 109.189 138.09 108.349 139.01C107.509 139.91 107.089 141.22 107.089 142.94V152H104.359V135.56H107.089V137.93C107.629 137.07 108.349 136.41 109.249 135.95C110.169 135.49 111.179 135.26 112.279 135.26C113.659 135.26 114.879 135.57 115.939 136.19C116.999 136.81 117.789 137.72 118.309 138.92C118.769 137.76 119.529 136.86 120.589 136.22C121.649 135.58 122.829 135.26 124.129 135.26ZM150.267 143.15C150.267 143.67 150.237 144.22 150.177 144.8H137.037C137.137 146.42 137.687 147.69 138.687 148.61C139.707 149.51 140.937 149.96 142.377 149.96C143.557 149.96 144.537 149.69 145.317 149.15C146.117 148.59 146.677 147.85 146.997 146.93H149.937C149.497 148.51 148.617 149.8 147.297 150.8C145.977 151.78 144.337 152.27 142.377 152.27C140.817 152.27 139.417 151.92 138.177 151.22C136.957 150.52 135.997 149.53 135.297 148.25C134.597 146.95 134.247 145.45 134.247 143.75C134.247 142.05 134.587 140.56 135.267 139.28C135.947 138 136.897 137.02 138.117 136.34C139.357 135.64 140.777 135.29 142.377 135.29C143.937 135.29 145.317 135.63 146.517 136.31C147.717 136.99 148.637 137.93 149.277 139.13C149.937 140.31 150.267 141.65 150.267 143.15ZM147.447 142.58C147.447 141.54 147.217 140.65 146.757 139.91C146.297 139.15 145.667 138.58 144.867 138.2C144.087 137.8 143.217 137.6 142.257 137.6C140.877 137.6 139.697 138.04 138.717 138.92C137.757 139.8 137.207 141.02 137.067 142.58H147.447ZM152.851 143.72C152.851 142.04 153.191 140.57 153.871 139.31C154.551 138.03 155.481 137.04 156.661 136.34C157.861 135.64 159.201 135.29 160.681 135.29C161.961 135.29 163.151 135.59 164.251 136.19C165.351 136.77 166.191 137.54 166.771 138.5V129.8H169.531V152H166.771V148.91C166.231 149.89 165.431 150.7 164.371 151.34C163.311 151.96 162.071 152.27 160.651 152.27C159.191 152.27 157.861 151.91 156.661 151.19C155.481 150.47 154.551 149.46 153.871 148.16C153.191 146.86 152.851 145.38 152.851 143.72ZM166.771 143.75C166.771 142.51 166.521 141.43 166.021 140.51C165.521 139.59 164.841 138.89 163.981 138.41C163.141 137.91 162.211 137.66 161.191 137.66C160.171 137.66 159.241 137.9 158.401 138.38C157.561 138.86 156.891 139.56 156.391 140.48C155.891 141.4 155.641 142.48 155.641 143.72C155.641 144.98 155.891 146.08 156.391 147.02C156.891 147.94 157.561 148.65 158.401 149.15C159.241 149.63 160.171 149.87 161.191 149.87C162.211 149.87 163.141 149.63 163.981 149.15C164.841 148.65 165.521 147.94 166.021 147.02C166.521 146.08 166.771 144.99 166.771 143.75ZM185.472 137.81V147.5C185.472 148.3 185.642 148.87 185.982 149.21C186.322 149.53 186.912 149.69 187.752 149.69H189.762V152H187.302C185.782 152 184.642 151.65 183.882 150.95C183.122 150.25 182.742 149.1 182.742 147.5V137.81H180.612V135.56H182.742V131.42H185.472V135.56H189.762V137.81H185.472ZM201.23 135.26C202.47 135.26 203.59 135.53 204.59 136.07C205.59 136.59 206.37 137.38 206.93 138.44C207.51 139.5 207.8 140.79 207.8 142.31V152H205.1V142.7C205.1 141.06 204.69 139.81 203.87 138.95C203.05 138.07 201.93 137.63 200.51 137.63C199.07 137.63 197.92 138.08 197.06 138.98C196.22 139.88 195.8 141.19 195.8 142.91V152H193.07V129.8H195.8V137.9C196.34 137.06 197.08 136.41 198.02 135.95C198.98 135.49 200.05 135.26 201.23 135.26ZM211.239 143.72C211.239 142.04 211.579 140.57 212.259 139.31C212.939 138.03 213.869 137.04 215.049 136.34C216.249 135.64 217.579 135.29 219.039 135.29C220.479 135.29 221.729 135.6 222.789 136.22C223.849 136.84 224.639 137.62 225.159 138.56V135.56H227.919V152H225.159V148.94C224.619 149.9 223.809 150.7 222.729 151.34C221.669 151.96 220.429 152.27 219.009 152.27C217.549 152.27 216.229 151.91 215.049 151.19C213.869 150.47 212.939 149.46 212.259 148.16C211.579 146.86 211.239 145.38 211.239 143.72ZM225.159 143.75C225.159 142.51 224.909 141.43 224.409 140.51C223.909 139.59 223.229 138.89 222.369 138.41C221.529 137.91 220.599 137.66 219.579 137.66C218.559 137.66 217.629 137.9 216.789 138.38C215.949 138.86 215.279 139.56 214.779 140.48C214.279 141.4 214.029 142.48 214.029 143.72C214.029 144.98 214.279 146.08 214.779 147.02C215.279 147.94 215.949 148.65 216.789 149.15C217.629 149.63 218.559 149.87 219.579 149.87C220.599 149.87 221.529 149.63 222.369 149.15C223.229 148.65 223.909 147.94 224.409 147.02C224.909 146.08 225.159 144.99 225.159 143.75ZM235.863 137.81V147.5C235.863 148.3 236.033 148.87 236.373 149.21C236.713 149.53 237.303 149.69 238.143 149.69H240.153V152H237.693C236.173 152 235.033 151.65 234.273 150.95C233.513 150.25 233.133 149.1 233.133 147.5V137.81H231.003V135.56H233.133V131.42H235.863V135.56H240.153V137.81H235.863ZM265.618 135.56L255.718 159.74H252.898L256.138 151.82L249.508 135.56H252.538L257.698 148.88L262.798 135.56H265.618ZM275.533 152.27C273.993 152.27 272.593 151.92 271.333 151.22C270.093 150.52 269.113 149.53 268.393 148.25C267.693 146.95 267.343 145.45 267.343 143.75C267.343 142.07 267.703 140.59 268.423 139.31C269.163 138.01 270.163 137.02 271.423 136.34C272.683 135.64 274.093 135.29 275.653 135.29C277.213 135.29 278.623 135.64 279.883 136.34C281.143 137.02 282.133 138 282.853 139.28C283.593 140.56 283.963 142.05 283.963 143.75C283.963 145.45 283.583 146.95 282.823 148.25C282.083 149.53 281.073 150.52 279.793 151.22C278.513 151.92 277.093 152.27 275.533 152.27ZM275.533 149.87C276.513 149.87 277.433 149.64 278.293 149.18C279.153 148.72 279.843 148.03 280.363 147.11C280.903 146.19 281.173 145.07 281.173 143.75C281.173 142.43 280.913 141.31 280.393 140.39C279.873 139.47 279.193 138.79 278.353 138.35C277.513 137.89 276.603 137.66 275.623 137.66C274.623 137.66 273.703 137.89 272.863 138.35C272.043 138.79 271.383 139.47 270.883 140.39C270.383 141.31 270.133 142.43 270.133 143.75C270.133 145.09 270.373 146.22 270.853 147.14C271.353 148.06 272.013 148.75 272.833 149.21C273.653 149.65 274.553 149.87 275.533 149.87ZM302.132 135.56V152H299.402V149.57C298.882 150.41 298.152 151.07 297.212 151.55C296.292 152.01 295.272 152.24 294.152 152.24C292.872 152.24 291.722 151.98 290.702 151.46C289.682 150.92 288.872 150.12 288.272 149.06C287.692 148 287.402 146.71 287.402 145.19V135.56H290.102V144.83C290.102 146.45 290.512 147.7 291.332 148.58C292.152 149.44 293.272 149.87 294.692 149.87C296.152 149.87 297.302 149.42 298.142 148.52C298.982 147.62 299.402 146.31 299.402 144.59V135.56H302.132ZM309.472 138.23C309.952 137.29 310.632 136.56 311.512 136.04C312.412 135.52 313.502 135.26 314.782 135.26V138.08H314.062C311.002 138.08 309.472 139.74 309.472 143.06V152H306.742V135.56H309.472V138.23ZM328.661 138.59C329.201 137.65 330.001 136.87 331.061 136.25C332.141 135.61 333.391 135.29 334.811 135.29C336.271 135.29 337.591 135.64 338.771 136.34C339.971 137.04 340.911 138.03 341.591 139.31C342.271 140.57 342.611 142.04 342.611 143.72C342.611 145.38 342.271 146.86 341.591 148.16C340.911 149.46 339.971 150.47 338.771 151.19C337.591 151.91 336.271 152.27 334.811 152.27C333.411 152.27 332.171 151.96 331.091 151.34C330.031 150.7 329.221 149.91 328.661 148.97V159.8H325.931V135.56H328.661V138.59ZM339.821 143.72C339.821 142.48 339.571 141.4 339.071 140.48C338.571 139.56 337.891 138.86 337.031 138.38C336.191 137.9 335.261 137.66 334.241 137.66C333.241 137.66 332.311 137.91 331.451 138.41C330.611 138.89 329.931 139.6 329.411 140.54C328.911 141.46 328.661 142.53 328.661 143.75C328.661 144.99 328.911 146.08 329.411 147.02C329.931 147.94 330.611 148.65 331.451 149.15C332.311 149.63 333.241 149.87 334.241 149.87C335.261 149.87 336.191 149.63 337.031 149.15C337.891 148.65 338.571 147.94 339.071 147.02C339.571 146.08 339.821 144.98 339.821 143.72ZM348.935 138.23C349.415 137.29 350.095 136.56 350.975 136.04C351.875 135.52 352.965 135.26 354.245 135.26V138.08H353.525C350.465 138.08 348.935 139.74 348.935 143.06V152H346.205V135.56H348.935V138.23ZM364.566 152.27C363.026 152.27 361.626 151.92 360.366 151.22C359.126 150.52 358.146 149.53 357.426 148.25C356.726 146.95 356.376 145.45 356.376 143.75C356.376 142.07 356.736 140.59 357.456 139.31C358.196 138.01 359.196 137.02 360.456 136.34C361.716 135.64 363.126 135.29 364.686 135.29C366.246 135.29 367.656 135.64 368.916 136.34C370.176 137.02 371.166 138 371.886 139.28C372.626 140.56 372.996 142.05 372.996 143.75C372.996 145.45 372.616 146.95 371.856 148.25C371.116 149.53 370.106 150.52 368.826 151.22C367.546 151.92 366.126 152.27 364.566 152.27ZM364.566 149.87C365.546 149.87 366.466 149.64 367.326 149.18C368.186 148.72 368.876 148.03 369.396 147.11C369.936 146.19 370.206 145.07 370.206 143.75C370.206 142.43 369.946 141.31 369.426 140.39C368.906 139.47 368.226 138.79 367.386 138.35C366.546 137.89 365.636 137.66 364.656 137.66C363.656 137.66 362.736 137.89 361.896 138.35C361.076 138.79 360.416 139.47 359.916 140.39C359.416 141.31 359.166 142.43 359.166 143.75C359.166 145.09 359.406 146.22 359.886 147.14C360.386 148.06 361.046 148.75 361.866 149.21C362.686 149.65 363.586 149.87 364.566 149.87ZM379.315 138.62C379.875 137.64 380.695 136.84 381.775 136.22C382.855 135.6 384.085 135.29 385.465 135.29C386.945 135.29 388.275 135.64 389.455 136.34C390.635 137.04 391.565 138.03 392.245 139.31C392.925 140.57 393.265 142.04 393.265 143.72C393.265 145.38 392.925 146.86 392.245 148.16C391.565 149.46 390.625 150.47 389.425 151.19C388.245 151.91 386.925 152.27 385.465 152.27C384.045 152.27 382.795 151.96 381.715 151.34C380.655 150.72 379.855 149.93 379.315 148.97V152H376.585V129.8H379.315V138.62ZM390.475 143.72C390.475 142.48 390.225 141.4 389.725 140.48C389.225 139.56 388.545 138.86 387.685 138.38C386.845 137.9 385.915 137.66 384.895 137.66C383.895 137.66 382.965 137.91 382.105 138.41C381.265 138.89 380.585 139.6 380.065 140.54C379.565 141.46 379.315 142.53 379.315 143.75C379.315 144.99 379.565 146.08 380.065 147.02C380.585 147.94 381.265 148.65 382.105 149.15C382.965 149.63 383.895 149.87 384.895 149.87C385.915 149.87 386.845 149.63 387.685 149.15C388.545 148.65 389.225 147.94 389.725 147.02C390.225 146.08 390.475 144.98 390.475 143.72ZM399.589 129.8V152H396.859V129.8H399.589ZM419.242 143.15C419.242 143.67 419.212 144.22 419.152 144.8H406.012C406.112 146.42 406.662 147.69 407.662 148.61C408.682 149.51 409.912 149.96 411.352 149.96C412.532 149.96 413.512 149.69 414.292 149.15C415.092 148.59 415.652 147.85 415.972 146.93H418.912C418.472 148.51 417.592 149.8 416.272 150.8C414.952 151.78 413.312 152.27 411.352 152.27C409.792 152.27 408.392 151.92 407.152 151.22C405.932 150.52 404.972 149.53 404.272 148.25C403.572 146.95 403.222 145.45 403.222 143.75C403.222 142.05 403.562 140.56 404.242 139.28C404.922 138 405.872 137.02 407.092 136.34C408.332 135.64 409.752 135.29 411.352 135.29C412.912 135.29 414.292 135.63 415.492 136.31C416.692 136.99 417.612 137.93 418.252 139.13C418.912 140.31 419.242 141.65 419.242 143.15ZM416.422 142.58C416.422 141.54 416.192 140.65 415.732 139.91C415.272 139.15 414.642 138.58 413.842 138.2C413.062 137.8 412.192 137.6 411.232 137.6C409.852 137.6 408.672 138.04 407.692 138.92C406.732 139.8 406.182 141.02 406.042 142.58H416.422ZM442.615 135.26C443.895 135.26 445.035 135.53 446.035 136.07C447.035 136.59 447.825 137.38 448.405 138.44C448.985 139.5 449.275 140.79 449.275 142.31V152H446.575V142.7C446.575 141.06 446.165 139.81 445.345 138.95C444.545 138.07 443.455 137.63 442.075 137.63C440.655 137.63 439.525 138.09 438.685 139.01C437.845 139.91 437.425 141.22 437.425 142.94V152H434.725V142.7C434.725 141.06 434.315 139.81 433.495 138.95C432.695 138.07 431.605 137.63 430.225 137.63C428.805 137.63 427.675 138.09 426.835 139.01C425.995 139.91 425.575 141.22 425.575 142.94V152H422.845V135.56H425.575V137.93C426.115 137.07 426.835 136.41 427.735 135.95C428.655 135.49 429.665 135.26 430.765 135.26C432.145 135.26 433.365 135.57 434.425 136.19C435.485 136.81 436.275 137.72 436.795 138.92C437.255 137.76 438.015 136.86 439.075 136.22C440.135 135.58 441.315 135.26 442.615 135.26ZM469.911 135.26C471.151 135.26 472.271 135.53 473.271 136.07C474.271 136.59 475.051 137.38 475.611 138.44C476.191 139.5 476.481 140.79 476.481 142.31V152H473.781V142.7C473.781 141.06 473.371 139.81 472.551 138.95C471.731 138.07 470.611 137.63 469.191 137.63C467.751 137.63 466.601 138.08 465.741 138.98C464.901 139.88 464.481 141.19 464.481 142.91V152H461.751V129.8H464.481V137.9C465.021 137.06 465.761 136.41 466.701 135.95C467.661 135.49 468.731 135.26 469.911 135.26ZM479.921 143.72C479.921 142.04 480.261 140.57 480.941 139.31C481.621 138.03 482.551 137.04 483.731 136.34C484.931 135.64 486.261 135.29 487.721 135.29C489.161 135.29 490.411 135.6 491.471 136.22C492.531 136.84 493.321 137.62 493.841 138.56V135.56H496.601V152H493.841V148.94C493.301 149.9 492.491 150.7 491.411 151.34C490.351 151.96 489.111 152.27 487.691 152.27C486.231 152.27 484.911 151.91 483.731 151.19C482.551 150.47 481.621 149.46 480.941 148.16C480.261 146.86 479.921 145.38 479.921 143.72ZM493.841 143.75C493.841 142.51 493.591 141.43 493.091 140.51C492.591 139.59 491.911 138.89 491.051 138.41C490.211 137.91 489.281 137.66 488.261 137.66C487.241 137.66 486.311 137.9 485.471 138.38C484.631 138.86 483.961 139.56 483.461 140.48C482.961 141.4 482.711 142.48 482.711 143.72C482.711 144.98 482.961 146.08 483.461 147.02C483.961 147.94 484.631 148.65 485.471 149.15C486.311 149.63 487.241 149.87 488.261 149.87C489.281 149.87 490.211 149.63 491.051 149.15C491.911 148.65 492.591 147.94 493.091 147.02C493.591 146.08 493.841 144.99 493.841 143.75ZM507.034 152.27C505.774 152.27 504.644 152.06 503.644 151.64C502.644 151.2 501.854 150.6 501.274 149.84C500.694 149.06 500.374 148.17 500.314 147.17H503.134C503.214 147.99 503.594 148.66 504.274 149.18C504.974 149.7 505.884 149.96 507.004 149.96C508.044 149.96 508.864 149.73 509.464 149.27C510.064 148.81 510.364 148.23 510.364 147.53C510.364 146.81 510.044 146.28 509.404 145.94C508.764 145.58 507.774 145.23 506.434 144.89C505.214 144.57 504.214 144.25 503.434 143.93C502.674 143.59 502.014 143.1 501.454 142.46C500.914 141.8 500.644 140.94 500.644 139.88C500.644 139.04 500.894 138.27 501.394 137.57C501.894 136.87 502.604 136.32 503.524 135.92C504.444 135.5 505.494 135.29 506.674 135.29C508.494 135.29 509.964 135.75 511.084 136.67C512.204 137.59 512.804 138.85 512.884 140.45H510.154C510.094 139.59 509.744 138.9 509.104 138.38C508.484 137.86 507.644 137.6 506.584 137.6C505.604 137.6 504.824 137.81 504.244 138.23C503.664 138.65 503.374 139.2 503.374 139.88C503.374 140.42 503.544 140.87 503.884 141.23C504.244 141.57 504.684 141.85 505.204 142.07C505.744 142.27 506.484 142.5 507.424 142.76C508.604 143.08 509.564 143.4 510.304 143.72C511.044 144.02 511.674 144.48 512.194 145.1C512.734 145.72 513.014 146.53 513.034 147.53C513.034 148.43 512.784 149.24 512.284 149.96C511.784 150.68 511.074 151.25 510.154 151.67C509.254 152.07 508.214 152.27 507.034 152.27ZM527.616 138.62C528.176 137.64 528.996 136.84 530.076 136.22C531.156 135.6 532.386 135.29 533.766 135.29C535.246 135.29 536.576 135.64 537.756 136.34C538.936 137.04 539.866 138.03 540.546 139.31C541.226 140.57 541.566 142.04 541.566 143.72C541.566 145.38 541.226 146.86 540.546 148.16C539.866 149.46 538.926 150.47 537.726 151.19C536.546 151.91 535.226 152.27 533.766 152.27C532.346 152.27 531.096 151.96 530.016 151.34C528.956 150.72 528.156 149.93 527.616 148.97V152H524.886V129.8H527.616V138.62ZM538.776 143.72C538.776 142.48 538.526 141.4 538.026 140.48C537.526 139.56 536.846 138.86 535.986 138.38C535.146 137.9 534.216 137.66 533.196 137.66C532.196 137.66 531.266 137.91 530.406 138.41C529.566 138.89 528.886 139.6 528.366 140.54C527.866 141.46 527.616 142.53 527.616 143.75C527.616 144.99 527.866 146.08 528.366 147.02C528.886 147.94 529.566 148.65 530.406 149.15C531.266 149.63 532.196 149.87 533.196 149.87C534.216 149.87 535.146 149.63 535.986 149.15C536.846 148.65 537.526 147.94 538.026 147.02C538.526 146.08 538.776 144.98 538.776 143.72ZM560.16 143.15C560.16 143.67 560.13 144.22 560.07 144.8H546.93C547.03 146.42 547.58 147.69 548.58 148.61C549.6 149.51 550.83 149.96 552.27 149.96C553.45 149.96 554.43 149.69 555.21 149.15C556.01 148.59 556.57 147.85 556.89 146.93H559.83C559.39 148.51 558.51 149.8 557.19 150.8C555.87 151.78 554.23 152.27 552.27 152.27C550.71 152.27 549.31 151.92 548.07 151.22C546.85 150.52 545.89 149.53 545.19 148.25C544.49 146.95 544.14 145.45 544.14 143.75C544.14 142.05 544.48 140.56 545.16 139.28C545.84 138 546.79 137.02 548.01 136.34C549.25 135.64 550.67 135.29 552.27 135.29C553.83 135.29 555.21 135.63 556.41 136.31C557.61 136.99 558.53 137.93 559.17 139.13C559.83 140.31 560.16 141.65 560.16 143.15ZM557.34 142.58C557.34 141.54 557.11 140.65 556.65 139.91C556.19 139.15 555.56 138.58 554.76 138.2C553.98 137.8 553.11 137.6 552.15 137.6C550.77 137.6 549.59 138.04 548.61 138.92C547.65 139.8 547.1 141.02 546.96 142.58H557.34ZM578.763 143.15C578.763 143.67 578.733 144.22 578.673 144.8H565.533C565.633 146.42 566.183 147.69 567.183 148.61C568.203 149.51 569.433 149.96 570.873 149.96C572.053 149.96 573.033 149.69 573.813 149.15C574.613 148.59 575.173 147.85 575.493 146.93H578.433C577.993 148.51 577.113 149.8 575.793 150.8C574.473 151.78 572.833 152.27 570.873 152.27C569.313 152.27 567.913 151.92 566.673 151.22C565.453 150.52 564.493 149.53 563.793 148.25C563.093 146.95 562.743 145.45 562.743 143.75C562.743 142.05 563.083 140.56 563.763 139.28C564.443 138 565.393 137.02 566.613 136.34C567.853 135.64 569.273 135.29 570.873 135.29C572.433 135.29 573.813 135.63 575.013 136.31C576.213 136.99 577.133 137.93 577.773 139.13C578.433 140.31 578.763 141.65 578.763 143.15ZM575.943 142.58C575.943 141.54 575.713 140.65 575.253 139.91C574.793 139.15 574.163 138.58 573.363 138.2C572.583 137.8 571.713 137.6 570.753 137.6C569.373 137.6 568.193 138.04 567.213 138.92C566.253 139.8 565.703 141.02 565.563 142.58H575.943ZM590.377 135.26C592.377 135.26 593.997 135.87 595.237 137.09C596.477 138.29 597.097 140.03 597.097 142.31V152H594.397V142.7C594.397 141.06 593.987 139.81 593.167 138.95C592.347 138.07 591.227 137.63 589.807 137.63C588.367 137.63 587.217 138.08 586.357 138.98C585.517 139.88 585.097 141.19 585.097 142.91V152H582.367V135.56H585.097V137.9C585.637 137.06 586.367 136.41 587.287 135.95C588.227 135.49 589.257 135.26 590.377 135.26ZM22.04 183.23C22.52 182.29 23.2 181.56 24.08 181.04C24.98 180.52 26.07 180.26 27.35 180.26V183.08H26.63C23.57 183.08 22.04 184.74 22.04 188.06V197H19.31V180.56H22.04V183.23ZM45.5014 188.15C45.5014 188.67 45.4714 189.22 45.4114 189.8H32.2714C32.3714 191.42 32.9214 192.69 33.9214 193.61C34.9414 194.51 36.1714 194.96 37.6114 194.96C38.7914 194.96 39.7714 194.69 40.5514 194.15C41.3514 193.59 41.9114 192.85 42.2314 191.93H45.1714C44.7314 193.51 43.8514 194.8 42.5314 195.8C41.2114 196.78 39.5714 197.27 37.6114 197.27C36.0514 197.27 34.6514 196.92 33.4114 196.22C32.1914 195.52 31.2314 194.53 30.5314 193.25C29.8314 191.95 29.4814 190.45 29.4814 188.75C29.4814 187.05 29.8214 185.56 30.5014 184.28C31.1814 183 32.1314 182.02 33.3514 181.34C34.5914 180.64 36.0114 180.29 37.6114 180.29C39.1714 180.29 40.5514 180.63 41.7514 181.31C42.9514 181.99 43.8714 182.93 44.5114 184.13C45.1714 185.31 45.5014 186.65 45.5014 188.15ZM42.6814 187.58C42.6814 186.54 42.4514 185.65 41.9914 184.91C41.5314 184.15 40.9014 183.58 40.1014 183.2C39.3214 182.8 38.4514 182.6 37.4914 182.6C36.1114 182.6 34.9314 183.04 33.9514 183.92C32.9914 184.8 32.4414 186.02 32.3014 187.58H42.6814ZM54.9249 197.27C53.6649 197.27 52.5349 197.06 51.5349 196.64C50.5349 196.2 49.7449 195.6 49.1649 194.84C48.5849 194.06 48.2649 193.17 48.2049 192.17H51.0249C51.1049 192.99 51.4849 193.66 52.1649 194.18C52.8649 194.7 53.7749 194.96 54.8949 194.96C55.9349 194.96 56.7549 194.73 57.3549 194.27C57.9549 193.81 58.2549 193.23 58.2549 192.53C58.2549 191.81 57.9349 191.28 57.2949 190.94C56.6549 190.58 55.6649 190.23 54.3249 189.89C53.1049 189.57 52.1049 189.25 51.3249 188.93C50.5649 188.59 49.9049 188.1 49.3449 187.46C48.8049 186.8 48.5349 185.94 48.5349 184.88C48.5349 184.04 48.7849 183.27 49.2849 182.57C49.7849 181.87 50.4949 181.32 51.4149 180.92C52.3349 180.5 53.3849 180.29 54.5649 180.29C56.3849 180.29 57.8549 180.75 58.9749 181.67C60.0949 182.59 60.6949 183.85 60.7749 185.45H58.0449C57.9849 184.59 57.6349 183.9 56.9949 183.38C56.3749 182.86 55.5349 182.6 54.4749 182.6C53.4949 182.6 52.7149 182.81 52.1349 183.23C51.5549 183.65 51.2649 184.2 51.2649 184.88C51.2649 185.42 51.4349 185.87 51.7749 186.23C52.1349 186.57 52.5749 186.85 53.0949 187.07C53.6349 187.27 54.3749 187.5 55.3149 187.76C56.4949 188.08 57.4549 188.4 58.1949 188.72C58.9349 189.02 59.5649 189.48 60.0849 190.1C60.6249 190.72 60.9049 191.53 60.9249 192.53C60.9249 193.43 60.6749 194.24 60.1749 194.96C59.6749 195.68 58.9649 196.25 58.0449 196.67C57.1449 197.07 56.1049 197.27 54.9249 197.27ZM71.9488 197.27C70.4088 197.27 69.0088 196.92 67.7488 196.22C66.5088 195.52 65.5288 194.53 64.8088 193.25C64.1088 191.95 63.7588 190.45 63.7588 188.75C63.7588 187.07 64.1188 185.59 64.8388 184.31C65.5788 183.01 66.5788 182.02 67.8388 181.34C69.0988 180.64 70.5088 180.29 72.0688 180.29C73.6288 180.29 75.0388 180.64 76.2988 181.34C77.5588 182.02 78.5488 183 79.2688 184.28C80.0088 185.56 80.3788 187.05 80.3788 188.75C80.3788 190.45 79.9988 191.95 79.2388 193.25C78.4988 194.53 77.4888 195.52 76.2088 196.22C74.9288 196.92 73.5088 197.27 71.9488 197.27ZM71.9488 194.87C72.9288 194.87 73.8488 194.64 74.7088 194.18C75.5688 193.72 76.2588 193.03 76.7788 192.11C77.3188 191.19 77.5888 190.07 77.5888 188.75C77.5888 187.43 77.3288 186.31 76.8088 185.39C76.2888 184.47 75.6088 183.79 74.7688 183.35C73.9288 182.89 73.0188 182.66 72.0388 182.66C71.0388 182.66 70.1188 182.89 69.2788 183.35C68.4588 183.79 67.7988 184.47 67.2988 185.39C66.7988 186.31 66.5488 187.43 66.5488 188.75C66.5488 190.09 66.7888 191.22 67.2688 192.14C67.7688 193.06 68.4288 193.75 69.2488 194.21C70.0688 194.65 70.9688 194.87 71.9488 194.87ZM86.6982 174.8V197H83.9682V174.8H86.6982ZM97.471 194.48L102.571 180.56H105.481L99.031 197H95.851L89.401 180.56H92.341L97.471 194.48ZM123.167 188.15C123.167 188.67 123.137 189.22 123.077 189.8H109.937C110.037 191.42 110.587 192.69 111.587 193.61C112.607 194.51 113.837 194.96 115.277 194.96C116.457 194.96 117.437 194.69 118.217 194.15C119.017 193.59 119.577 192.85 119.897 191.93H122.837C122.397 193.51 121.517 194.8 120.197 195.8C118.877 196.78 117.237 197.27 115.277 197.27C113.717 197.27 112.317 196.92 111.077 196.22C109.857 195.52 108.897 194.53 108.197 193.25C107.497 191.95 107.147 190.45 107.147 188.75C107.147 187.05 107.487 185.56 108.167 184.28C108.847 183 109.797 182.02 111.017 181.34C112.257 180.64 113.677 180.29 115.277 180.29C116.837 180.29 118.217 180.63 119.417 181.31C120.617 181.99 121.537 182.93 122.177 184.13C122.837 185.31 123.167 186.65 123.167 188.15ZM120.347 187.58C120.347 186.54 120.117 185.65 119.657 184.91C119.197 184.15 118.567 183.58 117.767 183.2C116.987 182.8 116.117 182.6 115.157 182.6C113.777 182.6 112.597 183.04 111.617 183.92C110.657 184.8 110.107 186.02 109.967 187.58H120.347ZM125.751 188.72C125.751 187.04 126.091 185.57 126.771 184.31C127.451 183.03 128.381 182.04 129.561 181.34C130.761 180.64 132.101 180.29 133.581 180.29C134.861 180.29 136.051 180.59 137.151 181.19C138.251 181.77 139.091 182.54 139.671 183.5V174.8H142.431V197H139.671V193.91C139.131 194.89 138.331 195.7 137.271 196.34C136.211 196.96 134.971 197.27 133.551 197.27C132.091 197.27 130.761 196.91 129.561 196.19C128.381 195.47 127.451 194.46 126.771 193.16C126.091 191.86 125.751 190.38 125.751 188.72ZM139.671 188.75C139.671 187.51 139.421 186.43 138.921 185.51C138.421 184.59 137.741 183.89 136.881 183.41C136.041 182.91 135.111 182.66 134.091 182.66C133.071 182.66 132.141 182.9 131.301 183.38C130.461 183.86 129.791 184.56 129.291 185.48C128.791 186.4 128.541 187.48 128.541 188.72C128.541 189.98 128.791 191.08 129.291 192.02C129.791 192.94 130.461 193.65 131.301 194.15C132.141 194.63 133.071 194.87 134.091 194.87C135.111 194.87 136.041 194.63 136.881 194.15C137.741 193.65 138.421 192.94 138.921 192.02C139.421 191.08 139.671 189.99 139.671 188.75ZM147.914 197.18C147.394 197.18 146.954 197 146.594 196.64C146.234 196.28 146.054 195.84 146.054 195.32C146.054 194.8 146.234 194.36 146.594 194C146.954 193.64 147.394 193.46 147.914 193.46C148.414 193.46 148.834 193.64 149.174 194C149.534 194.36 149.714 194.8 149.714 195.32C149.714 195.84 149.534 196.28 149.174 196.64C148.834 197 148.414 197.18 147.914 197.18ZM175.321 182.21C175.321 183.95 174.721 185.4 173.521 186.56C172.341 187.7 170.531 188.27 168.091 188.27H164.071V197H161.341V176.09H168.091C170.451 176.09 172.241 176.66 173.461 177.8C174.701 178.94 175.321 180.41 175.321 182.21ZM168.091 186.02C169.611 186.02 170.731 185.69 171.451 185.03C172.171 184.37 172.531 183.43 172.531 182.21C172.531 179.63 171.051 178.34 168.091 178.34H164.071V186.02H168.091ZM181.444 174.8V197H178.714V174.8H181.444ZM201.097 188.15C201.097 188.67 201.067 189.22 201.007 189.8H187.867C187.967 191.42 188.517 192.69 189.517 193.61C190.537 194.51 191.767 194.96 193.207 194.96C194.387 194.96 195.367 194.69 196.147 194.15C196.947 193.59 197.507 192.85 197.827 191.93H200.767C200.327 193.51 199.447 194.8 198.127 195.8C196.807 196.78 195.167 197.27 193.207 197.27C191.647 197.27 190.247 196.92 189.007 196.22C187.787 195.52 186.827 194.53 186.127 193.25C185.427 191.95 185.077 190.45 185.077 188.75C185.077 187.05 185.417 185.56 186.097 184.28C186.777 183 187.727 182.02 188.947 181.34C190.187 180.64 191.607 180.29 193.207 180.29C194.767 180.29 196.147 180.63 197.347 181.31C198.547 181.99 199.467 182.93 200.107 184.13C200.767 185.31 201.097 186.65 201.097 188.15ZM198.277 187.58C198.277 186.54 198.047 185.65 197.587 184.91C197.127 184.15 196.497 183.58 195.697 183.2C194.917 182.8 194.047 182.6 193.087 182.6C191.707 182.6 190.527 183.04 189.547 183.92C188.587 184.8 188.037 186.02 187.897 187.58H198.277ZM203.681 188.72C203.681 187.04 204.021 185.57 204.701 184.31C205.381 183.03 206.311 182.04 207.491 181.34C208.691 180.64 210.021 180.29 211.481 180.29C212.921 180.29 214.171 180.6 215.231 181.22C216.291 181.84 217.081 182.62 217.601 183.56V180.56H220.361V197H217.601V193.94C217.061 194.9 216.251 195.7 215.171 196.34C214.111 196.96 212.871 197.27 211.451 197.27C209.991 197.27 208.671 196.91 207.491 196.19C206.311 195.47 205.381 194.46 204.701 193.16C204.021 191.86 203.681 190.38 203.681 188.72ZM217.601 188.75C217.601 187.51 217.351 186.43 216.851 185.51C216.351 184.59 215.671 183.89 214.811 183.41C213.971 182.91 213.041 182.66 212.021 182.66C211.001 182.66 210.071 182.9 209.231 183.38C208.391 183.86 207.721 184.56 207.221 185.48C206.721 186.4 206.471 187.48 206.471 188.72C206.471 189.98 206.721 191.08 207.221 192.02C207.721 192.94 208.391 193.65 209.231 194.15C210.071 194.63 211.001 194.87 212.021 194.87C213.041 194.87 213.971 194.63 214.811 194.15C215.671 193.65 216.351 192.94 216.851 192.02C217.351 191.08 217.601 189.99 217.601 188.75ZM230.794 197.27C229.534 197.27 228.404 197.06 227.404 196.64C226.404 196.2 225.614 195.6 225.034 194.84C224.454 194.06 224.134 193.17 224.074 192.17H226.894C226.974 192.99 227.354 193.66 228.034 194.18C228.734 194.7 229.644 194.96 230.764 194.96C231.804 194.96 232.624 194.73 233.224 194.27C233.824 193.81 234.124 193.23 234.124 192.53C234.124 191.81 233.804 191.28 233.164 190.94C232.524 190.58 231.534 190.23 230.194 189.89C228.974 189.57 227.974 189.25 227.194 188.93C226.434 188.59 225.774 188.1 225.214 187.46C224.674 186.8 224.404 185.94 224.404 184.88C224.404 184.04 224.654 183.27 225.154 182.57C225.654 181.87 226.364 181.32 227.284 180.92C228.204 180.5 229.254 180.29 230.434 180.29C232.254 180.29 233.724 180.75 234.844 181.67C235.964 182.59 236.564 183.85 236.644 185.45H233.914C233.854 184.59 233.504 183.9 232.864 183.38C232.244 182.86 231.404 182.6 230.344 182.6C229.364 182.6 228.584 182.81 228.004 183.23C227.424 183.65 227.134 184.2 227.134 184.88C227.134 185.42 227.304 185.87 227.644 186.23C228.004 186.57 228.444 186.85 228.964 187.07C229.504 187.27 230.244 187.5 231.184 187.76C232.364 188.08 233.324 188.4 234.064 188.72C234.804 189.02 235.434 189.48 235.954 190.1C236.494 190.72 236.774 191.53 236.794 192.53C236.794 193.43 236.544 194.24 236.044 194.96C235.544 195.68 234.834 196.25 233.914 196.67C233.014 197.07 231.974 197.27 230.794 197.27ZM255.648 188.15C255.648 188.67 255.618 189.22 255.558 189.8H242.418C242.518 191.42 243.068 192.69 244.068 193.61C245.088 194.51 246.318 194.96 247.758 194.96C248.938 194.96 249.918 194.69 250.698 194.15C251.498 193.59 252.058 192.85 252.378 191.93H255.318C254.878 193.51 253.998 194.8 252.678 195.8C251.358 196.78 249.718 197.27 247.758 197.27C246.198 197.27 244.798 196.92 243.558 196.22C242.338 195.52 241.378 194.53 240.678 193.25C239.978 191.95 239.628 190.45 239.628 188.75C239.628 187.05 239.968 185.56 240.648 184.28C241.328 183 242.278 182.02 243.498 181.34C244.738 180.64 246.158 180.29 247.758 180.29C249.318 180.29 250.698 180.63 251.898 181.31C253.098 181.99 254.018 182.93 254.658 184.13C255.318 185.31 255.648 186.65 255.648 188.15ZM252.828 187.58C252.828 186.54 252.598 185.65 252.138 184.91C251.678 184.15 251.048 183.58 250.248 183.2C249.468 182.8 248.598 182.6 247.638 182.6C246.258 182.6 245.078 183.04 244.098 183.92C243.138 184.8 242.588 186.02 242.448 187.58H252.828ZM266.229 188.75C266.229 187.05 266.569 185.57 267.249 184.31C267.929 183.03 268.869 182.04 270.069 181.34C271.289 180.64 272.679 180.29 274.239 180.29C276.259 180.29 277.919 180.78 279.219 181.76C280.539 182.74 281.409 184.1 281.829 185.84H278.889C278.609 184.84 278.059 184.05 277.239 183.47C276.439 182.89 275.439 182.6 274.239 182.6C272.679 182.6 271.419 183.14 270.459 184.22C269.499 185.28 269.019 186.79 269.019 188.75C269.019 190.73 269.499 192.26 270.459 193.34C271.419 194.42 272.679 194.96 274.239 194.96C275.439 194.96 276.439 194.68 277.239 194.12C278.039 193.56 278.589 192.76 278.889 191.72H281.829C281.389 193.4 280.509 194.75 279.189 195.77C277.869 196.77 276.219 197.27 274.239 197.27C272.679 197.27 271.289 196.92 270.069 196.22C268.869 195.52 267.929 194.53 267.249 193.25C266.569 191.97 266.229 190.47 266.229 188.75ZM292.642 197.27C291.102 197.27 289.702 196.92 288.442 196.22C287.202 195.52 286.222 194.53 285.502 193.25C284.802 191.95 284.452 190.45 284.452 188.75C284.452 187.07 284.812 185.59 285.532 184.31C286.272 183.01 287.272 182.02 288.532 181.34C289.792 180.64 291.202 180.29 292.762 180.29C294.322 180.29 295.732 180.64 296.992 181.34C298.252 182.02 299.242 183 299.962 184.28C300.702 185.56 301.072 187.05 301.072 188.75C301.072 190.45 300.692 191.95 299.932 193.25C299.192 194.53 298.182 195.52 296.902 196.22C295.622 196.92 294.202 197.27 292.642 197.27ZM292.642 194.87C293.622 194.87 294.542 194.64 295.402 194.18C296.262 193.72 296.952 193.03 297.472 192.11C298.012 191.19 298.282 190.07 298.282 188.75C298.282 187.43 298.022 186.31 297.502 185.39C296.982 184.47 296.302 183.79 295.462 183.35C294.622 182.89 293.712 182.66 292.732 182.66C291.732 182.66 290.812 182.89 289.972 183.35C289.152 183.79 288.492 184.47 287.992 185.39C287.492 186.31 287.242 187.43 287.242 188.75C287.242 190.09 287.482 191.22 287.962 192.14C288.462 193.06 289.122 193.75 289.942 194.21C290.762 194.65 291.662 194.87 292.642 194.87ZM312.672 180.26C314.672 180.26 316.292 180.87 317.532 182.09C318.772 183.29 319.392 185.03 319.392 187.31V197H316.692V187.7C316.692 186.06 316.282 184.81 315.462 183.95C314.642 183.07 313.522 182.63 312.102 182.63C310.662 182.63 309.512 183.08 308.652 183.98C307.812 184.88 307.392 186.19 307.392 187.91V197H304.662V180.56H307.392V182.9C307.932 182.06 308.662 181.41 309.582 180.95C310.522 180.49 311.552 180.26 312.672 180.26ZM330.541 182.81H327.091V197H324.361V182.81H322.231V180.56H324.361V179.39C324.361 177.55 324.831 176.21 325.771 175.37C326.731 174.51 328.261 174.08 330.361 174.08V176.36C329.161 176.36 328.311 176.6 327.811 177.08C327.331 177.54 327.091 178.31 327.091 179.39V180.56H330.541V182.81ZM335.134 177.89C334.614 177.89 334.174 177.71 333.814 177.35C333.454 176.99 333.274 176.55 333.274 176.03C333.274 175.51 333.454 175.07 333.814 174.71C334.174 174.35 334.614 174.17 335.134 174.17C335.634 174.17 336.054 174.35 336.394 174.71C336.754 175.07 336.934 175.51 336.934 176.03C336.934 176.55 336.754 176.99 336.394 177.35C336.054 177.71 335.634 177.89 335.134 177.89ZM336.454 180.56V197H333.724V180.56H336.454ZM343.837 183.23C344.317 182.29 344.997 181.56 345.877 181.04C346.777 180.52 347.867 180.26 349.147 180.26V183.08H348.427C345.367 183.08 343.837 184.74 343.837 188.06V197H341.107V180.56H343.837V183.23ZM372.068 180.26C373.348 180.26 374.488 180.53 375.488 181.07C376.488 181.59 377.278 182.38 377.858 183.44C378.438 184.5 378.728 185.79 378.728 187.31V197H376.028V187.7C376.028 186.06 375.618 184.81 374.798 183.95C373.998 183.07 372.908 182.63 371.528 182.63C370.108 182.63 368.978 183.09 368.138 184.01C367.298 184.91 366.878 186.22 366.878 187.94V197H364.178V187.7C364.178 186.06 363.768 184.81 362.948 183.95C362.148 183.07 361.058 182.63 359.678 182.63C358.258 182.63 357.128 183.09 356.288 184.01C355.448 184.91 355.028 186.22 355.028 187.94V197H352.298V180.56H355.028V182.93C355.568 182.07 356.288 181.41 357.188 180.95C358.108 180.49 359.118 180.26 360.218 180.26C361.598 180.26 362.818 180.57 363.878 181.19C364.938 181.81 365.728 182.72 366.248 183.92C366.708 182.76 367.468 181.86 368.528 181.22C369.588 180.58 370.768 180.26 372.068 180.26ZM394.535 182.81V192.5C394.535 193.3 394.705 193.87 395.045 194.21C395.385 194.53 395.975 194.69 396.815 194.69H398.825V197H396.365C394.845 197 393.705 196.65 392.945 195.95C392.185 195.25 391.805 194.1 391.805 192.5V182.81H389.675V180.56H391.805V176.42H394.535V180.56H398.825V182.81H394.535ZM409.302 197.27C407.762 197.27 406.362 196.92 405.102 196.22C403.862 195.52 402.882 194.53 402.162 193.25C401.462 191.95 401.112 190.45 401.112 188.75C401.112 187.07 401.472 185.59 402.192 184.31C402.932 183.01 403.932 182.02 405.192 181.34C406.452 180.64 407.862 180.29 409.422 180.29C410.982 180.29 412.392 180.64 413.652 181.34C414.912 182.02 415.902 183 416.622 184.28C417.362 185.56 417.732 187.05 417.732 188.75C417.732 190.45 417.352 191.95 416.592 193.25C415.852 194.53 414.842 195.52 413.562 196.22C412.282 196.92 410.862 197.27 409.302 197.27ZM409.302 194.87C410.282 194.87 411.202 194.64 412.062 194.18C412.922 193.72 413.612 193.03 414.132 192.11C414.672 191.19 414.942 190.07 414.942 188.75C414.942 187.43 414.682 186.31 414.162 185.39C413.642 184.47 412.962 183.79 412.122 183.35C411.282 182.89 410.372 182.66 409.392 182.66C408.392 182.66 407.472 182.89 406.632 183.35C405.812 183.79 405.152 184.47 404.652 185.39C404.152 186.31 403.902 187.43 403.902 188.75C403.902 190.09 404.142 191.22 404.622 192.14C405.122 193.06 405.782 193.75 406.602 194.21C407.422 194.65 408.322 194.87 409.302 194.87ZM432.65 182.81V192.5C432.65 193.3 432.82 193.87 433.16 194.21C433.5 194.53 434.09 194.69 434.93 194.69H436.94V197H434.48C432.96 197 431.82 196.65 431.06 195.95C430.3 195.25 429.92 194.1 429.92 192.5V182.81H427.79V180.56H429.92V176.42H432.65V180.56H436.94V182.81H432.65ZM454.828 180.56V197H452.098V194.57C451.578 195.41 450.848 196.07 449.908 196.55C448.988 197.01 447.968 197.24 446.848 197.24C445.568 197.24 444.418 196.98 443.398 196.46C442.378 195.92 441.568 195.12 440.968 194.06C440.388 193 440.098 191.71 440.098 190.19V180.56H442.798V189.83C442.798 191.45 443.208 192.7 444.028 193.58C444.848 194.44 445.968 194.87 447.388 194.87C448.848 194.87 449.998 194.42 450.838 193.52C451.678 192.62 452.098 191.31 452.098 189.59V180.56H454.828ZM462.167 183.23C462.647 182.29 463.327 181.56 464.207 181.04C465.107 180.52 466.197 180.26 467.477 180.26V183.08H466.757C463.697 183.08 462.167 184.74 462.167 188.06V197H459.437V180.56H462.167V183.23ZM478.638 180.26C480.638 180.26 482.258 180.87 483.498 182.09C484.738 183.29 485.358 185.03 485.358 187.31V197H482.658V187.7C482.658 186.06 482.248 184.81 481.428 183.95C480.608 183.07 479.488 182.63 478.068 182.63C476.628 182.63 475.478 183.08 474.618 183.98C473.778 184.88 473.358 186.19 473.358 187.91V197H470.628V180.56H473.358V182.9C473.898 182.06 474.628 181.41 475.548 180.95C476.488 180.49 477.518 180.26 478.638 180.26ZM504.986 197.27C503.446 197.27 502.046 196.92 500.786 196.22C499.546 195.52 498.566 194.53 497.846 193.25C497.146 191.95 496.796 190.45 496.796 188.75C496.796 187.07 497.156 185.59 497.876 184.31C498.616 183.01 499.616 182.02 500.876 181.34C502.136 180.64 503.546 180.29 505.106 180.29C506.666 180.29 508.076 180.64 509.336 181.34C510.596 182.02 511.586 183 512.306 184.28C513.046 185.56 513.416 187.05 513.416 188.75C513.416 190.45 513.036 191.95 512.276 193.25C511.536 194.53 510.526 195.52 509.246 196.22C507.966 196.92 506.546 197.27 504.986 197.27ZM504.986 194.87C505.966 194.87 506.886 194.64 507.746 194.18C508.606 193.72 509.296 193.03 509.816 192.11C510.356 191.19 510.626 190.07 510.626 188.75C510.626 187.43 510.366 186.31 509.846 185.39C509.326 184.47 508.646 183.79 507.806 183.35C506.966 182.89 506.056 182.66 505.076 182.66C504.076 182.66 503.156 182.89 502.316 183.35C501.496 183.79 500.836 184.47 500.336 185.39C499.836 186.31 499.586 187.43 499.586 188.75C499.586 190.09 499.826 191.22 500.306 192.14C500.806 193.06 501.466 193.75 502.286 194.21C503.106 194.65 504.006 194.87 504.986 194.87ZM523.695 182.81H520.245V197H517.515V182.81H515.385V180.56H517.515V179.39C517.515 177.55 517.985 176.21 518.925 175.37C519.885 174.51 521.415 174.08 523.515 174.08V176.36C522.315 176.36 521.465 176.6 520.965 177.08C520.485 177.54 520.245 178.31 520.245 179.39V180.56H523.695V182.81ZM533.568 182.81H530.118V197H527.388V182.81H525.258V180.56H527.388V179.39C527.388 177.55 527.858 176.21 528.798 175.37C529.758 174.51 531.288 174.08 533.388 174.08V176.36C532.188 176.36 531.338 176.6 530.838 177.08C530.358 177.54 530.118 178.31 530.118 179.39V180.56H533.568V182.81ZM558.909 180.56L549.009 204.74H546.189L549.429 196.82L542.799 180.56H545.829L550.989 193.88L556.089 180.56H558.909ZM568.824 197.27C567.284 197.27 565.884 196.92 564.624 196.22C563.384 195.52 562.404 194.53 561.684 193.25C560.984 191.95 560.634 190.45 560.634 188.75C560.634 187.07 560.994 185.59 561.714 184.31C562.454 183.01 563.454 182.02 564.714 181.34C565.974 180.64 567.384 180.29 568.944 180.29C570.504 180.29 571.914 180.64 573.174 181.34C574.434 182.02 575.424 183 576.144 184.28C576.884 185.56 577.254 187.05 577.254 188.75C577.254 190.45 576.874 191.95 576.114 193.25C575.374 194.53 574.364 195.52 573.084 196.22C571.804 196.92 570.384 197.27 568.824 197.27ZM568.824 194.87C569.804 194.87 570.724 194.64 571.584 194.18C572.444 193.72 573.134 193.03 573.654 192.11C574.194 191.19 574.464 190.07 574.464 188.75C574.464 187.43 574.204 186.31 573.684 185.39C573.164 184.47 572.484 183.79 571.644 183.35C570.804 182.89 569.894 182.66 568.914 182.66C567.914 182.66 566.994 182.89 566.154 183.35C565.334 183.79 564.674 184.47 564.174 185.39C563.674 186.31 563.424 187.43 563.424 188.75C563.424 190.09 563.664 191.22 564.144 192.14C564.644 193.06 565.304 193.75 566.124 194.21C566.944 194.65 567.844 194.87 568.824 194.87ZM595.423 180.56V197H592.693V194.57C592.173 195.41 591.443 196.07 590.503 196.55C589.583 197.01 588.563 197.24 587.443 197.24C586.163 197.24 585.013 196.98 583.993 196.46C582.973 195.92 582.163 195.12 581.563 194.06C580.983 193 580.693 191.71 580.693 190.19V180.56H583.393V189.83C583.393 191.45 583.803 192.7 584.623 193.58C585.443 194.44 586.563 194.87 587.983 194.87C589.443 194.87 590.593 194.42 591.433 193.52C592.273 192.62 592.693 191.31 592.693 189.59V180.56H595.423ZM602.763 183.23C603.243 182.29 603.923 181.56 604.803 181.04C605.703 180.52 606.793 180.26 608.073 180.26V183.08H607.353C604.293 183.08 602.763 184.74 602.763 188.06V197H600.033V180.56H602.763V183.23ZM25.13 242.27C23.87 242.27 22.74 242.06 21.74 241.64C20.74 241.2 19.95 240.6 19.37 239.84C18.79 239.06 18.47 238.17 18.41 237.17H21.23C21.31 237.99 21.69 238.66 22.37 239.18C23.07 239.7 23.98 239.96 25.1 239.96C26.14 239.96 26.96 239.73 27.56 239.27C28.16 238.81 28.46 238.23 28.46 237.53C28.46 236.81 28.14 236.28 27.5 235.94C26.86 235.58 25.87 235.23 24.53 234.89C23.31 234.57 22.31 234.25 21.53 233.93C20.77 233.59 20.11 233.1 19.55 232.46C19.01 231.8 18.74 230.94 18.74 229.88C18.74 229.04 18.99 228.27 19.49 227.57C19.99 226.87 20.7 226.32 21.62 225.92C22.54 225.5 23.59 225.29 24.77 225.29C26.59 225.29 28.06 225.75 29.18 226.67C30.3 227.59 30.9 228.85 30.98 230.45H28.25C28.19 229.59 27.84 228.9 27.2 228.38C26.58 227.86 25.74 227.6 24.68 227.6C23.7 227.6 22.92 227.81 22.34 228.23C21.76 228.65 21.47 229.2 21.47 229.88C21.47 230.42 21.64 230.87 21.98 231.23C22.34 231.57 22.78 231.85 23.3 232.07C23.84 232.27 24.58 232.5 25.52 232.76C26.7 233.08 27.66 233.4 28.4 233.72C29.14 234.02 29.77 234.48 30.29 235.1C30.83 235.72 31.11 236.53 31.13 237.53C31.13 238.43 30.88 239.24 30.38 239.96C29.88 240.68 29.17 241.25 28.25 241.67C27.35 242.07 26.31 242.27 25.13 242.27ZM36.3938 222.89C35.8738 222.89 35.4338 222.71 35.0738 222.35C34.7138 221.99 34.5338 221.55 34.5338 221.03C34.5338 220.51 34.7138 220.07 35.0738 219.71C35.4338 219.35 35.8738 219.17 36.3938 219.17C36.8938 219.17 37.3138 219.35 37.6538 219.71C38.0138 220.07 38.1938 220.51 38.1938 221.03C38.1938 221.55 38.0138 221.99 37.6538 222.35C37.3138 222.71 36.8938 222.89 36.3938 222.89ZM37.7138 225.56V242H34.9838V225.56H37.7138ZM49.1466 225.29C50.5666 225.29 51.8066 225.6 52.8666 226.22C53.9466 226.84 54.7466 227.62 55.2666 228.56V225.56H58.0266V242.36C58.0266 243.86 57.7066 245.19 57.0666 246.35C56.4266 247.53 55.5066 248.45 54.3066 249.11C53.1266 249.77 51.7466 250.1 50.1666 250.1C48.0066 250.1 46.2066 249.59 44.7666 248.57C43.3266 247.55 42.4766 246.16 42.2166 244.4H44.9166C45.2166 245.4 45.8366 246.2 46.7766 246.8C47.7166 247.42 48.8466 247.73 50.1666 247.73C51.6666 247.73 52.8866 247.26 53.8266 246.32C54.7866 245.38 55.2666 244.06 55.2666 242.36V238.91C54.7266 239.87 53.9266 240.67 52.8666 241.31C51.8066 241.95 50.5666 242.27 49.1466 242.27C47.6866 242.27 46.3566 241.91 45.1566 241.19C43.9766 240.47 43.0466 239.46 42.3666 238.16C41.6866 236.86 41.3466 235.38 41.3466 233.72C41.3466 232.04 41.6866 230.57 42.3666 229.31C43.0466 228.03 43.9766 227.04 45.1566 226.34C46.3566 225.64 47.6866 225.29 49.1466 225.29ZM55.2666 233.75C55.2666 232.51 55.0166 231.43 54.5166 230.51C54.0166 229.59 53.3366 228.89 52.4766 228.41C51.6366 227.91 50.7066 227.66 49.6866 227.66C48.6666 227.66 47.7366 227.9 46.8966 228.38C46.0566 228.86 45.3866 229.56 44.8866 230.48C44.3866 231.4 44.1366 232.48 44.1366 233.72C44.1366 234.98 44.3866 236.08 44.8866 237.02C45.3866 237.94 46.0566 238.65 46.8966 239.15C47.7366 239.63 48.6666 239.87 49.6866 239.87C50.7066 239.87 51.6366 239.63 52.4766 239.15C53.3366 238.65 54.0166 237.94 54.5166 237.02C55.0166 236.08 55.2666 234.99 55.2666 233.75ZM70.6501 225.26C72.6501 225.26 74.2701 225.87 75.5101 227.09C76.7501 228.29 77.3701 230.03 77.3701 232.31V242H74.6701V232.7C74.6701 231.06 74.2601 229.81 73.4401 228.95C72.6201 228.07 71.5001 227.63 70.0801 227.63C68.6401 227.63 67.4901 228.08 66.6301 228.98C65.7901 229.88 65.3701 231.19 65.3701 232.91V242H62.6401V225.56H65.3701V227.9C65.9101 227.06 66.6401 226.41 67.5601 225.95C68.5001 225.49 69.5301 225.26 70.6501 225.26ZM80.8095 233.72C80.8095 232.04 81.1495 230.57 81.8295 229.31C82.5095 228.03 83.4395 227.04 84.6195 226.34C85.8195 225.64 87.1495 225.29 88.6095 225.29C90.0495 225.29 91.2995 225.6 92.3595 226.22C93.4195 226.84 94.2095 227.62 94.7295 228.56V225.56H97.4895V242H94.7295V238.94C94.1895 239.9 93.3795 240.7 92.2995 241.34C91.2395 241.96 89.9995 242.27 88.5795 242.27C87.1195 242.27 85.7995 241.91 84.6195 241.19C83.4395 240.47 82.5095 239.46 81.8295 238.16C81.1495 236.86 80.8095 235.38 80.8095 233.72ZM94.7295 233.75C94.7295 232.51 94.4795 231.43 93.9795 230.51C93.4795 229.59 92.7995 228.89 91.9395 228.41C91.0995 227.91 90.1695 227.66 89.1495 227.66C88.1295 227.66 87.1995 227.9 86.3595 228.38C85.5195 228.86 84.8495 229.56 84.3495 230.48C83.8495 231.4 83.5995 232.48 83.5995 233.72C83.5995 234.98 83.8495 236.08 84.3495 237.02C84.8495 237.94 85.5195 238.65 86.3595 239.15C87.1995 239.63 88.1295 239.87 89.1495 239.87C90.1695 239.87 91.0995 239.63 91.9395 239.15C92.7995 238.65 93.4795 237.94 93.9795 237.02C94.4795 236.08 94.7295 234.99 94.7295 233.75ZM104.833 219.8V242H102.103V219.8H104.833ZM110.356 242.18C109.836 242.18 109.396 242 109.036 241.64C108.676 241.28 108.496 240.84 108.496 240.32C108.496 239.8 108.676 239.36 109.036 239C109.396 238.64 109.836 238.46 110.356 238.46C110.856 238.46 111.276 238.64 111.616 239C111.976 239.36 112.156 239.8 112.156 240.32C112.156 240.84 111.976 241.28 111.616 241.64C111.276 242 110.856 242.18 110.356 242.18Z" fill="black"/>
<path d="M41.395 18.325L32.715 35.16V43H25.82V35.16L17.14 18.325H24.98L29.32 27.845L33.66 18.325H41.395ZM52.636 43.245C50.676 43.245 48.9143 42.8367 47.351 42.02C45.811 41.2033 44.5977 40.0367 43.711 38.52C42.8243 37.0033 42.381 35.2183 42.381 33.165C42.381 31.135 42.8243 29.3617 43.711 27.845C44.621 26.3283 45.846 25.1617 47.386 24.345C48.9493 23.5283 50.711 23.12 52.671 23.12C54.631 23.12 56.381 23.5283 57.921 24.345C59.4843 25.1617 60.7093 26.3283 61.596 27.845C62.506 29.3617 62.961 31.135 62.961 33.165C62.961 35.195 62.506 36.98 61.596 38.52C60.7093 40.0367 59.4843 41.2033 57.921 42.02C56.3577 42.8367 54.596 43.245 52.636 43.245ZM52.636 37.295C53.5927 37.295 54.386 36.945 55.016 36.245C55.6693 35.5217 55.996 34.495 55.996 33.165C55.996 31.835 55.6693 30.82 55.016 30.12C54.386 29.42 53.6043 29.07 52.671 29.07C51.7377 29.07 50.956 29.42 50.326 30.12C49.696 30.82 49.381 31.835 49.381 33.165C49.381 34.5183 49.6843 35.545 50.291 36.245C50.8977 36.945 51.6793 37.295 52.636 37.295ZM85.842 23.365V43H78.947V40.2C78.3637 41.0867 77.5587 41.81 76.532 42.37C75.5053 42.9067 74.327 43.175 72.997 43.175C70.7103 43.175 68.902 42.4283 67.572 40.935C66.2653 39.4183 65.612 37.365 65.612 34.775V23.365H72.437V33.9C72.437 35.02 72.7287 35.9067 73.312 36.56C73.9187 37.19 74.712 37.505 75.692 37.505C76.6953 37.505 77.4887 37.19 78.072 36.56C78.6553 35.9067 78.947 35.02 78.947 33.9V23.365H85.842ZM96.6061 26.83C97.3761 25.71 98.3095 24.8233 99.4061 24.17C100.503 23.5167 101.681 23.19 102.941 23.19V30.505H101.016C99.5228 30.505 98.4145 30.7967 97.6911 31.38C96.9678 31.9633 96.6061 32.9783 96.6061 34.425V43H89.7461V23.365H96.6061V26.83ZM118.96 26.095C119.496 25.185 120.255 24.4617 121.235 23.925C122.215 23.3883 123.37 23.12 124.7 23.12C126.263 23.12 127.675 23.5283 128.935 24.345C130.218 25.1617 131.221 26.3283 131.945 27.845C132.691 29.3617 133.065 31.135 133.065 33.165C133.065 35.195 132.691 36.98 131.945 38.52C131.221 40.0367 130.218 41.2033 128.935 42.02C127.675 42.8367 126.263 43.245 124.7 43.245C123.37 43.245 122.215 42.9767 121.235 42.44C120.278 41.9033 119.52 41.18 118.96 40.27V52.38H112.1V23.365H118.96V26.095ZM126.1 33.165C126.1 31.8817 125.75 30.89 125.05 30.19C124.373 29.4667 123.533 29.105 122.53 29.105C121.526 29.105 120.675 29.4667 119.975 30.19C119.298 30.9133 118.96 31.905 118.96 33.165C118.96 34.4483 119.298 35.4517 119.975 36.175C120.675 36.8983 121.526 37.26 122.53 37.26C123.533 37.26 124.373 36.8983 125.05 36.175C125.75 35.4283 126.1 34.425 126.1 33.165ZM142.749 26.83C143.519 25.71 144.452 24.8233 145.549 24.17C146.645 23.5167 147.824 23.19 149.084 23.19V30.505H147.159C145.665 30.505 144.557 30.7967 143.834 31.38C143.11 31.9633 142.749 32.9783 142.749 34.425V43H135.889V23.365H142.749V26.83ZM160.678 43.245C158.718 43.245 156.956 42.8367 155.393 42.02C153.853 41.2033 152.64 40.0367 151.753 38.52C150.866 37.0033 150.423 35.2183 150.423 33.165C150.423 31.135 150.866 29.3617 151.753 27.845C152.663 26.3283 153.888 25.1617 155.428 24.345C156.991 23.5283 158.753 23.12 160.713 23.12C162.673 23.12 164.423 23.5283 165.963 24.345C167.526 25.1617 168.751 26.3283 169.638 27.845C170.548 29.3617 171.003 31.135 171.003 33.165C171.003 35.195 170.548 36.98 169.638 38.52C168.751 40.0367 167.526 41.2033 165.963 42.02C164.4 42.8367 162.638 43.245 160.678 43.245ZM160.678 37.295C161.635 37.295 162.428 36.945 163.058 36.245C163.711 35.5217 164.038 34.495 164.038 33.165C164.038 31.835 163.711 30.82 163.058 30.12C162.428 29.42 161.646 29.07 160.713 29.07C159.78 29.07 158.998 29.42 158.368 30.12C157.738 30.82 157.423 31.835 157.423 33.165C157.423 34.5183 157.726 35.545 158.333 36.245C158.94 36.945 159.721 37.295 160.678 37.295ZM180.654 26.095C181.191 25.1617 181.949 24.4383 182.929 23.925C183.909 23.3883 185.064 23.12 186.394 23.12C187.957 23.12 189.369 23.5283 190.629 24.345C191.912 25.1617 192.916 26.3283 193.639 27.845C194.386 29.3617 194.759 31.135 194.759 33.165C194.759 35.195 194.386 36.98 193.639 38.52C192.916 40.0367 191.912 41.2033 190.629 42.02C189.369 42.8367 187.957 43.245 186.394 43.245C185.064 43.245 183.909 42.9883 182.929 42.475C181.949 41.9383 181.191 41.2033 180.654 40.27V43H173.794V17.1H180.654V26.095ZM187.794 33.165C187.794 31.8817 187.444 30.89 186.744 30.19C186.067 29.4667 185.227 29.105 184.224 29.105C183.221 29.105 182.369 29.4667 181.669 30.19C180.992 30.9133 180.654 31.905 180.654 33.165C180.654 34.4483 180.992 35.4517 181.669 36.175C182.369 36.8983 183.221 37.26 184.224 37.26C185.227 37.26 186.067 36.8983 186.744 36.175C187.444 35.4283 187.794 34.425 187.794 33.165ZM204.443 17.1V43H197.583V17.1H204.443ZM227.11 32.955C227.11 33.4917 227.075 34.0283 227.005 34.565H214.02C214.09 35.6383 214.381 36.4433 214.895 36.98C215.431 37.4933 216.108 37.75 216.925 37.75C218.068 37.75 218.885 37.2367 219.375 36.21H226.69C226.386 37.5633 225.791 38.7767 224.905 39.85C224.041 40.9 222.945 41.7283 221.615 42.335C220.285 42.9417 218.815 43.245 217.205 43.245C215.268 43.245 213.541 42.8367 212.025 42.02C210.531 41.2033 209.353 40.0367 208.49 38.52C207.65 37.0033 207.23 35.2183 207.23 33.165C207.23 31.1117 207.65 29.3383 208.49 27.845C209.33 26.3283 210.496 25.1617 211.99 24.345C213.506 23.5283 215.245 23.12 217.205 23.12C219.141 23.12 220.856 23.5167 222.35 24.31C223.843 25.1033 225.01 26.2467 225.85 27.74C226.69 29.21 227.11 30.9483 227.11 32.955ZM220.11 31.24C220.11 30.4 219.83 29.7467 219.27 29.28C218.71 28.79 218.01 28.545 217.17 28.545C216.33 28.545 215.641 28.7783 215.105 29.245C214.568 29.6883 214.218 30.3533 214.055 31.24H220.11ZM255.572 23.19C258.045 23.19 259.982 23.9367 261.382 25.43C262.805 26.9233 263.517 28.965 263.517 31.555V43H256.657V32.465C256.657 31.415 256.365 30.5983 255.782 30.015C255.199 29.4317 254.405 29.14 253.402 29.14C252.399 29.14 251.605 29.4317 251.022 30.015C250.439 30.5983 250.147 31.415 250.147 32.465V43H243.287V32.465C243.287 31.415 242.995 30.5983 242.412 30.015C241.852 29.4317 241.07 29.14 240.067 29.14C239.04 29.14 238.235 29.4317 237.652 30.015C237.069 30.5983 236.777 31.415 236.777 32.465V43H229.917V23.365H236.777V25.955C237.384 25.115 238.165 24.45 239.122 23.96C240.102 23.4467 241.222 23.19 242.482 23.19C243.929 23.19 245.212 23.505 246.332 24.135C247.475 24.765 248.374 25.6517 249.027 26.795C249.727 25.7217 250.649 24.8583 251.792 24.205C252.935 23.5283 254.195 23.19 255.572 23.19ZM286.89 23.19C289.13 23.19 290.903 23.9483 292.21 25.465C293.54 26.9583 294.205 28.9883 294.205 31.555V43H287.345V32.465C287.345 31.345 287.053 30.47 286.47 29.84C285.886 29.1867 285.105 28.86 284.125 28.86C283.098 28.86 282.293 29.1867 281.71 29.84C281.126 30.47 280.835 31.345 280.835 32.465V43H273.975V17.1H280.835V26.165C281.441 25.2783 282.258 24.5667 283.285 24.03C284.335 23.47 285.536 23.19 286.89 23.19ZM296.849 33.165C296.849 31.135 297.21 29.3617 297.934 27.845C298.68 26.3283 299.684 25.1617 300.944 24.345C302.227 23.5283 303.65 23.12 305.214 23.12C306.567 23.12 307.734 23.3883 308.714 23.925C309.694 24.4617 310.452 25.185 310.989 26.095V23.365H317.849V43H310.989V40.27C310.452 41.18 309.682 41.9033 308.679 42.44C307.699 42.9767 306.544 43.245 305.214 43.245C303.65 43.245 302.227 42.8367 300.944 42.02C299.684 41.2033 298.68 40.0367 297.934 38.52C297.21 36.98 296.849 35.195 296.849 33.165ZM310.989 33.165C310.989 31.905 310.639 30.9133 309.939 30.19C309.262 29.4667 308.422 29.105 307.419 29.105C306.392 29.105 305.54 29.4667 304.864 30.19C304.187 30.89 303.849 31.8817 303.849 33.165C303.849 34.425 304.187 35.4283 304.864 36.175C305.54 36.8983 306.392 37.26 307.419 37.26C308.422 37.26 309.262 36.8983 309.939 36.175C310.639 35.4517 310.989 34.4483 310.989 33.165ZM330.123 43.245C328.35 43.245 326.763 42.9533 325.363 42.37C323.986 41.7633 322.89 40.9467 322.073 39.92C321.28 38.87 320.836 37.6917 320.743 36.385H327.393C327.486 37.015 327.778 37.505 328.268 37.855C328.758 38.205 329.365 38.38 330.088 38.38C330.648 38.38 331.091 38.2633 331.418 38.03C331.745 37.7967 331.908 37.4933 331.908 37.12C331.908 36.63 331.64 36.2683 331.103 36.035C330.566 35.8017 329.68 35.545 328.443 35.265C327.043 34.985 325.876 34.67 324.943 34.32C324.01 33.97 323.193 33.3983 322.493 32.605C321.816 31.8117 321.478 30.7383 321.478 29.385C321.478 28.2183 321.793 27.1683 322.423 26.235C323.053 25.2783 323.975 24.52 325.188 23.96C326.425 23.4 327.906 23.12 329.633 23.12C332.2 23.12 334.218 23.75 335.688 25.01C337.158 26.27 338.01 27.9267 338.243 29.98H332.048C331.931 29.35 331.651 28.8717 331.208 28.545C330.788 28.195 330.216 28.02 329.493 28.02C328.933 28.02 328.501 28.125 328.198 28.335C327.918 28.545 327.778 28.8367 327.778 29.21C327.778 29.6767 328.046 30.0383 328.583 30.295C329.12 30.5283 329.983 30.7733 331.173 31.03C332.596 31.3333 333.775 31.6717 334.708 32.045C335.665 32.4183 336.493 33.025 337.193 33.865C337.916 34.6817 338.278 35.8017 338.278 37.225C338.278 38.3683 337.94 39.395 337.263 40.305C336.61 41.215 335.665 41.9383 334.428 42.475C333.215 42.9883 331.78 43.245 330.123 43.245ZM355.21 26.095C355.746 25.1617 356.505 24.4383 357.485 23.925C358.465 23.3883 359.62 23.12 360.95 23.12C362.513 23.12 363.925 23.5283 365.185 24.345C366.468 25.1617 367.471 26.3283 368.195 27.845C368.941 29.3617 369.315 31.135 369.315 33.165C369.315 35.195 368.941 36.98 368.195 38.52C367.471 40.0367 366.468 41.2033 365.185 42.02C363.925 42.8367 362.513 43.245 360.95 43.245C359.62 43.245 358.465 42.9883 357.485 42.475C356.505 41.9383 355.746 41.2033 355.21 40.27V43H348.35V17.1H355.21V26.095ZM362.35 33.165C362.35 31.8817 362 30.89 361.3 30.19C360.623 29.4667 359.783 29.105 358.78 29.105C357.776 29.105 356.925 29.4667 356.225 30.19C355.548 30.9133 355.21 31.905 355.21 33.165C355.21 34.4483 355.548 35.4517 356.225 36.175C356.925 36.8983 357.776 37.26 358.78 37.26C359.783 37.26 360.623 36.8983 361.3 36.175C362 35.4283 362.35 34.425 362.35 33.165ZM390.899 32.955C390.899 33.4917 390.864 34.0283 390.794 34.565H377.809C377.879 35.6383 378.17 36.4433 378.684 36.98C379.22 37.4933 379.897 37.75 380.714 37.75C381.857 37.75 382.674 37.2367 383.164 36.21H390.479C390.175 37.5633 389.58 38.7767 388.694 39.85C387.83 40.9 386.734 41.7283 385.404 42.335C384.074 42.9417 382.604 43.245 380.994 43.245C379.057 43.245 377.33 42.8367 375.814 42.02C374.32 41.2033 373.142 40.0367 372.279 38.52C371.439 37.0033 371.019 35.2183 371.019 33.165C371.019 31.1117 371.439 29.3383 372.279 27.845C373.119 26.3283 374.285 25.1617 375.779 24.345C377.295 23.5283 379.034 23.12 380.994 23.12C382.93 23.12 384.645 23.5167 386.139 24.31C387.632 25.1033 388.799 26.2467 389.639 27.74C390.479 29.21 390.899 30.9483 390.899 32.955ZM383.899 31.24C383.899 30.4 383.619 29.7467 383.059 29.28C382.499 28.79 381.799 28.545 380.959 28.545C380.119 28.545 379.43 28.7783 378.894 29.245C378.357 29.6883 378.007 30.3533 377.844 31.24H383.899ZM412.466 32.955C412.466 33.4917 412.431 34.0283 412.361 34.565H399.376C399.446 35.6383 399.738 36.4433 400.251 36.98C400.788 37.4933 401.464 37.75 402.281 37.75C403.424 37.75 404.241 37.2367 404.731 36.21H412.046C411.743 37.5633 411.148 38.7767 410.261 39.85C409.398 40.9 408.301 41.7283 406.971 42.335C405.641 42.9417 404.171 43.245 402.561 43.245C400.624 43.245 398.898 42.8367 397.381 42.02C395.888 41.2033 394.709 40.0367 393.846 38.52C393.006 37.0033 392.586 35.2183 392.586 33.165C392.586 31.1117 393.006 29.3383 393.846 27.845C394.686 26.3283 395.853 25.1617 397.346 24.345C398.863 23.5283 400.601 23.12 402.561 23.12C404.498 23.12 406.213 23.5167 407.706 24.31C409.199 25.1033 410.366 26.2467 411.206 27.74C412.046 29.21 412.466 30.9483 412.466 32.955ZM405.466 31.24C405.466 30.4 405.186 29.7467 404.626 29.28C404.066 28.79 403.366 28.545 402.526 28.545C401.686 28.545 400.998 28.7783 400.461 29.245C399.924 29.6883 399.574 30.3533 399.411 31.24H405.466ZM428.118 23.19C430.382 23.19 432.178 23.9483 433.508 25.465C434.838 26.9583 435.503 28.9883 435.503 31.555V43H428.643V32.465C428.643 31.345 428.352 30.47 427.768 29.84C427.185 29.1867 426.403 28.86 425.423 28.86C424.397 28.86 423.592 29.1867 423.008 29.84C422.425 30.47 422.133 31.345 422.133 32.465V43H415.273V23.365H422.133V26.165C422.74 25.2783 423.557 24.5667 424.583 24.03C425.61 23.47 426.788 23.19 428.118 23.19ZM454.332 43.245C452.559 43.245 450.972 42.9533 449.572 42.37C448.195 41.7633 447.099 40.9467 446.282 39.92C445.489 38.87 445.045 37.6917 444.952 36.385H451.602C451.695 37.015 451.987 37.505 452.477 37.855C452.967 38.205 453.574 38.38 454.297 38.38C454.857 38.38 455.3 38.2633 455.627 38.03C455.954 37.7967 456.117 37.4933 456.117 37.12C456.117 36.63 455.849 36.2683 455.312 36.035C454.775 35.8017 453.889 35.545 452.652 35.265C451.252 34.985 450.085 34.67 449.152 34.32C448.219 33.97 447.402 33.3983 446.702 32.605C446.025 31.8117 445.687 30.7383 445.687 29.385C445.687 28.2183 446.002 27.1683 446.632 26.235C447.262 25.2783 448.184 24.52 449.397 23.96C450.634 23.4 452.115 23.12 453.842 23.12C456.409 23.12 458.427 23.75 459.897 25.01C461.367 26.27 462.219 27.9267 462.452 29.98H456.257C456.14 29.35 455.86 28.8717 455.417 28.545C454.997 28.195 454.425 28.02 453.702 28.02C453.142 28.02 452.71 28.125 452.407 28.335C452.127 28.545 451.987 28.8367 451.987 29.21C451.987 29.6767 452.255 30.0383 452.792 30.295C453.329 30.5283 454.192 30.7733 455.382 31.03C456.805 31.3333 457.984 31.6717 458.917 32.045C459.874 32.4183 460.702 33.025 461.402 33.865C462.125 34.6817 462.487 35.8017 462.487 37.225C462.487 38.3683 462.149 39.395 461.472 40.305C460.819 41.215 459.874 41.9383 458.637 42.475C457.424 42.9883 455.989 43.245 454.332 43.245ZM474.994 43.245C473.034 43.245 471.273 42.8367 469.709 42.02C468.169 41.2033 466.956 40.0367 466.069 38.52C465.183 37.0033 464.739 35.2183 464.739 33.165C464.739 31.135 465.183 29.3617 466.069 27.845C466.979 26.3283 468.204 25.1617 469.744 24.345C471.308 23.5283 473.069 23.12 475.029 23.12C476.989 23.12 478.739 23.5283 480.279 24.345C481.843 25.1617 483.068 26.3283 483.954 27.845C484.864 29.3617 485.319 31.135 485.319 33.165C485.319 35.195 484.864 36.98 483.954 38.52C483.068 40.0367 481.843 41.2033 480.279 42.02C478.716 42.8367 476.954 43.245 474.994 43.245ZM474.994 37.295C475.951 37.295 476.744 36.945 477.374 36.245C478.028 35.5217 478.354 34.495 478.354 33.165C478.354 31.835 478.028 30.82 477.374 30.12C476.744 29.42 475.963 29.07 475.029 29.07C474.096 29.07 473.314 29.42 472.684 30.12C472.054 30.82 471.739 31.835 471.739 33.165C471.739 34.5183 472.043 35.545 472.649 36.245C473.256 36.945 474.038 37.295 474.994 37.295ZM494.97 17.1V43H488.11V17.1H494.97ZM508.292 36.525L511.967 23.365H519.282L512.527 43H503.987L497.232 23.365H504.547L508.292 36.525ZM540.366 32.955C540.366 33.4917 540.331 34.0283 540.261 34.565H527.276C527.346 35.6383 527.638 36.4433 528.151 36.98C528.688 37.4933 529.365 37.75 530.181 37.75C531.325 37.75 532.141 37.2367 532.631 36.21H539.946C539.643 37.5633 539.048 38.7767 538.161 39.85C537.298 40.9 536.201 41.7283 534.871 42.335C533.541 42.9417 532.071 43.245 530.461 43.245C528.525 43.245 526.798 42.8367 525.281 42.02C523.788 41.2033 522.61 40.0367 521.746 38.52C520.906 37.0033 520.486 35.2183 520.486 33.165C520.486 31.1117 520.906 29.3383 521.746 27.845C522.586 26.3283 523.753 25.1617 525.246 24.345C526.763 23.5283 528.501 23.12 530.461 23.12C532.398 23.12 534.113 23.5167 535.606 24.31C537.1 25.1033 538.266 26.2467 539.106 27.74C539.946 29.21 540.366 30.9483 540.366 32.955ZM533.366 31.24C533.366 30.4 533.086 29.7467 532.526 29.28C531.966 28.79 531.266 28.545 530.426 28.545C529.586 28.545 528.898 28.7783 528.361 29.245C527.825 29.6883 527.475 30.3533 527.311 31.24H533.366ZM542.054 33.165C542.054 31.135 542.416 29.3617 543.139 27.845C543.886 26.3283 544.901 25.1617 546.184 24.345C547.467 23.5283 548.891 23.12 550.454 23.12C551.714 23.12 552.834 23.3883 553.814 23.925C554.817 24.4383 555.599 25.15 556.159 26.06V17.1H563.054V43H556.159V40.27C555.622 41.18 554.864 41.9033 553.884 42.44C552.904 42.9767 551.749 43.245 550.419 43.245C548.856 43.245 547.432 42.8367 546.149 42.02C544.889 41.2033 543.886 40.0367 543.139 38.52C542.416 36.98 542.054 35.195 542.054 33.165ZM556.194 33.165C556.194 31.905 555.844 30.9133 555.144 30.19C554.467 29.4667 553.627 29.105 552.624 29.105C551.597 29.105 550.746 29.4667 550.069 30.19C549.392 30.89 549.054 31.8817 549.054 33.165C549.054 34.425 549.392 35.4283 550.069 36.175C550.746 36.8983 551.597 37.26 552.624 37.26C553.627 37.26 554.467 36.8983 555.144 36.175C555.844 35.4517 556.194 34.4483 556.194 33.165ZM576.133 17.065L575.328 33.76H569.483L568.678 17.065H576.133ZM572.423 43.28C571.21 43.28 570.23 42.9533 569.483 42.3C568.76 41.6233 568.398 40.7717 568.398 39.745C568.398 38.7183 568.76 37.8667 569.483 37.19C570.23 36.5133 571.21 36.175 572.423 36.175C573.613 36.175 574.57 36.5133 575.293 37.19C576.04 37.8667 576.413 38.7183 576.413 39.745C576.413 40.7483 576.04 41.5883 575.293 42.265C574.57 42.9417 573.613 43.28 572.423 43.28Z" fill="#34A853"/>
<rect x="382" y="282.152" width="244" height="52.6609" rx="13.0556" fill="#34A853"/>
<path d="M446.478 308.424C446.478 306.707 446.861 305.174 447.628 303.824C448.411 302.457 449.469 301.399 450.803 300.649C452.153 299.882 453.661 299.499 455.328 299.499C457.278 299.499 458.986 299.999 460.453 300.999C461.919 301.999 462.944 303.382 463.528 305.149H459.503C459.103 304.315 458.536 303.69 457.803 303.274C457.086 302.857 456.253 302.649 455.303 302.649C454.286 302.649 453.378 302.89 452.578 303.374C451.794 303.84 451.178 304.507 450.728 305.374C450.294 306.24 450.078 307.257 450.078 308.424C450.078 309.574 450.294 310.59 450.728 311.474C451.178 312.34 451.794 313.015 452.578 313.499C453.378 313.965 454.286 314.199 455.303 314.199C456.253 314.199 457.086 313.99 457.803 313.574C458.536 313.14 459.103 312.507 459.503 311.674H463.528C462.944 313.457 461.919 314.849 460.453 315.849C459.003 316.832 457.294 317.324 455.328 317.324C453.661 317.324 452.153 316.949 450.803 316.199C449.469 315.432 448.411 314.374 447.628 313.024C446.861 311.674 446.478 310.14 446.478 308.424ZM474.617 317.349C472.984 317.349 471.484 316.965 470.117 316.199C468.751 315.432 467.667 314.374 466.867 313.024C466.067 311.657 465.667 310.115 465.667 308.399C465.667 306.699 466.067 305.174 466.867 303.824C467.667 302.457 468.751 301.39 470.117 300.624C471.484 299.857 472.984 299.474 474.617 299.474C476.267 299.474 477.767 299.857 479.117 300.624C480.484 301.39 481.559 302.457 482.342 303.824C483.142 305.174 483.542 306.699 483.542 308.399C483.542 310.115 483.142 311.657 482.342 313.024C481.559 314.374 480.484 315.432 479.117 316.199C477.751 316.965 476.251 317.349 474.617 317.349ZM474.617 314.224C475.667 314.224 476.592 313.99 477.392 313.524C478.192 313.04 478.817 312.357 479.267 311.474C479.717 310.59 479.942 309.565 479.942 308.399C479.942 307.232 479.717 306.215 479.267 305.349C478.817 304.465 478.192 303.79 477.392 303.324C476.592 302.857 475.667 302.624 474.617 302.624C473.567 302.624 472.634 302.857 471.817 303.324C471.017 303.79 470.392 304.465 469.942 305.349C469.492 306.215 469.267 307.232 469.267 308.399C469.267 309.565 469.492 310.59 469.942 311.474C470.392 312.357 471.017 313.04 471.817 313.524C472.634 313.99 473.567 314.224 474.617 314.224ZM501.071 317.174H497.571L489.646 305.199V317.174H486.146V299.699H489.646L497.571 311.699V299.699H501.071V317.174ZM515.305 299.724V302.549H508.03V307.024H513.605V309.799H508.03V317.174H504.53V299.724H515.305ZM521.287 299.724V317.174H517.787V299.724H521.287ZM533.745 317.174L529.895 310.374H528.245V317.174H524.745V299.724H531.295C532.645 299.724 533.795 299.965 534.745 300.449C535.695 300.915 536.403 301.557 536.87 302.374C537.353 303.174 537.595 304.074 537.595 305.074C537.595 306.224 537.261 307.265 536.595 308.199C535.928 309.115 534.936 309.749 533.62 310.099L537.795 317.174H533.745ZM528.245 307.749H531.17C532.12 307.749 532.828 307.524 533.295 307.074C533.761 306.607 533.995 305.965 533.995 305.149C533.995 304.349 533.761 303.732 533.295 303.299C532.828 302.849 532.12 302.624 531.17 302.624H528.245V307.749ZM559.785 299.724V317.174H556.285V305.824L551.61 317.174H548.96L544.26 305.824V317.174H540.76V299.724H544.735L550.285 312.699L555.835 299.724H559.785Z" fill="white" fill-opacity="0.98"/>
<rect x="22" y="282" width="344" height="53" rx="13.0556" fill="#C80A0A"/>
<path d="M65.6427 318H62.1427L54.2177 306.025V318H50.7177V300.525H54.2177L62.1427 312.525V300.525H65.6427V318ZM77.2015 318.175C75.5681 318.175 74.0681 317.792 72.7015 317.025C71.3348 316.258 70.2515 315.2 69.4515 313.85C68.6515 312.483 68.2515 310.942 68.2515 309.225C68.2515 307.525 68.6515 306 69.4515 304.65C70.2515 303.283 71.3348 302.217 72.7015 301.45C74.0681 300.683 75.5681 300.3 77.2015 300.3C78.8515 300.3 80.3515 300.683 81.7015 301.45C83.0681 302.217 84.1431 303.283 84.9265 304.65C85.7265 306 86.1265 307.525 86.1265 309.225C86.1265 310.942 85.7265 312.483 84.9265 313.85C84.1431 315.2 83.0681 316.258 81.7015 317.025C80.3348 317.792 78.8348 318.175 77.2015 318.175ZM77.2015 315.05C78.2515 315.05 79.1765 314.817 79.9765 314.35C80.7765 313.867 81.4015 313.183 81.8515 312.3C82.3015 311.417 82.5265 310.392 82.5265 309.225C82.5265 308.058 82.3015 307.042 81.8515 306.175C81.4015 305.292 80.7765 304.617 79.9765 304.15C79.1765 303.683 78.2515 303.45 77.2015 303.45C76.1515 303.45 75.2181 303.683 74.4015 304.15C73.6015 304.617 72.9765 305.292 72.5265 306.175C72.0765 307.042 71.8515 308.058 71.8515 309.225C71.8515 310.392 72.0765 311.417 72.5265 312.3C72.9765 313.183 73.6015 313.867 74.4015 314.35C75.2181 314.817 76.1515 315.05 77.2015 315.05ZM92.5554 314.325L89.6304 321.35H87.3804L89.0054 314.325H92.5554ZM104.535 300.55V318H101.035V300.55H104.535ZM120.05 300.55C121.883 300.55 123.492 300.908 124.875 301.625C126.275 302.342 127.35 303.367 128.1 304.7C128.867 306.017 129.25 307.55 129.25 309.3C129.25 311.05 128.867 312.583 128.1 313.9C127.35 315.2 126.275 316.208 124.875 316.925C123.492 317.642 121.883 318 120.05 318H113.95V300.55H120.05ZM119.925 315.025C121.758 315.025 123.175 314.525 124.175 313.525C125.175 312.525 125.675 311.117 125.675 309.3C125.675 307.483 125.175 306.067 124.175 305.05C123.175 304.017 121.758 303.5 119.925 303.5H117.45V315.025H119.925ZM135.37 300.55V318H131.87V300.55H135.37ZM144.928 300.55C146.761 300.55 148.37 300.908 149.753 301.625C151.153 302.342 152.228 303.367 152.978 304.7C153.745 306.017 154.128 307.55 154.128 309.3C154.128 311.05 153.745 312.583 152.978 313.9C152.228 315.2 151.153 316.208 149.753 316.925C148.37 317.642 146.761 318 144.928 318H138.828V300.55H144.928ZM144.803 315.025C146.636 315.025 148.053 314.525 149.053 313.525C150.053 312.525 150.553 311.117 150.553 309.3C150.553 307.483 150.053 306.067 149.053 305.05C148.053 304.017 146.636 303.5 144.803 303.5H142.328V315.025H144.803ZM177.63 318H174.13L166.205 306.025V318H162.705V300.525H166.205L174.13 312.525V300.525H177.63V318ZM189.189 318.175C187.555 318.175 186.055 317.792 184.689 317.025C183.322 316.258 182.239 315.2 181.439 313.85C180.639 312.483 180.239 310.942 180.239 309.225C180.239 307.525 180.639 306 181.439 304.65C182.239 303.283 183.322 302.217 184.689 301.45C186.055 300.683 187.555 300.3 189.189 300.3C190.839 300.3 192.339 300.683 193.689 301.45C195.055 302.217 196.13 303.283 196.914 304.65C197.714 306 198.114 307.525 198.114 309.225C198.114 310.942 197.714 312.483 196.914 313.85C196.13 315.2 195.055 316.258 193.689 317.025C192.322 317.792 190.822 318.175 189.189 318.175ZM189.189 315.05C190.239 315.05 191.164 314.817 191.964 314.35C192.764 313.867 193.389 313.183 193.839 312.3C194.289 311.417 194.514 310.392 194.514 309.225C194.514 308.058 194.289 307.042 193.839 306.175C193.389 305.292 192.764 304.617 191.964 304.15C191.164 303.683 190.239 303.45 189.189 303.45C188.139 303.45 187.205 303.683 186.389 304.15C185.589 304.617 184.964 305.292 184.514 306.175C184.064 307.042 183.839 308.058 183.839 309.225C183.839 310.392 184.064 311.417 184.514 312.3C184.964 313.183 185.589 313.867 186.389 314.35C187.205 314.817 188.139 315.05 189.189 315.05ZM212.593 300.55V303.375H207.943V318H204.443V303.375H199.793V300.55H212.593ZM233.253 305.8C232.853 305.067 232.303 304.508 231.603 304.125C230.903 303.742 230.087 303.55 229.153 303.55C228.12 303.55 227.203 303.783 226.403 304.25C225.603 304.717 224.978 305.383 224.528 306.25C224.078 307.117 223.853 308.117 223.853 309.25C223.853 310.417 224.078 311.433 224.528 312.3C224.995 313.167 225.637 313.833 226.453 314.3C227.27 314.767 228.22 315 229.303 315C230.637 315 231.728 314.65 232.578 313.95C233.428 313.233 233.987 312.242 234.253 310.975H228.253V308.3H237.703V311.35C237.47 312.567 236.97 313.692 236.203 314.725C235.437 315.758 234.445 316.592 233.228 317.225C232.028 317.842 230.678 318.15 229.178 318.15C227.495 318.15 225.97 317.775 224.603 317.025C223.253 316.258 222.187 315.2 221.403 313.85C220.637 312.5 220.253 310.967 220.253 309.25C220.253 307.533 220.637 306 221.403 304.65C222.187 303.283 223.253 302.225 224.603 301.475C225.97 300.708 227.487 300.325 229.153 300.325C231.12 300.325 232.828 300.808 234.278 301.775C235.728 302.725 236.728 304.067 237.278 305.8H233.253ZM243.793 303.375V307.75H249.668V310.525H243.793V315.15H250.418V318H240.293V300.525H250.418V303.375H243.793ZM265.474 300.55V303.375H260.824V318H257.324V303.375H252.674V300.55H265.474ZM288.459 300.55V318H284.959V310.575H277.484V318H273.984V300.55H277.484V307.725H284.959V300.55H288.459ZM295.404 303.375V307.75H301.279V310.525H295.404V315.15H302.029V318H291.904V300.525H302.029V303.375H295.404ZM308.71 315.225H314.46V318H305.21V300.55H308.71V315.225ZM329.409 305.95C329.409 306.883 329.184 307.758 328.734 308.575C328.301 309.392 327.609 310.05 326.659 310.55C325.726 311.05 324.543 311.3 323.109 311.3H320.184V318H316.684V300.55H323.109C324.459 300.55 325.609 300.783 326.559 301.25C327.509 301.717 328.218 302.358 328.684 303.175C329.168 303.992 329.409 304.917 329.409 305.95ZM322.959 308.475C323.926 308.475 324.643 308.258 325.109 307.825C325.576 307.375 325.809 306.75 325.809 305.95C325.809 304.25 324.859 303.4 322.959 303.4H320.184V308.475H322.959ZM336.419 300.25L336.019 312.325H333.069L332.644 300.25H336.419ZM334.619 318.175C333.986 318.175 333.461 317.983 333.044 317.6C332.644 317.2 332.444 316.708 332.444 316.125C332.444 315.542 332.644 315.058 333.044 314.675C333.461 314.275 333.986 314.075 334.619 314.075C335.236 314.075 335.744 314.275 336.144 314.675C336.544 315.058 336.744 315.542 336.744 316.125C336.744 316.708 336.544 317.2 336.144 317.6C335.744 317.983 335.236 318.175 334.619 318.175Z" fill="white" fill-opacity="0.98"/>
</g>
<defs>
<clipPath id="clip0_588_2198">
<rect width="647" height="379" rx="10" fill="white"/>
</clipPath>
</defs>
</svg>
