<svg width="647" height="358" viewBox="0 0 647 358" fill="none" xmlns="http://www.w3.org/2000/svg">
<rect width="647" height="358" rx="10" fill="white"/>
<path d="M0 15C0 6.71573 6.71573 0 15 0H632C640.284 0 647 6.71573 647 15V343C647 351.284 640.284 358 632 358H15C6.71574 358 0 351.284 0 343V15Z" fill="white"/>
<line x1="1.35196e-08" y1="67.747" x2="647" y2="67.747" stroke="#CCCCCC" stroke-width="0.3"/>
<path d="M29.78 96.23C30.54 96.35 31.23 96.66 31.85 97.16C32.49 97.66 32.99 98.28 33.35 99.02C33.73 99.76 33.92 100.55 33.92 101.39C33.92 102.45 33.65 103.41 33.11 104.27C32.57 105.11 31.78 105.78 30.74 106.28C29.72 106.76 28.51 107 27.11 107H19.31V86.09H26.81C28.23 86.09 29.44 86.33 30.44 86.81C31.44 87.27 32.19 87.9 32.69 88.7C33.19 89.5 33.44 90.4 33.44 91.4C33.44 92.64 33.1 93.67 32.42 94.49C31.76 95.29 30.88 95.87 29.78 96.23ZM22.04 95.12H26.63C27.91 95.12 28.9 94.82 29.6 94.22C30.3 93.62 30.65 92.79 30.65 91.73C30.65 90.67 30.3 89.84 29.6 89.24C28.9 88.64 27.89 88.34 26.57 88.34H22.04V95.12ZM26.87 104.75C28.23 104.75 29.29 104.43 30.05 103.79C30.81 103.15 31.19 102.26 31.19 101.12C31.19 99.96 30.79 99.05 29.99 98.39C29.19 97.71 28.12 97.37 26.78 97.37H22.04V104.75H26.87ZM52.7084 98.15C52.7084 98.67 52.6784 99.22 52.6184 99.8H39.4784C39.5784 101.42 40.1284 102.69 41.1284 103.61C42.1484 104.51 43.3784 104.96 44.8184 104.96C45.9984 104.96 46.9784 104.69 47.7584 104.15C48.5584 103.59 49.1184 102.85 49.4384 101.93H52.3784C51.9384 103.51 51.0584 104.8 49.7384 105.8C48.4184 106.78 46.7784 107.27 44.8184 107.27C43.2584 107.27 41.8584 106.92 40.6184 106.22C39.3984 105.52 38.4384 104.53 37.7384 103.25C37.0384 101.95 36.6884 100.45 36.6884 98.75C36.6884 97.05 37.0284 95.56 37.7084 94.28C38.3884 93 39.3384 92.02 40.5584 91.34C41.7984 90.64 43.2184 90.29 44.8184 90.29C46.3784 90.29 47.7584 90.63 48.9584 91.31C50.1584 91.99 51.0784 92.93 51.7184 94.13C52.3784 95.31 52.7084 96.65 52.7084 98.15ZM49.8884 97.58C49.8884 96.54 49.6584 95.65 49.1984 94.91C48.7384 94.15 48.1084 93.58 47.3084 93.2C46.5284 92.8 45.6584 92.6 44.6984 92.6C43.3184 92.6 42.1384 93.04 41.1584 93.92C40.1984 94.8 39.6484 96.02 39.5084 97.58H49.8884ZM67.04 93.59C67.58 92.65 68.38 91.87 69.44 91.25C70.52 90.61 71.77 90.29 73.19 90.29C74.65 90.29 75.97 90.64 77.15 91.34C78.35 92.04 79.29 93.03 79.97 94.31C80.65 95.57 80.99 97.04 80.99 98.72C80.99 100.38 80.65 101.86 79.97 103.16C79.29 104.46 78.35 105.47 77.15 106.19C75.97 106.91 74.65 107.27 73.19 107.27C71.79 107.27 70.55 106.96 69.47 106.34C68.41 105.7 67.6 104.91 67.04 103.97V114.8H64.31V90.56H67.04V93.59ZM78.2 98.72C78.2 97.48 77.95 96.4 77.45 95.48C76.95 94.56 76.27 93.86 75.41 93.38C74.57 92.9 73.64 92.66 72.62 92.66C71.62 92.66 70.69 92.91 69.83 93.41C68.99 93.89 68.31 94.6 67.79 95.54C67.29 96.46 67.04 97.53 67.04 98.75C67.04 99.99 67.29 101.08 67.79 102.02C68.31 102.94 68.99 103.65 69.83 104.15C70.69 104.63 71.62 104.87 72.62 104.87C73.64 104.87 74.57 104.63 75.41 104.15C76.27 103.65 76.95 102.94 77.45 102.02C77.95 101.08 78.2 99.98 78.2 98.72ZM83.5634 98.72C83.5634 97.04 83.9034 95.57 84.5834 94.31C85.2634 93.03 86.1934 92.04 87.3734 91.34C88.5734 90.64 89.9034 90.29 91.3634 90.29C92.8034 90.29 94.0534 90.6 95.1134 91.22C96.1734 91.84 96.9634 92.62 97.4834 93.56V90.56H100.243V107H97.4834V103.94C96.9434 104.9 96.1334 105.7 95.0534 106.34C93.9934 106.96 92.7534 107.27 91.3334 107.27C89.8734 107.27 88.5534 106.91 87.3734 106.19C86.1934 105.47 85.2634 104.46 84.5834 103.16C83.9034 101.86 83.5634 100.38 83.5634 98.72ZM97.4834 98.75C97.4834 97.51 97.2334 96.43 96.7334 95.51C96.2334 94.59 95.5534 93.89 94.6934 93.41C93.8534 92.91 92.9234 92.66 91.9034 92.66C90.8834 92.66 89.9534 92.9 89.1134 93.38C88.2734 93.86 87.6034 94.56 87.1034 95.48C86.6034 96.4 86.3534 97.48 86.3534 98.72C86.3534 99.98 86.6034 101.08 87.1034 102.02C87.6034 102.94 88.2734 103.65 89.1134 104.15C89.9534 104.63 90.8834 104.87 91.9034 104.87C92.9234 104.87 93.8534 104.63 94.6934 104.15C95.5534 103.65 96.2334 102.94 96.7334 102.02C97.2334 101.08 97.4834 99.99 97.4834 98.75ZM108.187 92.81V102.5C108.187 103.3 108.357 103.87 108.697 104.21C109.037 104.53 109.627 104.69 110.467 104.69H112.477V107H110.017C108.497 107 107.357 106.65 106.597 105.95C105.837 105.25 105.457 104.1 105.457 102.5V92.81H103.327V90.56H105.457V86.42H108.187V90.56H112.477V92.81H108.187ZM117.195 87.89C116.675 87.89 116.235 87.71 115.875 87.35C115.515 86.99 115.335 86.55 115.335 86.03C115.335 85.51 115.515 85.07 115.875 84.71C116.235 84.35 116.675 84.17 117.195 84.17C117.695 84.17 118.115 84.35 118.455 84.71C118.815 85.07 118.995 85.51 118.995 86.03C118.995 86.55 118.815 86.99 118.455 87.35C118.115 87.71 117.695 87.89 117.195 87.89ZM118.515 90.56V107H115.785V90.56H118.515ZM138.167 98.15C138.167 98.67 138.137 99.22 138.077 99.8H124.937C125.037 101.42 125.587 102.69 126.587 103.61C127.607 104.51 128.837 104.96 130.277 104.96C131.457 104.96 132.437 104.69 133.217 104.15C134.017 103.59 134.577 102.85 134.897 101.93H137.837C137.397 103.51 136.517 104.8 135.197 105.8C133.877 106.78 132.237 107.27 130.277 107.27C128.717 107.27 127.317 106.92 126.077 106.22C124.857 105.52 123.897 104.53 123.197 103.25C122.497 101.95 122.147 100.45 122.147 98.75C122.147 97.05 122.487 95.56 123.167 94.28C123.847 93 124.797 92.02 126.017 91.34C127.257 90.64 128.677 90.29 130.277 90.29C131.837 90.29 133.217 90.63 134.417 91.31C135.617 91.99 136.537 92.93 137.177 94.13C137.837 95.31 138.167 96.65 138.167 98.15ZM135.347 97.58C135.347 96.54 135.117 95.65 134.657 94.91C134.197 94.15 133.567 93.58 132.767 93.2C131.987 92.8 131.117 92.6 130.157 92.6C128.777 92.6 127.597 93.04 126.617 93.92C125.657 94.8 125.107 96.02 124.967 97.58H135.347ZM149.781 90.26C151.781 90.26 153.401 90.87 154.641 92.09C155.881 93.29 156.501 95.03 156.501 97.31V107H153.801V97.7C153.801 96.06 153.391 94.81 152.571 93.95C151.751 93.07 150.631 92.63 149.211 92.63C147.771 92.63 146.621 93.08 145.761 93.98C144.921 94.88 144.501 96.19 144.501 97.91V107H141.771V90.56H144.501V92.9C145.041 92.06 145.771 91.41 146.691 90.95C147.631 90.49 148.661 90.26 149.781 90.26ZM164.29 92.81V102.5C164.29 103.3 164.46 103.87 164.8 104.21C165.14 104.53 165.73 104.69 166.57 104.69H168.58V107H166.12C164.6 107 163.46 106.65 162.7 105.95C161.94 105.25 161.56 104.1 161.56 102.5V92.81H159.43V90.56H161.56V86.42H164.29V90.56H168.58V92.81H164.29ZM175.428 86.09L175.098 101.09H172.818L172.488 86.09H175.428ZM174.078 107.18C173.558 107.18 173.118 107 172.758 106.64C172.398 106.28 172.218 105.84 172.218 105.32C172.218 104.8 172.398 104.36 172.758 104C173.118 103.64 173.558 103.46 174.078 103.46C174.578 103.46 174.998 103.64 175.338 104C175.698 104.36 175.878 104.8 175.878 105.32C175.878 105.84 175.698 106.28 175.338 106.64C174.998 107 174.578 107.18 174.078 107.18ZM203.462 86.09L196.652 99.11V107H193.922V99.11L187.082 86.09H190.112L195.272 96.68L200.432 86.09H203.462ZM213.511 107.27C211.971 107.27 210.571 106.92 209.311 106.22C208.071 105.52 207.091 104.53 206.371 103.25C205.671 101.95 205.321 100.45 205.321 98.75C205.321 97.07 205.681 95.59 206.401 94.31C207.141 93.01 208.141 92.02 209.401 91.34C210.661 90.64 212.071 90.29 213.631 90.29C215.191 90.29 216.601 90.64 217.861 91.34C219.121 92.02 220.111 93 220.831 94.28C221.571 95.56 221.941 97.05 221.941 98.75C221.941 100.45 221.561 101.95 220.801 103.25C220.061 104.53 219.051 105.52 217.771 106.22C216.491 106.92 215.071 107.27 213.511 107.27ZM213.511 104.87C214.491 104.87 215.411 104.64 216.271 104.18C217.131 103.72 217.821 103.03 218.341 102.11C218.881 101.19 219.151 100.07 219.151 98.75C219.151 97.43 218.891 96.31 218.371 95.39C217.851 94.47 217.171 93.79 216.331 93.35C215.491 92.89 214.581 92.66 213.601 92.66C212.601 92.66 211.681 92.89 210.841 93.35C210.021 93.79 209.361 94.47 208.861 95.39C208.361 96.31 208.111 97.43 208.111 98.75C208.111 100.09 208.351 101.22 208.831 102.14C209.331 103.06 209.991 103.75 210.811 104.21C211.631 104.65 212.531 104.87 213.511 104.87ZM240.111 90.56V107H237.381V104.57C236.861 105.41 236.131 106.07 235.191 106.55C234.271 107.01 233.251 107.24 232.131 107.24C230.851 107.24 229.701 106.98 228.681 106.46C227.661 105.92 226.851 105.12 226.251 104.06C225.671 103 225.381 101.71 225.381 100.19V90.56H228.081V99.83C228.081 101.45 228.491 102.7 229.311 103.58C230.131 104.44 231.251 104.87 232.671 104.87C234.131 104.87 235.281 104.42 236.121 103.52C236.961 102.62 237.381 101.31 237.381 99.59V90.56H240.111ZM274.618 90.56L269.488 107H266.668L262.708 93.95L258.748 107H255.928L250.768 90.56H253.558L257.338 104.36L261.418 90.56H264.208L268.198 104.39L271.918 90.56H274.618ZM278.738 87.89C278.218 87.89 277.778 87.71 277.418 87.35C277.058 86.99 276.878 86.55 276.878 86.03C276.878 85.51 277.058 85.07 277.418 84.71C277.778 84.35 278.218 84.17 278.738 84.17C279.238 84.17 279.658 84.35 279.998 84.71C280.358 85.07 280.538 85.51 280.538 86.03C280.538 86.55 280.358 86.99 279.998 87.35C279.658 87.71 279.238 87.89 278.738 87.89ZM280.058 90.56V107H277.328V90.56H280.058ZM287.44 84.8V107H284.71V84.8H287.44ZM294.823 84.8V107H292.093V84.8H294.823ZM314.254 90.29C315.674 90.29 316.914 90.6 317.974 91.22C319.054 91.84 319.854 92.62 320.374 93.56V90.56H323.134V107.36C323.134 108.86 322.814 110.19 322.174 111.35C321.534 112.53 320.614 113.45 319.414 114.11C318.234 114.77 316.854 115.1 315.274 115.1C313.114 115.1 311.314 114.59 309.874 113.57C308.434 112.55 307.584 111.16 307.324 109.4H310.024C310.324 110.4 310.944 111.2 311.884 111.8C312.824 112.42 313.954 112.73 315.274 112.73C316.774 112.73 317.994 112.26 318.934 111.32C319.894 110.38 320.374 109.06 320.374 107.36V103.91C319.834 104.87 319.034 105.67 317.974 106.31C316.914 106.95 315.674 107.27 314.254 107.27C312.794 107.27 311.464 106.91 310.264 106.19C309.084 105.47 308.154 104.46 307.474 103.16C306.794 101.86 306.454 100.38 306.454 98.72C306.454 97.04 306.794 95.57 307.474 94.31C308.154 93.03 309.084 92.04 310.264 91.34C311.464 90.64 312.794 90.29 314.254 90.29ZM320.374 98.75C320.374 97.51 320.124 96.43 319.624 95.51C319.124 94.59 318.444 93.89 317.584 93.41C316.744 92.91 315.814 92.66 314.794 92.66C313.774 92.66 312.844 92.9 312.004 93.38C311.164 93.86 310.494 94.56 309.994 95.48C309.494 96.4 309.244 97.48 309.244 98.72C309.244 99.98 309.494 101.08 309.994 102.02C310.494 102.94 311.164 103.65 312.004 104.15C312.844 104.63 313.774 104.87 314.794 104.87C315.814 104.87 316.744 104.63 317.584 104.15C318.444 103.65 319.124 102.94 319.624 102.02C320.124 101.08 320.374 99.99 320.374 98.75ZM342.748 98.15C342.748 98.67 342.718 99.22 342.658 99.8H329.518C329.618 101.42 330.168 102.69 331.168 103.61C332.188 104.51 333.418 104.96 334.858 104.96C336.038 104.96 337.018 104.69 337.798 104.15C338.598 103.59 339.158 102.85 339.478 101.93H342.418C341.978 103.51 341.098 104.8 339.778 105.8C338.458 106.78 336.818 107.27 334.858 107.27C333.298 107.27 331.898 106.92 330.658 106.22C329.438 105.52 328.478 104.53 327.778 103.25C327.078 101.95 326.728 100.45 326.728 98.75C326.728 97.05 327.068 95.56 327.748 94.28C328.428 93 329.378 92.02 330.598 91.34C331.838 90.64 333.258 90.29 334.858 90.29C336.418 90.29 337.798 90.63 338.998 91.31C340.198 91.99 341.118 92.93 341.758 94.13C342.418 95.31 342.748 96.65 342.748 98.15ZM339.928 97.58C339.928 96.54 339.698 95.65 339.238 94.91C338.778 94.15 338.148 93.58 337.348 93.2C336.568 92.8 335.698 92.6 334.738 92.6C333.358 92.6 332.178 93.04 331.198 93.92C330.238 94.8 329.688 96.02 329.548 97.58H339.928ZM349.681 92.81V102.5C349.681 103.3 349.851 103.87 350.191 104.21C350.531 104.53 351.121 104.69 351.961 104.69H353.971V107H351.511C349.991 107 348.851 106.65 348.091 105.95C347.331 105.25 346.951 104.1 346.951 102.5V92.81H344.821V90.56H346.951V86.42H349.681V90.56H353.971V92.81H349.681ZM373.437 90.26C374.677 90.26 375.797 90.53 376.797 91.07C377.797 91.59 378.577 92.38 379.137 93.44C379.717 94.5 380.007 95.79 380.007 97.31V107H377.307V97.7C377.307 96.06 376.897 94.81 376.077 93.95C375.257 93.07 374.137 92.63 372.717 92.63C371.277 92.63 370.127 93.08 369.267 93.98C368.427 94.88 368.007 96.19 368.007 97.91V107H365.277V84.8H368.007V92.9C368.547 92.06 369.287 91.41 370.227 90.95C371.187 90.49 372.257 90.26 373.437 90.26ZM399.466 98.15C399.466 98.67 399.436 99.22 399.376 99.8H386.236C386.336 101.42 386.886 102.69 387.886 103.61C388.906 104.51 390.136 104.96 391.576 104.96C392.756 104.96 393.736 104.69 394.516 104.15C395.316 103.59 395.876 102.85 396.196 101.93H399.136C398.696 103.51 397.816 104.8 396.496 105.8C395.176 106.78 393.536 107.27 391.576 107.27C390.016 107.27 388.616 106.92 387.376 106.22C386.156 105.52 385.196 104.53 384.496 103.25C383.796 101.95 383.446 100.45 383.446 98.75C383.446 97.05 383.786 95.56 384.466 94.28C385.146 93 386.096 92.02 387.316 91.34C388.556 90.64 389.976 90.29 391.576 90.29C393.136 90.29 394.516 90.63 395.716 91.31C396.916 91.99 397.836 92.93 398.476 94.13C399.136 95.31 399.466 96.65 399.466 98.15ZM396.646 97.58C396.646 96.54 396.416 95.65 395.956 94.91C395.496 94.15 394.866 93.58 394.066 93.2C393.286 92.8 392.416 92.6 391.456 92.6C390.076 92.6 388.896 93.04 387.916 93.92C386.956 94.8 386.406 96.02 386.266 97.58H396.646ZM405.8 84.8V107H403.07V84.8H405.8ZM413.183 93.59C413.723 92.65 414.523 91.87 415.583 91.25C416.663 90.61 417.913 90.29 419.333 90.29C420.793 90.29 422.113 90.64 423.293 91.34C424.493 92.04 425.433 93.03 426.113 94.31C426.793 95.57 427.133 97.04 427.133 98.72C427.133 100.38 426.793 101.86 426.113 103.16C425.433 104.46 424.493 105.47 423.293 106.19C422.113 106.91 420.793 107.27 419.333 107.27C417.933 107.27 416.693 106.96 415.613 106.34C414.553 105.7 413.743 104.91 413.183 103.97V114.8H410.453V90.56H413.183V93.59ZM424.343 98.72C424.343 97.48 424.093 96.4 423.593 95.48C423.093 94.56 422.413 93.86 421.553 93.38C420.713 92.9 419.783 92.66 418.763 92.66C417.763 92.66 416.833 92.91 415.973 93.41C415.133 93.89 414.453 94.6 413.933 95.54C413.433 96.46 413.183 97.53 413.183 98.75C413.183 99.99 413.433 101.08 413.933 102.02C414.453 102.94 415.133 103.65 415.973 104.15C416.833 104.63 417.763 104.87 418.763 104.87C419.783 104.87 420.713 104.63 421.553 104.15C422.413 103.65 423.093 102.94 423.593 102.02C424.093 101.08 424.343 99.98 424.343 98.72ZM444.544 107.27C443.284 107.27 442.154 107.06 441.154 106.64C440.154 106.2 439.364 105.6 438.784 104.84C438.204 104.06 437.884 103.17 437.824 102.17H440.644C440.724 102.99 441.104 103.66 441.784 104.18C442.484 104.7 443.394 104.96 444.514 104.96C445.554 104.96 446.374 104.73 446.974 104.27C447.574 103.81 447.874 103.23 447.874 102.53C447.874 101.81 447.554 101.28 446.914 100.94C446.274 100.58 445.284 100.23 443.944 99.89C442.724 99.57 441.724 99.25 440.944 98.93C440.184 98.59 439.524 98.1 438.964 97.46C438.424 96.8 438.154 95.94 438.154 94.88C438.154 94.04 438.404 93.27 438.904 92.57C439.404 91.87 440.114 91.32 441.034 90.92C441.954 90.5 443.004 90.29 444.184 90.29C446.004 90.29 447.474 90.75 448.594 91.67C449.714 92.59 450.314 93.85 450.394 95.45H447.664C447.604 94.59 447.254 93.9 446.614 93.38C445.994 92.86 445.154 92.6 444.094 92.6C443.114 92.6 442.334 92.81 441.754 93.23C441.174 93.65 440.884 94.2 440.884 94.88C440.884 95.42 441.054 95.87 441.394 96.23C441.754 96.57 442.194 96.85 442.714 97.07C443.254 97.27 443.994 97.5 444.934 97.76C446.114 98.08 447.074 98.4 447.814 98.72C448.554 99.02 449.184 99.48 449.704 100.1C450.244 100.72 450.524 101.53 450.544 102.53C450.544 103.43 450.294 104.24 449.794 104.96C449.294 105.68 448.584 106.25 447.664 106.67C446.764 107.07 445.724 107.27 444.544 107.27ZM461.568 107.27C460.028 107.27 458.628 106.92 457.368 106.22C456.128 105.52 455.148 104.53 454.428 103.25C453.728 101.95 453.378 100.45 453.378 98.75C453.378 97.07 453.738 95.59 454.458 94.31C455.198 93.01 456.198 92.02 457.458 91.34C458.718 90.64 460.128 90.29 461.688 90.29C463.248 90.29 464.658 90.64 465.918 91.34C467.178 92.02 468.168 93 468.888 94.28C469.628 95.56 469.998 97.05 469.998 98.75C469.998 100.45 469.618 101.95 468.858 103.25C468.118 104.53 467.108 105.52 465.828 106.22C464.548 106.92 463.128 107.27 461.568 107.27ZM461.568 104.87C462.548 104.87 463.468 104.64 464.328 104.18C465.188 103.72 465.878 103.03 466.398 102.11C466.938 101.19 467.208 100.07 467.208 98.75C467.208 97.43 466.948 96.31 466.428 95.39C465.908 94.47 465.228 93.79 464.388 93.35C463.548 92.89 462.638 92.66 461.658 92.66C460.658 92.66 459.738 92.89 458.898 93.35C458.078 93.79 457.418 94.47 456.918 95.39C456.418 96.31 456.168 97.43 456.168 98.75C456.168 100.09 456.408 101.22 456.888 102.14C457.388 103.06 458.048 103.75 458.868 104.21C459.688 104.65 460.588 104.87 461.568 104.87ZM480.757 107.27C479.217 107.27 477.817 106.92 476.557 106.22C475.317 105.52 474.337 104.53 473.617 103.25C472.917 101.95 472.567 100.45 472.567 98.75C472.567 97.07 472.927 95.59 473.647 94.31C474.387 93.01 475.387 92.02 476.647 91.34C477.907 90.64 479.317 90.29 480.877 90.29C482.437 90.29 483.847 90.64 485.107 91.34C486.367 92.02 487.357 93 488.077 94.28C488.817 95.56 489.187 97.05 489.187 98.75C489.187 100.45 488.807 101.95 488.047 103.25C487.307 104.53 486.297 105.52 485.017 106.22C483.737 106.92 482.317 107.27 480.757 107.27ZM480.757 104.87C481.737 104.87 482.657 104.64 483.517 104.18C484.377 103.72 485.067 103.03 485.587 102.11C486.127 101.19 486.397 100.07 486.397 98.75C486.397 97.43 486.137 96.31 485.617 95.39C485.097 94.47 484.417 93.79 483.577 93.35C482.737 92.89 481.827 92.66 480.847 92.66C479.847 92.66 478.927 92.89 478.087 93.35C477.267 93.79 476.607 94.47 476.107 95.39C475.607 96.31 475.357 97.43 475.357 98.75C475.357 100.09 475.597 101.22 476.077 102.14C476.577 103.06 477.237 103.75 478.057 104.21C478.877 104.65 479.777 104.87 480.757 104.87ZM500.787 90.26C502.787 90.26 504.407 90.87 505.647 92.09C506.887 93.29 507.507 95.03 507.507 97.31V107H504.807V97.7C504.807 96.06 504.397 94.81 503.577 93.95C502.757 93.07 501.637 92.63 500.217 92.63C498.777 92.63 497.627 93.08 496.767 93.98C495.927 94.88 495.507 96.19 495.507 97.91V107H492.777V90.56H495.507V92.9C496.047 92.06 496.777 91.41 497.697 90.95C498.637 90.49 499.667 90.26 500.787 90.26ZM512.836 107.18C512.316 107.18 511.876 107 511.516 106.64C511.156 106.28 510.976 105.84 510.976 105.32C510.976 104.8 511.156 104.36 511.516 104C511.876 103.64 512.316 103.46 512.836 103.46C513.336 103.46 513.756 103.64 514.096 104C514.456 104.36 514.636 104.8 514.636 105.32C514.636 105.84 514.456 106.28 514.096 106.64C513.756 107 513.336 107.18 512.836 107.18ZM528.933 86.09V99.32C528.933 101.18 529.383 102.56 530.283 103.46C531.203 104.36 532.473 104.81 534.093 104.81C535.693 104.81 536.943 104.36 537.843 103.46C538.763 102.56 539.223 101.18 539.223 99.32V86.09H541.953V99.29C541.953 101.03 541.603 102.5 540.903 103.7C540.203 104.88 539.253 105.76 538.053 106.34C536.873 106.92 535.543 107.21 534.063 107.21C532.583 107.21 531.243 106.92 530.043 106.34C528.863 105.76 527.923 104.88 527.223 103.7C526.543 102.5 526.203 101.03 526.203 99.29V86.09H528.933ZM554.517 90.26C556.517 90.26 558.137 90.87 559.377 92.09C560.617 93.29 561.237 95.03 561.237 97.31V107H558.537V97.7C558.537 96.06 558.127 94.81 557.307 93.95C556.487 93.07 555.367 92.63 553.947 92.63C552.507 92.63 551.357 93.08 550.497 93.98C549.657 94.88 549.237 96.19 549.237 97.91V107H546.507V90.56H549.237V92.9C549.777 92.06 550.507 91.41 551.427 90.95C552.367 90.49 553.397 90.26 554.517 90.26ZM569.027 92.81V102.5C569.027 103.3 569.197 103.87 569.537 104.21C569.877 104.53 570.467 104.69 571.307 104.69H573.317V107H570.857C569.337 107 568.197 106.65 567.437 105.95C566.677 105.25 566.297 104.1 566.297 102.5V92.81H564.167V90.56H566.297V86.42H569.027V90.56H573.317V92.81H569.027ZM578.034 87.89C577.514 87.89 577.074 87.71 576.714 87.35C576.354 86.99 576.174 86.55 576.174 86.03C576.174 85.51 576.354 85.07 576.714 84.71C577.074 84.35 577.514 84.17 578.034 84.17C578.534 84.17 578.954 84.35 579.294 84.71C579.654 85.07 579.834 85.51 579.834 86.03C579.834 86.55 579.654 86.99 579.294 87.35C578.954 87.71 578.534 87.89 578.034 87.89ZM579.354 90.56V107H576.624V90.56H579.354ZM586.737 84.8V107H584.007V84.8H586.737ZM22.64 137.81V147.5C22.64 148.3 22.81 148.87 23.15 149.21C23.49 149.53 24.08 149.69 24.92 149.69H26.93V152H24.47C22.95 152 21.81 151.65 21.05 150.95C20.29 150.25 19.91 149.1 19.91 147.5V137.81H17.78V135.56H19.91V131.42H22.64V135.56H26.93V137.81H22.64ZM38.3977 135.26C39.6377 135.26 40.7577 135.53 41.7577 136.07C42.7577 136.59 43.5377 137.38 44.0977 138.44C44.6777 139.5 44.9677 140.79 44.9677 142.31V152H42.2677V142.7C42.2677 141.06 41.8577 139.81 41.0377 138.95C40.2177 138.07 39.0977 137.63 37.6777 137.63C36.2377 137.63 35.0877 138.08 34.2277 138.98C33.3877 139.88 32.9677 141.19 32.9677 142.91V152H30.2377V129.8H32.9677V137.9C33.5077 137.06 34.2477 136.41 35.1877 135.95C36.1477 135.49 37.2177 135.26 38.3977 135.26ZM64.4272 143.15C64.4272 143.67 64.3972 144.22 64.3372 144.8H51.1972C51.2972 146.42 51.8472 147.69 52.8472 148.61C53.8672 149.51 55.0972 149.96 56.5372 149.96C57.7172 149.96 58.6972 149.69 59.4772 149.15C60.2772 148.59 60.8372 147.85 61.1572 146.93H64.0972C63.6572 148.51 62.7772 149.8 61.4572 150.8C60.1372 151.78 58.4972 152.27 56.5372 152.27C54.9772 152.27 53.5772 151.92 52.3372 151.22C51.1172 150.52 50.1572 149.53 49.4572 148.25C48.7572 146.95 48.4072 145.45 48.4072 143.75C48.4072 142.05 48.7472 140.56 49.4272 139.28C50.1072 138 51.0572 137.02 52.2772 136.34C53.5172 135.64 54.9372 135.29 56.5372 135.29C58.0972 135.29 59.4772 135.63 60.6772 136.31C61.8772 136.99 62.7972 137.93 63.4372 139.13C64.0972 140.31 64.4272 141.65 64.4272 143.15ZM61.6072 142.58C61.6072 141.54 61.3772 140.65 60.9172 139.91C60.4572 139.15 59.8272 138.58 59.0272 138.2C58.2472 137.8 57.3772 137.6 56.4172 137.6C55.0372 137.6 53.8572 138.04 52.8772 138.92C51.9172 139.8 51.3672 141.02 51.2272 142.58H61.6072ZM76.0407 135.26C78.0407 135.26 79.6607 135.87 80.9007 137.09C82.1407 138.29 82.7607 140.03 82.7607 142.31V152H80.0607V142.7C80.0607 141.06 79.6507 139.81 78.8307 138.95C78.0107 138.07 76.8907 137.63 75.4707 137.63C74.0307 137.63 72.8807 138.08 72.0207 138.98C71.1807 139.88 70.7607 141.19 70.7607 142.91V152H68.0307V135.56H70.7607V137.9C71.3007 137.06 72.0307 136.41 72.9507 135.95C73.8907 135.49 74.9207 135.26 76.0407 135.26ZM90.0402 148.22L86.6802 156.29H84.8502L87.0402 148.22H90.0402ZM120.935 135.26C122.215 135.26 123.355 135.53 124.355 136.07C125.355 136.59 126.145 137.38 126.725 138.44C127.305 139.5 127.595 140.79 127.595 142.31V152H124.895V142.7C124.895 141.06 124.485 139.81 123.665 138.95C122.865 138.07 121.775 137.63 120.395 137.63C118.975 137.63 117.845 138.09 117.005 139.01C116.165 139.91 115.745 141.22 115.745 142.94V152H113.045V142.7C113.045 141.06 112.635 139.81 111.815 138.95C111.015 138.07 109.925 137.63 108.545 137.63C107.125 137.63 105.995 138.09 105.155 139.01C104.315 139.91 103.895 141.22 103.895 142.94V152H101.165V135.56H103.895V137.93C104.435 137.07 105.155 136.41 106.055 135.95C106.975 135.49 107.985 135.26 109.085 135.26C110.465 135.26 111.685 135.57 112.745 136.19C113.805 136.81 114.595 137.72 115.115 138.92C115.575 137.76 116.335 136.86 117.395 136.22C118.455 135.58 119.635 135.26 120.935 135.26ZM131.054 143.72C131.054 142.04 131.394 140.57 132.074 139.31C132.754 138.03 133.684 137.04 134.864 136.34C136.064 135.64 137.394 135.29 138.854 135.29C140.294 135.29 141.544 135.6 142.604 136.22C143.664 136.84 144.454 137.62 144.974 138.56V135.56H147.734V152H144.974V148.94C144.434 149.9 143.624 150.7 142.544 151.34C141.484 151.96 140.244 152.27 138.824 152.27C137.364 152.27 136.044 151.91 134.864 151.19C133.684 150.47 132.754 149.46 132.074 148.16C131.394 146.86 131.054 145.38 131.054 143.72ZM144.974 143.75C144.974 142.51 144.724 141.43 144.224 140.51C143.724 139.59 143.044 138.89 142.184 138.41C141.344 137.91 140.414 137.66 139.394 137.66C138.374 137.66 137.444 137.9 136.604 138.38C135.764 138.86 135.094 139.56 134.594 140.48C134.094 141.4 133.844 142.48 133.844 143.72C133.844 144.98 134.094 146.08 134.594 147.02C135.094 147.94 135.764 148.65 136.604 149.15C137.444 149.63 138.374 149.87 139.394 149.87C140.414 149.87 141.344 149.63 142.184 149.15C143.044 148.65 143.724 147.94 144.224 147.02C144.724 146.08 144.974 144.99 144.974 143.75ZM161.527 152L155.077 144.74V152H152.347V129.8H155.077V142.85L161.407 135.56H165.217L157.477 143.75L165.247 152H161.527ZM182.787 143.15C182.787 143.67 182.757 144.22 182.697 144.8H169.557C169.657 146.42 170.207 147.69 171.207 148.61C172.227 149.51 173.457 149.96 174.897 149.96C176.077 149.96 177.057 149.69 177.837 149.15C178.637 148.59 179.197 147.85 179.517 146.93H182.457C182.017 148.51 181.137 149.8 179.817 150.8C178.497 151.78 176.857 152.27 174.897 152.27C173.337 152.27 171.937 151.92 170.697 151.22C169.477 150.52 168.517 149.53 167.817 148.25C167.117 146.95 166.767 145.45 166.767 143.75C166.767 142.05 167.107 140.56 167.787 139.28C168.467 138 169.417 137.02 170.637 136.34C171.877 135.64 173.297 135.29 174.897 135.29C176.457 135.29 177.837 135.63 179.037 136.31C180.237 136.99 181.157 137.93 181.797 139.13C182.457 140.31 182.787 141.65 182.787 143.15ZM179.967 142.58C179.967 141.54 179.737 140.65 179.277 139.91C178.817 139.15 178.187 138.58 177.387 138.2C176.607 137.8 175.737 137.6 174.777 137.6C173.397 137.6 172.217 138.04 171.237 138.92C170.277 139.8 169.727 141.02 169.587 142.58H179.967ZM200.208 152.27C198.948 152.27 197.818 152.06 196.818 151.64C195.818 151.2 195.028 150.6 194.448 149.84C193.868 149.06 193.548 148.17 193.488 147.17H196.308C196.388 147.99 196.768 148.66 197.448 149.18C198.148 149.7 199.058 149.96 200.178 149.96C201.218 149.96 202.038 149.73 202.638 149.27C203.238 148.81 203.538 148.23 203.538 147.53C203.538 146.81 203.218 146.28 202.578 145.94C201.938 145.58 200.948 145.23 199.608 144.89C198.388 144.57 197.388 144.25 196.608 143.93C195.848 143.59 195.188 143.1 194.628 142.46C194.088 141.8 193.818 140.94 193.818 139.88C193.818 139.04 194.068 138.27 194.568 137.57C195.068 136.87 195.778 136.32 196.698 135.92C197.618 135.5 198.668 135.29 199.848 135.29C201.668 135.29 203.138 135.75 204.258 136.67C205.378 137.59 205.978 138.85 206.058 140.45H203.328C203.268 139.59 202.918 138.9 202.278 138.38C201.658 137.86 200.818 137.6 199.758 137.6C198.778 137.6 197.998 137.81 197.418 138.23C196.838 138.65 196.548 139.2 196.548 139.88C196.548 140.42 196.718 140.87 197.058 141.23C197.418 141.57 197.858 141.85 198.378 142.07C198.918 142.27 199.658 142.5 200.598 142.76C201.778 143.08 202.738 143.4 203.478 143.72C204.218 144.02 204.848 144.48 205.368 145.1C205.908 145.72 206.188 146.53 206.208 147.53C206.208 148.43 205.958 149.24 205.458 149.96C204.958 150.68 204.248 151.25 203.328 151.67C202.428 152.07 201.388 152.27 200.208 152.27ZM224.642 135.56V152H221.912V149.57C221.392 150.41 220.662 151.07 219.722 151.55C218.802 152.01 217.782 152.24 216.662 152.24C215.382 152.24 214.232 151.98 213.212 151.46C212.192 150.92 211.382 150.12 210.782 149.06C210.202 148 209.912 146.71 209.912 145.19V135.56H212.612V144.83C212.612 146.45 213.022 147.7 213.842 148.58C214.662 149.44 215.782 149.87 217.202 149.87C218.662 149.87 219.812 149.42 220.652 148.52C221.492 147.62 221.912 146.31 221.912 144.59V135.56H224.642ZM231.981 138.23C232.461 137.29 233.141 136.56 234.021 136.04C234.921 135.52 236.011 135.26 237.291 135.26V138.08H236.571C233.511 138.08 231.981 139.74 231.981 143.06V152H229.251V135.56H231.981V138.23ZM255.443 143.15C255.443 143.67 255.413 144.22 255.353 144.8H242.213C242.313 146.42 242.863 147.69 243.863 148.61C244.883 149.51 246.113 149.96 247.553 149.96C248.733 149.96 249.713 149.69 250.493 149.15C251.293 148.59 251.853 147.85 252.173 146.93H255.113C254.673 148.51 253.793 149.8 252.473 150.8C251.153 151.78 249.513 152.27 247.553 152.27C245.993 152.27 244.593 151.92 243.353 151.22C242.133 150.52 241.173 149.53 240.473 148.25C239.773 146.95 239.423 145.45 239.423 143.75C239.423 142.05 239.763 140.56 240.443 139.28C241.123 138 242.073 137.02 243.293 136.34C244.533 135.64 245.953 135.29 247.553 135.29C249.113 135.29 250.493 135.63 251.693 136.31C252.893 136.99 253.813 137.93 254.453 139.13C255.113 140.31 255.443 141.65 255.443 143.15ZM252.623 142.58C252.623 141.54 252.393 140.65 251.933 139.91C251.473 139.15 250.843 138.58 250.043 138.2C249.263 137.8 248.393 137.6 247.433 137.6C246.053 137.6 244.873 138.04 243.893 138.92C242.933 139.8 242.383 141.02 242.243 142.58H252.623ZM270.374 137.81V147.5C270.374 148.3 270.544 148.87 270.884 149.21C271.224 149.53 271.814 149.69 272.654 149.69H274.664V152H272.204C270.684 152 269.544 151.65 268.784 150.95C268.024 150.25 267.644 149.1 267.644 147.5V137.81H265.514V135.56H267.644V131.42H270.374V135.56H274.664V137.81H270.374ZM286.132 135.26C287.372 135.26 288.492 135.53 289.492 136.07C290.492 136.59 291.272 137.38 291.832 138.44C292.412 139.5 292.702 140.79 292.702 142.31V152H290.002V142.7C290.002 141.06 289.592 139.81 288.772 138.95C287.952 138.07 286.832 137.63 285.412 137.63C283.972 137.63 282.822 138.08 281.962 138.98C281.122 139.88 280.702 141.19 280.702 142.91V152H277.972V129.8H280.702V137.9C281.242 137.06 281.982 136.41 282.922 135.95C283.882 135.49 284.952 135.26 286.132 135.26ZM296.142 143.72C296.142 142.04 296.482 140.57 297.162 139.31C297.842 138.03 298.772 137.04 299.952 136.34C301.152 135.64 302.482 135.29 303.942 135.29C305.382 135.29 306.632 135.6 307.692 136.22C308.752 136.84 309.542 137.62 310.062 138.56V135.56H312.822V152H310.062V148.94C309.522 149.9 308.712 150.7 307.632 151.34C306.572 151.96 305.332 152.27 303.912 152.27C302.452 152.27 301.132 151.91 299.952 151.19C298.772 150.47 297.842 149.46 297.162 148.16C296.482 146.86 296.142 145.38 296.142 143.72ZM310.062 143.75C310.062 142.51 309.812 141.43 309.312 140.51C308.812 139.59 308.132 138.89 307.272 138.41C306.432 137.91 305.502 137.66 304.482 137.66C303.462 137.66 302.532 137.9 301.692 138.38C300.852 138.86 300.182 139.56 299.682 140.48C299.182 141.4 298.932 142.48 298.932 143.72C298.932 144.98 299.182 146.08 299.682 147.02C300.182 147.94 300.852 148.65 301.692 149.15C302.532 149.63 303.462 149.87 304.482 149.87C305.502 149.87 306.432 149.63 307.272 149.15C308.132 148.65 308.812 147.94 309.312 147.02C309.812 146.08 310.062 144.99 310.062 143.75ZM320.765 137.81V147.5C320.765 148.3 320.935 148.87 321.275 149.21C321.615 149.53 322.205 149.69 323.045 149.69H325.055V152H322.595C321.075 152 319.935 151.65 319.175 150.95C318.415 150.25 318.035 149.1 318.035 147.5V137.81H315.905V135.56H318.035V131.42H320.765V135.56H325.055V137.81H320.765ZM350.521 135.56L340.621 159.74H337.801L341.041 151.82L334.411 135.56H337.441L342.601 148.88L347.701 135.56H350.521ZM360.435 152.27C358.895 152.27 357.495 151.92 356.235 151.22C354.995 150.52 354.015 149.53 353.295 148.25C352.595 146.95 352.245 145.45 352.245 143.75C352.245 142.07 352.605 140.59 353.325 139.31C354.065 138.01 355.065 137.02 356.325 136.34C357.585 135.64 358.995 135.29 360.555 135.29C362.115 135.29 363.525 135.64 364.785 136.34C366.045 137.02 367.035 138 367.755 139.28C368.495 140.56 368.865 142.05 368.865 143.75C368.865 145.45 368.485 146.95 367.725 148.25C366.985 149.53 365.975 150.52 364.695 151.22C363.415 151.92 361.995 152.27 360.435 152.27ZM360.435 149.87C361.415 149.87 362.335 149.64 363.195 149.18C364.055 148.72 364.745 148.03 365.265 147.11C365.805 146.19 366.075 145.07 366.075 143.75C366.075 142.43 365.815 141.31 365.295 140.39C364.775 139.47 364.095 138.79 363.255 138.35C362.415 137.89 361.505 137.66 360.525 137.66C359.525 137.66 358.605 137.89 357.765 138.35C356.945 138.79 356.285 139.47 355.785 140.39C355.285 141.31 355.035 142.43 355.035 143.75C355.035 145.09 355.275 146.22 355.755 147.14C356.255 148.06 356.915 148.75 357.735 149.21C358.555 149.65 359.455 149.87 360.435 149.87ZM387.035 135.56V152H384.305V149.57C383.785 150.41 383.055 151.07 382.115 151.55C381.195 152.01 380.175 152.24 379.055 152.24C377.775 152.24 376.625 151.98 375.605 151.46C374.585 150.92 373.775 150.12 373.175 149.06C372.595 148 372.305 146.71 372.305 145.19V135.56H375.005V144.83C375.005 146.45 375.415 147.7 376.235 148.58C377.055 149.44 378.175 149.87 379.595 149.87C381.055 149.87 382.205 149.42 383.045 148.52C383.885 147.62 384.305 146.31 384.305 144.59V135.56H387.035ZM392.064 131.09H395.094L392.214 137.9H390.294L392.064 131.09ZM400.936 138.23C401.416 137.29 402.096 136.56 402.976 136.04C403.876 135.52 404.966 135.26 406.246 135.26V138.08H405.526C402.466 138.08 400.936 139.74 400.936 143.06V152H398.206V135.56H400.936V138.23ZM424.398 143.15C424.398 143.67 424.368 144.22 424.308 144.8H411.168C411.268 146.42 411.818 147.69 412.818 148.61C413.838 149.51 415.068 149.96 416.508 149.96C417.688 149.96 418.668 149.69 419.448 149.15C420.248 148.59 420.808 147.85 421.128 146.93H424.068C423.628 148.51 422.748 149.8 421.428 150.8C420.108 151.78 418.468 152.27 416.508 152.27C414.948 152.27 413.548 151.92 412.308 151.22C411.088 150.52 410.128 149.53 409.428 148.25C408.728 146.95 408.378 145.45 408.378 143.75C408.378 142.05 408.718 140.56 409.398 139.28C410.078 138 411.028 137.02 412.248 136.34C413.488 135.64 414.908 135.29 416.508 135.29C418.068 135.29 419.448 135.63 420.648 136.31C421.848 136.99 422.768 137.93 423.408 139.13C424.068 140.31 424.398 141.65 424.398 143.15ZM421.578 142.58C421.578 141.54 421.348 140.65 420.888 139.91C420.428 139.15 419.798 138.58 418.998 138.2C418.218 137.8 417.348 137.6 416.388 137.6C415.008 137.6 413.828 138.04 412.848 138.92C411.888 139.8 411.338 141.02 411.198 142.58H421.578ZM441.819 152.27C440.559 152.27 439.429 152.06 438.429 151.64C437.429 151.2 436.639 150.6 436.059 149.84C435.479 149.06 435.159 148.17 435.099 147.17H437.919C437.999 147.99 438.379 148.66 439.059 149.18C439.759 149.7 440.669 149.96 441.789 149.96C442.829 149.96 443.649 149.73 444.249 149.27C444.849 148.81 445.149 148.23 445.149 147.53C445.149 146.81 444.829 146.28 444.189 145.94C443.549 145.58 442.559 145.23 441.219 144.89C439.999 144.57 438.999 144.25 438.219 143.93C437.459 143.59 436.799 143.1 436.239 142.46C435.699 141.8 435.429 140.94 435.429 139.88C435.429 139.04 435.679 138.27 436.179 137.57C436.679 136.87 437.389 136.32 438.309 135.92C439.229 135.5 440.279 135.29 441.459 135.29C443.279 135.29 444.749 135.75 445.869 136.67C446.989 137.59 447.589 138.85 447.669 140.45H444.939C444.879 139.59 444.529 138.9 443.889 138.38C443.269 137.86 442.429 137.6 441.369 137.6C440.389 137.6 439.609 137.81 439.029 138.23C438.449 138.65 438.159 139.2 438.159 139.88C438.159 140.42 438.329 140.87 438.669 141.23C439.029 141.57 439.469 141.85 439.989 142.07C440.529 142.27 441.269 142.5 442.209 142.76C443.389 143.08 444.349 143.4 445.089 143.72C445.829 144.02 446.459 144.48 446.979 145.1C447.519 145.72 447.799 146.53 447.819 147.53C447.819 148.43 447.569 149.24 447.069 149.96C446.569 150.68 445.859 151.25 444.939 151.67C444.039 152.07 442.999 152.27 441.819 152.27ZM450.653 143.72C450.653 142.04 450.993 140.57 451.673 139.31C452.353 138.03 453.283 137.04 454.463 136.34C455.663 135.64 456.993 135.29 458.453 135.29C459.893 135.29 461.143 135.6 462.203 136.22C463.263 136.84 464.053 137.62 464.573 138.56V135.56H467.333V152H464.573V148.94C464.033 149.9 463.223 150.7 462.143 151.34C461.083 151.96 459.843 152.27 458.423 152.27C456.963 152.27 455.643 151.91 454.463 151.19C453.283 150.47 452.353 149.46 451.673 148.16C450.993 146.86 450.653 145.38 450.653 143.72ZM464.573 143.75C464.573 142.51 464.323 141.43 463.823 140.51C463.323 139.59 462.643 138.89 461.783 138.41C460.943 137.91 460.013 137.66 458.993 137.66C457.973 137.66 457.043 137.9 456.203 138.38C455.363 138.86 454.693 139.56 454.193 140.48C453.693 141.4 453.443 142.48 453.443 143.72C453.443 144.98 453.693 146.08 454.193 147.02C454.693 147.94 455.363 148.65 456.203 149.15C457.043 149.63 457.973 149.87 458.993 149.87C460.013 149.87 460.943 149.63 461.783 149.15C462.643 148.65 463.323 147.94 463.823 147.02C464.323 146.08 464.573 144.99 464.573 143.75ZM478.637 137.81H475.187V152H472.457V137.81H470.327V135.56H472.457V134.39C472.457 132.55 472.927 131.21 473.867 130.37C474.827 129.51 476.357 129.08 478.457 129.08V131.36C477.257 131.36 476.407 131.6 475.907 132.08C475.427 132.54 475.187 133.31 475.187 134.39V135.56H478.637V137.81ZM496.82 143.15C496.82 143.67 496.79 144.22 496.73 144.8H483.59C483.69 146.42 484.24 147.69 485.24 148.61C486.26 149.51 487.49 149.96 488.93 149.96C490.11 149.96 491.09 149.69 491.87 149.15C492.67 148.59 493.23 147.85 493.55 146.93H496.49C496.05 148.51 495.17 149.8 493.85 150.8C492.53 151.78 490.89 152.27 488.93 152.27C487.37 152.27 485.97 151.92 484.73 151.22C483.51 150.52 482.55 149.53 481.85 148.25C481.15 146.95 480.8 145.45 480.8 143.75C480.8 142.05 481.14 140.56 481.82 139.28C482.5 138 483.45 137.02 484.67 136.34C485.91 135.64 487.33 135.29 488.93 135.29C490.49 135.29 491.87 135.63 493.07 136.31C494.27 136.99 495.19 137.93 495.83 139.13C496.49 140.31 496.82 141.65 496.82 143.15ZM494 142.58C494 141.54 493.77 140.65 493.31 139.91C492.85 139.15 492.22 138.58 491.42 138.2C490.64 137.8 489.77 137.6 488.81 137.6C487.43 137.6 486.25 138.04 485.27 138.92C484.31 139.8 483.76 141.02 483.62 142.58H494ZM501.293 152.18C500.773 152.18 500.333 152 499.973 151.64C499.613 151.28 499.433 150.84 499.433 150.32C499.433 149.8 499.613 149.36 499.973 149C500.333 148.64 500.773 148.46 501.293 148.46C501.793 148.46 502.213 148.64 502.553 149C502.913 149.36 503.093 149.8 503.093 150.32C503.093 150.84 502.913 151.28 502.553 151.64C502.213 152 501.793 152.18 501.293 152.18ZM45.59 221.09L39.53 242H36.47L31.61 225.17L26.57 242L23.54 242.03L17.69 221.09H20.6L25.16 238.82L30.2 221.09H33.26L38.06 238.76L42.65 221.09H45.59ZM49.9876 222.89C49.4676 222.89 49.0276 222.71 48.6676 222.35C48.3076 221.99 48.1276 221.55 48.1276 221.03C48.1276 220.51 48.3076 220.07 48.6676 219.71C49.0276 219.35 49.4676 219.17 49.9876 219.17C50.4876 219.17 50.9076 219.35 51.2476 219.71C51.6076 220.07 51.7876 220.51 51.7876 221.03C51.7876 221.55 51.6076 221.99 51.2476 222.35C50.9076 222.71 50.4876 222.89 49.9876 222.89ZM51.3076 225.56V242H48.5776V225.56H51.3076ZM61.7804 242.27C60.5204 242.27 59.3904 242.06 58.3904 241.64C57.3904 241.2 56.6004 240.6 56.0204 239.84C55.4404 239.06 55.1204 238.17 55.0604 237.17H57.8804C57.9604 237.99 58.3404 238.66 59.0204 239.18C59.7204 239.7 60.6304 239.96 61.7504 239.96C62.7904 239.96 63.6104 239.73 64.2104 239.27C64.8104 238.81 65.1104 238.23 65.1104 237.53C65.1104 236.81 64.7904 236.28 64.1504 235.94C63.5104 235.58 62.5204 235.23 61.1804 234.89C59.9604 234.57 58.9604 234.25 58.1804 233.93C57.4204 233.59 56.7604 233.1 56.2004 232.46C55.6604 231.8 55.3904 230.94 55.3904 229.88C55.3904 229.04 55.6404 228.27 56.1404 227.57C56.6404 226.87 57.3504 226.32 58.2704 225.92C59.1904 225.5 60.2404 225.29 61.4204 225.29C63.2404 225.29 64.7104 225.75 65.8304 226.67C66.9504 227.59 67.5504 228.85 67.6304 230.45H64.9004C64.8404 229.59 64.4904 228.9 63.8504 228.38C63.2304 227.86 62.3904 227.6 61.3304 227.6C60.3504 227.6 59.5704 227.81 58.9904 228.23C58.4104 228.65 58.1204 229.2 58.1204 229.88C58.1204 230.42 58.2904 230.87 58.6304 231.23C58.9904 231.57 59.4304 231.85 59.9504 232.07C60.4904 232.27 61.2304 232.5 62.1704 232.76C63.3504 233.08 64.3104 233.4 65.0504 233.72C65.7904 234.02 66.4204 234.48 66.9404 235.1C67.4804 235.72 67.7604 236.53 67.7804 237.53C67.7804 238.43 67.5304 239.24 67.0304 239.96C66.5304 240.68 65.8204 241.25 64.9004 241.67C64.0004 242.07 62.9604 242.27 61.7804 242.27ZM79.7942 225.26C81.0342 225.26 82.1542 225.53 83.1542 226.07C84.1542 226.59 84.9342 227.38 85.4942 228.44C86.0742 229.5 86.3642 230.79 86.3642 232.31V242H83.6642V232.7C83.6642 231.06 83.2542 229.81 82.4342 228.95C81.6142 228.07 80.4942 227.63 79.0742 227.63C77.6342 227.63 76.4842 228.08 75.6242 228.98C74.7842 229.88 74.3642 231.19 74.3642 232.91V242H71.6342V219.8H74.3642V227.9C74.9042 227.06 75.6442 226.41 76.5842 225.95C77.5442 225.49 78.6142 225.26 79.7942 225.26ZM112.982 225.56L103.082 249.74H100.262L103.502 241.82L96.8717 225.56H99.9017L105.062 238.88L110.162 225.56H112.982ZM122.896 242.27C121.356 242.27 119.956 241.92 118.696 241.22C117.456 240.52 116.476 239.53 115.756 238.25C115.056 236.95 114.706 235.45 114.706 233.75C114.706 232.07 115.066 230.59 115.786 229.31C116.526 228.01 117.526 227.02 118.786 226.34C120.046 225.64 121.456 225.29 123.016 225.29C124.576 225.29 125.986 225.64 127.246 226.34C128.506 227.02 129.496 228 130.216 229.28C130.956 230.56 131.326 232.05 131.326 233.75C131.326 235.45 130.946 236.95 130.186 238.25C129.446 239.53 128.436 240.52 127.156 241.22C125.876 241.92 124.456 242.27 122.896 242.27ZM122.896 239.87C123.876 239.87 124.796 239.64 125.656 239.18C126.516 238.72 127.206 238.03 127.726 237.11C128.266 236.19 128.536 235.07 128.536 233.75C128.536 232.43 128.276 231.31 127.756 230.39C127.236 229.47 126.556 228.79 125.716 228.35C124.876 227.89 123.966 227.66 122.986 227.66C121.986 227.66 121.066 227.89 120.226 228.35C119.406 228.79 118.746 229.47 118.246 230.39C117.746 231.31 117.496 232.43 117.496 233.75C117.496 235.09 117.736 236.22 118.216 237.14C118.716 238.06 119.376 238.75 120.196 239.21C121.016 239.65 121.916 239.87 122.896 239.87ZM149.495 225.56V242H146.765V239.57C146.245 240.41 145.515 241.07 144.575 241.55C143.655 242.01 142.635 242.24 141.515 242.24C140.235 242.24 139.085 241.98 138.065 241.46C137.045 240.92 136.235 240.12 135.635 239.06C135.055 238 134.765 236.71 134.765 235.19V225.56H137.465V234.83C137.465 236.45 137.875 237.7 138.695 238.58C139.515 239.44 140.635 239.87 142.055 239.87C143.515 239.87 144.665 239.42 145.505 238.52C146.345 237.62 146.765 236.31 146.765 234.59V225.56H149.495ZM161.083 233.72C161.083 232.04 161.423 230.57 162.103 229.31C162.783 228.03 163.713 227.04 164.893 226.34C166.093 225.64 167.423 225.29 168.883 225.29C170.323 225.29 171.573 225.6 172.633 226.22C173.693 226.84 174.483 227.62 175.003 228.56V225.56H177.763V242H175.003V238.94C174.463 239.9 173.653 240.7 172.573 241.34C171.513 241.96 170.273 242.27 168.853 242.27C167.393 242.27 166.073 241.91 164.893 241.19C163.713 240.47 162.783 239.46 162.103 238.16C161.423 236.86 161.083 235.38 161.083 233.72ZM175.003 233.75C175.003 232.51 174.753 231.43 174.253 230.51C173.753 229.59 173.073 228.89 172.213 228.41C171.373 227.91 170.443 227.66 169.423 227.66C168.403 227.66 167.473 227.9 166.633 228.38C165.793 228.86 165.123 229.56 164.623 230.48C164.123 231.4 163.873 232.48 163.873 233.72C163.873 234.98 164.123 236.08 164.623 237.02C165.123 237.94 165.793 238.65 166.633 239.15C167.473 239.63 168.403 239.87 169.423 239.87C170.443 239.87 171.373 239.63 172.213 239.15C173.073 238.65 173.753 237.94 174.253 237.02C174.753 236.08 175.003 234.99 175.003 233.75ZM185.106 219.8V242H182.376V219.8H185.106ZM192.489 219.8V242H189.759V219.8H192.489ZM208.47 227.81V237.5C208.47 238.3 208.64 238.87 208.98 239.21C209.32 239.53 209.91 239.69 210.75 239.69H212.76V242H210.3C208.78 242 207.64 241.65 206.88 240.95C206.12 240.25 205.74 239.1 205.74 237.5V227.81H203.61V225.56H205.74V221.42H208.47V225.56H212.76V227.81H208.47ZM224.228 225.26C225.468 225.26 226.588 225.53 227.588 226.07C228.588 226.59 229.368 227.38 229.928 228.44C230.508 229.5 230.798 230.79 230.798 232.31V242H228.098V232.7C228.098 231.06 227.688 229.81 226.868 228.95C226.048 228.07 224.928 227.63 223.508 227.63C222.068 227.63 220.918 228.08 220.058 228.98C219.218 229.88 218.798 231.19 218.798 232.91V242H216.068V219.8H218.798V227.9C219.338 227.06 220.078 226.41 221.018 225.95C221.978 225.49 223.048 225.26 224.228 225.26ZM250.257 233.15C250.257 233.67 250.227 234.22 250.167 234.8H237.027C237.127 236.42 237.677 237.69 238.677 238.61C239.697 239.51 240.927 239.96 242.367 239.96C243.547 239.96 244.527 239.69 245.307 239.15C246.107 238.59 246.667 237.85 246.987 236.93H249.927C249.487 238.51 248.607 239.8 247.287 240.8C245.967 241.78 244.327 242.27 242.367 242.27C240.807 242.27 239.407 241.92 238.167 241.22C236.947 240.52 235.987 239.53 235.287 238.25C234.587 236.95 234.237 235.45 234.237 233.75C234.237 232.05 234.577 230.56 235.257 229.28C235.937 228 236.887 227.02 238.107 226.34C239.347 225.64 240.767 225.29 242.367 225.29C243.927 225.29 245.307 225.63 246.507 226.31C247.707 226.99 248.627 227.93 249.267 229.13C249.927 230.31 250.257 231.65 250.257 233.15ZM247.437 232.58C247.437 231.54 247.207 230.65 246.747 229.91C246.287 229.15 245.657 228.58 244.857 228.2C244.077 227.8 243.207 227.6 242.247 227.6C240.867 227.6 239.687 228.04 238.707 228.92C237.747 229.8 237.197 231.02 237.057 232.58H247.437ZM264.589 228.62C265.149 227.64 265.969 226.84 267.049 226.22C268.129 225.6 269.359 225.29 270.739 225.29C272.219 225.29 273.549 225.64 274.729 226.34C275.909 227.04 276.839 228.03 277.519 229.31C278.199 230.57 278.539 232.04 278.539 233.72C278.539 235.38 278.199 236.86 277.519 238.16C276.839 239.46 275.899 240.47 274.699 241.19C273.519 241.91 272.199 242.27 270.739 242.27C269.319 242.27 268.069 241.96 266.989 241.34C265.929 240.72 265.129 239.93 264.589 238.97V242H261.859V219.8H264.589V228.62ZM275.749 233.72C275.749 232.48 275.499 231.4 274.999 230.48C274.499 229.56 273.819 228.86 272.959 228.38C272.119 227.9 271.189 227.66 270.169 227.66C269.169 227.66 268.239 227.91 267.379 228.41C266.539 228.89 265.859 229.6 265.339 230.54C264.839 231.46 264.589 232.53 264.589 233.75C264.589 234.99 264.839 236.08 265.339 237.02C265.859 237.94 266.539 238.65 267.379 239.15C268.239 239.63 269.169 239.87 270.169 239.87C271.189 239.87 272.119 239.63 272.959 239.15C273.819 238.65 274.499 237.94 274.999 237.02C275.499 236.08 275.749 234.98 275.749 233.72ZM297.132 233.15C297.132 233.67 297.102 234.22 297.042 234.8H283.902C284.002 236.42 284.552 237.69 285.552 238.61C286.572 239.51 287.802 239.96 289.242 239.96C290.422 239.96 291.402 239.69 292.182 239.15C292.982 238.59 293.542 237.85 293.862 236.93H296.802C296.362 238.51 295.482 239.8 294.162 240.8C292.842 241.78 291.202 242.27 289.242 242.27C287.682 242.27 286.282 241.92 285.042 241.22C283.822 240.52 282.862 239.53 282.162 238.25C281.462 236.95 281.112 235.45 281.112 233.75C281.112 232.05 281.452 230.56 282.132 229.28C282.812 228 283.762 227.02 284.982 226.34C286.222 225.64 287.642 225.29 289.242 225.29C290.802 225.29 292.182 225.63 293.382 226.31C294.582 226.99 295.502 227.93 296.142 229.13C296.802 230.31 297.132 231.65 297.132 233.15ZM294.312 232.58C294.312 231.54 294.082 230.65 293.622 229.91C293.162 229.15 292.532 228.58 291.732 228.2C290.952 227.8 290.082 227.6 289.122 227.6C287.742 227.6 286.562 228.04 285.582 228.92C284.622 229.8 284.072 231.02 283.932 232.58H294.312ZM306.556 242.27C305.296 242.27 304.166 242.06 303.166 241.64C302.166 241.2 301.376 240.6 300.796 239.84C300.216 239.06 299.896 238.17 299.836 237.17H302.656C302.736 237.99 303.116 238.66 303.796 239.18C304.496 239.7 305.406 239.96 306.526 239.96C307.566 239.96 308.386 239.73 308.986 239.27C309.586 238.81 309.886 238.23 309.886 237.53C309.886 236.81 309.566 236.28 308.926 235.94C308.286 235.58 307.296 235.23 305.956 234.89C304.736 234.57 303.736 234.25 302.956 233.93C302.196 233.59 301.536 233.1 300.976 232.46C300.436 231.8 300.166 230.94 300.166 229.88C300.166 229.04 300.416 228.27 300.916 227.57C301.416 226.87 302.126 226.32 303.046 225.92C303.966 225.5 305.016 225.29 306.196 225.29C308.016 225.29 309.486 225.75 310.606 226.67C311.726 227.59 312.326 228.85 312.406 230.45H309.676C309.616 229.59 309.266 228.9 308.626 228.38C308.006 227.86 307.166 227.6 306.106 227.6C305.126 227.6 304.346 227.81 303.766 228.23C303.186 228.65 302.896 229.2 302.896 229.88C302.896 230.42 303.066 230.87 303.406 231.23C303.766 231.57 304.206 231.85 304.726 232.07C305.266 232.27 306.006 232.5 306.946 232.76C308.126 233.08 309.086 233.4 309.826 233.72C310.566 234.02 311.196 234.48 311.716 235.1C312.256 235.72 312.536 236.53 312.556 237.53C312.556 238.43 312.306 239.24 311.806 239.96C311.306 240.68 310.596 241.25 309.676 241.67C308.776 242.07 307.736 242.27 306.556 242.27ZM319.74 227.81V237.5C319.74 238.3 319.91 238.87 320.25 239.21C320.59 239.53 321.18 239.69 322.02 239.69H324.03V242H321.57C320.05 242 318.91 241.65 318.15 240.95C317.39 240.25 317.01 239.1 317.01 237.5V227.81H314.88V225.56H317.01V221.42H319.74V225.56H324.03V227.81H319.74ZM330.877 221.09L330.547 236.09H328.267L327.937 221.09H330.877ZM329.527 242.18C329.007 242.18 328.567 242 328.207 241.64C327.847 241.28 327.667 240.84 327.667 240.32C327.667 239.8 327.847 239.36 328.207 239C328.567 238.64 329.007 238.46 329.527 238.46C330.027 238.46 330.447 238.64 330.787 239C331.147 239.36 331.327 239.8 331.327 240.32C331.327 240.84 331.147 241.28 330.787 241.64C330.447 242 330.027 242.18 329.527 242.18Z" fill="black"/>
<rect x="171" y="277" width="306" height="46.3912" rx="13.0556" fill="#35B2E6"/>
<path d="M193.493 300.052C194.477 300.236 195.285 300.727 195.918 301.527C196.552 302.327 196.868 303.244 196.868 304.277C196.868 305.211 196.635 306.036 196.168 306.752C195.718 307.452 195.06 308.002 194.193 308.402C193.327 308.802 192.302 309.002 191.118 309.002H183.593V291.552H190.793C191.977 291.552 192.993 291.744 193.843 292.127C194.71 292.511 195.36 293.044 195.793 293.727C196.243 294.411 196.468 295.186 196.468 296.052C196.468 297.069 196.193 297.919 195.643 298.602C195.11 299.286 194.393 299.769 193.493 300.052ZM187.093 298.752H190.293C191.127 298.752 191.768 298.569 192.218 298.202C192.668 297.819 192.893 297.277 192.893 296.577C192.893 295.877 192.668 295.336 192.218 294.952C191.768 294.569 191.127 294.377 190.293 294.377H187.093V298.752ZM190.618 306.152C191.468 306.152 192.127 305.952 192.593 305.552C193.077 305.152 193.318 304.586 193.318 303.852C193.318 303.102 193.068 302.519 192.568 302.102C192.068 301.669 191.393 301.452 190.543 301.452H187.093V306.152H190.618ZM210.358 305.677H203.408L202.258 309.002H198.583L204.858 291.527H208.933L215.208 309.002H211.508L210.358 305.677ZM209.408 302.877L206.883 295.577L204.358 302.877H209.408ZM216.703 300.252C216.703 298.536 217.087 297.002 217.853 295.652C218.637 294.286 219.695 293.227 221.028 292.477C222.378 291.711 223.887 291.327 225.553 291.327C227.503 291.327 229.212 291.827 230.678 292.827C232.145 293.827 233.17 295.211 233.753 296.977H229.728C229.328 296.144 228.762 295.519 228.028 295.102C227.312 294.686 226.478 294.477 225.528 294.477C224.512 294.477 223.603 294.719 222.803 295.202C222.02 295.669 221.403 296.336 220.953 297.202C220.52 298.069 220.303 299.086 220.303 300.252C220.303 301.402 220.52 302.419 220.953 303.302C221.403 304.169 222.02 304.844 222.803 305.327C223.603 305.794 224.512 306.027 225.528 306.027C226.478 306.027 227.312 305.819 228.028 305.402C228.762 304.969 229.328 304.336 229.728 303.502H233.753C233.17 305.286 232.145 306.677 230.678 307.677C229.228 308.661 227.52 309.152 225.553 309.152C223.887 309.152 222.378 308.777 221.028 308.027C219.695 307.261 218.637 306.202 217.853 304.852C217.087 303.502 216.703 301.969 216.703 300.252ZM246.593 309.002L240.243 301.227V309.002H236.743V291.552H240.243V299.377L246.593 291.552H250.818L243.618 300.202L251.018 309.002H246.593ZM271.152 291.552V294.377H266.502V309.002H263.002V294.377H258.352V291.552H271.152ZM281.806 309.177C280.172 309.177 278.672 308.794 277.306 308.027C275.939 307.261 274.856 306.202 274.056 304.852C273.256 303.486 272.856 301.944 272.856 300.227C272.856 298.527 273.256 297.002 274.056 295.652C274.856 294.286 275.939 293.219 277.306 292.452C278.672 291.686 280.172 291.302 281.806 291.302C283.456 291.302 284.956 291.686 286.306 292.452C287.672 293.219 288.747 294.286 289.531 295.652C290.331 297.002 290.731 298.527 290.731 300.227C290.731 301.944 290.331 303.486 289.531 304.852C288.747 306.202 287.672 307.261 286.306 308.027C284.939 308.794 283.439 309.177 281.806 309.177ZM281.806 306.052C282.856 306.052 283.781 305.819 284.581 305.352C285.381 304.869 286.006 304.186 286.456 303.302C286.906 302.419 287.131 301.394 287.131 300.227C287.131 299.061 286.906 298.044 286.456 297.177C286.006 296.294 285.381 295.619 284.581 295.152C283.781 294.686 282.856 294.452 281.806 294.452C280.756 294.452 279.822 294.686 279.006 295.152C278.206 295.619 277.581 296.294 277.131 297.177C276.681 298.044 276.456 299.061 276.456 300.227C276.456 301.394 276.681 302.419 277.131 303.302C277.581 304.186 278.206 304.869 279.006 305.352C279.822 305.819 280.756 306.052 281.806 306.052ZM313.767 291.552V309.002H310.267V301.577H302.792V309.002H299.292V291.552H302.792V298.727H310.267V291.552H313.767ZM325.311 309.177C323.678 309.177 322.178 308.794 320.811 308.027C319.445 307.261 318.361 306.202 317.561 304.852C316.761 303.486 316.361 301.944 316.361 300.227C316.361 298.527 316.761 297.002 317.561 295.652C318.361 294.286 319.445 293.219 320.811 292.452C322.178 291.686 323.678 291.302 325.311 291.302C326.961 291.302 328.461 291.686 329.811 292.452C331.178 293.219 332.253 294.286 333.036 295.652C333.836 297.002 334.236 298.527 334.236 300.227C334.236 301.944 333.836 303.486 333.036 304.852C332.253 306.202 331.178 307.261 329.811 308.027C328.445 308.794 326.945 309.177 325.311 309.177ZM325.311 306.052C326.361 306.052 327.286 305.819 328.086 305.352C328.886 304.869 329.511 304.186 329.961 303.302C330.411 302.419 330.636 301.394 330.636 300.227C330.636 299.061 330.411 298.044 329.961 297.177C329.511 296.294 328.886 295.619 328.086 295.152C327.286 294.686 326.361 294.452 325.311 294.452C324.261 294.452 323.328 294.686 322.511 295.152C321.711 295.619 321.086 296.294 320.636 297.177C320.186 298.044 319.961 299.061 319.961 300.227C319.961 301.394 320.186 302.419 320.636 303.302C321.086 304.186 321.711 304.869 322.511 305.352C323.328 305.819 324.261 306.052 325.311 306.052ZM355.865 291.552V309.002H352.365V297.652L347.69 309.002H345.04L340.34 297.652V309.002H336.84V291.552H340.815L346.365 304.527L351.915 291.552H355.865ZM362.826 294.377V298.752H368.701V301.527H362.826V306.152H369.451V309.002H359.326V291.527H369.451V294.377H362.826ZM378.656 309.177C377.44 309.177 376.34 308.969 375.356 308.552C374.39 308.136 373.623 307.536 373.056 306.752C372.49 305.969 372.198 305.044 372.181 303.977H375.931C375.981 304.694 376.231 305.261 376.681 305.677C377.148 306.094 377.781 306.302 378.581 306.302C379.398 306.302 380.04 306.111 380.506 305.727C380.973 305.327 381.206 304.811 381.206 304.177C381.206 303.661 381.048 303.236 380.731 302.902C380.415 302.569 380.015 302.311 379.531 302.127C379.065 301.927 378.415 301.711 377.581 301.477C376.448 301.144 375.523 300.819 374.806 300.502C374.106 300.169 373.498 299.677 372.981 299.027C372.481 298.361 372.231 297.477 372.231 296.377C372.231 295.344 372.49 294.444 373.006 293.677C373.523 292.911 374.248 292.327 375.181 291.927C376.115 291.511 377.181 291.302 378.381 291.302C380.181 291.302 381.64 291.744 382.756 292.627C383.89 293.494 384.515 294.711 384.631 296.277H380.781C380.748 295.677 380.49 295.186 380.006 294.802C379.54 294.402 378.915 294.202 378.131 294.202C377.448 294.202 376.898 294.377 376.481 294.727C376.081 295.077 375.881 295.586 375.881 296.252C375.881 296.719 376.031 297.111 376.331 297.427C376.648 297.727 377.031 297.977 377.481 298.177C377.948 298.361 378.598 298.577 379.431 298.827C380.565 299.161 381.49 299.494 382.206 299.827C382.923 300.161 383.54 300.661 384.056 301.327C384.573 301.994 384.831 302.869 384.831 303.952C384.831 304.886 384.59 305.752 384.106 306.552C383.623 307.352 382.915 307.994 381.981 308.477C381.048 308.944 379.94 309.177 378.656 309.177ZM387.016 300.252C387.016 298.536 387.399 297.002 388.166 295.652C388.949 294.286 390.007 293.227 391.341 292.477C392.691 291.711 394.199 291.327 395.866 291.327C397.816 291.327 399.524 291.827 400.991 292.827C402.457 293.827 403.482 295.211 404.066 296.977H400.041C399.641 296.144 399.074 295.519 398.341 295.102C397.624 294.686 396.791 294.477 395.841 294.477C394.824 294.477 393.916 294.719 393.116 295.202C392.332 295.669 391.716 296.336 391.266 297.202C390.832 298.069 390.616 299.086 390.616 300.252C390.616 301.402 390.832 302.419 391.266 303.302C391.716 304.169 392.332 304.844 393.116 305.327C393.916 305.794 394.824 306.027 395.841 306.027C396.791 306.027 397.624 305.819 398.341 305.402C399.074 304.969 399.641 304.336 400.041 303.502H404.066C403.482 305.286 402.457 306.677 400.991 307.677C399.541 308.661 397.832 309.152 395.866 309.152C394.199 309.152 392.691 308.777 391.341 308.027C390.007 307.261 388.949 306.202 388.166 304.852C387.399 303.502 387.016 301.969 387.016 300.252ZM416.055 309.002L412.205 302.202H410.555V309.002H407.055V291.552H413.605C414.955 291.552 416.105 291.794 417.055 292.277C418.005 292.744 418.714 293.386 419.18 294.202C419.664 295.002 419.905 295.902 419.905 296.902C419.905 298.052 419.572 299.094 418.905 300.027C418.239 300.944 417.247 301.577 415.93 301.927L420.105 309.002H416.055ZM410.555 299.577H413.48C414.43 299.577 415.139 299.352 415.605 298.902C416.072 298.436 416.305 297.794 416.305 296.977C416.305 296.177 416.072 295.561 415.605 295.127C415.139 294.677 414.43 294.452 413.48 294.452H410.555V299.577ZM426.571 294.377V298.752H432.446V301.527H426.571V306.152H433.196V309.002H423.071V291.527H433.196V294.377H426.571ZM439.877 294.377V298.752H445.752V301.527H439.877V306.152H446.502V309.002H436.377V291.527H446.502V294.377H439.877ZM464.607 309.002H461.107L453.182 297.027V309.002H449.682V291.527H453.182L461.107 303.527V291.527H464.607V309.002Z" fill="white" fill-opacity="0.98"/>
<path d="M41.395 18.325L32.715 35.16V43H25.82V35.16L17.14 18.325H24.98L29.32 27.845L33.66 18.325H41.395ZM52.636 43.245C50.676 43.245 48.9143 42.8367 47.351 42.02C45.811 41.2033 44.5977 40.0367 43.711 38.52C42.8243 37.0033 42.381 35.2183 42.381 33.165C42.381 31.135 42.8243 29.3617 43.711 27.845C44.621 26.3283 45.846 25.1617 47.386 24.345C48.9493 23.5283 50.711 23.12 52.671 23.12C54.631 23.12 56.381 23.5283 57.921 24.345C59.4843 25.1617 60.7093 26.3283 61.596 27.845C62.506 29.3617 62.961 31.135 62.961 33.165C62.961 35.195 62.506 36.98 61.596 38.52C60.7093 40.0367 59.4843 41.2033 57.921 42.02C56.3577 42.8367 54.596 43.245 52.636 43.245ZM52.636 37.295C53.5927 37.295 54.386 36.945 55.016 36.245C55.6693 35.5217 55.996 34.495 55.996 33.165C55.996 31.835 55.6693 30.82 55.016 30.12C54.386 29.42 53.6043 29.07 52.671 29.07C51.7377 29.07 50.956 29.42 50.326 30.12C49.696 30.82 49.381 31.835 49.381 33.165C49.381 34.5183 49.6843 35.545 50.291 36.245C50.8977 36.945 51.6793 37.295 52.636 37.295ZM85.842 23.365V43H78.947V40.2C78.3637 41.0867 77.5587 41.81 76.532 42.37C75.5053 42.9067 74.327 43.175 72.997 43.175C70.7103 43.175 68.902 42.4283 67.572 40.935C66.2653 39.4183 65.612 37.365 65.612 34.775V23.365H72.437V33.9C72.437 35.02 72.7287 35.9067 73.312 36.56C73.9187 37.19 74.712 37.505 75.692 37.505C76.6953 37.505 77.4887 37.19 78.072 36.56C78.6553 35.9067 78.947 35.02 78.947 33.9V23.365H85.842ZM96.6061 26.83C97.3761 25.71 98.3095 24.8233 99.4061 24.17C100.503 23.5167 101.681 23.19 102.941 23.19V30.505H101.016C99.5228 30.505 98.4145 30.7967 97.6911 31.38C96.9678 31.9633 96.6061 32.9783 96.6061 34.425V43H89.7461V23.365H96.6061V26.83ZM120.465 43.245C118.691 43.245 117.105 42.9533 115.705 42.37C114.328 41.7633 113.231 40.9467 112.415 39.92C111.621 38.87 111.178 37.6917 111.085 36.385H117.735C117.828 37.015 118.12 37.505 118.61 37.855C119.1 38.205 119.706 38.38 120.43 38.38C120.99 38.38 121.433 38.2633 121.76 38.03C122.086 37.7967 122.25 37.4933 122.25 37.12C122.25 36.63 121.981 36.2683 121.445 36.035C120.908 35.8017 120.021 35.545 118.785 35.265C117.385 34.985 116.218 34.67 115.285 34.32C114.351 33.97 113.535 33.3983 112.835 32.605C112.158 31.8117 111.82 30.7383 111.82 29.385C111.82 28.2183 112.135 27.1683 112.765 26.235C113.395 25.2783 114.316 24.52 115.53 23.96C116.766 23.4 118.248 23.12 119.975 23.12C122.541 23.12 124.56 23.75 126.03 25.01C127.5 26.27 128.351 27.9267 128.585 29.98H122.39C122.273 29.35 121.993 28.8717 121.55 28.545C121.13 28.195 120.558 28.02 119.835 28.02C119.275 28.02 118.843 28.125 118.54 28.335C118.26 28.545 118.12 28.8367 118.12 29.21C118.12 29.6767 118.388 30.0383 118.925 30.295C119.461 30.5283 120.325 30.7733 121.515 31.03C122.938 31.3333 124.116 31.6717 125.05 32.045C126.006 32.4183 126.835 33.025 127.535 33.865C128.258 34.6817 128.62 35.8017 128.62 37.225C128.62 38.3683 128.281 39.395 127.605 40.305C126.951 41.215 126.006 41.9383 124.77 42.475C123.556 42.9883 122.121 43.245 120.465 43.245ZM135.457 21.545C134.244 21.545 133.264 21.2183 132.517 20.565C131.794 19.8883 131.432 19.0483 131.432 18.045C131.432 17.0183 131.794 16.1667 132.517 15.49C133.264 14.8133 134.244 14.475 135.457 14.475C136.647 14.475 137.604 14.8133 138.327 15.49C139.074 16.1667 139.447 17.0183 139.447 18.045C139.447 19.0483 139.074 19.8883 138.327 20.565C137.604 21.2183 136.647 21.545 135.457 21.545ZM138.852 23.365V43H131.992V23.365H138.852ZM150.004 23.12C151.334 23.12 152.489 23.3883 153.469 23.925C154.472 24.4617 155.242 25.185 155.779 26.095V23.365H162.639V42.79C162.639 44.6333 162.289 46.29 161.589 47.76C160.889 49.2533 159.792 50.4433 158.299 51.33C156.829 52.2167 154.962 52.66 152.699 52.66C149.665 52.66 147.239 51.9483 145.419 50.525C143.599 49.1017 142.56 47.165 142.304 44.715H149.059C149.199 45.345 149.549 45.835 150.109 46.185C150.669 46.535 151.392 46.71 152.279 46.71C154.612 46.71 155.779 45.4033 155.779 42.79V40.27C155.242 41.18 154.472 41.9033 153.469 42.44C152.489 42.9767 151.334 43.245 150.004 43.245C148.44 43.245 147.017 42.8367 145.734 42.02C144.474 41.2033 143.47 40.0367 142.724 38.52C142 36.98 141.639 35.195 141.639 33.165C141.639 31.135 142 29.3617 142.724 27.845C143.47 26.3283 144.474 25.1617 145.734 24.345C147.017 23.5283 148.44 23.12 150.004 23.12ZM155.779 33.165C155.779 31.905 155.429 30.9133 154.729 30.19C154.052 29.4667 153.212 29.105 152.209 29.105C151.182 29.105 150.33 29.4667 149.654 30.19C148.977 30.89 148.639 31.8817 148.639 33.165C148.639 34.425 148.977 35.4283 149.654 36.175C150.33 36.8983 151.182 37.26 152.209 37.26C153.212 37.26 154.052 36.8983 154.729 36.175C155.429 35.4517 155.779 34.4483 155.779 33.165ZM179.393 23.19C181.656 23.19 183.453 23.9483 184.783 25.465C186.113 26.9583 186.778 28.9883 186.778 31.555V43H179.918V32.465C179.918 31.345 179.626 30.47 179.043 29.84C178.46 29.1867 177.678 28.86 176.698 28.86C175.671 28.86 174.866 29.1867 174.283 29.84C173.7 30.47 173.408 31.345 173.408 32.465V43H166.548V23.365H173.408V26.165C174.015 25.2783 174.831 24.5667 175.858 24.03C176.885 23.47 178.063 23.19 179.393 23.19ZM189.422 33.165C189.422 31.135 189.784 29.3617 190.507 27.845C191.254 26.3283 192.257 25.1617 193.517 24.345C194.8 23.5283 196.224 23.12 197.787 23.12C199.14 23.12 200.307 23.3883 201.287 23.925C202.267 24.4617 203.025 25.185 203.562 26.095V23.365H210.422V43H203.562V40.27C203.025 41.18 202.255 41.9033 201.252 42.44C200.272 42.9767 199.117 43.245 197.787 43.245C196.224 43.245 194.8 42.8367 193.517 42.02C192.257 41.2033 191.254 40.0367 190.507 38.52C189.784 36.98 189.422 35.195 189.422 33.165ZM203.562 33.165C203.562 31.905 203.212 30.9133 202.512 30.19C201.835 29.4667 200.995 29.105 199.992 29.105C198.965 29.105 198.114 29.4667 197.437 30.19C196.76 30.89 196.422 31.8817 196.422 33.165C196.422 34.425 196.76 35.4283 197.437 36.175C198.114 36.8983 198.965 37.26 199.992 37.26C200.995 37.26 201.835 36.8983 202.512 36.175C203.212 35.4517 203.562 34.4483 203.562 33.165ZM221.191 17.1V43H214.331V17.1H221.191ZM244.712 23.19C246.952 23.19 248.725 23.9483 250.032 25.465C251.362 26.9583 252.027 28.9883 252.027 31.555V43H245.167V32.465C245.167 31.345 244.875 30.47 244.292 29.84C243.709 29.1867 242.927 28.86 241.947 28.86C240.92 28.86 240.115 29.1867 239.532 29.84C238.949 30.47 238.657 31.345 238.657 32.465V43H231.797V17.1H238.657V26.165C239.264 25.2783 240.08 24.5667 241.107 24.03C242.157 23.47 243.359 23.19 244.712 23.19ZM254.671 33.165C254.671 31.135 255.033 29.3617 255.756 27.845C256.503 26.3283 257.506 25.1617 258.766 24.345C260.049 23.5283 261.473 23.12 263.036 23.12C264.389 23.12 265.556 23.3883 266.536 23.925C267.516 24.4617 268.274 25.185 268.811 26.095V23.365H275.671V43H268.811V40.27C268.274 41.18 267.504 41.9033 266.501 42.44C265.521 42.9767 264.366 43.245 263.036 43.245C261.473 43.245 260.049 42.8367 258.766 42.02C257.506 41.2033 256.503 40.0367 255.756 38.52C255.033 36.98 254.671 35.195 254.671 33.165ZM268.811 33.165C268.811 31.905 268.461 30.9133 267.761 30.19C267.084 29.4667 266.244 29.105 265.241 29.105C264.214 29.105 263.363 29.4667 262.686 30.19C262.009 30.89 261.671 31.8817 261.671 33.165C261.671 34.425 262.009 35.4283 262.686 36.175C263.363 36.8983 264.214 37.26 265.241 37.26C266.244 37.26 267.084 36.8983 267.761 36.175C268.461 35.4517 268.811 34.4483 268.811 33.165ZM287.945 43.245C286.172 43.245 284.585 42.9533 283.185 42.37C281.808 41.7633 280.712 40.9467 279.895 39.92C279.102 38.87 278.658 37.6917 278.565 36.385H285.215C285.308 37.015 285.6 37.505 286.09 37.855C286.58 38.205 287.187 38.38 287.91 38.38C288.47 38.38 288.913 38.2633 289.24 38.03C289.567 37.7967 289.73 37.4933 289.73 37.12C289.73 36.63 289.462 36.2683 288.925 36.035C288.388 35.8017 287.502 35.545 286.265 35.265C284.865 34.985 283.698 34.67 282.765 34.32C281.832 33.97 281.015 33.3983 280.315 32.605C279.638 31.8117 279.3 30.7383 279.3 29.385C279.3 28.2183 279.615 27.1683 280.245 26.235C280.875 25.2783 281.797 24.52 283.01 23.96C284.247 23.4 285.728 23.12 287.455 23.12C290.022 23.12 292.04 23.75 293.51 25.01C294.98 26.27 295.832 27.9267 296.065 29.98H289.87C289.753 29.35 289.473 28.8717 289.03 28.545C288.61 28.195 288.038 28.02 287.315 28.02C286.755 28.02 286.323 28.125 286.02 28.335C285.74 28.545 285.6 28.8367 285.6 29.21C285.6 29.6767 285.868 30.0383 286.405 30.295C286.942 30.5283 287.805 30.7733 288.995 31.03C290.418 31.3333 291.597 31.6717 292.53 32.045C293.487 32.4183 294.315 33.025 295.015 33.865C295.738 34.6817 296.1 35.8017 296.1 37.225C296.1 38.3683 295.762 39.395 295.085 40.305C294.432 41.215 293.487 41.9383 292.25 42.475C291.037 42.9883 289.602 43.245 287.945 43.245ZM313.032 26.095C313.569 25.1617 314.327 24.4383 315.307 23.925C316.287 23.3883 317.442 23.12 318.772 23.12C320.335 23.12 321.747 23.5283 323.007 24.345C324.29 25.1617 325.294 26.3283 326.017 27.845C326.764 29.3617 327.137 31.135 327.137 33.165C327.137 35.195 326.764 36.98 326.017 38.52C325.294 40.0367 324.29 41.2033 323.007 42.02C321.747 42.8367 320.335 43.245 318.772 43.245C317.442 43.245 316.287 42.9883 315.307 42.475C314.327 41.9383 313.569 41.2033 313.032 40.27V43H306.172V17.1H313.032V26.095ZM320.172 33.165C320.172 31.8817 319.822 30.89 319.122 30.19C318.445 29.4667 317.605 29.105 316.602 29.105C315.599 29.105 314.747 29.4667 314.047 30.19C313.37 30.9133 313.032 31.905 313.032 33.165C313.032 34.4483 313.37 35.4517 314.047 36.175C314.747 36.8983 315.599 37.26 316.602 37.26C317.605 37.26 318.445 36.8983 319.122 36.175C319.822 35.4283 320.172 34.425 320.172 33.165ZM348.721 32.955C348.721 33.4917 348.686 34.0283 348.616 34.565H335.631C335.701 35.6383 335.993 36.4433 336.506 36.98C337.043 37.4933 337.719 37.75 338.536 37.75C339.679 37.75 340.496 37.2367 340.986 36.21H348.301C347.998 37.5633 347.403 38.7767 346.516 39.85C345.653 40.9 344.556 41.7283 343.226 42.335C341.896 42.9417 340.426 43.245 338.816 43.245C336.879 43.245 335.153 42.8367 333.636 42.02C332.143 41.2033 330.964 40.0367 330.101 38.52C329.261 37.0033 328.841 35.2183 328.841 33.165C328.841 31.1117 329.261 29.3383 330.101 27.845C330.941 26.3283 332.108 25.1617 333.601 24.345C335.118 23.5283 336.856 23.12 338.816 23.12C340.753 23.12 342.468 23.5167 343.961 24.31C345.454 25.1033 346.621 26.2467 347.461 27.74C348.301 29.21 348.721 30.9483 348.721 32.955ZM341.721 31.24C341.721 30.4 341.441 29.7467 340.881 29.28C340.321 28.79 339.621 28.545 338.781 28.545C337.941 28.545 337.253 28.7783 336.716 29.245C336.179 29.6883 335.829 30.3533 335.666 31.24H341.721ZM370.288 32.955C370.288 33.4917 370.253 34.0283 370.183 34.565H357.198C357.268 35.6383 357.56 36.4433 358.073 36.98C358.61 37.4933 359.287 37.75 360.103 37.75C361.247 37.75 362.063 37.2367 362.553 36.21H369.868C369.565 37.5633 368.97 38.7767 368.083 39.85C367.22 40.9 366.123 41.7283 364.793 42.335C363.463 42.9417 361.993 43.245 360.383 43.245C358.447 43.245 356.72 42.8367 355.203 42.02C353.71 41.2033 352.532 40.0367 351.668 38.52C350.828 37.0033 350.408 35.2183 350.408 33.165C350.408 31.1117 350.828 29.3383 351.668 27.845C352.508 26.3283 353.675 25.1617 355.168 24.345C356.685 23.5283 358.423 23.12 360.383 23.12C362.32 23.12 364.035 23.5167 365.528 24.31C367.022 25.1033 368.188 26.2467 369.028 27.74C369.868 29.21 370.288 30.9483 370.288 32.955ZM363.288 31.24C363.288 30.4 363.008 29.7467 362.448 29.28C361.888 28.79 361.188 28.545 360.348 28.545C359.508 28.545 358.82 28.7783 358.283 29.245C357.747 29.6883 357.397 30.3533 357.233 31.24H363.288ZM385.941 23.19C388.204 23.19 390.001 23.9483 391.331 25.465C392.661 26.9583 393.326 28.9883 393.326 31.555V43H386.466V32.465C386.466 31.345 386.174 30.47 385.591 29.84C385.007 29.1867 384.226 28.86 383.246 28.86C382.219 28.86 381.414 29.1867 380.831 29.84C380.247 30.47 379.956 31.345 379.956 32.465V43H373.096V23.365H379.956V26.165C380.562 25.2783 381.379 24.5667 382.406 24.03C383.432 23.47 384.611 23.19 385.941 23.19ZM410.649 26.095C411.186 25.185 411.944 24.4617 412.924 23.925C413.904 23.3883 415.059 23.12 416.389 23.12C417.952 23.12 419.364 23.5283 420.624 24.345C421.907 25.1617 422.911 26.3283 423.634 27.845C424.381 29.3617 424.754 31.135 424.754 33.165C424.754 35.195 424.381 36.98 423.634 38.52C422.911 40.0367 421.907 41.2033 420.624 42.02C419.364 42.8367 417.952 43.245 416.389 43.245C415.059 43.245 413.904 42.9767 412.924 42.44C411.967 41.9033 411.209 41.18 410.649 40.27V52.38H403.789V23.365H410.649V26.095ZM417.789 33.165C417.789 31.8817 417.439 30.89 416.739 30.19C416.062 29.4667 415.222 29.105 414.219 29.105C413.216 29.105 412.364 29.4667 411.664 30.19C410.987 30.9133 410.649 31.905 410.649 33.165C410.649 34.4483 410.987 35.4517 411.664 36.175C412.364 36.8983 413.216 37.26 414.219 37.26C415.222 37.26 416.062 36.8983 416.739 36.175C417.439 35.4283 417.789 34.425 417.789 33.165ZM436.713 43.245C434.753 43.245 432.991 42.8367 431.428 42.02C429.888 41.2033 428.675 40.0367 427.788 38.52C426.901 37.0033 426.458 35.2183 426.458 33.165C426.458 31.135 426.901 29.3617 427.788 27.845C428.698 26.3283 429.923 25.1617 431.463 24.345C433.026 23.5283 434.788 23.12 436.748 23.12C438.708 23.12 440.458 23.5283 441.998 24.345C443.561 25.1617 444.786 26.3283 445.673 27.845C446.583 29.3617 447.038 31.135 447.038 33.165C447.038 35.195 446.583 36.98 445.673 38.52C444.786 40.0367 443.561 41.2033 441.998 42.02C440.435 42.8367 438.673 43.245 436.713 43.245ZM436.713 37.295C437.67 37.295 438.463 36.945 439.093 36.245C439.746 35.5217 440.073 34.495 440.073 33.165C440.073 31.835 439.746 30.82 439.093 30.12C438.463 29.42 437.681 29.07 436.748 29.07C435.815 29.07 435.033 29.42 434.403 30.12C433.773 30.82 433.458 31.835 433.458 33.165C433.458 34.5183 433.761 35.545 434.368 36.245C434.975 36.945 435.756 37.295 436.713 37.295ZM458.194 43.245C456.421 43.245 454.834 42.9533 453.434 42.37C452.057 41.7633 450.961 40.9467 450.144 39.92C449.351 38.87 448.907 37.6917 448.814 36.385H455.464C455.557 37.015 455.849 37.505 456.339 37.855C456.829 38.205 457.436 38.38 458.159 38.38C458.719 38.38 459.162 38.2633 459.489 38.03C459.816 37.7967 459.979 37.4933 459.979 37.12C459.979 36.63 459.711 36.2683 459.174 36.035C458.637 35.8017 457.751 35.545 456.514 35.265C455.114 34.985 453.947 34.67 453.014 34.32C452.081 33.97 451.264 33.3983 450.564 32.605C449.887 31.8117 449.549 30.7383 449.549 29.385C449.549 28.2183 449.864 27.1683 450.494 26.235C451.124 25.2783 452.046 24.52 453.259 23.96C454.496 23.4 455.977 23.12 457.704 23.12C460.271 23.12 462.289 23.75 463.759 25.01C465.229 26.27 466.081 27.9267 466.314 29.98H460.119C460.002 29.35 459.722 28.8717 459.279 28.545C458.859 28.195 458.287 28.02 457.564 28.02C457.004 28.02 456.572 28.125 456.269 28.335C455.989 28.545 455.849 28.8367 455.849 29.21C455.849 29.6767 456.117 30.0383 456.654 30.295C457.191 30.5283 458.054 30.7733 459.244 31.03C460.667 31.3333 461.846 31.6717 462.779 32.045C463.736 32.4183 464.564 33.025 465.264 33.865C465.987 34.6817 466.349 35.8017 466.349 37.225C466.349 38.3683 466.011 39.395 465.334 40.305C464.681 41.215 463.736 41.9383 462.499 42.475C461.286 42.9883 459.851 43.245 458.194 43.245ZM481.307 37.155V43H478.332C473.315 43 470.807 40.515 470.807 35.545V29.07H468.392V23.365H470.807V18.605H477.702V23.365H481.272V29.07H477.702V35.65C477.702 36.1867 477.818 36.5717 478.052 36.805C478.308 37.0383 478.728 37.155 479.312 37.155H481.307ZM503.213 32.955C503.213 33.4917 503.178 34.0283 503.108 34.565H490.123C490.193 35.6383 490.485 36.4433 490.998 36.98C491.535 37.4933 492.211 37.75 493.028 37.75C494.171 37.75 494.988 37.2367 495.478 36.21H502.793C502.49 37.5633 501.895 38.7767 501.008 39.85C500.145 40.9 499.048 41.7283 497.718 42.335C496.388 42.9417 494.918 43.245 493.308 43.245C491.371 43.245 489.645 42.8367 488.128 42.02C486.635 41.2033 485.456 40.0367 484.593 38.52C483.753 37.0033 483.333 35.2183 483.333 33.165C483.333 31.1117 483.753 29.3383 484.593 27.845C485.433 26.3283 486.6 25.1617 488.093 24.345C489.61 23.5283 491.348 23.12 493.308 23.12C495.245 23.12 496.96 23.5167 498.453 24.31C499.946 25.1033 501.113 26.2467 501.953 27.74C502.793 29.21 503.213 30.9483 503.213 32.955ZM496.213 31.24C496.213 30.4 495.933 29.7467 495.373 29.28C494.813 28.79 494.113 28.545 493.273 28.545C492.433 28.545 491.745 28.7783 491.208 29.245C490.671 29.6883 490.321 30.3533 490.158 31.24H496.213ZM504.901 33.165C504.901 31.135 505.262 29.3617 505.986 27.845C506.732 26.3283 507.747 25.1617 509.031 24.345C510.314 23.5283 511.737 23.12 513.301 23.12C514.561 23.12 515.681 23.3883 516.661 23.925C517.664 24.4383 518.446 25.15 519.006 26.06V17.1H525.901V43H519.006V40.27C518.469 41.18 517.711 41.9033 516.731 42.44C515.751 42.9767 514.596 43.245 513.266 43.245C511.702 43.245 510.279 42.8367 508.996 42.02C507.736 41.2033 506.732 40.0367 505.986 38.52C505.262 36.98 504.901 35.195 504.901 33.165ZM519.041 33.165C519.041 31.905 518.691 30.9133 517.991 30.19C517.314 29.4667 516.474 29.105 515.471 29.105C514.444 29.105 513.592 29.4667 512.916 30.19C512.239 30.89 511.901 31.8817 511.901 33.165C511.901 34.425 512.239 35.4283 512.916 36.175C513.592 36.8983 514.444 37.26 515.471 37.26C516.474 37.26 517.314 36.8983 517.991 36.175C518.691 35.4517 519.041 34.4483 519.041 33.165ZM538.98 17.065L538.175 33.76H532.33L531.525 17.065H538.98ZM535.27 43.28C534.056 43.28 533.076 42.9533 532.33 42.3C531.606 41.6233 531.245 40.7717 531.245 39.745C531.245 38.7183 531.606 37.8667 532.33 37.19C533.076 36.5133 534.056 36.175 535.27 36.175C536.46 36.175 537.416 36.5133 538.14 37.19C538.886 37.8667 539.26 38.7183 539.26 39.745C539.26 40.7483 538.886 41.5883 538.14 42.265C537.416 42.9417 536.46 43.28 535.27 43.28Z" fill="#F10A0A"/>
</svg>
