<svg width="647" height="409" viewBox="0 0 647 409" fill="none" xmlns="http://www.w3.org/2000/svg">
<g clip-path="url(#clip0_579_2031)">
<rect width="647" height="409" rx="10" fill="white"/>
<path d="M0 15C0 6.71572 6.71573 0 15 0H632C640.284 0 647 6.71573 647 15V394C647 402.284 640.284 409 632 409H15C6.71574 409 0 402.284 0 394V15Z" fill="white"/>
<line x1="1.35196e-08" y1="67.747" x2="647" y2="67.747" stroke="#CCCCCC" stroke-width="0.3"/>
<path d="M18.29 84.53C18.29 82.49 18.75 80.66 19.67 79.04C20.59 77.4 21.84 76.12 23.42 75.2C25.02 74.28 26.79 73.82 28.73 73.82C31.01 73.82 33 74.37 34.7 75.47C36.4 76.57 37.64 78.13 38.42 80.15H35.15C34.57 78.89 33.73 77.92 32.63 77.24C31.55 76.56 30.25 76.22 28.73 76.22C27.27 76.22 25.96 76.56 24.8 77.24C23.64 77.92 22.73 78.89 22.07 80.15C21.41 81.39 21.08 82.85 21.08 84.53C21.08 86.19 21.41 87.65 22.07 88.91C22.73 90.15 23.64 91.11 24.8 91.79C25.96 92.47 27.27 92.81 28.73 92.81C30.25 92.81 31.55 92.48 32.63 91.82C33.73 91.14 34.57 90.17 35.15 88.91H38.42C37.64 90.91 36.4 92.46 34.7 93.56C33 94.64 31.01 95.18 28.73 95.18C26.79 95.18 25.02 94.73 23.42 93.83C21.84 92.91 20.59 91.64 19.67 90.02C18.75 88.4 18.29 86.57 18.29 84.53ZM49.6538 95.27C48.1138 95.27 46.7138 94.92 45.4538 94.22C44.2138 93.52 43.2338 92.53 42.5138 91.25C41.8138 89.95 41.4638 88.45 41.4638 86.75C41.4638 85.07 41.8238 83.59 42.5438 82.31C43.2838 81.01 44.2838 80.02 45.5438 79.34C46.8038 78.64 48.2138 78.29 49.7738 78.29C51.3338 78.29 52.7438 78.64 54.0038 79.34C55.2638 80.02 56.2538 81 56.9738 82.28C57.7138 83.56 58.0838 85.05 58.0838 86.75C58.0838 88.45 57.7038 89.95 56.9438 91.25C56.2038 92.53 55.1938 93.52 53.9138 94.22C52.6338 94.92 51.2138 95.27 49.6538 95.27ZM49.6538 92.87C50.6338 92.87 51.5538 92.64 52.4138 92.18C53.2738 91.72 53.9638 91.03 54.4838 90.11C55.0238 89.19 55.2938 88.07 55.2938 86.75C55.2938 85.43 55.0338 84.31 54.5138 83.39C53.9938 82.47 53.3138 81.79 52.4738 81.35C51.6338 80.89 50.7238 80.66 49.7438 80.66C48.7438 80.66 47.8238 80.89 46.9838 81.35C46.1638 81.79 45.5038 82.47 45.0038 83.39C44.5038 84.31 44.2538 85.43 44.2538 86.75C44.2538 88.09 44.4938 89.22 44.9738 90.14C45.4738 91.06 46.1338 91.75 46.9538 92.21C47.7738 92.65 48.6738 92.87 49.6538 92.87ZM69.6833 78.26C71.6833 78.26 73.3033 78.87 74.5433 80.09C75.7833 81.29 76.4033 83.03 76.4033 85.31V95H73.7033V85.7C73.7033 84.06 73.2933 82.81 72.4733 81.95C71.6533 81.07 70.5333 80.63 69.1133 80.63C67.6733 80.63 66.5233 81.08 65.6633 81.98C64.8233 82.88 64.4033 84.19 64.4033 85.91V95H61.6733V78.56H64.4033V80.9C64.9433 80.06 65.6733 79.41 66.5933 78.95C67.5333 78.49 68.5633 78.26 69.6833 78.26ZM87.5527 80.81H84.1027V95H81.3727V80.81H79.2427V78.56H81.3727V77.39C81.3727 75.55 81.8427 74.21 82.7827 73.37C83.7427 72.51 85.2727 72.08 87.3727 72.08V74.36C86.1727 74.36 85.3227 74.6 84.8227 75.08C84.3427 75.54 84.1027 76.31 84.1027 77.39V78.56H87.5527V80.81ZM92.1458 75.89C91.6258 75.89 91.1858 75.71 90.8258 75.35C90.4658 74.99 90.2858 74.55 90.2858 74.03C90.2858 73.51 90.4658 73.07 90.8258 72.71C91.1858 72.35 91.6258 72.17 92.1458 72.17C92.6458 72.17 93.0658 72.35 93.4058 72.71C93.7658 73.07 93.9458 73.51 93.9458 74.03C93.9458 74.55 93.7658 74.99 93.4058 75.35C93.0658 75.71 92.6458 75.89 92.1458 75.89ZM93.4658 78.56V95H90.7358V78.56H93.4658ZM100.849 81.23C101.329 80.29 102.009 79.56 102.889 79.04C103.789 78.52 104.879 78.26 106.159 78.26V81.08H105.439C102.379 81.08 100.849 82.74 100.849 86.06V95H98.1186V78.56H100.849V81.23ZM129.08 78.26C130.36 78.26 131.5 78.53 132.5 79.07C133.5 79.59 134.29 80.38 134.87 81.44C135.45 82.5 135.74 83.79 135.74 85.31V95H133.04V85.7C133.04 84.06 132.63 82.81 131.81 81.95C131.01 81.07 129.92 80.63 128.54 80.63C127.12 80.63 125.99 81.09 125.15 82.01C124.31 82.91 123.89 84.22 123.89 85.94V95H121.19V85.7C121.19 84.06 120.78 82.81 119.96 81.95C119.16 81.07 118.07 80.63 116.69 80.63C115.27 80.63 114.14 81.09 113.3 82.01C112.46 82.91 112.04 84.22 112.04 85.94V95H109.31V78.56H112.04V80.93C112.58 80.07 113.3 79.41 114.2 78.95C115.12 78.49 116.13 78.26 117.23 78.26C118.61 78.26 119.83 78.57 120.89 79.19C121.95 79.81 122.74 80.72 123.26 81.92C123.72 80.76 124.48 79.86 125.54 79.22C126.6 78.58 127.78 78.26 129.08 78.26ZM141.628 75.89C141.108 75.89 140.668 75.71 140.308 75.35C139.948 74.99 139.768 74.55 139.768 74.03C139.768 73.51 139.948 73.07 140.308 72.71C140.668 72.35 141.108 72.17 141.628 72.17C142.128 72.17 142.548 72.35 142.888 72.71C143.248 73.07 143.428 73.51 143.428 74.03C143.428 74.55 143.248 74.99 142.888 75.35C142.548 75.71 142.128 75.89 141.628 75.89ZM142.948 78.56V95H140.218V78.56H142.948ZM155.611 78.26C157.611 78.26 159.231 78.87 160.471 80.09C161.711 81.29 162.331 83.03 162.331 85.31V95H159.631V85.7C159.631 84.06 159.221 82.81 158.401 81.95C157.581 81.07 156.461 80.63 155.041 80.63C153.601 80.63 152.451 81.08 151.591 81.98C150.751 82.88 150.331 84.19 150.331 85.91V95H147.601V78.56H150.331V80.9C150.871 80.06 151.601 79.41 152.521 78.95C153.461 78.49 154.491 78.26 155.611 78.26ZM173.57 78.29C174.99 78.29 176.23 78.6 177.29 79.22C178.37 79.84 179.17 80.62 179.69 81.56V78.56H182.45V95.36C182.45 96.86 182.13 98.19 181.49 99.35C180.85 100.53 179.93 101.45 178.73 102.11C177.55 102.77 176.17 103.1 174.59 103.1C172.43 103.1 170.63 102.59 169.19 101.57C167.75 100.55 166.9 99.16 166.64 97.4H169.34C169.64 98.4 170.26 99.2 171.2 99.8C172.14 100.42 173.27 100.73 174.59 100.73C176.09 100.73 177.31 100.26 178.25 99.32C179.21 98.38 179.69 97.06 179.69 95.36V91.91C179.15 92.87 178.35 93.67 177.29 94.31C176.23 94.95 174.99 95.27 173.57 95.27C172.11 95.27 170.78 94.91 169.58 94.19C168.4 93.47 167.47 92.46 166.79 91.16C166.11 89.86 165.77 88.38 165.77 86.72C165.77 85.04 166.11 83.57 166.79 82.31C167.47 81.03 168.4 80.04 169.58 79.34C170.78 78.64 172.11 78.29 173.57 78.29ZM179.69 86.75C179.69 85.51 179.44 84.43 178.94 83.51C178.44 82.59 177.76 81.89 176.9 81.41C176.06 80.91 175.13 80.66 174.11 80.66C173.09 80.66 172.16 80.9 171.32 81.38C170.48 81.86 169.81 82.56 169.31 83.48C168.81 84.4 168.56 85.48 168.56 86.72C168.56 87.98 168.81 89.08 169.31 90.02C169.81 90.94 170.48 91.65 171.32 92.15C172.16 92.63 173.09 92.87 174.11 92.87C175.13 92.87 176.06 92.63 176.9 92.15C177.76 91.65 178.44 90.94 178.94 90.02C179.44 89.08 179.69 87.99 179.69 86.75ZM198.392 80.81V90.5C198.392 91.3 198.562 91.87 198.902 92.21C199.242 92.53 199.832 92.69 200.672 92.69H202.682V95H200.222C198.702 95 197.562 94.65 196.802 93.95C196.042 93.25 195.662 92.1 195.662 90.5V80.81H193.532V78.56H195.662V74.42H198.392V78.56H202.682V80.81H198.392ZM214.15 78.26C215.39 78.26 216.51 78.53 217.51 79.07C218.51 79.59 219.29 80.38 219.85 81.44C220.43 82.5 220.72 83.79 220.72 85.31V95H218.02V85.7C218.02 84.06 217.61 82.81 216.79 81.95C215.97 81.07 214.85 80.63 213.43 80.63C211.99 80.63 210.84 81.08 209.98 81.98C209.14 82.88 208.72 84.19 208.72 85.91V95H205.99V72.8H208.72V80.9C209.26 80.06 210 79.41 210.94 78.95C211.9 78.49 212.97 78.26 214.15 78.26ZM224.159 86.72C224.159 85.04 224.499 83.57 225.179 82.31C225.859 81.03 226.789 80.04 227.969 79.34C229.169 78.64 230.499 78.29 231.959 78.29C233.399 78.29 234.649 78.6 235.709 79.22C236.769 79.84 237.559 80.62 238.079 81.56V78.56H240.839V95H238.079V91.94C237.539 92.9 236.729 93.7 235.649 94.34C234.589 94.96 233.349 95.27 231.929 95.27C230.469 95.27 229.149 94.91 227.969 94.19C226.789 93.47 225.859 92.46 225.179 91.16C224.499 89.86 224.159 88.38 224.159 86.72ZM238.079 86.75C238.079 85.51 237.829 84.43 237.329 83.51C236.829 82.59 236.149 81.89 235.289 81.41C234.449 80.91 233.519 80.66 232.499 80.66C231.479 80.66 230.549 80.9 229.709 81.38C228.869 81.86 228.199 82.56 227.699 83.48C227.199 84.4 226.949 85.48 226.949 86.72C226.949 87.98 227.199 89.08 227.699 90.02C228.199 90.94 228.869 91.65 229.709 92.15C230.549 92.63 231.479 92.87 232.499 92.87C233.519 92.87 234.449 92.63 235.289 92.15C236.149 91.65 236.829 90.94 237.329 90.02C237.829 89.08 238.079 87.99 238.079 86.75ZM248.783 80.81V90.5C248.783 91.3 248.953 91.87 249.293 92.21C249.633 92.53 250.223 92.69 251.063 92.69H253.073V95H250.613C249.093 95 247.953 94.65 247.193 93.95C246.433 93.25 246.053 92.1 246.053 90.5V80.81H243.923V78.56H246.053V74.42H248.783V78.56H253.073V80.81H248.783ZM278.538 78.56L268.638 102.74H265.818L269.058 94.82L262.428 78.56H265.458L270.618 91.88L275.718 78.56H278.538ZM288.453 95.27C286.913 95.27 285.513 94.92 284.253 94.22C283.013 93.52 282.033 92.53 281.313 91.25C280.613 89.95 280.263 88.45 280.263 86.75C280.263 85.07 280.623 83.59 281.343 82.31C282.083 81.01 283.083 80.02 284.343 79.34C285.603 78.64 287.013 78.29 288.573 78.29C290.133 78.29 291.543 78.64 292.803 79.34C294.063 80.02 295.053 81 295.773 82.28C296.513 83.56 296.883 85.05 296.883 86.75C296.883 88.45 296.503 89.95 295.743 91.25C295.003 92.53 293.993 93.52 292.713 94.22C291.433 94.92 290.013 95.27 288.453 95.27ZM288.453 92.87C289.433 92.87 290.353 92.64 291.213 92.18C292.073 91.72 292.763 91.03 293.283 90.11C293.823 89.19 294.093 88.07 294.093 86.75C294.093 85.43 293.833 84.31 293.313 83.39C292.793 82.47 292.113 81.79 291.273 81.35C290.433 80.89 289.523 80.66 288.543 80.66C287.543 80.66 286.623 80.89 285.783 81.35C284.963 81.79 284.303 82.47 283.803 83.39C283.303 84.31 283.053 85.43 283.053 86.75C283.053 88.09 283.293 89.22 283.773 90.14C284.273 91.06 284.933 91.75 285.753 92.21C286.573 92.65 287.473 92.87 288.453 92.87ZM315.052 78.56V95H312.322V92.57C311.802 93.41 311.072 94.07 310.132 94.55C309.212 95.01 308.192 95.24 307.072 95.24C305.792 95.24 304.642 94.98 303.622 94.46C302.602 93.92 301.792 93.12 301.192 92.06C300.612 91 300.322 89.71 300.322 88.19V78.56H303.022V87.83C303.022 89.45 303.432 90.7 304.252 91.58C305.072 92.44 306.192 92.87 307.612 92.87C309.072 92.87 310.222 92.42 311.062 91.52C311.902 90.62 312.322 89.31 312.322 87.59V78.56H315.052ZM322.392 81.23C322.872 80.29 323.552 79.56 324.432 79.04C325.332 78.52 326.422 78.26 327.702 78.26V81.08H326.982C323.922 81.08 322.392 82.74 322.392 86.06V95H319.662V78.56H322.392V81.23ZM344.671 95.27C343.411 95.27 342.281 95.06 341.281 94.64C340.281 94.2 339.491 93.6 338.911 92.84C338.331 92.06 338.011 91.17 337.951 90.17H340.771C340.851 90.99 341.231 91.66 341.911 92.18C342.611 92.7 343.521 92.96 344.641 92.96C345.681 92.96 346.501 92.73 347.101 92.27C347.701 91.81 348.001 91.23 348.001 90.53C348.001 89.81 347.681 89.28 347.041 88.94C346.401 88.58 345.411 88.23 344.071 87.89C342.851 87.57 341.851 87.25 341.071 86.93C340.311 86.59 339.651 86.1 339.091 85.46C338.551 84.8 338.281 83.94 338.281 82.88C338.281 82.04 338.531 81.27 339.031 80.57C339.531 79.87 340.241 79.32 341.161 78.92C342.081 78.5 343.131 78.29 344.311 78.29C346.131 78.29 347.601 78.75 348.721 79.67C349.841 80.59 350.441 81.85 350.521 83.45H347.791C347.731 82.59 347.381 81.9 346.741 81.38C346.121 80.86 345.281 80.6 344.221 80.6C343.241 80.6 342.461 80.81 341.881 81.23C341.301 81.65 341.011 82.2 341.011 82.88C341.011 83.42 341.181 83.87 341.521 84.23C341.881 84.57 342.321 84.85 342.841 85.07C343.381 85.27 344.121 85.5 345.061 85.76C346.241 86.08 347.201 86.4 347.941 86.72C348.681 87.02 349.311 87.48 349.831 88.1C350.371 88.72 350.651 89.53 350.671 90.53C350.671 91.43 350.421 92.24 349.921 92.96C349.421 93.68 348.711 94.25 347.791 94.67C346.891 95.07 345.851 95.27 344.671 95.27ZM355.935 75.89C355.415 75.89 354.975 75.71 354.615 75.35C354.255 74.99 354.075 74.55 354.075 74.03C354.075 73.51 354.255 73.07 354.615 72.71C354.975 72.35 355.415 72.17 355.935 72.17C356.435 72.17 356.855 72.35 357.195 72.71C357.555 73.07 357.735 73.51 357.735 74.03C357.735 74.55 357.555 74.99 357.195 75.35C356.855 75.71 356.435 75.89 355.935 75.89ZM357.255 78.56V95H354.525V78.56H357.255ZM365.238 80.81V90.5C365.238 91.3 365.408 91.87 365.748 92.21C366.088 92.53 366.678 92.69 367.518 92.69H369.528V95H367.068C365.548 95 364.408 94.65 363.648 93.95C362.888 93.25 362.508 92.1 362.508 90.5V80.81H360.378V78.56H362.508V74.42H365.238V78.56H369.528V80.81H365.238ZM387.415 78.56V95H384.685V92.57C384.165 93.41 383.435 94.07 382.495 94.55C381.575 95.01 380.555 95.24 379.435 95.24C378.155 95.24 377.005 94.98 375.985 94.46C374.965 93.92 374.155 93.12 373.555 92.06C372.975 91 372.685 89.71 372.685 88.19V78.56H375.385V87.83C375.385 89.45 375.795 90.7 376.615 91.58C377.435 92.44 378.555 92.87 379.975 92.87C381.435 92.87 382.585 92.42 383.425 91.52C384.265 90.62 384.685 89.31 384.685 87.59V78.56H387.415ZM391.005 86.72C391.005 85.04 391.345 83.57 392.025 82.31C392.705 81.03 393.635 80.04 394.815 79.34C396.015 78.64 397.345 78.29 398.805 78.29C400.245 78.29 401.495 78.6 402.555 79.22C403.615 79.84 404.405 80.62 404.925 81.56V78.56H407.685V95H404.925V91.94C404.385 92.9 403.575 93.7 402.495 94.34C401.435 94.96 400.195 95.27 398.775 95.27C397.315 95.27 395.995 94.91 394.815 94.19C393.635 93.47 392.705 92.46 392.025 91.16C391.345 89.86 391.005 88.38 391.005 86.72ZM404.925 86.75C404.925 85.51 404.675 84.43 404.175 83.51C403.675 82.59 402.995 81.89 402.135 81.41C401.295 80.91 400.365 80.66 399.345 80.66C398.325 80.66 397.395 80.9 396.555 81.38C395.715 81.86 395.045 82.56 394.545 83.48C394.045 84.4 393.795 85.48 393.795 86.72C393.795 87.98 394.045 89.08 394.545 90.02C395.045 90.94 395.715 91.65 396.555 92.15C397.395 92.63 398.325 92.87 399.345 92.87C400.365 92.87 401.295 92.63 402.135 92.15C402.995 91.65 403.675 90.94 404.175 90.02C404.675 89.08 404.925 87.99 404.925 86.75ZM415.628 80.81V90.5C415.628 91.3 415.798 91.87 416.138 92.21C416.478 92.53 417.068 92.69 417.908 92.69H419.918V95H417.458C415.938 95 414.798 94.65 414.038 93.95C413.278 93.25 412.898 92.1 412.898 90.5V80.81H410.768V78.56H412.898V74.42H415.628V78.56H419.918V80.81H415.628ZM424.636 75.89C424.116 75.89 423.676 75.71 423.316 75.35C422.956 74.99 422.776 74.55 422.776 74.03C422.776 73.51 422.956 73.07 423.316 72.71C423.676 72.35 424.116 72.17 424.636 72.17C425.136 72.17 425.556 72.35 425.896 72.71C426.256 73.07 426.436 73.51 426.436 74.03C426.436 74.55 426.256 74.99 425.896 75.35C425.556 75.71 425.136 75.89 424.636 75.89ZM425.956 78.56V95H423.226V78.56H425.956ZM437.779 95.27C436.239 95.27 434.839 94.92 433.579 94.22C432.339 93.52 431.359 92.53 430.639 91.25C429.939 89.95 429.589 88.45 429.589 86.75C429.589 85.07 429.949 83.59 430.669 82.31C431.409 81.01 432.409 80.02 433.669 79.34C434.929 78.64 436.339 78.29 437.899 78.29C439.459 78.29 440.869 78.64 442.129 79.34C443.389 80.02 444.379 81 445.099 82.28C445.839 83.56 446.209 85.05 446.209 86.75C446.209 88.45 445.829 89.95 445.069 91.25C444.329 92.53 443.319 93.52 442.039 94.22C440.759 94.92 439.339 95.27 437.779 95.27ZM437.779 92.87C438.759 92.87 439.679 92.64 440.539 92.18C441.399 91.72 442.089 91.03 442.609 90.11C443.149 89.19 443.419 88.07 443.419 86.75C443.419 85.43 443.159 84.31 442.639 83.39C442.119 82.47 441.439 81.79 440.599 81.35C439.759 80.89 438.849 80.66 437.869 80.66C436.869 80.66 435.949 80.89 435.109 81.35C434.289 81.79 433.629 82.47 433.129 83.39C432.629 84.31 432.379 85.43 432.379 86.75C432.379 88.09 432.619 89.22 433.099 90.14C433.599 91.06 434.259 91.75 435.079 92.21C435.899 92.65 436.799 92.87 437.779 92.87ZM457.808 78.26C459.808 78.26 461.428 78.87 462.668 80.09C463.908 81.29 464.528 83.03 464.528 85.31V95H461.828V85.7C461.828 84.06 461.418 82.81 460.598 81.95C459.778 81.07 458.658 80.63 457.238 80.63C455.798 80.63 454.648 81.08 453.788 81.98C452.948 82.88 452.528 84.19 452.528 85.91V95H449.798V78.56H452.528V80.9C453.068 80.06 453.798 79.41 454.718 78.95C455.658 78.49 456.688 78.26 457.808 78.26ZM485.146 78.26C486.386 78.26 487.506 78.53 488.506 79.07C489.506 79.59 490.286 80.38 490.846 81.44C491.426 82.5 491.716 83.79 491.716 85.31V95H489.016V85.7C489.016 84.06 488.606 82.81 487.786 81.95C486.966 81.07 485.846 80.63 484.426 80.63C482.986 80.63 481.836 81.08 480.976 81.98C480.136 82.88 479.716 84.19 479.716 85.91V95H476.986V72.8H479.716V80.9C480.256 80.06 480.996 79.41 481.936 78.95C482.896 78.49 483.966 78.26 485.146 78.26ZM495.155 86.72C495.155 85.04 495.495 83.57 496.175 82.31C496.855 81.03 497.785 80.04 498.965 79.34C500.165 78.64 501.495 78.29 502.955 78.29C504.395 78.29 505.645 78.6 506.705 79.22C507.765 79.84 508.555 80.62 509.075 81.56V78.56H511.835V95H509.075V91.94C508.535 92.9 507.725 93.7 506.645 94.34C505.585 94.96 504.345 95.27 502.925 95.27C501.465 95.27 500.145 94.91 498.965 94.19C497.785 93.47 496.855 92.46 496.175 91.16C495.495 89.86 495.155 88.38 495.155 86.72ZM509.075 86.75C509.075 85.51 508.825 84.43 508.325 83.51C507.825 82.59 507.145 81.89 506.285 81.41C505.445 80.91 504.515 80.66 503.495 80.66C502.475 80.66 501.545 80.9 500.705 81.38C499.865 81.86 499.195 82.56 498.695 83.48C498.195 84.4 497.945 85.48 497.945 86.72C497.945 87.98 498.195 89.08 498.695 90.02C499.195 90.94 499.865 91.65 500.705 92.15C501.545 92.63 502.475 92.87 503.495 92.87C504.515 92.87 505.445 92.63 506.285 92.15C507.145 91.65 507.825 90.94 508.325 90.02C508.825 89.08 509.075 87.99 509.075 86.75ZM522.269 95.27C521.009 95.27 519.879 95.06 518.879 94.64C517.879 94.2 517.089 93.6 516.509 92.84C515.929 92.06 515.609 91.17 515.549 90.17H518.369C518.449 90.99 518.829 91.66 519.509 92.18C520.209 92.7 521.119 92.96 522.239 92.96C523.279 92.96 524.099 92.73 524.699 92.27C525.299 91.81 525.599 91.23 525.599 90.53C525.599 89.81 525.279 89.28 524.639 88.94C523.999 88.58 523.009 88.23 521.669 87.89C520.449 87.57 519.449 87.25 518.669 86.93C517.909 86.59 517.249 86.1 516.689 85.46C516.149 84.8 515.879 83.94 515.879 82.88C515.879 82.04 516.129 81.27 516.629 80.57C517.129 79.87 517.839 79.32 518.759 78.92C519.679 78.5 520.729 78.29 521.909 78.29C523.729 78.29 525.199 78.75 526.319 79.67C527.439 80.59 528.039 81.85 528.119 83.45H525.389C525.329 82.59 524.979 81.9 524.339 81.38C523.719 80.86 522.879 80.6 521.819 80.6C520.839 80.6 520.059 80.81 519.479 81.23C518.899 81.65 518.609 82.2 518.609 82.88C518.609 83.42 518.779 83.87 519.119 84.23C519.479 84.57 519.919 84.85 520.439 85.07C520.979 85.27 521.719 85.5 522.659 85.76C523.839 86.08 524.799 86.4 525.539 86.72C526.279 87.02 526.909 87.48 527.429 88.1C527.969 88.72 528.249 89.53 528.269 90.53C528.269 91.43 528.019 92.24 527.519 92.96C527.019 93.68 526.309 94.25 525.389 94.67C524.489 95.07 523.449 95.27 522.269 95.27ZM542.851 81.62C543.411 80.64 544.231 79.84 545.311 79.22C546.391 78.6 547.621 78.29 549.001 78.29C550.481 78.29 551.811 78.64 552.991 79.34C554.171 80.04 555.101 81.03 555.781 82.31C556.461 83.57 556.801 85.04 556.801 86.72C556.801 88.38 556.461 89.86 555.781 91.16C555.101 92.46 554.161 93.47 552.961 94.19C551.781 94.91 550.461 95.27 549.001 95.27C547.581 95.27 546.331 94.96 545.251 94.34C544.191 93.72 543.391 92.93 542.851 91.97V95H540.121V72.8H542.851V81.62ZM554.011 86.72C554.011 85.48 553.761 84.4 553.261 83.48C552.761 82.56 552.081 81.86 551.221 81.38C550.381 80.9 549.451 80.66 548.431 80.66C547.431 80.66 546.501 80.91 545.641 81.41C544.801 81.89 544.121 82.6 543.601 83.54C543.101 84.46 542.851 85.53 542.851 86.75C542.851 87.99 543.101 89.08 543.601 90.02C544.121 90.94 544.801 91.65 545.641 92.15C546.501 92.63 547.431 92.87 548.431 92.87C549.451 92.87 550.381 92.63 551.221 92.15C552.081 91.65 552.761 90.94 553.261 90.02C553.761 89.08 554.011 87.98 554.011 86.72ZM575.394 86.15C575.394 86.67 575.364 87.22 575.304 87.8H562.164C562.264 89.42 562.814 90.69 563.814 91.61C564.834 92.51 566.064 92.96 567.504 92.96C568.684 92.96 569.664 92.69 570.444 92.15C571.244 91.59 571.804 90.85 572.124 89.93H575.064C574.624 91.51 573.744 92.8 572.424 93.8C571.104 94.78 569.464 95.27 567.504 95.27C565.944 95.27 564.544 94.92 563.304 94.22C562.084 93.52 561.124 92.53 560.424 91.25C559.724 89.95 559.374 88.45 559.374 86.75C559.374 85.05 559.714 83.56 560.394 82.28C561.074 81 562.024 80.02 563.244 79.34C564.484 78.64 565.904 78.29 567.504 78.29C569.064 78.29 570.444 78.63 571.644 79.31C572.844 79.99 573.764 80.93 574.404 82.13C575.064 83.31 575.394 84.65 575.394 86.15ZM572.574 85.58C572.574 84.54 572.344 83.65 571.884 82.91C571.424 82.15 570.794 81.58 569.994 81.2C569.214 80.8 568.344 80.6 567.384 80.6C566.004 80.6 564.824 81.04 563.844 81.92C562.884 82.8 562.334 84.02 562.194 85.58H572.574ZM593.998 86.15C593.998 86.67 593.968 87.22 593.908 87.8H580.768C580.868 89.42 581.418 90.69 582.418 91.61C583.438 92.51 584.668 92.96 586.108 92.96C587.288 92.96 588.268 92.69 589.048 92.15C589.848 91.59 590.408 90.85 590.728 89.93H593.668C593.228 91.51 592.348 92.8 591.028 93.8C589.708 94.78 588.068 95.27 586.108 95.27C584.548 95.27 583.148 94.92 581.908 94.22C580.688 93.52 579.728 92.53 579.028 91.25C578.328 89.95 577.978 88.45 577.978 86.75C577.978 85.05 578.318 83.56 578.998 82.28C579.678 81 580.628 80.02 581.848 79.34C583.088 78.64 584.508 78.29 586.108 78.29C587.668 78.29 589.048 78.63 590.248 79.31C591.448 79.99 592.368 80.93 593.008 82.13C593.668 83.31 593.998 84.65 593.998 86.15ZM591.178 85.58C591.178 84.54 590.948 83.65 590.488 82.91C590.028 82.15 589.398 81.58 588.598 81.2C587.818 80.8 586.948 80.6 585.988 80.6C584.608 80.6 583.428 81.04 582.448 81.92C581.488 82.8 580.938 84.02 580.798 85.58H591.178ZM605.611 78.26C607.611 78.26 609.231 78.87 610.471 80.09C611.711 81.29 612.331 83.03 612.331 85.31V95H609.631V85.7C609.631 84.06 609.221 82.81 608.401 81.95C607.581 81.07 606.461 80.63 605.041 80.63C603.601 80.63 602.451 81.08 601.591 81.98C600.751 82.88 600.331 84.19 600.331 85.91V95H597.601V78.56H600.331V80.9C600.871 80.06 601.601 79.41 602.521 78.95C603.461 78.49 604.491 78.26 605.611 78.26ZM25.13 140.27C23.87 140.27 22.74 140.06 21.74 139.64C20.74 139.2 19.95 138.6 19.37 137.84C18.79 137.06 18.47 136.17 18.41 135.17H21.23C21.31 135.99 21.69 136.66 22.37 137.18C23.07 137.7 23.98 137.96 25.1 137.96C26.14 137.96 26.96 137.73 27.56 137.27C28.16 136.81 28.46 136.23 28.46 135.53C28.46 134.81 28.14 134.28 27.5 133.94C26.86 133.58 25.87 133.23 24.53 132.89C23.31 132.57 22.31 132.25 21.53 131.93C20.77 131.59 20.11 131.1 19.55 130.46C19.01 129.8 18.74 128.94 18.74 127.88C18.74 127.04 18.99 126.27 19.49 125.57C19.99 124.87 20.7 124.32 21.62 123.92C22.54 123.5 23.59 123.29 24.77 123.29C26.59 123.29 28.06 123.75 29.18 124.67C30.3 125.59 30.9 126.85 30.98 128.45H28.25C28.19 127.59 27.84 126.9 27.2 126.38C26.58 125.86 25.74 125.6 24.68 125.6C23.7 125.6 22.92 125.81 22.34 126.23C21.76 126.65 21.47 127.2 21.47 127.88C21.47 128.42 21.64 128.87 21.98 129.23C22.34 129.57 22.78 129.85 23.3 130.07C23.84 130.27 24.58 130.5 25.52 130.76C26.7 131.08 27.66 131.4 28.4 131.72C29.14 132.02 29.77 132.48 30.29 133.1C30.83 133.72 31.11 134.53 31.13 135.53C31.13 136.43 30.88 137.24 30.38 137.96C29.88 138.68 29.17 139.25 28.25 139.67C27.35 140.07 26.31 140.27 25.13 140.27ZM42.1538 140.27C40.6138 140.27 39.2138 139.92 37.9538 139.22C36.7138 138.52 35.7338 137.53 35.0138 136.25C34.3138 134.95 33.9638 133.45 33.9638 131.75C33.9638 130.07 34.3238 128.59 35.0438 127.31C35.7838 126.01 36.7838 125.02 38.0438 124.34C39.3038 123.64 40.7138 123.29 42.2738 123.29C43.8338 123.29 45.2438 123.64 46.5038 124.34C47.7638 125.02 48.7538 126 49.4738 127.28C50.2138 128.56 50.5838 130.05 50.5838 131.75C50.5838 133.45 50.2038 134.95 49.4438 136.25C48.7038 137.53 47.6938 138.52 46.4138 139.22C45.1338 139.92 43.7138 140.27 42.1538 140.27ZM42.1538 137.87C43.1338 137.87 44.0538 137.64 44.9138 137.18C45.7738 136.72 46.4638 136.03 46.9838 135.11C47.5238 134.19 47.7938 133.07 47.7938 131.75C47.7938 130.43 47.5338 129.31 47.0138 128.39C46.4938 127.47 45.8138 126.79 44.9738 126.35C44.1338 125.89 43.2238 125.66 42.2438 125.66C41.2438 125.66 40.3238 125.89 39.4838 126.35C38.6638 126.79 38.0038 127.47 37.5038 128.39C37.0038 129.31 36.7538 130.43 36.7538 131.75C36.7538 133.09 36.9938 134.22 37.4738 135.14C37.9738 136.06 38.6338 136.75 39.4538 137.21C40.2738 137.65 41.1738 137.87 42.1538 137.87ZM56.9033 117.8V140H54.1733V117.8H56.9033ZM67.6761 137.48L72.7761 123.56H75.6861L69.2361 140H66.0561L59.6061 123.56H62.5461L67.6761 137.48ZM93.3725 131.15C93.3725 131.67 93.3425 132.22 93.2825 132.8H80.1425C80.2425 134.42 80.7925 135.69 81.7925 136.61C82.8125 137.51 84.0425 137.96 85.4825 137.96C86.6625 137.96 87.6425 137.69 88.4225 137.15C89.2225 136.59 89.7825 135.85 90.1025 134.93H93.0425C92.6025 136.51 91.7225 137.8 90.4025 138.8C89.0825 139.78 87.4425 140.27 85.4825 140.27C83.9225 140.27 82.5225 139.92 81.2825 139.22C80.0625 138.52 79.1025 137.53 78.4025 136.25C77.7025 134.95 77.3525 133.45 77.3525 131.75C77.3525 130.05 77.6925 128.56 78.3725 127.28C79.0525 126 80.0025 125.02 81.2225 124.34C82.4625 123.64 83.8825 123.29 85.4825 123.29C87.0425 123.29 88.4225 123.63 89.6225 124.31C90.8225 124.99 91.7425 125.93 92.3825 127.13C93.0425 128.31 93.3725 129.65 93.3725 131.15ZM90.5525 130.58C90.5525 129.54 90.3225 128.65 89.8625 127.91C89.4025 127.15 88.7725 126.58 87.9725 126.2C87.1925 125.8 86.3225 125.6 85.3625 125.6C83.9825 125.6 82.8025 126.04 81.8225 126.92C80.8625 127.8 80.3125 129.02 80.1725 130.58H90.5525ZM95.956 131.72C95.956 130.04 96.296 128.57 96.976 127.31C97.656 126.03 98.586 125.04 99.766 124.34C100.966 123.64 102.306 123.29 103.786 123.29C105.066 123.29 106.256 123.59 107.356 124.19C108.456 124.77 109.296 125.54 109.876 126.5V117.8H112.636V140H109.876V136.91C109.336 137.89 108.536 138.7 107.476 139.34C106.416 139.96 105.176 140.27 103.756 140.27C102.296 140.27 100.966 139.91 99.766 139.19C98.586 138.47 97.656 137.46 96.976 136.16C96.296 134.86 95.956 133.38 95.956 131.72ZM109.876 131.75C109.876 130.51 109.626 129.43 109.126 128.51C108.626 127.59 107.946 126.89 107.086 126.41C106.246 125.91 105.316 125.66 104.296 125.66C103.276 125.66 102.346 125.9 101.506 126.38C100.666 126.86 99.996 127.56 99.496 128.48C98.996 129.4 98.746 130.48 98.746 131.72C98.746 132.98 98.996 134.08 99.496 135.02C99.996 135.94 100.666 136.65 101.506 137.15C102.346 137.63 103.276 137.87 104.296 137.87C105.316 137.87 106.246 137.63 107.086 137.15C107.946 136.65 108.626 135.94 109.126 135.02C109.626 134.08 109.876 132.99 109.876 131.75ZM147.148 123.56L142.018 140H139.198L135.238 126.95L131.278 140H128.458L123.298 123.56H126.088L129.868 137.36L133.948 123.56H136.738L140.728 137.39L144.448 123.56H147.148ZM151.267 120.89C150.747 120.89 150.307 120.71 149.947 120.35C149.587 119.99 149.407 119.55 149.407 119.03C149.407 118.51 149.587 118.07 149.947 117.71C150.307 117.35 150.747 117.17 151.267 117.17C151.767 117.17 152.187 117.35 152.527 117.71C152.887 118.07 153.067 118.51 153.067 119.03C153.067 119.55 152.887 119.99 152.527 120.35C152.187 120.71 151.767 120.89 151.267 120.89ZM152.587 123.56V140H149.857V123.56H152.587ZM159.97 117.8V140H157.24V117.8H159.97ZM167.353 117.8V140H164.623V117.8H167.353ZM178.983 131.72C178.983 130.04 179.323 128.57 180.003 127.31C180.683 126.03 181.613 125.04 182.793 124.34C183.993 123.64 185.333 123.29 186.813 123.29C188.093 123.29 189.283 123.59 190.383 124.19C191.483 124.77 192.323 125.54 192.903 126.5V117.8H195.663V140H192.903V136.91C192.363 137.89 191.563 138.7 190.503 139.34C189.443 139.96 188.203 140.27 186.783 140.27C185.323 140.27 183.993 139.91 182.793 139.19C181.613 138.47 180.683 137.46 180.003 136.16C179.323 134.86 178.983 133.38 178.983 131.72ZM192.903 131.75C192.903 130.51 192.653 129.43 192.153 128.51C191.653 127.59 190.973 126.89 190.113 126.41C189.273 125.91 188.343 125.66 187.323 125.66C186.303 125.66 185.373 125.9 184.533 126.38C183.693 126.86 183.023 127.56 182.523 128.48C182.023 129.4 181.773 130.48 181.773 131.72C181.773 132.98 182.023 134.08 182.523 135.02C183.023 135.94 183.693 136.65 184.533 137.15C185.373 137.63 186.303 137.87 187.323 137.87C188.343 137.87 189.273 137.63 190.113 137.15C190.973 136.65 191.653 135.94 192.153 135.02C192.653 134.08 192.903 132.99 192.903 131.75ZM201.687 120.89C201.167 120.89 200.727 120.71 200.367 120.35C200.007 119.99 199.827 119.55 199.827 119.03C199.827 118.51 200.007 118.07 200.367 117.71C200.727 117.35 201.167 117.17 201.687 117.17C202.187 117.17 202.607 117.35 202.947 117.71C203.307 118.07 203.487 118.51 203.487 119.03C203.487 119.55 203.307 119.99 202.947 120.35C202.607 120.71 202.187 120.89 201.687 120.89ZM203.007 123.56V140H200.277V123.56H203.007ZM213.48 140.27C212.22 140.27 211.09 140.06 210.09 139.64C209.09 139.2 208.3 138.6 207.72 137.84C207.14 137.06 206.82 136.17 206.76 135.17H209.58C209.66 135.99 210.04 136.66 210.72 137.18C211.42 137.7 212.33 137.96 213.45 137.96C214.49 137.96 215.31 137.73 215.91 137.27C216.51 136.81 216.81 136.23 216.81 135.53C216.81 134.81 216.49 134.28 215.85 133.94C215.21 133.58 214.22 133.23 212.88 132.89C211.66 132.57 210.66 132.25 209.88 131.93C209.12 131.59 208.46 131.1 207.9 130.46C207.36 129.8 207.09 128.94 207.09 127.88C207.09 127.04 207.34 126.27 207.84 125.57C208.34 124.87 209.05 124.32 209.97 123.92C210.89 123.5 211.94 123.29 213.12 123.29C214.94 123.29 216.41 123.75 217.53 124.67C218.65 125.59 219.25 126.85 219.33 128.45H216.6C216.54 127.59 216.19 126.9 215.55 126.38C214.93 125.86 214.09 125.6 213.03 125.6C212.05 125.6 211.27 125.81 210.69 126.23C210.11 126.65 209.82 127.2 209.82 127.88C209.82 128.42 209.99 128.87 210.33 129.23C210.69 129.57 211.13 129.85 211.65 130.07C212.19 130.27 212.93 130.5 213.87 130.76C215.05 131.08 216.01 131.4 216.75 131.72C217.49 132.02 218.12 132.48 218.64 133.1C219.18 133.72 219.46 134.53 219.48 135.53C219.48 136.43 219.23 137.24 218.73 137.96C218.23 138.68 217.52 139.25 216.6 139.67C215.7 140.07 214.66 140.27 213.48 140.27ZM222.313 131.72C222.313 130.04 222.653 128.57 223.333 127.31C224.013 126.03 224.943 125.04 226.123 124.34C227.323 123.64 228.653 123.29 230.113 123.29C231.553 123.29 232.803 123.6 233.863 124.22C234.923 124.84 235.713 125.62 236.233 126.56V123.56H238.993V140H236.233V136.94C235.693 137.9 234.883 138.7 233.803 139.34C232.743 139.96 231.503 140.27 230.083 140.27C228.623 140.27 227.303 139.91 226.123 139.19C224.943 138.47 224.013 137.46 223.333 136.16C222.653 134.86 222.313 133.38 222.313 131.72ZM236.233 131.75C236.233 130.51 235.983 129.43 235.483 128.51C234.983 127.59 234.303 126.89 233.443 126.41C232.603 125.91 231.673 125.66 230.653 125.66C229.633 125.66 228.703 125.9 227.863 126.38C227.023 126.86 226.353 127.56 225.853 128.48C225.353 129.4 225.103 130.48 225.103 131.72C225.103 132.98 225.353 134.08 225.853 135.02C226.353 135.94 227.023 136.65 227.863 137.15C228.703 137.63 229.633 137.87 230.653 137.87C231.673 137.87 232.603 137.63 233.443 137.15C234.303 136.65 234.983 135.94 235.483 135.02C235.983 134.08 236.233 132.99 236.233 131.75ZM246.337 126.62C246.897 125.64 247.717 124.84 248.797 124.22C249.877 123.6 251.107 123.29 252.487 123.29C253.967 123.29 255.297 123.64 256.477 124.34C257.657 125.04 258.587 126.03 259.267 127.31C259.947 128.57 260.287 130.04 260.287 131.72C260.287 133.38 259.947 134.86 259.267 136.16C258.587 137.46 257.647 138.47 256.447 139.19C255.267 139.91 253.947 140.27 252.487 140.27C251.067 140.27 249.817 139.96 248.737 139.34C247.677 138.72 246.877 137.93 246.337 136.97V140H243.607V117.8H246.337V126.62ZM257.497 131.72C257.497 130.48 257.247 129.4 256.747 128.48C256.247 127.56 255.567 126.86 254.707 126.38C253.867 125.9 252.937 125.66 251.917 125.66C250.917 125.66 249.987 125.91 249.127 126.41C248.287 126.89 247.607 127.6 247.087 128.54C246.587 129.46 246.337 130.53 246.337 131.75C246.337 132.99 246.587 134.08 247.087 135.02C247.607 135.94 248.287 136.65 249.127 137.15C249.987 137.63 250.917 137.87 251.917 137.87C252.937 137.87 253.867 137.63 254.707 137.15C255.567 136.65 256.247 135.94 256.747 135.02C257.247 134.08 257.497 132.98 257.497 131.72ZM266.61 117.8V140H263.88V117.8H266.61ZM286.263 131.15C286.263 131.67 286.233 132.22 286.173 132.8H273.033C273.133 134.42 273.683 135.69 274.683 136.61C275.703 137.51 276.933 137.96 278.373 137.96C279.553 137.96 280.533 137.69 281.313 137.15C282.113 136.59 282.673 135.85 282.993 134.93H285.933C285.493 136.51 284.613 137.8 283.293 138.8C281.973 139.78 280.333 140.27 278.373 140.27C276.813 140.27 275.413 139.92 274.173 139.22C272.953 138.52 271.993 137.53 271.293 136.25C270.593 134.95 270.243 133.45 270.243 131.75C270.243 130.05 270.583 128.56 271.263 127.28C271.943 126 272.893 125.02 274.113 124.34C275.353 123.64 276.773 123.29 278.373 123.29C279.933 123.29 281.313 123.63 282.513 124.31C283.713 124.99 284.633 125.93 285.273 127.13C285.933 128.31 286.263 129.65 286.263 131.15ZM283.443 130.58C283.443 129.54 283.213 128.65 282.753 127.91C282.293 127.15 281.663 126.58 280.863 126.2C280.083 125.8 279.213 125.6 278.253 125.6C276.873 125.6 275.693 126.04 274.713 126.92C273.753 127.8 273.203 129.02 273.063 130.58H283.443ZM312.025 123.56L302.125 147.74H299.305L302.545 139.82L295.915 123.56H298.945L304.105 136.88L309.205 123.56H312.025ZM321.939 140.27C320.399 140.27 318.999 139.92 317.739 139.22C316.499 138.52 315.519 137.53 314.799 136.25C314.099 134.95 313.749 133.45 313.749 131.75C313.749 130.07 314.109 128.59 314.829 127.31C315.569 126.01 316.569 125.02 317.829 124.34C319.089 123.64 320.499 123.29 322.059 123.29C323.619 123.29 325.029 123.64 326.289 124.34C327.549 125.02 328.539 126 329.259 127.28C329.999 128.56 330.369 130.05 330.369 131.75C330.369 133.45 329.989 134.95 329.229 136.25C328.489 137.53 327.479 138.52 326.199 139.22C324.919 139.92 323.499 140.27 321.939 140.27ZM321.939 137.87C322.919 137.87 323.839 137.64 324.699 137.18C325.559 136.72 326.249 136.03 326.769 135.11C327.309 134.19 327.579 133.07 327.579 131.75C327.579 130.43 327.319 129.31 326.799 128.39C326.279 127.47 325.599 126.79 324.759 126.35C323.919 125.89 323.009 125.66 322.029 125.66C321.029 125.66 320.109 125.89 319.269 126.35C318.449 126.79 317.789 127.47 317.289 128.39C316.789 129.31 316.539 130.43 316.539 131.75C316.539 133.09 316.779 134.22 317.259 135.14C317.759 136.06 318.419 136.75 319.239 137.21C320.059 137.65 320.959 137.87 321.939 137.87ZM348.538 123.56V140H345.808V137.57C345.288 138.41 344.558 139.07 343.618 139.55C342.698 140.01 341.678 140.24 340.558 140.24C339.278 140.24 338.128 139.98 337.108 139.46C336.088 138.92 335.278 138.12 334.678 137.06C334.098 136 333.808 134.71 333.808 133.19V123.56H336.508V132.83C336.508 134.45 336.918 135.7 337.738 136.58C338.558 137.44 339.678 137.87 341.098 137.87C342.558 137.87 343.708 137.42 344.548 136.52C345.388 135.62 345.808 134.31 345.808 132.59V123.56H348.538ZM355.878 126.23C356.358 125.29 357.038 124.56 357.918 124.04C358.818 123.52 359.908 123.26 361.188 123.26V126.08H360.468C357.408 126.08 355.878 127.74 355.878 131.06V140H353.148V123.56H355.878V126.23ZM378.157 140.27C376.897 140.27 375.767 140.06 374.767 139.64C373.767 139.2 372.977 138.6 372.397 137.84C371.817 137.06 371.497 136.17 371.437 135.17H374.257C374.337 135.99 374.717 136.66 375.397 137.18C376.097 137.7 377.007 137.96 378.127 137.96C379.167 137.96 379.987 137.73 380.587 137.27C381.187 136.81 381.487 136.23 381.487 135.53C381.487 134.81 381.167 134.28 380.527 133.94C379.887 133.58 378.897 133.23 377.557 132.89C376.337 132.57 375.337 132.25 374.557 131.93C373.797 131.59 373.137 131.1 372.577 130.46C372.037 129.8 371.767 128.94 371.767 127.88C371.767 127.04 372.017 126.27 372.517 125.57C373.017 124.87 373.727 124.32 374.647 123.92C375.567 123.5 376.617 123.29 377.797 123.29C379.617 123.29 381.087 123.75 382.207 124.67C383.327 125.59 383.927 126.85 384.007 128.45H381.277C381.217 127.59 380.867 126.9 380.227 126.38C379.607 125.86 378.767 125.6 377.707 125.6C376.727 125.6 375.947 125.81 375.367 126.23C374.787 126.65 374.497 127.2 374.497 127.88C374.497 128.42 374.667 128.87 375.007 129.23C375.367 129.57 375.807 129.85 376.327 130.07C376.867 130.27 377.607 130.5 378.547 130.76C379.727 131.08 380.687 131.4 381.427 131.72C382.167 132.02 382.797 132.48 383.317 133.1C383.857 133.72 384.137 134.53 384.157 135.53C384.157 136.43 383.907 137.24 383.407 137.96C382.907 138.68 382.197 139.25 381.277 139.67C380.377 140.07 379.337 140.27 378.157 140.27ZM389.421 120.89C388.901 120.89 388.461 120.71 388.101 120.35C387.741 119.99 387.561 119.55 387.561 119.03C387.561 118.51 387.741 118.07 388.101 117.71C388.461 117.35 388.901 117.17 389.421 117.17C389.921 117.17 390.341 117.35 390.681 117.71C391.041 118.07 391.221 118.51 391.221 119.03C391.221 119.55 391.041 119.99 390.681 120.35C390.341 120.71 389.921 120.89 389.421 120.89ZM390.741 123.56V140H388.011V123.56H390.741ZM402.174 123.29C403.594 123.29 404.834 123.6 405.894 124.22C406.974 124.84 407.774 125.62 408.294 126.56V123.56H411.054V140.36C411.054 141.86 410.734 143.19 410.094 144.35C409.454 145.53 408.534 146.45 407.334 147.11C406.154 147.77 404.774 148.1 403.194 148.1C401.034 148.1 399.234 147.59 397.794 146.57C396.354 145.55 395.504 144.16 395.244 142.4H397.944C398.244 143.4 398.864 144.2 399.804 144.8C400.744 145.42 401.874 145.73 403.194 145.73C404.694 145.73 405.914 145.26 406.854 144.32C407.814 143.38 408.294 142.06 408.294 140.36V136.91C407.754 137.87 406.954 138.67 405.894 139.31C404.834 139.95 403.594 140.27 402.174 140.27C400.714 140.27 399.384 139.91 398.184 139.19C397.004 138.47 396.074 137.46 395.394 136.16C394.714 134.86 394.374 133.38 394.374 131.72C394.374 130.04 394.714 128.57 395.394 127.31C396.074 126.03 397.004 125.04 398.184 124.34C399.384 123.64 400.714 123.29 402.174 123.29ZM408.294 131.75C408.294 130.51 408.044 129.43 407.544 128.51C407.044 127.59 406.364 126.89 405.504 126.41C404.664 125.91 403.734 125.66 402.714 125.66C401.694 125.66 400.764 125.9 399.924 126.38C399.084 126.86 398.414 127.56 397.914 128.48C397.414 129.4 397.164 130.48 397.164 131.72C397.164 132.98 397.414 134.08 397.914 135.02C398.414 135.94 399.084 136.65 399.924 137.15C400.764 137.63 401.694 137.87 402.714 137.87C403.734 137.87 404.664 137.63 405.504 137.15C406.364 136.65 407.044 135.94 407.544 135.02C408.044 134.08 408.294 132.99 408.294 131.75ZM423.677 123.26C425.677 123.26 427.297 123.87 428.537 125.09C429.777 126.29 430.397 128.03 430.397 130.31V140H427.697V130.7C427.697 129.06 427.287 127.81 426.467 126.95C425.647 126.07 424.527 125.63 423.107 125.63C421.667 125.63 420.517 126.08 419.657 126.98C418.817 127.88 418.397 129.19 418.397 130.91V140H415.667V123.56H418.397V125.9C418.937 125.06 419.667 124.41 420.587 123.95C421.527 123.49 422.557 123.26 423.677 123.26ZM433.837 131.72C433.837 130.04 434.177 128.57 434.857 127.31C435.537 126.03 436.467 125.04 437.647 124.34C438.847 123.64 440.177 123.29 441.637 123.29C443.077 123.29 444.327 123.6 445.387 124.22C446.447 124.84 447.237 125.62 447.757 126.56V123.56H450.517V140H447.757V136.94C447.217 137.9 446.407 138.7 445.327 139.34C444.267 139.96 443.027 140.27 441.607 140.27C440.147 140.27 438.827 139.91 437.647 139.19C436.467 138.47 435.537 137.46 434.857 136.16C434.177 134.86 433.837 133.38 433.837 131.72ZM447.757 131.75C447.757 130.51 447.507 129.43 447.007 128.51C446.507 127.59 445.827 126.89 444.967 126.41C444.127 125.91 443.197 125.66 442.177 125.66C441.157 125.66 440.227 125.9 439.387 126.38C438.547 126.86 437.877 127.56 437.377 128.48C436.877 129.4 436.627 130.48 436.627 131.72C436.627 132.98 436.877 134.08 437.377 135.02C437.877 135.94 438.547 136.65 439.387 137.15C440.227 137.63 441.157 137.87 442.177 137.87C443.197 137.87 444.127 137.63 444.967 137.15C445.827 136.65 446.507 135.94 447.007 135.02C447.507 134.08 447.757 132.99 447.757 131.75ZM457.86 117.8V140H455.13V117.8H457.86ZM469.491 131.72C469.491 130.04 469.831 128.57 470.511 127.31C471.191 126.03 472.121 125.04 473.301 124.34C474.501 123.64 475.831 123.29 477.291 123.29C478.731 123.29 479.981 123.6 481.041 124.22C482.101 124.84 482.891 125.62 483.411 126.56V123.56H486.171V140H483.411V136.94C482.871 137.9 482.061 138.7 480.981 139.34C479.921 139.96 478.681 140.27 477.261 140.27C475.801 140.27 474.481 139.91 473.301 139.19C472.121 138.47 471.191 137.46 470.511 136.16C469.831 134.86 469.491 133.38 469.491 131.72ZM483.411 131.75C483.411 130.51 483.161 129.43 482.661 128.51C482.161 127.59 481.481 126.89 480.621 126.41C479.781 125.91 478.851 125.66 477.831 125.66C476.811 125.66 475.881 125.9 475.041 126.38C474.201 126.86 473.531 127.56 473.031 128.48C472.531 129.4 472.281 130.48 472.281 131.72C472.281 132.98 472.531 134.08 473.031 135.02C473.531 135.94 474.201 136.65 475.041 137.15C475.881 137.63 476.811 137.87 477.831 137.87C478.851 137.87 479.781 137.63 480.621 137.15C481.481 136.65 482.161 135.94 482.661 135.02C483.161 134.08 483.411 132.99 483.411 131.75ZM498.795 123.26C500.795 123.26 502.415 123.87 503.655 125.09C504.895 126.29 505.515 128.03 505.515 130.31V140H502.815V130.7C502.815 129.06 502.405 127.81 501.585 126.95C500.765 126.07 499.645 125.63 498.225 125.63C496.785 125.63 495.635 126.08 494.775 126.98C493.935 127.88 493.515 129.19 493.515 130.91V140H490.785V123.56H493.515V125.9C494.055 125.06 494.785 124.41 495.705 123.95C496.645 123.49 497.675 123.26 498.795 123.26ZM508.954 131.72C508.954 130.04 509.294 128.57 509.974 127.31C510.654 126.03 511.584 125.04 512.764 124.34C513.964 123.64 515.304 123.29 516.784 123.29C518.064 123.29 519.254 123.59 520.354 124.19C521.454 124.77 522.294 125.54 522.874 126.5V117.8H525.634V140H522.874V136.91C522.334 137.89 521.534 138.7 520.474 139.34C519.414 139.96 518.174 140.27 516.754 140.27C515.294 140.27 513.964 139.91 512.764 139.19C511.584 138.47 510.654 137.46 509.974 136.16C509.294 134.86 508.954 133.38 508.954 131.72ZM522.874 131.75C522.874 130.51 522.624 129.43 522.124 128.51C521.624 127.59 520.944 126.89 520.084 126.41C519.244 125.91 518.314 125.66 517.294 125.66C516.274 125.66 515.344 125.9 514.504 126.38C513.664 126.86 512.994 127.56 512.494 128.48C511.994 129.4 511.744 130.48 511.744 131.72C511.744 132.98 511.994 134.08 512.494 135.02C512.994 135.94 513.664 136.65 514.504 137.15C515.344 137.63 516.274 137.87 517.294 137.87C518.314 137.87 519.244 137.63 520.084 137.15C520.944 136.65 521.624 135.94 522.124 135.02C522.624 134.08 522.874 132.99 522.874 131.75ZM26.48 185.27C24.94 185.27 23.54 184.92 22.28 184.22C21.04 183.52 20.06 182.53 19.34 181.25C18.64 179.95 18.29 178.45 18.29 176.75C18.29 175.07 18.65 173.59 19.37 172.31C20.11 171.01 21.11 170.02 22.37 169.34C23.63 168.64 25.04 168.29 26.6 168.29C28.16 168.29 29.57 168.64 30.83 169.34C32.09 170.02 33.08 171 33.8 172.28C34.54 173.56 34.91 175.05 34.91 176.75C34.91 178.45 34.53 179.95 33.77 181.25C33.03 182.53 32.02 183.52 30.74 184.22C29.46 184.92 28.04 185.27 26.48 185.27ZM26.48 182.87C27.46 182.87 28.38 182.64 29.24 182.18C30.1 181.72 30.79 181.03 31.31 180.11C31.85 179.19 32.12 178.07 32.12 176.75C32.12 175.43 31.86 174.31 31.34 173.39C30.82 172.47 30.14 171.79 29.3 171.35C28.46 170.89 27.55 170.66 26.57 170.66C25.57 170.66 24.65 170.89 23.81 171.35C22.99 171.79 22.33 172.47 21.83 173.39C21.33 174.31 21.08 175.43 21.08 176.75C21.08 178.09 21.32 179.22 21.8 180.14C22.3 181.06 22.96 181.75 23.78 182.21C24.6 182.65 25.5 182.87 26.48 182.87ZM41.8295 170.81V180.5C41.8295 181.3 41.9995 181.87 42.3395 182.21C42.6795 182.53 43.2695 182.69 44.1095 182.69H46.1195V185H43.6595C42.1395 185 40.9995 184.65 40.2395 183.95C39.4795 183.25 39.0995 182.1 39.0995 180.5V170.81H36.9695V168.56H39.0995V164.42H41.8295V168.56H46.1195V170.81H41.8295ZM57.5872 168.26C58.8272 168.26 59.9472 168.53 60.9472 169.07C61.9472 169.59 62.7272 170.38 63.2872 171.44C63.8672 172.5 64.1572 173.79 64.1572 175.31V185H61.4572V175.7C61.4572 174.06 61.0472 172.81 60.2272 171.95C59.4072 171.07 58.2872 170.63 56.8672 170.63C55.4272 170.63 54.2772 171.08 53.4172 171.98C52.5772 172.88 52.1572 174.19 52.1572 175.91V185H49.4272V162.8H52.1572V170.9C52.6972 170.06 53.4372 169.41 54.3772 168.95C55.3372 168.49 56.4072 168.26 57.5872 168.26ZM83.6166 176.15C83.6166 176.67 83.5866 177.22 83.5266 177.8H70.3866C70.4866 179.42 71.0366 180.69 72.0366 181.61C73.0566 182.51 74.2866 182.96 75.7266 182.96C76.9066 182.96 77.8866 182.69 78.6666 182.15C79.4666 181.59 80.0266 180.85 80.3466 179.93H83.2866C82.8466 181.51 81.9666 182.8 80.6466 183.8C79.3266 184.78 77.6866 185.27 75.7266 185.27C74.1666 185.27 72.7666 184.92 71.5266 184.22C70.3066 183.52 69.3466 182.53 68.6466 181.25C67.9466 179.95 67.5966 178.45 67.5966 176.75C67.5966 175.05 67.9366 173.56 68.6166 172.28C69.2966 171 70.2466 170.02 71.4666 169.34C72.7066 168.64 74.1266 168.29 75.7266 168.29C77.2866 168.29 78.6666 168.63 79.8666 169.31C81.0666 169.99 81.9866 170.93 82.6266 172.13C83.2866 173.31 83.6166 174.65 83.6166 176.15ZM80.7966 175.58C80.7966 174.54 80.5666 173.65 80.1066 172.91C79.6466 172.15 79.0166 171.58 78.2166 171.2C77.4366 170.8 76.5666 170.6 75.6066 170.6C74.2266 170.6 73.0466 171.04 72.0666 171.92C71.1066 172.8 70.5566 174.02 70.4166 175.58H80.7966ZM89.9502 171.23C90.4302 170.29 91.1102 169.56 91.9902 169.04C92.8902 168.52 93.9802 168.26 95.2602 168.26V171.08H94.5402C91.4802 171.08 89.9502 172.74 89.9502 176.06V185H87.2202V168.56H89.9502V171.23ZM104.232 185.27C102.972 185.27 101.842 185.06 100.842 184.64C99.8416 184.2 99.0516 183.6 98.4716 182.84C97.8916 182.06 97.5716 181.17 97.5116 180.17H100.332C100.412 180.99 100.792 181.66 101.472 182.18C102.172 182.7 103.082 182.96 104.202 182.96C105.242 182.96 106.062 182.73 106.662 182.27C107.262 181.81 107.562 181.23 107.562 180.53C107.562 179.81 107.242 179.28 106.602 178.94C105.962 178.58 104.972 178.23 103.632 177.89C102.412 177.57 101.412 177.25 100.632 176.93C99.8716 176.59 99.2116 176.1 98.6516 175.46C98.1116 174.8 97.8416 173.94 97.8416 172.88C97.8416 172.04 98.0916 171.27 98.5916 170.57C99.0916 169.87 99.8016 169.32 100.722 168.92C101.642 168.5 102.692 168.29 103.872 168.29C105.692 168.29 107.162 168.75 108.282 169.67C109.402 170.59 110.002 171.85 110.082 173.45H107.352C107.292 172.59 106.942 171.9 106.302 171.38C105.682 170.86 104.842 170.6 103.782 170.6C102.802 170.6 102.022 170.81 101.442 171.23C100.862 171.65 100.572 172.2 100.572 172.88C100.572 173.42 100.742 173.87 101.082 174.23C101.442 174.57 101.882 174.85 102.402 175.07C102.942 175.27 103.682 175.5 104.622 175.76C105.802 176.08 106.762 176.4 107.502 176.72C108.242 177.02 108.872 177.48 109.392 178.1C109.932 178.72 110.212 179.53 110.232 180.53C110.232 181.43 109.982 182.24 109.482 182.96C108.982 183.68 108.272 184.25 107.352 184.67C106.452 185.07 105.412 185.27 104.232 185.27ZM121.063 176.75C121.063 175.05 121.403 173.57 122.083 172.31C122.763 171.03 123.703 170.04 124.903 169.34C126.123 168.64 127.513 168.29 129.073 168.29C131.093 168.29 132.753 168.78 134.053 169.76C135.373 170.74 136.243 172.1 136.663 173.84H133.723C133.443 172.84 132.893 172.05 132.073 171.47C131.273 170.89 130.273 170.6 129.073 170.6C127.513 170.6 126.253 171.14 125.293 172.22C124.333 173.28 123.853 174.79 123.853 176.75C123.853 178.73 124.333 180.26 125.293 181.34C126.253 182.42 127.513 182.96 129.073 182.96C130.273 182.96 131.273 182.68 132.073 182.12C132.873 181.56 133.423 180.76 133.723 179.72H136.663C136.223 181.4 135.343 182.75 134.023 183.77C132.703 184.77 131.053 185.27 129.073 185.27C127.513 185.27 126.123 184.92 124.903 184.22C123.703 183.52 122.763 182.53 122.083 181.25C121.403 179.97 121.063 178.47 121.063 176.75ZM139.286 176.72C139.286 175.04 139.626 173.57 140.306 172.31C140.986 171.03 141.916 170.04 143.096 169.34C144.296 168.64 145.626 168.29 147.086 168.29C148.526 168.29 149.776 168.6 150.836 169.22C151.896 169.84 152.686 170.62 153.206 171.56V168.56H155.966V185H153.206V181.94C152.666 182.9 151.856 183.7 150.776 184.34C149.716 184.96 148.476 185.27 147.056 185.27C145.596 185.27 144.276 184.91 143.096 184.19C141.916 183.47 140.986 182.46 140.306 181.16C139.626 179.86 139.286 178.38 139.286 176.72ZM153.206 176.75C153.206 175.51 152.956 174.43 152.456 173.51C151.956 172.59 151.276 171.89 150.416 171.41C149.576 170.91 148.646 170.66 147.626 170.66C146.606 170.66 145.676 170.9 144.836 171.38C143.996 171.86 143.326 172.56 142.826 173.48C142.326 174.4 142.076 175.48 142.076 176.72C142.076 177.98 142.326 179.08 142.826 180.02C143.326 180.94 143.996 181.65 144.836 182.15C145.676 182.63 146.606 182.87 147.626 182.87C148.646 182.87 149.576 182.63 150.416 182.15C151.276 181.65 151.956 180.94 152.456 180.02C152.956 179.08 153.206 177.99 153.206 176.75ZM168.59 168.26C170.59 168.26 172.21 168.87 173.45 170.09C174.69 171.29 175.31 173.03 175.31 175.31V185H172.61V175.7C172.61 174.06 172.2 172.81 171.38 171.95C170.56 171.07 169.44 170.63 168.02 170.63C166.58 170.63 165.43 171.08 164.57 171.98C163.73 172.88 163.31 174.19 163.31 175.91V185H160.58V168.56H163.31V170.9C163.85 170.06 164.58 169.41 165.5 168.95C166.44 168.49 167.47 168.26 168.59 168.26ZM180.189 164.09H183.219L180.339 170.9H178.419L180.189 164.09ZM189.661 170.81V180.5C189.661 181.3 189.831 181.87 190.171 182.21C190.511 182.53 191.101 182.69 191.941 182.69H193.951V185H191.491C189.971 185 188.831 184.65 188.071 183.95C187.311 183.25 186.931 182.1 186.931 180.5V170.81H184.801V168.56H186.931V164.42H189.661V168.56H193.951V170.81H189.661ZM211.947 170.81H208.497V185H205.767V170.81H203.637V168.56H205.767V167.39C205.767 165.55 206.237 164.21 207.177 163.37C208.137 162.51 209.667 162.08 211.767 162.08V164.36C210.567 164.36 209.717 164.6 209.217 165.08C208.737 165.54 208.497 166.31 208.497 167.39V168.56H211.947V170.81ZM216.54 165.89C216.02 165.89 215.58 165.71 215.22 165.35C214.86 164.99 214.68 164.55 214.68 164.03C214.68 163.51 214.86 163.07 215.22 162.71C215.58 162.35 216.02 162.17 216.54 162.17C217.04 162.17 217.46 162.35 217.8 162.71C218.16 163.07 218.34 163.51 218.34 164.03C218.34 164.55 218.16 164.99 217.8 165.35C217.46 165.71 217.04 165.89 216.54 165.89ZM217.86 168.56V185H215.13V168.56H217.86ZM230.523 168.26C232.523 168.26 234.143 168.87 235.383 170.09C236.623 171.29 237.243 173.03 237.243 175.31V185H234.543V175.7C234.543 174.06 234.133 172.81 233.313 171.95C232.493 171.07 231.373 170.63 229.953 170.63C228.513 170.63 227.363 171.08 226.503 171.98C225.663 172.88 225.243 174.19 225.243 175.91V185H222.513V168.56H225.243V170.9C225.783 170.06 226.513 169.41 227.433 168.95C228.373 168.49 229.403 168.26 230.523 168.26ZM240.683 176.72C240.683 175.04 241.023 173.57 241.703 172.31C242.383 171.03 243.313 170.04 244.493 169.34C245.693 168.64 247.033 168.29 248.513 168.29C249.793 168.29 250.983 168.59 252.083 169.19C253.183 169.77 254.023 170.54 254.603 171.5V162.8H257.363V185H254.603V181.91C254.063 182.89 253.263 183.7 252.203 184.34C251.143 184.96 249.903 185.27 248.483 185.27C247.023 185.27 245.693 184.91 244.493 184.19C243.313 183.47 242.383 182.46 241.703 181.16C241.023 179.86 240.683 178.38 240.683 176.72ZM254.603 176.75C254.603 175.51 254.353 174.43 253.853 173.51C253.353 172.59 252.673 171.89 251.813 171.41C250.973 170.91 250.043 170.66 249.023 170.66C248.003 170.66 247.073 170.9 246.233 171.38C245.393 171.86 244.723 172.56 244.223 173.48C243.723 174.4 243.473 175.48 243.473 176.72C243.473 177.98 243.723 179.08 244.223 180.02C244.723 180.94 245.393 181.65 246.233 182.15C247.073 182.63 248.003 182.87 249.023 182.87C250.043 182.87 250.973 182.63 251.813 182.15C252.673 181.65 253.353 180.94 253.853 180.02C254.353 179.08 254.603 177.99 254.603 176.75ZM284.134 168.56L274.234 192.74H271.414L274.654 184.82L268.024 168.56H271.054L276.214 181.88L281.314 168.56H284.134ZM294.048 185.27C292.508 185.27 291.108 184.92 289.848 184.22C288.608 183.52 287.628 182.53 286.908 181.25C286.208 179.95 285.858 178.45 285.858 176.75C285.858 175.07 286.218 173.59 286.938 172.31C287.678 171.01 288.678 170.02 289.938 169.34C291.198 168.64 292.608 168.29 294.168 168.29C295.728 168.29 297.138 168.64 298.398 169.34C299.658 170.02 300.648 171 301.368 172.28C302.108 173.56 302.478 175.05 302.478 176.75C302.478 178.45 302.098 179.95 301.338 181.25C300.598 182.53 299.588 183.52 298.308 184.22C297.028 184.92 295.608 185.27 294.048 185.27ZM294.048 182.87C295.028 182.87 295.948 182.64 296.808 182.18C297.668 181.72 298.358 181.03 298.878 180.11C299.418 179.19 299.688 178.07 299.688 176.75C299.688 175.43 299.428 174.31 298.908 173.39C298.388 172.47 297.708 171.79 296.868 171.35C296.028 170.89 295.118 170.66 294.138 170.66C293.138 170.66 292.218 170.89 291.378 171.35C290.558 171.79 289.898 172.47 289.398 173.39C288.898 174.31 288.648 175.43 288.648 176.75C288.648 178.09 288.888 179.22 289.368 180.14C289.868 181.06 290.528 181.75 291.348 182.21C292.168 182.65 293.068 182.87 294.048 182.87ZM320.648 168.56V185H317.918V182.57C317.398 183.41 316.668 184.07 315.728 184.55C314.808 185.01 313.788 185.24 312.668 185.24C311.388 185.24 310.238 184.98 309.218 184.46C308.198 183.92 307.388 183.12 306.788 182.06C306.208 181 305.918 179.71 305.918 178.19V168.56H308.618V177.83C308.618 179.45 309.028 180.7 309.848 181.58C310.668 182.44 311.788 182.87 313.208 182.87C314.668 182.87 315.818 182.42 316.658 181.52C317.498 180.62 317.918 179.31 317.918 177.59V168.56H320.648ZM326.127 185.18C325.607 185.18 325.167 185 324.807 184.64C324.447 184.28 324.267 183.84 324.267 183.32C324.267 182.8 324.447 182.36 324.807 182C325.167 181.64 325.607 181.46 326.127 181.46C326.627 181.46 327.047 181.64 327.387 182C327.747 182.36 327.927 182.8 327.927 183.32C327.927 183.84 327.747 184.28 327.387 184.64C327.047 185 326.627 185.18 326.127 185.18ZM25.82 254.09C28.1 254.09 30.07 254.52 31.73 255.38C33.41 256.22 34.69 257.43 35.57 259.01C36.47 260.59 36.92 262.45 36.92 264.59C36.92 266.73 36.47 268.59 35.57 270.17C34.69 271.73 33.41 272.93 31.73 273.77C30.07 274.59 28.1 275 25.82 275H19.31V254.09H25.82ZM25.82 272.75C28.52 272.75 30.58 272.04 32 270.62C33.42 269.18 34.13 267.17 34.13 264.59C34.13 261.99 33.41 259.96 31.97 258.5C30.55 257.04 28.5 256.31 25.82 256.31H22.04V272.75H25.82ZM47.6909 275.27C46.1509 275.27 44.7509 274.92 43.4909 274.22C42.2509 273.52 41.2709 272.53 40.5509 271.25C39.8509 269.95 39.5009 268.45 39.5009 266.75C39.5009 265.07 39.8609 263.59 40.5809 262.31C41.3209 261.01 42.3209 260.02 43.5809 259.34C44.8409 258.64 46.2509 258.29 47.8109 258.29C49.3709 258.29 50.7809 258.64 52.0409 259.34C53.3009 260.02 54.2909 261 55.0109 262.28C55.7509 263.56 56.1209 265.05 56.1209 266.75C56.1209 268.45 55.7409 269.95 54.9809 271.25C54.2409 272.53 53.2309 273.52 51.9509 274.22C50.6709 274.92 49.2509 275.27 47.6909 275.27ZM47.6909 272.87C48.6709 272.87 49.5909 272.64 50.4509 272.18C51.3109 271.72 52.0009 271.03 52.5209 270.11C53.0609 269.19 53.3309 268.07 53.3309 266.75C53.3309 265.43 53.0709 264.31 52.5509 263.39C52.0309 262.47 51.3509 261.79 50.5109 261.35C49.6709 260.89 48.7609 260.66 47.7809 260.66C46.7809 260.66 45.8609 260.89 45.0209 261.35C44.2009 261.79 43.5409 262.47 43.0409 263.39C42.5409 264.31 42.2909 265.43 42.2909 266.75C42.2909 268.09 42.5309 269.22 43.0109 270.14C43.5109 271.06 44.1709 271.75 44.9909 272.21C45.8109 272.65 46.7109 272.87 47.6909 272.87ZM81.8684 258.56L71.9684 282.74H69.1484L72.3884 274.82L65.7584 258.56H68.7884L73.9484 271.88L79.0484 258.56H81.8684ZM91.7827 275.27C90.2427 275.27 88.8427 274.92 87.5827 274.22C86.3427 273.52 85.3627 272.53 84.6427 271.25C83.9427 269.95 83.5927 268.45 83.5927 266.75C83.5927 265.07 83.9527 263.59 84.6727 262.31C85.4127 261.01 86.4127 260.02 87.6727 259.34C88.9327 258.64 90.3427 258.29 91.9027 258.29C93.4627 258.29 94.8727 258.64 96.1327 259.34C97.3927 260.02 98.3827 261 99.1027 262.28C99.8427 263.56 100.213 265.05 100.213 266.75C100.213 268.45 99.8327 269.95 99.0727 271.25C98.3327 272.53 97.3227 273.52 96.0427 274.22C94.7627 274.92 93.3427 275.27 91.7827 275.27ZM91.7827 272.87C92.7627 272.87 93.6827 272.64 94.5427 272.18C95.4027 271.72 96.0927 271.03 96.6127 270.11C97.1527 269.19 97.4227 268.07 97.4227 266.75C97.4227 265.43 97.1627 264.31 96.6427 263.39C96.1227 262.47 95.4427 261.79 94.6027 261.35C93.7627 260.89 92.8527 260.66 91.8727 260.66C90.8727 260.66 89.9527 260.89 89.1127 261.35C88.2927 261.79 87.6327 262.47 87.1327 263.39C86.6327 264.31 86.3827 265.43 86.3827 266.75C86.3827 268.09 86.6227 269.22 87.1027 270.14C87.6027 271.06 88.2627 271.75 89.0827 272.21C89.9027 272.65 90.8027 272.87 91.7827 272.87ZM118.382 258.56V275H115.652V272.57C115.132 273.41 114.402 274.07 113.462 274.55C112.542 275.01 111.522 275.24 110.402 275.24C109.122 275.24 107.972 274.98 106.952 274.46C105.932 273.92 105.122 273.12 104.522 272.06C103.942 271 103.652 269.71 103.652 268.19V258.56H106.352V267.83C106.352 269.45 106.762 270.7 107.582 271.58C108.402 272.44 109.522 272.87 110.942 272.87C112.402 272.87 113.552 272.42 114.392 271.52C115.232 270.62 115.652 269.31 115.652 267.59V258.56H118.382ZM136.81 275.27C135.55 275.27 134.42 275.06 133.42 274.64C132.42 274.2 131.63 273.6 131.05 272.84C130.47 272.06 130.15 271.17 130.09 270.17H132.91C132.99 270.99 133.37 271.66 134.05 272.18C134.75 272.7 135.66 272.96 136.78 272.96C137.82 272.96 138.64 272.73 139.24 272.27C139.84 271.81 140.14 271.23 140.14 270.53C140.14 269.81 139.82 269.28 139.18 268.94C138.54 268.58 137.55 268.23 136.21 267.89C134.99 267.57 133.99 267.25 133.21 266.93C132.45 266.59 131.79 266.1 131.23 265.46C130.69 264.8 130.42 263.94 130.42 262.88C130.42 262.04 130.67 261.27 131.17 260.57C131.67 259.87 132.38 259.32 133.3 258.92C134.22 258.5 135.27 258.29 136.45 258.29C138.27 258.29 139.74 258.75 140.86 259.67C141.98 260.59 142.58 261.85 142.66 263.45H139.93C139.87 262.59 139.52 261.9 138.88 261.38C138.26 260.86 137.42 260.6 136.36 260.6C135.38 260.6 134.6 260.81 134.02 261.23C133.44 261.65 133.15 262.2 133.15 262.88C133.15 263.42 133.32 263.87 133.66 264.23C134.02 264.57 134.46 264.85 134.98 265.07C135.52 265.27 136.26 265.5 137.2 265.76C138.38 266.08 139.34 266.4 140.08 266.72C140.82 267.02 141.45 267.48 141.97 268.1C142.51 268.72 142.79 269.53 142.81 270.53C142.81 271.43 142.56 272.24 142.06 272.96C141.56 273.68 140.85 274.25 139.93 274.67C139.03 275.07 137.99 275.27 136.81 275.27ZM149.994 260.81V270.5C149.994 271.3 150.164 271.87 150.504 272.21C150.844 272.53 151.434 272.69 152.274 272.69H154.284V275H151.824C150.304 275 149.164 274.65 148.404 273.95C147.644 273.25 147.264 272.1 147.264 270.5V260.81H145.134V258.56H147.264V254.42H149.994V258.56H154.284V260.81H149.994ZM159.001 255.89C158.481 255.89 158.041 255.71 157.681 255.35C157.321 254.99 157.141 254.55 157.141 254.03C157.141 253.51 157.321 253.07 157.681 252.71C158.041 252.35 158.481 252.17 159.001 252.17C159.501 252.17 159.921 252.35 160.261 252.71C160.621 253.07 160.801 253.51 160.801 254.03C160.801 254.55 160.621 254.99 160.261 255.35C159.921 255.71 159.501 255.89 159.001 255.89ZM160.321 258.56V275H157.591V258.56H160.321ZM167.704 252.8V275H164.974V252.8H167.704ZM175.087 252.8V275H172.357V252.8H175.087ZM209.638 258.56L204.508 275H201.688L197.728 261.95L193.768 275H190.948L185.788 258.56H188.578L192.358 272.36L196.438 258.56H199.228L203.218 272.39L206.938 258.56H209.638ZM211.327 266.72C211.327 265.04 211.667 263.57 212.347 262.31C213.027 261.03 213.957 260.04 215.137 259.34C216.337 258.64 217.667 258.29 219.127 258.29C220.567 258.29 221.817 258.6 222.877 259.22C223.937 259.84 224.727 260.62 225.247 261.56V258.56H228.007V275H225.247V271.94C224.707 272.9 223.897 273.7 222.817 274.34C221.757 274.96 220.517 275.27 219.097 275.27C217.637 275.27 216.317 274.91 215.137 274.19C213.957 273.47 213.027 272.46 212.347 271.16C211.667 269.86 211.327 268.38 211.327 266.72ZM225.247 266.75C225.247 265.51 224.997 264.43 224.497 263.51C223.997 262.59 223.317 261.89 222.457 261.41C221.617 260.91 220.687 260.66 219.667 260.66C218.647 260.66 217.717 260.9 216.877 261.38C216.037 261.86 215.367 262.56 214.867 263.48C214.367 264.4 214.117 265.48 214.117 266.72C214.117 267.98 214.367 269.08 214.867 270.02C215.367 270.94 216.037 271.65 216.877 272.15C217.717 272.63 218.647 272.87 219.667 272.87C220.687 272.87 221.617 272.63 222.457 272.15C223.317 271.65 223.997 270.94 224.497 270.02C224.997 269.08 225.247 267.99 225.247 266.75ZM240.631 258.26C242.631 258.26 244.251 258.87 245.491 260.09C246.731 261.29 247.351 263.03 247.351 265.31V275H244.651V265.7C244.651 264.06 244.241 262.81 243.421 261.95C242.601 261.07 241.481 260.63 240.061 260.63C238.621 260.63 237.471 261.08 236.611 261.98C235.771 262.88 235.351 264.19 235.351 265.91V275H232.621V258.56H235.351V260.9C235.891 260.06 236.621 259.41 237.541 258.95C238.481 258.49 239.511 258.26 240.631 258.26ZM255.14 260.81V270.5C255.14 271.3 255.31 271.87 255.65 272.21C255.99 272.53 256.58 272.69 257.42 272.69H259.43V275H256.97C255.45 275 254.31 274.65 253.55 273.95C252.79 273.25 252.41 272.1 252.41 270.5V260.81H250.28V258.56H252.41V254.42H255.14V258.56H259.43V260.81H255.14ZM274.066 260.81V270.5C274.066 271.3 274.236 271.87 274.576 272.21C274.916 272.53 275.506 272.69 276.346 272.69H278.356V275H275.896C274.376 275 273.236 274.65 272.476 273.95C271.716 273.25 271.336 272.1 271.336 270.5V260.81H269.206V258.56H271.336V254.42H274.066V258.56H278.356V260.81H274.066ZM288.834 275.27C287.294 275.27 285.894 274.92 284.634 274.22C283.394 273.52 282.414 272.53 281.694 271.25C280.994 269.95 280.644 268.45 280.644 266.75C280.644 265.07 281.004 263.59 281.724 262.31C282.464 261.01 283.464 260.02 284.724 259.34C285.984 258.64 287.394 258.29 288.954 258.29C290.514 258.29 291.924 258.64 293.184 259.34C294.444 260.02 295.434 261 296.154 262.28C296.894 263.56 297.264 265.05 297.264 266.75C297.264 268.45 296.884 269.95 296.124 271.25C295.384 272.53 294.374 273.52 293.094 274.22C291.814 274.92 290.394 275.27 288.834 275.27ZM288.834 272.87C289.814 272.87 290.734 272.64 291.594 272.18C292.454 271.72 293.144 271.03 293.664 270.11C294.204 269.19 294.474 268.07 294.474 266.75C294.474 265.43 294.214 264.31 293.694 263.39C293.174 262.47 292.494 261.79 291.654 261.35C290.814 260.89 289.904 260.66 288.924 260.66C287.924 260.66 287.004 260.89 286.164 261.35C285.344 261.79 284.684 262.47 284.184 263.39C283.684 264.31 283.434 265.43 283.434 266.75C283.434 268.09 283.674 269.22 284.154 270.14C284.654 271.06 285.314 271.75 286.134 272.21C286.954 272.65 287.854 272.87 288.834 272.87ZM307.831 266.75C307.831 265.05 308.171 263.57 308.851 262.31C309.531 261.03 310.471 260.04 311.671 259.34C312.891 258.64 314.281 258.29 315.841 258.29C317.861 258.29 319.521 258.78 320.821 259.76C322.141 260.74 323.011 262.1 323.431 263.84H320.491C320.211 262.84 319.661 262.05 318.841 261.47C318.041 260.89 317.041 260.6 315.841 260.6C314.281 260.6 313.021 261.14 312.061 262.22C311.101 263.28 310.621 264.79 310.621 266.75C310.621 268.73 311.101 270.26 312.061 271.34C313.021 272.42 314.281 272.96 315.841 272.96C317.041 272.96 318.041 272.68 318.841 272.12C319.641 271.56 320.191 270.76 320.491 269.72H323.431C322.991 271.4 322.111 272.75 320.791 273.77C319.471 274.77 317.821 275.27 315.841 275.27C314.281 275.27 312.891 274.92 311.671 274.22C310.471 273.52 309.531 272.53 308.851 271.25C308.171 269.97 307.831 268.47 307.831 266.75ZM334.244 275.27C332.704 275.27 331.304 274.92 330.044 274.22C328.804 273.52 327.824 272.53 327.104 271.25C326.404 269.95 326.054 268.45 326.054 266.75C326.054 265.07 326.414 263.59 327.134 262.31C327.874 261.01 328.874 260.02 330.134 259.34C331.394 258.64 332.804 258.29 334.364 258.29C335.924 258.29 337.334 258.64 338.594 259.34C339.854 260.02 340.844 261 341.564 262.28C342.304 263.56 342.674 265.05 342.674 266.75C342.674 268.45 342.294 269.95 341.534 271.25C340.794 272.53 339.784 273.52 338.504 274.22C337.224 274.92 335.804 275.27 334.244 275.27ZM334.244 272.87C335.224 272.87 336.144 272.64 337.004 272.18C337.864 271.72 338.554 271.03 339.074 270.11C339.614 269.19 339.884 268.07 339.884 266.75C339.884 265.43 339.624 264.31 339.104 263.39C338.584 262.47 337.904 261.79 337.064 261.35C336.224 260.89 335.314 260.66 334.334 260.66C333.334 260.66 332.414 260.89 331.574 261.35C330.754 261.79 330.094 262.47 329.594 263.39C329.094 264.31 328.844 265.43 328.844 266.75C328.844 268.09 329.084 269.22 329.564 270.14C330.064 271.06 330.724 271.75 331.544 272.21C332.364 272.65 333.264 272.87 334.244 272.87ZM354.273 258.26C356.273 258.26 357.893 258.87 359.133 260.09C360.373 261.29 360.993 263.03 360.993 265.31V275H358.293V265.7C358.293 264.06 357.883 262.81 357.063 261.95C356.243 261.07 355.123 260.63 353.703 260.63C352.263 260.63 351.113 261.08 350.253 261.98C349.413 262.88 348.993 264.19 348.993 265.91V275H346.263V258.56H348.993V260.9C349.533 260.06 350.263 259.41 351.183 258.95C352.123 258.49 353.153 258.26 354.273 258.26ZM372.143 260.81H368.693V275H365.963V260.81H363.833V258.56H365.963V257.39C365.963 255.55 366.433 254.21 367.373 253.37C368.333 252.51 369.863 252.08 371.963 252.08V254.36C370.763 254.36 369.913 254.6 369.413 255.08C368.933 255.54 368.693 256.31 368.693 257.39V258.56H372.143V260.81ZM376.736 255.89C376.216 255.89 375.776 255.71 375.416 255.35C375.056 254.99 374.876 254.55 374.876 254.03C374.876 253.51 375.056 253.07 375.416 252.71C375.776 252.35 376.216 252.17 376.736 252.17C377.236 252.17 377.656 252.35 377.996 252.71C378.356 253.07 378.536 253.51 378.536 254.03C378.536 254.55 378.356 254.99 377.996 255.35C377.656 255.71 377.236 255.89 376.736 255.89ZM378.056 258.56V275H375.326V258.56H378.056ZM385.438 261.23C385.918 260.29 386.598 259.56 387.478 259.04C388.378 258.52 389.468 258.26 390.748 258.26V261.08H390.028C386.968 261.08 385.438 262.74 385.438 266.06V275H382.708V258.56H385.438V261.23ZM413.67 258.26C414.95 258.26 416.09 258.53 417.09 259.07C418.09 259.59 418.88 260.38 419.46 261.44C420.04 262.5 420.33 263.79 420.33 265.31V275H417.63V265.7C417.63 264.06 417.22 262.81 416.4 261.95C415.6 261.07 414.51 260.63 413.13 260.63C411.71 260.63 410.58 261.09 409.74 262.01C408.9 262.91 408.48 264.22 408.48 265.94V275H405.78V265.7C405.78 264.06 405.37 262.81 404.55 261.95C403.75 261.07 402.66 260.63 401.28 260.63C399.86 260.63 398.73 261.09 397.89 262.01C397.05 262.91 396.63 264.22 396.63 265.94V275H393.9V258.56H396.63V260.93C397.17 260.07 397.89 259.41 398.79 258.95C399.71 258.49 400.72 258.26 401.82 258.26C403.2 258.26 404.42 258.57 405.48 259.19C406.54 259.81 407.33 260.72 407.85 261.92C408.31 260.76 409.07 259.86 410.13 259.22C411.19 258.58 412.37 258.26 413.67 258.26ZM430.148 253.82C432.128 253.82 433.728 254.38 434.948 255.5C436.168 256.62 436.778 258.12 436.778 260C436.778 262.1 436.128 263.66 434.828 264.68C433.528 265.68 431.768 266.18 429.548 266.18L429.458 269.03H427.088L426.968 264.29H427.838C429.818 264.29 431.368 263.99 432.488 263.39C433.608 262.79 434.168 261.66 434.168 260C434.168 258.8 433.808 257.85 433.088 257.15C432.368 256.45 431.398 256.1 430.178 256.1C428.938 256.1 427.958 256.44 427.238 257.12C426.538 257.78 426.188 258.69 426.188 259.85H423.608C423.608 258.65 423.878 257.6 424.418 256.7C424.958 255.78 425.718 255.07 426.698 254.57C427.698 254.07 428.848 253.82 430.148 253.82ZM428.258 275.18C427.738 275.18 427.298 275 426.938 274.64C426.578 274.28 426.398 273.84 426.398 273.32C426.398 272.8 426.578 272.36 426.938 272C427.298 271.64 427.738 271.46 428.258 271.46C428.758 271.46 429.178 271.64 429.518 272C429.878 272.36 430.058 272.8 430.058 273.32C430.058 273.84 429.878 274.28 429.518 274.64C429.178 275 428.758 275.18 428.258 275.18Z" fill="black"/>
<rect x="377" y="336.152" width="244" height="52.6609" rx="13.0556" fill="#1877F2"/>
<path d="M441.478 362.424C441.478 360.707 441.861 359.174 442.628 357.824C443.411 356.457 444.469 355.399 445.803 354.649C447.153 353.882 448.661 353.499 450.328 353.499C452.278 353.499 453.986 353.999 455.453 354.999C456.919 355.999 457.944 357.382 458.528 359.149H454.503C454.103 358.315 453.536 357.69 452.803 357.274C452.086 356.857 451.253 356.649 450.303 356.649C449.286 356.649 448.378 356.89 447.578 357.374C446.794 357.84 446.178 358.507 445.728 359.374C445.294 360.24 445.078 361.257 445.078 362.424C445.078 363.574 445.294 364.59 445.728 365.474C446.178 366.34 446.794 367.015 447.578 367.499C448.378 367.965 449.286 368.199 450.303 368.199C451.253 368.199 452.086 367.99 452.803 367.574C453.536 367.14 454.103 366.507 454.503 365.674H458.528C457.944 367.457 456.919 368.849 455.453 369.849C454.003 370.832 452.294 371.324 450.328 371.324C448.661 371.324 447.153 370.949 445.803 370.199C444.469 369.432 443.411 368.374 442.628 367.024C441.861 365.674 441.478 364.14 441.478 362.424ZM469.617 371.349C467.984 371.349 466.484 370.965 465.117 370.199C463.751 369.432 462.667 368.374 461.867 367.024C461.067 365.657 460.667 364.115 460.667 362.399C460.667 360.699 461.067 359.174 461.867 357.824C462.667 356.457 463.751 355.39 465.117 354.624C466.484 353.857 467.984 353.474 469.617 353.474C471.267 353.474 472.767 353.857 474.117 354.624C475.484 355.39 476.559 356.457 477.342 357.824C478.142 359.174 478.542 360.699 478.542 362.399C478.542 364.115 478.142 365.657 477.342 367.024C476.559 368.374 475.484 369.432 474.117 370.199C472.751 370.965 471.251 371.349 469.617 371.349ZM469.617 368.224C470.667 368.224 471.592 367.99 472.392 367.524C473.192 367.04 473.817 366.357 474.267 365.474C474.717 364.59 474.942 363.565 474.942 362.399C474.942 361.232 474.717 360.215 474.267 359.349C473.817 358.465 473.192 357.79 472.392 357.324C471.592 356.857 470.667 356.624 469.617 356.624C468.567 356.624 467.634 356.857 466.817 357.324C466.017 357.79 465.392 358.465 464.942 359.349C464.492 360.215 464.267 361.232 464.267 362.399C464.267 363.565 464.492 364.59 464.942 365.474C465.392 366.357 466.017 367.04 466.817 367.524C467.634 367.99 468.567 368.224 469.617 368.224ZM496.071 371.174H492.571L484.646 359.199V371.174H481.146V353.699H484.646L492.571 365.699V353.699H496.071V371.174ZM510.305 353.724V356.549H503.03V361.024H508.605V363.799H503.03V371.174H499.53V353.724H510.305ZM516.287 353.724V371.174H512.787V353.724H516.287ZM528.745 371.174L524.895 364.374H523.245V371.174H519.745V353.724H526.295C527.645 353.724 528.795 353.965 529.745 354.449C530.695 354.915 531.403 355.557 531.87 356.374C532.353 357.174 532.595 358.074 532.595 359.074C532.595 360.224 532.261 361.265 531.595 362.199C530.928 363.115 529.936 363.749 528.62 364.099L532.795 371.174H528.745ZM523.245 361.749H526.17C527.12 361.749 527.828 361.524 528.295 361.074C528.761 360.607 528.995 359.965 528.995 359.149C528.995 358.349 528.761 357.732 528.295 357.299C527.828 356.849 527.12 356.624 526.17 356.624H523.245V361.749ZM554.785 353.724V371.174H551.285V359.824L546.61 371.174H543.96L539.26 359.824V371.174H535.76V353.724H539.735L545.285 366.699L550.835 353.724H554.785Z" fill="white" fill-opacity="0.98"/>
<rect x="17" y="336" width="344" height="53" rx="13.0556" fill="#C80A0A"/>
<path d="M59.5929 372H56.0929L48.1679 360.025V372H44.6679V354.525H48.1679L56.0929 366.525V354.525H59.5929V372ZM71.1517 372.175C69.5183 372.175 68.0183 371.792 66.6517 371.025C65.285 370.258 64.2017 369.2 63.4017 367.85C62.6017 366.483 62.2017 364.942 62.2017 363.225C62.2017 361.525 62.6017 360 63.4017 358.65C64.2017 357.283 65.285 356.217 66.6517 355.45C68.0183 354.683 69.5183 354.3 71.1517 354.3C72.8017 354.3 74.3017 354.683 75.6517 355.45C77.0183 356.217 78.0933 357.283 78.8767 358.65C79.6767 360 80.0767 361.525 80.0767 363.225C80.0767 364.942 79.6767 366.483 78.8767 367.85C78.0933 369.2 77.0183 370.258 75.6517 371.025C74.285 371.792 72.785 372.175 71.1517 372.175ZM71.1517 369.05C72.2017 369.05 73.1267 368.817 73.9267 368.35C74.7267 367.867 75.3517 367.183 75.8017 366.3C76.2517 365.417 76.4767 364.392 76.4767 363.225C76.4767 362.058 76.2517 361.042 75.8017 360.175C75.3517 359.292 74.7267 358.617 73.9267 358.15C73.1267 357.683 72.2017 357.45 71.1517 357.45C70.1017 357.45 69.1683 357.683 68.3517 358.15C67.5517 358.617 66.9267 359.292 66.4767 360.175C66.0267 361.042 65.8017 362.058 65.8017 363.225C65.8017 364.392 66.0267 365.417 66.4767 366.3C66.9267 367.183 67.5517 367.867 68.3517 368.35C69.1683 368.817 70.1017 369.05 71.1517 369.05ZM86.5056 368.325L83.5806 375.35H81.3306L82.9556 368.325H86.5056ZM104.835 372L98.4853 364.225V372H94.9853V354.55H98.4853V362.375L104.835 354.55H109.06L101.86 363.2L109.26 372H104.835ZM115.062 357.375V361.75H120.937V364.525H115.062V369.15H121.687V372H111.562V354.525H121.687V357.375H115.062ZM128.368 357.375V361.75H134.243V364.525H128.368V369.15H134.993V372H124.868V354.525H134.993V357.375H128.368ZM150.899 359.95C150.899 360.883 150.674 361.758 150.224 362.575C149.79 363.392 149.099 364.05 148.149 364.55C147.215 365.05 146.032 365.3 144.599 365.3H141.674V372H138.174V354.55H144.599C145.949 354.55 147.099 354.783 148.049 355.25C148.999 355.717 149.707 356.358 150.174 357.175C150.657 357.992 150.899 358.917 150.899 359.95ZM144.449 362.475C145.415 362.475 146.132 362.258 146.599 361.825C147.065 361.375 147.299 360.75 147.299 359.95C147.299 358.25 146.349 357.4 144.449 357.4H141.674V362.475H144.449ZM178.366 354.55V372H174.866V360.65L170.191 372H167.541L162.841 360.65V372H159.341V354.55H163.316L168.866 367.525L174.416 354.55H178.366ZM195.701 354.55L189.801 365.925V372H186.301V365.925L180.376 354.55H184.326L188.076 362.525L191.801 354.55H195.701ZM209.702 372.175C208.485 372.175 207.385 371.967 206.402 371.55C205.435 371.133 204.668 370.533 204.102 369.75C203.535 368.967 203.243 368.042 203.227 366.975H206.977C207.027 367.692 207.277 368.258 207.727 368.675C208.193 369.092 208.827 369.3 209.627 369.3C210.443 369.3 211.085 369.108 211.552 368.725C212.018 368.325 212.252 367.808 212.252 367.175C212.252 366.658 212.093 366.233 211.777 365.9C211.46 365.567 211.06 365.308 210.577 365.125C210.11 364.925 209.46 364.708 208.627 364.475C207.493 364.142 206.568 363.817 205.852 363.5C205.152 363.167 204.543 362.675 204.027 362.025C203.527 361.358 203.277 360.475 203.277 359.375C203.277 358.342 203.535 357.442 204.052 356.675C204.568 355.908 205.293 355.325 206.227 354.925C207.16 354.508 208.227 354.3 209.427 354.3C211.227 354.3 212.685 354.742 213.802 355.625C214.935 356.492 215.56 357.708 215.677 359.275H211.827C211.793 358.675 211.535 358.183 211.052 357.8C210.585 357.4 209.96 357.2 209.177 357.2C208.493 357.2 207.943 357.375 207.527 357.725C207.127 358.075 206.927 358.583 206.927 359.25C206.927 359.717 207.077 360.108 207.377 360.425C207.693 360.725 208.077 360.975 208.527 361.175C208.993 361.358 209.643 361.575 210.477 361.825C211.61 362.158 212.535 362.492 213.252 362.825C213.968 363.158 214.585 363.658 215.102 364.325C215.618 364.992 215.877 365.867 215.877 366.95C215.877 367.883 215.635 368.75 215.152 369.55C214.668 370.35 213.96 370.992 213.027 371.475C212.093 371.942 210.985 372.175 209.702 372.175ZM222.411 354.55V372H218.911V354.55H222.411ZM238.019 359.8C237.619 359.067 237.069 358.508 236.369 358.125C235.669 357.742 234.852 357.55 233.919 357.55C232.886 357.55 231.969 357.783 231.169 358.25C230.369 358.717 229.744 359.383 229.294 360.25C228.844 361.117 228.619 362.117 228.619 363.25C228.619 364.417 228.844 365.433 229.294 366.3C229.761 367.167 230.402 367.833 231.219 368.3C232.036 368.767 232.986 369 234.069 369C235.402 369 236.494 368.65 237.344 367.95C238.194 367.233 238.752 366.242 239.019 364.975H233.019V362.3H242.469V365.35C242.236 366.567 241.736 367.692 240.969 368.725C240.202 369.758 239.211 370.592 237.994 371.225C236.794 371.842 235.444 372.15 233.944 372.15C232.261 372.15 230.736 371.775 229.369 371.025C228.019 370.258 226.952 369.2 226.169 367.85C225.402 366.5 225.019 364.967 225.019 363.25C225.019 361.533 225.402 360 226.169 358.65C226.952 357.283 228.019 356.225 229.369 355.475C230.736 354.708 232.252 354.325 233.919 354.325C235.886 354.325 237.594 354.808 239.044 355.775C240.494 356.725 241.494 358.067 242.044 359.8H238.019ZM259.983 372H256.483L248.558 360.025V372H245.058V354.525H248.558L256.483 366.525V354.525H259.983V372ZM274.142 368.675H267.192L266.042 372H262.367L268.642 354.525H272.717L278.992 372H275.292L274.142 368.675ZM273.192 365.875L270.667 358.575L268.142 365.875H273.192ZM284.838 369.225H290.588V372H281.338V354.55H284.838V369.225ZM306.869 372.175C305.236 372.175 303.736 371.792 302.369 371.025C301.003 370.258 299.919 369.2 299.119 367.85C298.319 366.483 297.919 364.942 297.919 363.225C297.919 361.525 298.319 360 299.119 358.65C299.919 357.283 301.003 356.217 302.369 355.45C303.736 354.683 305.236 354.3 306.869 354.3C308.519 354.3 310.019 354.683 311.369 355.45C312.736 356.217 313.811 357.283 314.594 358.65C315.394 360 315.794 361.525 315.794 363.225C315.794 364.942 315.394 366.483 314.594 367.85C313.811 369.2 312.736 370.258 311.369 371.025C310.003 371.792 308.503 372.175 306.869 372.175ZM306.869 369.05C307.919 369.05 308.844 368.817 309.644 368.35C310.444 367.867 311.069 367.183 311.519 366.3C311.969 365.417 312.194 364.392 312.194 363.225C312.194 362.058 311.969 361.042 311.519 360.175C311.069 359.292 310.444 358.617 309.644 358.15C308.844 357.683 307.919 357.45 306.869 357.45C305.819 357.45 304.886 357.683 304.069 358.15C303.269 358.617 302.644 359.292 302.194 360.175C301.744 361.042 301.519 362.058 301.519 363.225C301.519 364.392 301.744 365.417 302.194 366.3C302.644 367.183 303.269 367.867 304.069 368.35C304.886 368.817 305.819 369.05 306.869 369.05ZM333.323 372H329.823L321.898 360.025V372H318.398V354.525H321.898L329.823 366.525V354.525H333.323V372Z" fill="white" fill-opacity="0.98"/>
<path d="M34.57 38.975H25.82L24.49 43H17.28L26.275 18.325H34.185L43.145 43H35.9L34.57 38.975ZM32.855 33.725L30.195 25.745L27.57 33.725H32.855ZM52.2409 26.83C53.0109 25.71 53.9442 24.8233 55.0409 24.17C56.1376 23.5167 57.3159 23.19 58.5759 23.19V30.505H56.6509C55.1576 30.505 54.0492 30.7967 53.3259 31.38C52.6026 31.9633 52.2409 32.9783 52.2409 34.425V43H45.3809V23.365H52.2409V26.83ZM79.7952 32.955C79.7952 33.4917 79.7602 34.0283 79.6902 34.565H66.7052C66.7752 35.6383 67.0669 36.4433 67.5802 36.98C68.1169 37.4933 68.7935 37.75 69.6102 37.75C70.7535 37.75 71.5702 37.2367 72.0602 36.21H79.3752C79.0719 37.5633 78.4769 38.7767 77.5902 39.85C76.7269 40.9 75.6302 41.7283 74.3002 42.335C72.9702 42.9417 71.5002 43.245 69.8902 43.245C67.9535 43.245 66.2269 42.8367 64.7102 42.02C63.2169 41.2033 62.0385 40.0367 61.1752 38.52C60.3352 37.0033 59.9152 35.2183 59.9152 33.165C59.9152 31.1117 60.3352 29.3383 61.1752 27.845C62.0152 26.3283 63.1819 25.1617 64.6752 24.345C66.1919 23.5283 67.9302 23.12 69.8902 23.12C71.8269 23.12 73.5419 23.5167 75.0352 24.31C76.5285 25.1033 77.6952 26.2467 78.5352 27.74C79.3752 29.21 79.7952 30.9483 79.7952 32.955ZM72.7952 31.24C72.7952 30.4 72.5152 29.7467 71.9552 29.28C71.3952 28.79 70.6952 28.545 69.8552 28.545C69.0152 28.545 68.3269 28.7783 67.7902 29.245C67.2535 29.6883 66.9035 30.3533 66.7402 31.24H72.7952ZM110.442 23.365L97.9818 52.345H90.5268L95.2168 42.16L87.1668 23.365H94.7968L98.9268 34.495L102.917 23.365H110.442ZM121.371 43.245C119.411 43.245 117.65 42.8367 116.086 42.02C114.546 41.2033 113.333 40.0367 112.446 38.52C111.56 37.0033 111.116 35.2183 111.116 33.165C111.116 31.135 111.56 29.3617 112.446 27.845C113.356 26.3283 114.581 25.1617 116.121 24.345C117.685 23.5283 119.446 23.12 121.406 23.12C123.366 23.12 125.116 23.5283 126.656 24.345C128.22 25.1617 129.445 26.3283 130.331 27.845C131.241 29.3617 131.696 31.135 131.696 33.165C131.696 35.195 131.241 36.98 130.331 38.52C129.445 40.0367 128.22 41.2033 126.656 42.02C125.093 42.8367 123.331 43.245 121.371 43.245ZM121.371 37.295C122.328 37.295 123.121 36.945 123.751 36.245C124.405 35.5217 124.731 34.495 124.731 33.165C124.731 31.835 124.405 30.82 123.751 30.12C123.121 29.42 122.34 29.07 121.406 29.07C120.473 29.07 119.691 29.42 119.061 30.12C118.431 30.82 118.116 31.835 118.116 33.165C118.116 34.5183 118.42 35.545 119.026 36.245C119.633 36.945 120.415 37.295 121.371 37.295ZM154.577 23.365V43H147.682V40.2C147.099 41.0867 146.294 41.81 145.267 42.37C144.241 42.9067 143.062 43.175 141.732 43.175C139.446 43.175 137.637 42.4283 136.307 40.935C135.001 39.4183 134.347 37.365 134.347 34.775V23.365H141.172V33.9C141.172 35.02 141.464 35.9067 142.047 36.56C142.654 37.19 143.447 37.505 144.427 37.505C145.431 37.505 146.224 37.19 146.807 36.56C147.391 35.9067 147.682 35.02 147.682 33.9V23.365H154.577ZM173.546 43.245C171.772 43.245 170.186 42.9533 168.786 42.37C167.409 41.7633 166.312 40.9467 165.496 39.92C164.702 38.87 164.259 37.6917 164.166 36.385H170.816C170.909 37.015 171.201 37.505 171.691 37.855C172.181 38.205 172.787 38.38 173.511 38.38C174.071 38.38 174.514 38.2633 174.841 38.03C175.167 37.7967 175.331 37.4933 175.331 37.12C175.331 36.63 175.062 36.2683 174.526 36.035C173.989 35.8017 173.102 35.545 171.866 35.265C170.466 34.985 169.299 34.67 168.366 34.32C167.432 33.97 166.616 33.3983 165.916 32.605C165.239 31.8117 164.901 30.7383 164.901 29.385C164.901 28.2183 165.216 27.1683 165.846 26.235C166.476 25.2783 167.397 24.52 168.611 23.96C169.847 23.4 171.329 23.12 173.056 23.12C175.622 23.12 177.641 23.75 179.111 25.01C180.581 26.27 181.432 27.9267 181.666 29.98H175.471C175.354 29.35 175.074 28.8717 174.631 28.545C174.211 28.195 173.639 28.02 172.916 28.02C172.356 28.02 171.924 28.125 171.621 28.335C171.341 28.545 171.201 28.8367 171.201 29.21C171.201 29.6767 171.469 30.0383 172.006 30.295C172.542 30.5283 173.406 30.7733 174.596 31.03C176.019 31.3333 177.197 31.6717 178.131 32.045C179.087 32.4183 179.916 33.025 180.616 33.865C181.339 34.6817 181.701 35.8017 181.701 37.225C181.701 38.3683 181.362 39.395 180.686 40.305C180.032 41.215 179.087 41.9383 177.851 42.475C176.637 42.9883 175.202 43.245 173.546 43.245ZM205.163 23.365V43H198.268V40.2C197.685 41.0867 196.88 41.81 195.853 42.37C194.827 42.9067 193.648 43.175 192.318 43.175C190.032 43.175 188.223 42.4283 186.893 40.935C185.587 39.4183 184.933 37.365 184.933 34.775V23.365H191.758V33.9C191.758 35.02 192.05 35.9067 192.633 36.56C193.24 37.19 194.033 37.505 195.013 37.505C196.017 37.505 196.81 37.19 197.393 36.56C197.977 35.9067 198.268 35.02 198.268 33.9V23.365H205.163ZM215.927 26.83C216.697 25.71 217.631 24.8233 218.727 24.17C219.824 23.5167 221.002 23.19 222.262 23.19V30.505H220.337C218.844 30.505 217.736 30.7967 217.012 31.38C216.289 31.9633 215.927 32.9783 215.927 34.425V43H209.067V23.365H215.927V26.83ZM243.482 32.955C243.482 33.4917 243.447 34.0283 243.377 34.565H230.392C230.462 35.6383 230.753 36.4433 231.267 36.98C231.803 37.4933 232.48 37.75 233.297 37.75C234.44 37.75 235.257 37.2367 235.747 36.21H243.062C242.758 37.5633 242.163 38.7767 241.277 39.85C240.413 40.9 239.317 41.7283 237.987 42.335C236.657 42.9417 235.187 43.245 233.577 43.245C231.64 43.245 229.913 42.8367 228.397 42.02C226.903 41.2033 225.725 40.0367 224.862 38.52C224.022 37.0033 223.602 35.2183 223.602 33.165C223.602 31.1117 224.022 29.3383 224.862 27.845C225.702 26.3283 226.868 25.1617 228.362 24.345C229.878 23.5283 231.617 23.12 233.577 23.12C235.513 23.12 237.228 23.5167 238.722 24.31C240.215 25.1033 241.382 26.2467 242.222 27.74C243.062 29.21 243.482 30.9483 243.482 32.955ZM236.482 31.24C236.482 30.4 236.202 29.7467 235.642 29.28C235.082 28.79 234.382 28.545 233.542 28.545C232.702 28.545 232.013 28.7783 231.477 29.245C230.94 29.6883 230.59 30.3533 230.427 31.24H236.482ZM253.779 16.505C256.322 16.505 258.364 17.1583 259.904 18.465C261.444 19.7717 262.214 21.6383 262.214 24.065C262.214 26.1883 261.502 27.8683 260.079 29.105C258.679 30.3417 256.824 30.9833 254.514 31.03L254.339 33.585H248.284L248.074 26.62H250.594C252.181 26.62 253.394 26.445 254.234 26.095C255.074 25.7217 255.494 25.0683 255.494 24.135C255.494 23.505 255.319 23.015 254.969 22.665C254.642 22.2917 254.187 22.105 253.604 22.105C252.951 22.105 252.449 22.3033 252.099 22.7C251.772 23.0733 251.609 23.5867 251.609 24.24H245.134C245.087 22.8167 245.379 21.5217 246.009 20.355C246.662 19.165 247.642 18.2317 248.949 17.555C250.256 16.855 251.866 16.505 253.779 16.505ZM251.364 43.28C250.151 43.28 249.171 42.9533 248.424 42.3C247.701 41.6233 247.339 40.7717 247.339 39.745C247.339 38.7183 247.701 37.8667 248.424 37.19C249.171 36.5133 250.151 36.175 251.364 36.175C252.554 36.175 253.511 36.5133 254.234 37.19C254.981 37.8667 255.354 38.7183 255.354 39.745C255.354 40.7483 254.981 41.5883 254.234 42.265C253.511 42.9417 252.554 43.28 251.364 43.28Z" fill="#F10A0A"/>
</g>
<defs>
<clipPath id="clip0_579_2031">
<rect width="647" height="409" rx="10" fill="white"/>
</clipPath>
</defs>
</svg>
