<svg width="647" height="221" viewBox="0 0 647 221" fill="none" xmlns="http://www.w3.org/2000/svg">
<rect width="647" height="221" rx="10" fill="white"/>
<path d="M0 15C0 6.71573 6.71573 0 15 0H632C640.284 0 647 6.71573 647 15V107C647 115.284 640.284 122 632 122H15C6.71574 122 0 115.284 0 107V15Z" fill="white"/>
<path d="M31.67 102.35H22.55L20.87 107H17.99L25.55 86.21H28.7L36.23 107H33.35L31.67 102.35ZM30.89 100.13L27.11 89.57L23.33 100.13H30.89ZM42.2548 93.62C42.8148 92.64 43.6348 91.84 44.7148 91.22C45.7948 90.6 47.0248 90.29 48.4048 90.29C49.8848 90.29 51.2148 90.64 52.3948 91.34C53.5748 92.04 54.5048 93.03 55.1848 94.31C55.8648 95.57 56.2048 97.04 56.2048 98.72C56.2048 100.38 55.8648 101.86 55.1848 103.16C54.5048 104.46 53.5648 105.47 52.3648 106.19C51.1848 106.91 49.8648 107.27 48.4048 107.27C46.9848 107.27 45.7348 106.96 44.6548 106.34C43.5948 105.72 42.7948 104.93 42.2548 103.97V107H39.5248V84.8H42.2548V93.62ZM53.4148 98.72C53.4148 97.48 53.1648 96.4 52.6648 95.48C52.1648 94.56 51.4848 93.86 50.6248 93.38C49.7848 92.9 48.8548 92.66 47.8348 92.66C46.8348 92.66 45.9048 92.91 45.0448 93.41C44.2048 93.89 43.5248 94.6 43.0048 95.54C42.5048 96.46 42.2548 97.53 42.2548 98.75C42.2548 99.99 42.5048 101.08 43.0048 102.02C43.5248 102.94 44.2048 103.65 45.0448 104.15C45.9048 104.63 46.8348 104.87 47.8348 104.87C48.8548 104.87 49.7848 104.63 50.6248 104.15C51.4848 103.65 52.1648 102.94 52.6648 102.02C53.1648 101.08 53.4148 99.98 53.4148 98.72ZM66.9683 107.27C65.4283 107.27 64.0283 106.92 62.7683 106.22C61.5283 105.52 60.5483 104.53 59.8283 103.25C59.1283 101.95 58.7783 100.45 58.7783 98.75C58.7783 97.07 59.1383 95.59 59.8583 94.31C60.5983 93.01 61.5983 92.02 62.8583 91.34C64.1183 90.64 65.5283 90.29 67.0883 90.29C68.6483 90.29 70.0583 90.64 71.3183 91.34C72.5783 92.02 73.5683 93 74.2883 94.28C75.0283 95.56 75.3983 97.05 75.3983 98.75C75.3983 100.45 75.0183 101.95 74.2583 103.25C73.5183 104.53 72.5083 105.52 71.2283 106.22C69.9483 106.92 68.5283 107.27 66.9683 107.27ZM66.9683 104.87C67.9483 104.87 68.8683 104.64 69.7283 104.18C70.5883 103.72 71.2783 103.03 71.7983 102.11C72.3383 101.19 72.6083 100.07 72.6083 98.75C72.6083 97.43 72.3483 96.31 71.8283 95.39C71.3083 94.47 70.6283 93.79 69.7883 93.35C68.9483 92.89 68.0383 92.66 67.0583 92.66C66.0583 92.66 65.1383 92.89 64.2983 93.35C63.4783 93.79 62.8183 94.47 62.3183 95.39C61.8183 96.31 61.5683 97.43 61.5683 98.75C61.5683 100.09 61.8083 101.22 62.2883 102.14C62.7883 103.06 63.4483 103.75 64.2683 104.21C65.0883 104.65 65.9883 104.87 66.9683 104.87ZM81.7177 93.23C82.1977 92.29 82.8777 91.56 83.7577 91.04C84.6577 90.52 85.7477 90.26 87.0277 90.26V93.08H86.3077C83.2477 93.08 81.7177 94.74 81.7177 98.06V107H78.9877V90.56H81.7177V93.23ZM93.5091 92.81V102.5C93.5091 103.3 93.6791 103.87 94.0191 104.21C94.3591 104.53 94.9491 104.69 95.7891 104.69H97.7991V107H95.3391C93.8191 107 92.6791 106.65 91.9191 105.95C91.1591 105.25 90.7791 104.1 90.7791 102.5V92.81H88.6491V90.56H90.7791V86.42H93.5091V90.56H97.7991V92.81H93.5091ZM117.265 90.26C118.505 90.26 119.625 90.53 120.625 91.07C121.625 91.59 122.405 92.38 122.965 93.44C123.545 94.5 123.835 95.79 123.835 97.31V107H121.135V97.7C121.135 96.06 120.725 94.81 119.905 93.95C119.085 93.07 117.965 92.63 116.545 92.63C115.105 92.63 113.955 93.08 113.095 93.98C112.255 94.88 111.835 96.19 111.835 97.91V107H109.105V84.8H111.835V92.9C112.375 92.06 113.115 91.41 114.055 90.95C115.015 90.49 116.085 90.26 117.265 90.26ZM143.294 98.15C143.294 98.67 143.264 99.22 143.204 99.8H130.064C130.164 101.42 130.714 102.69 131.714 103.61C132.734 104.51 133.964 104.96 135.404 104.96C136.584 104.96 137.564 104.69 138.344 104.15C139.144 103.59 139.704 102.85 140.024 101.93H142.964C142.524 103.51 141.644 104.8 140.324 105.8C139.004 106.78 137.364 107.27 135.404 107.27C133.844 107.27 132.444 106.92 131.204 106.22C129.984 105.52 129.024 104.53 128.324 103.25C127.624 101.95 127.274 100.45 127.274 98.75C127.274 97.05 127.614 95.56 128.294 94.28C128.974 93 129.924 92.02 131.144 91.34C132.384 90.64 133.804 90.29 135.404 90.29C136.964 90.29 138.344 90.63 139.544 91.31C140.744 91.99 141.664 92.93 142.304 94.13C142.964 95.31 143.294 96.65 143.294 98.15ZM140.474 97.58C140.474 96.54 140.244 95.65 139.784 94.91C139.324 94.15 138.694 93.58 137.894 93.2C137.114 92.8 136.244 92.6 135.284 92.6C133.904 92.6 132.724 93.04 131.744 93.92C130.784 94.8 130.234 96.02 130.094 97.58H140.474ZM149.628 84.8V107H146.898V84.8H149.628ZM157.011 93.59C157.551 92.65 158.351 91.87 159.411 91.25C160.491 90.61 161.741 90.29 163.161 90.29C164.621 90.29 165.941 90.64 167.121 91.34C168.321 92.04 169.261 93.03 169.941 94.31C170.621 95.57 170.961 97.04 170.961 98.72C170.961 100.38 170.621 101.86 169.941 103.16C169.261 104.46 168.321 105.47 167.121 106.19C165.941 106.91 164.621 107.27 163.161 107.27C161.761 107.27 160.521 106.96 159.441 106.34C158.381 105.7 157.571 104.91 157.011 103.97V114.8H154.281V90.56H157.011V93.59ZM168.171 98.72C168.171 97.48 167.921 96.4 167.421 95.48C166.921 94.56 166.241 93.86 165.381 93.38C164.541 92.9 163.611 92.66 162.591 92.66C161.591 92.66 160.661 92.91 159.801 93.41C158.961 93.89 158.281 94.6 157.761 95.54C157.261 96.46 157.011 97.53 157.011 98.75C157.011 99.99 157.261 101.08 157.761 102.02C158.281 102.94 158.961 103.65 159.801 104.15C160.661 104.63 161.591 104.87 162.591 104.87C163.611 104.87 164.541 104.63 165.381 104.15C166.241 103.65 166.921 102.94 167.421 102.02C167.921 101.08 168.171 99.98 168.171 98.72ZM175.964 87.89C175.444 87.89 175.004 87.71 174.644 87.35C174.284 86.99 174.104 86.55 174.104 86.03C174.104 85.51 174.284 85.07 174.644 84.71C175.004 84.35 175.444 84.17 175.964 84.17C176.464 84.17 176.884 84.35 177.224 84.71C177.584 85.07 177.764 85.51 177.764 86.03C177.764 86.55 177.584 86.99 177.224 87.35C176.884 87.71 176.464 87.89 175.964 87.89ZM177.284 90.56V107H174.554V90.56H177.284ZM189.947 90.26C191.947 90.26 193.567 90.87 194.807 92.09C196.047 93.29 196.667 95.03 196.667 97.31V107H193.967V97.7C193.967 96.06 193.557 94.81 192.737 93.95C191.917 93.07 190.797 92.63 189.377 92.63C187.937 92.63 186.787 93.08 185.927 93.98C185.087 94.88 184.667 96.19 184.667 97.91V107H181.937V90.56H184.667V92.9C185.207 92.06 185.937 91.41 186.857 90.95C187.797 90.49 188.827 90.26 189.947 90.26ZM207.906 90.29C209.326 90.29 210.566 90.6 211.626 91.22C212.706 91.84 213.506 92.62 214.026 93.56V90.56H216.786V107.36C216.786 108.86 216.466 110.19 215.826 111.35C215.186 112.53 214.266 113.45 213.066 114.11C211.886 114.77 210.506 115.1 208.926 115.1C206.766 115.1 204.966 114.59 203.526 113.57C202.086 112.55 201.236 111.16 200.976 109.4H203.676C203.976 110.4 204.596 111.2 205.536 111.8C206.476 112.42 207.606 112.73 208.926 112.73C210.426 112.73 211.646 112.26 212.586 111.32C213.546 110.38 214.026 109.06 214.026 107.36V103.91C213.486 104.87 212.686 105.67 211.626 106.31C210.566 106.95 209.326 107.27 207.906 107.27C206.446 107.27 205.116 106.91 203.916 106.19C202.736 105.47 201.806 104.46 201.126 103.16C200.446 101.86 200.106 100.38 200.106 98.72C200.106 97.04 200.446 95.57 201.126 94.31C201.806 93.03 202.736 92.04 203.916 91.34C205.116 90.64 206.446 90.29 207.906 90.29ZM214.026 98.75C214.026 97.51 213.776 96.43 213.276 95.51C212.776 94.59 212.096 93.89 211.236 93.41C210.396 92.91 209.466 92.66 208.446 92.66C207.426 92.66 206.496 92.9 205.656 93.38C204.816 93.86 204.146 94.56 203.646 95.48C203.146 96.4 202.896 97.48 202.896 98.72C202.896 99.98 203.146 101.08 203.646 102.02C204.146 102.94 204.816 103.65 205.656 104.15C206.496 104.63 207.426 104.87 208.446 104.87C209.466 104.87 210.396 104.63 211.236 104.15C212.096 103.65 212.776 102.94 213.276 102.02C213.776 101.08 214.026 99.99 214.026 98.75ZM232.728 92.81V102.5C232.728 103.3 232.898 103.87 233.238 104.21C233.578 104.53 234.168 104.69 235.008 104.69H237.018V107H234.558C233.038 107 231.898 106.65 231.138 105.95C230.378 105.25 229.998 104.1 229.998 102.5V92.81H227.868V90.56H229.998V86.42H232.728V90.56H237.018V92.81H232.728ZM248.486 90.26C249.726 90.26 250.846 90.53 251.846 91.07C252.846 91.59 253.626 92.38 254.186 93.44C254.766 94.5 255.056 95.79 255.056 97.31V107H252.356V97.7C252.356 96.06 251.946 94.81 251.126 93.95C250.306 93.07 249.186 92.63 247.766 92.63C246.326 92.63 245.176 93.08 244.316 93.98C243.476 94.88 243.056 96.19 243.056 97.91V107H240.326V84.8H243.056V92.9C243.596 92.06 244.336 91.41 245.276 90.95C246.236 90.49 247.306 90.26 248.486 90.26ZM260.925 87.89C260.405 87.89 259.965 87.71 259.605 87.35C259.245 86.99 259.065 86.55 259.065 86.03C259.065 85.51 259.245 85.07 259.605 84.71C259.965 84.35 260.405 84.17 260.925 84.17C261.425 84.17 261.845 84.35 262.185 84.71C262.545 85.07 262.725 85.51 262.725 86.03C262.725 86.55 262.545 86.99 262.185 87.35C261.845 87.71 261.425 87.89 260.925 87.89ZM262.245 90.56V107H259.515V90.56H262.245ZM272.718 107.27C271.458 107.27 270.328 107.06 269.328 106.64C268.328 106.2 267.538 105.6 266.958 104.84C266.378 104.06 266.058 103.17 265.998 102.17H268.818C268.898 102.99 269.278 103.66 269.958 104.18C270.658 104.7 271.568 104.96 272.688 104.96C273.728 104.96 274.548 104.73 275.148 104.27C275.748 103.81 276.048 103.23 276.048 102.53C276.048 101.81 275.728 101.28 275.088 100.94C274.448 100.58 273.458 100.23 272.118 99.89C270.898 99.57 269.898 99.25 269.118 98.93C268.358 98.59 267.698 98.1 267.138 97.46C266.598 96.8 266.328 95.94 266.328 94.88C266.328 94.04 266.578 93.27 267.078 92.57C267.578 91.87 268.288 91.32 269.208 90.92C270.128 90.5 271.178 90.29 272.358 90.29C274.178 90.29 275.648 90.75 276.768 91.67C277.888 92.59 278.488 93.85 278.568 95.45H275.838C275.778 94.59 275.428 93.9 274.788 93.38C274.168 92.86 273.328 92.6 272.268 92.6C271.288 92.6 270.508 92.81 269.928 93.23C269.348 93.65 269.058 94.2 269.058 94.88C269.058 95.42 269.228 95.87 269.568 96.23C269.928 96.57 270.368 96.85 270.888 97.07C271.428 97.27 272.168 97.5 273.108 97.76C274.288 98.08 275.248 98.4 275.988 98.72C276.728 99.02 277.358 99.48 277.878 100.1C278.418 100.72 278.698 101.53 278.718 102.53C278.718 103.43 278.468 104.24 277.968 104.96C277.468 105.68 276.758 106.25 275.838 106.67C274.938 107.07 273.898 107.27 272.718 107.27ZM293.3 93.59C293.84 92.65 294.64 91.87 295.7 91.25C296.78 90.61 298.03 90.29 299.45 90.29C300.91 90.29 302.23 90.64 303.41 91.34C304.61 92.04 305.55 93.03 306.23 94.31C306.91 95.57 307.25 97.04 307.25 98.72C307.25 100.38 306.91 101.86 306.23 103.16C305.55 104.46 304.61 105.47 303.41 106.19C302.23 106.91 300.91 107.27 299.45 107.27C298.05 107.27 296.81 106.96 295.73 106.34C294.67 105.7 293.86 104.91 293.3 103.97V114.8H290.57V90.56H293.3V93.59ZM304.46 98.72C304.46 97.48 304.21 96.4 303.71 95.48C303.21 94.56 302.53 93.86 301.67 93.38C300.83 92.9 299.9 92.66 298.88 92.66C297.88 92.66 296.95 92.91 296.09 93.41C295.25 93.89 294.57 94.6 294.05 95.54C293.55 96.46 293.3 97.53 293.3 98.75C293.3 99.99 293.55 101.08 294.05 102.02C294.57 102.94 295.25 103.65 296.09 104.15C296.95 104.63 297.88 104.87 298.88 104.87C299.9 104.87 300.83 104.63 301.67 104.15C302.53 103.65 303.21 102.94 303.71 102.02C304.21 101.08 304.46 99.98 304.46 98.72ZM325.843 98.15C325.843 98.67 325.813 99.22 325.753 99.8H312.613C312.713 101.42 313.263 102.69 314.263 103.61C315.283 104.51 316.513 104.96 317.953 104.96C319.133 104.96 320.113 104.69 320.893 104.15C321.693 103.59 322.253 102.85 322.573 101.93H325.513C325.073 103.51 324.193 104.8 322.873 105.8C321.553 106.78 319.913 107.27 317.953 107.27C316.393 107.27 314.993 106.92 313.753 106.22C312.533 105.52 311.573 104.53 310.873 103.25C310.173 101.95 309.823 100.45 309.823 98.75C309.823 97.05 310.163 95.56 310.843 94.28C311.523 93 312.473 92.02 313.693 91.34C314.933 90.64 316.353 90.29 317.953 90.29C319.513 90.29 320.893 90.63 322.093 91.31C323.293 91.99 324.213 92.93 324.853 94.13C325.513 95.31 325.843 96.65 325.843 98.15ZM323.023 97.58C323.023 96.54 322.793 95.65 322.333 94.91C321.873 94.15 321.243 93.58 320.443 93.2C319.663 92.8 318.793 92.6 317.833 92.6C316.453 92.6 315.273 93.04 314.293 93.92C313.333 94.8 312.783 96.02 312.643 97.58H323.023ZM332.177 93.23C332.657 92.29 333.337 91.56 334.217 91.04C335.117 90.52 336.207 90.26 337.487 90.26V93.08H336.767C333.707 93.08 332.177 94.74 332.177 98.06V107H329.447V90.56H332.177V93.23ZM346.458 107.27C345.198 107.27 344.068 107.06 343.068 106.64C342.068 106.2 341.278 105.6 340.698 104.84C340.118 104.06 339.798 103.17 339.738 102.17H342.558C342.638 102.99 343.018 103.66 343.698 104.18C344.398 104.7 345.308 104.96 346.428 104.96C347.468 104.96 348.288 104.73 348.888 104.27C349.488 103.81 349.788 103.23 349.788 102.53C349.788 101.81 349.468 101.28 348.828 100.94C348.188 100.58 347.198 100.23 345.858 99.89C344.638 99.57 343.638 99.25 342.858 98.93C342.098 98.59 341.438 98.1 340.878 97.46C340.338 96.8 340.068 95.94 340.068 94.88C340.068 94.04 340.318 93.27 340.818 92.57C341.318 91.87 342.028 91.32 342.948 90.92C343.868 90.5 344.918 90.29 346.098 90.29C347.918 90.29 349.388 90.75 350.508 91.67C351.628 92.59 352.228 93.85 352.308 95.45H349.578C349.518 94.59 349.168 93.9 348.528 93.38C347.908 92.86 347.068 92.6 346.008 92.6C345.028 92.6 344.248 92.81 343.668 93.23C343.088 93.65 342.798 94.2 342.798 94.88C342.798 95.42 342.968 95.87 343.308 96.23C343.668 96.57 344.108 96.85 344.628 97.07C345.168 97.27 345.908 97.5 346.848 97.76C348.028 98.08 348.988 98.4 349.728 98.72C350.468 99.02 351.098 99.48 351.618 100.1C352.158 100.72 352.438 101.53 352.458 102.53C352.458 103.43 352.208 104.24 351.708 104.96C351.208 105.68 350.498 106.25 349.578 106.67C348.678 107.07 347.638 107.27 346.458 107.27ZM363.482 107.27C361.942 107.27 360.542 106.92 359.282 106.22C358.042 105.52 357.062 104.53 356.342 103.25C355.642 101.95 355.292 100.45 355.292 98.75C355.292 97.07 355.652 95.59 356.372 94.31C357.112 93.01 358.112 92.02 359.372 91.34C360.632 90.64 362.042 90.29 363.602 90.29C365.162 90.29 366.572 90.64 367.832 91.34C369.092 92.02 370.082 93 370.802 94.28C371.542 95.56 371.912 97.05 371.912 98.75C371.912 100.45 371.532 101.95 370.772 103.25C370.032 104.53 369.022 105.52 367.742 106.22C366.462 106.92 365.042 107.27 363.482 107.27ZM363.482 104.87C364.462 104.87 365.382 104.64 366.242 104.18C367.102 103.72 367.792 103.03 368.312 102.11C368.852 101.19 369.122 100.07 369.122 98.75C369.122 97.43 368.862 96.31 368.342 95.39C367.822 94.47 367.142 93.79 366.302 93.35C365.462 92.89 364.552 92.66 363.572 92.66C362.572 92.66 361.652 92.89 360.812 93.35C359.992 93.79 359.332 94.47 358.832 95.39C358.332 96.31 358.082 97.43 358.082 98.75C358.082 100.09 358.322 101.22 358.802 102.14C359.302 103.06 359.962 103.75 360.782 104.21C361.602 104.65 362.502 104.87 363.482 104.87ZM383.511 90.26C385.511 90.26 387.131 90.87 388.371 92.09C389.611 93.29 390.231 95.03 390.231 97.31V107H387.531V97.7C387.531 96.06 387.121 94.81 386.301 93.95C385.481 93.07 384.361 92.63 382.941 92.63C381.501 92.63 380.351 93.08 379.491 93.98C378.651 94.88 378.231 96.19 378.231 97.91V107H375.501V90.56H378.231V92.9C378.771 92.06 379.501 91.41 380.421 90.95C381.361 90.49 382.391 90.26 383.511 90.26ZM400.031 85.82C402.011 85.82 403.611 86.38 404.831 87.5C406.051 88.62 406.661 90.12 406.661 92C406.661 94.1 406.011 95.66 404.711 96.68C403.411 97.68 401.651 98.18 399.431 98.18L399.341 101.03H396.971L396.851 96.29H397.721C399.701 96.29 401.251 95.99 402.371 95.39C403.491 94.79 404.051 93.66 404.051 92C404.051 90.8 403.691 89.85 402.971 89.15C402.251 88.45 401.281 88.1 400.061 88.1C398.821 88.1 397.841 88.44 397.121 89.12C396.421 89.78 396.071 90.69 396.071 91.85H393.491C393.491 90.65 393.761 89.6 394.301 88.7C394.841 87.78 395.601 87.07 396.581 86.57C397.581 86.07 398.731 85.82 400.031 85.82ZM398.141 107.18C397.621 107.18 397.181 107 396.821 106.64C396.461 106.28 396.281 105.84 396.281 105.32C396.281 104.8 396.461 104.36 396.821 104C397.181 103.64 397.621 103.46 398.141 103.46C398.641 103.46 399.061 103.64 399.401 104C399.761 104.36 399.941 104.8 399.941 105.32C399.941 105.84 399.761 106.28 399.401 106.64C399.061 107 398.641 107.18 398.141 107.18Z" fill="black"/>
<path d="M18.12 30.61C18.12 28.1833 18.6217 26.025 19.625 24.135C20.6517 22.2217 22.0983 20.74 23.965 19.69C25.8317 18.6167 27.9783 18.08 30.405 18.08C33.485 18.08 36.075 18.9083 38.175 20.565C40.275 22.1983 41.6283 24.4267 42.235 27.25H34.85C34.4067 26.3167 33.7883 25.605 32.995 25.115C32.225 24.625 31.3267 24.38 30.3 24.38C28.7133 24.38 27.4417 24.9517 26.485 26.095C25.5517 27.215 25.085 28.72 25.085 30.61C25.085 32.5233 25.5517 34.0517 26.485 35.195C27.4417 36.315 28.7133 36.875 30.3 36.875C31.3267 36.875 32.225 36.63 32.995 36.14C33.7883 35.65 34.4067 34.9383 34.85 34.005H42.235C41.6283 36.8283 40.275 39.0683 38.175 40.725C36.075 42.3583 33.485 43.175 30.405 43.175C27.9783 43.175 25.8317 42.65 23.965 41.6C22.0983 40.5267 20.6517 39.045 19.625 37.155C18.6217 35.2417 18.12 33.06 18.12 30.61ZM54.6184 43.245C52.6584 43.245 50.8968 42.8367 49.3334 42.02C47.7934 41.2033 46.5801 40.0367 45.6934 38.52C44.8068 37.0033 44.3634 35.2183 44.3634 33.165C44.3634 31.135 44.8068 29.3617 45.6934 27.845C46.6034 26.3283 47.8284 25.1617 49.3684 24.345C50.9318 23.5283 52.6934 23.12 54.6534 23.12C56.6134 23.12 58.3634 23.5283 59.9034 24.345C61.4668 25.1617 62.6918 26.3283 63.5784 27.845C64.4884 29.3617 64.9434 31.135 64.9434 33.165C64.9434 35.195 64.4884 36.98 63.5784 38.52C62.6918 40.0367 61.4668 41.2033 59.9034 42.02C58.3401 42.8367 56.5784 43.245 54.6184 43.245ZM54.6184 37.295C55.5751 37.295 56.3684 36.945 56.9984 36.245C57.6518 35.5217 57.9784 34.495 57.9784 33.165C57.9784 31.835 57.6518 30.82 56.9984 30.12C56.3684 29.42 55.5868 29.07 54.6534 29.07C53.7201 29.07 52.9384 29.42 52.3084 30.12C51.6784 30.82 51.3634 31.835 51.3634 33.165C51.3634 34.5183 51.6668 35.545 52.2734 36.245C52.8801 36.945 53.6618 37.295 54.6184 37.295ZM80.5794 23.19C82.8427 23.19 84.6394 23.9483 85.9694 25.465C87.2994 26.9583 87.9644 28.9883 87.9644 31.555V43H81.1044V32.465C81.1044 31.345 80.8127 30.47 80.2294 29.84C79.6461 29.1867 78.8644 28.86 77.8844 28.86C76.8577 28.86 76.0527 29.1867 75.4694 29.84C74.8861 30.47 74.5944 31.345 74.5944 32.465V43H67.7344V23.365H74.5944V26.165C75.2011 25.2783 76.0177 24.5667 77.0444 24.03C78.0711 23.47 79.2494 23.19 80.5794 23.19ZM102.334 29.07H99.2536V43H92.3586V29.07H90.2236V23.365H92.3586V23.19C92.3586 20.67 93.0936 18.745 94.5636 17.415C96.0569 16.0617 98.1919 15.385 100.969 15.385C101.529 15.385 101.96 15.3967 102.264 15.42V21.265C102.077 21.2417 101.82 21.23 101.494 21.23C100.747 21.23 100.199 21.405 99.8486 21.755C99.4986 22.0817 99.3002 22.6183 99.2536 23.365H102.334V29.07ZM108.25 21.545C107.037 21.545 106.057 21.2183 105.31 20.565C104.587 19.8883 104.225 19.0483 104.225 18.045C104.225 17.0183 104.587 16.1667 105.31 15.49C106.057 14.8133 107.037 14.475 108.25 14.475C109.44 14.475 110.397 14.8133 111.12 15.49C111.867 16.1667 112.24 17.0183 112.24 18.045C112.24 19.0483 111.867 19.8883 111.12 20.565C110.397 21.2183 109.44 21.545 108.25 21.545ZM111.645 23.365V43H104.785V23.365H111.645ZM122.412 26.83C123.182 25.71 124.115 24.8233 125.212 24.17C126.308 23.5167 127.487 23.19 128.747 23.19V30.505H126.822C125.328 30.505 124.22 30.7967 123.497 31.38C122.773 31.9633 122.412 32.9783 122.412 34.425V43H115.552V23.365H122.412V26.83ZM156.861 23.19C159.334 23.19 161.271 23.9367 162.671 25.43C164.094 26.9233 164.806 28.965 164.806 31.555V43H157.946V32.465C157.946 31.415 157.654 30.5983 157.071 30.015C156.488 29.4317 155.694 29.14 154.691 29.14C153.688 29.14 152.894 29.4317 152.311 30.015C151.728 30.5983 151.436 31.415 151.436 32.465V43H144.576V32.465C144.576 31.415 144.284 30.5983 143.701 30.015C143.141 29.4317 142.359 29.14 141.356 29.14C140.329 29.14 139.524 29.4317 138.941 30.015C138.358 30.5983 138.066 31.415 138.066 32.465V43H131.206V23.365H138.066V25.955C138.673 25.115 139.454 24.45 140.411 23.96C141.391 23.4467 142.511 23.19 143.771 23.19C145.218 23.19 146.501 23.505 147.621 24.135C148.764 24.765 149.663 25.6517 150.316 26.795C151.016 25.7217 151.938 24.8583 153.081 24.205C154.224 23.5283 155.484 23.19 156.861 23.19Z" fill="#F10A0A"/>
<rect x="382" y="145.152" width="244" height="52.6609" rx="13.0556" fill="#ADADAD"/>
<path d="M446.478 171.424C446.478 169.707 446.861 168.174 447.628 166.824C448.411 165.457 449.469 164.399 450.803 163.649C452.153 162.882 453.661 162.499 455.328 162.499C457.278 162.499 458.986 162.999 460.453 163.999C461.919 164.999 462.944 166.382 463.528 168.149H459.503C459.103 167.315 458.536 166.69 457.803 166.274C457.086 165.857 456.253 165.649 455.303 165.649C454.286 165.649 453.378 165.89 452.578 166.374C451.794 166.84 451.178 167.507 450.728 168.374C450.294 169.24 450.078 170.257 450.078 171.424C450.078 172.574 450.294 173.59 450.728 174.474C451.178 175.34 451.794 176.015 452.578 176.499C453.378 176.965 454.286 177.199 455.303 177.199C456.253 177.199 457.086 176.99 457.803 176.574C458.536 176.14 459.103 175.507 459.503 174.674H463.528C462.944 176.457 461.919 177.849 460.453 178.849C459.003 179.832 457.294 180.324 455.328 180.324C453.661 180.324 452.153 179.949 450.803 179.199C449.469 178.432 448.411 177.374 447.628 176.024C446.861 174.674 446.478 173.14 446.478 171.424ZM474.617 180.349C472.984 180.349 471.484 179.965 470.117 179.199C468.751 178.432 467.667 177.374 466.867 176.024C466.067 174.657 465.667 173.115 465.667 171.399C465.667 169.699 466.067 168.174 466.867 166.824C467.667 165.457 468.751 164.39 470.117 163.624C471.484 162.857 472.984 162.474 474.617 162.474C476.267 162.474 477.767 162.857 479.117 163.624C480.484 164.39 481.559 165.457 482.342 166.824C483.142 168.174 483.542 169.699 483.542 171.399C483.542 173.115 483.142 174.657 482.342 176.024C481.559 177.374 480.484 178.432 479.117 179.199C477.751 179.965 476.251 180.349 474.617 180.349ZM474.617 177.224C475.667 177.224 476.592 176.99 477.392 176.524C478.192 176.04 478.817 175.357 479.267 174.474C479.717 173.59 479.942 172.565 479.942 171.399C479.942 170.232 479.717 169.215 479.267 168.349C478.817 167.465 478.192 166.79 477.392 166.324C476.592 165.857 475.667 165.624 474.617 165.624C473.567 165.624 472.634 165.857 471.817 166.324C471.017 166.79 470.392 167.465 469.942 168.349C469.492 169.215 469.267 170.232 469.267 171.399C469.267 172.565 469.492 173.59 469.942 174.474C470.392 175.357 471.017 176.04 471.817 176.524C472.634 176.99 473.567 177.224 474.617 177.224ZM501.071 180.174H497.571L489.646 168.199V180.174H486.146V162.699H489.646L497.571 174.699V162.699H501.071V180.174ZM515.305 162.724V165.549H508.03V170.024H513.605V172.799H508.03V180.174H504.53V162.724H515.305ZM521.287 162.724V180.174H517.787V162.724H521.287ZM533.745 180.174L529.895 173.374H528.245V180.174H524.745V162.724H531.295C532.645 162.724 533.795 162.965 534.745 163.449C535.695 163.915 536.403 164.557 536.87 165.374C537.353 166.174 537.595 167.074 537.595 168.074C537.595 169.224 537.261 170.265 536.595 171.199C535.928 172.115 534.936 172.749 533.62 173.099L537.795 180.174H533.745ZM528.245 170.749H531.17C532.12 170.749 532.828 170.524 533.295 170.074C533.761 169.607 533.995 168.965 533.995 168.149C533.995 167.349 533.761 166.732 533.295 166.299C532.828 165.849 532.12 165.624 531.17 165.624H528.245V170.749ZM559.785 162.724V180.174H556.285V168.824L551.61 180.174H548.96L544.26 168.824V180.174H540.76V162.724H544.735L550.285 175.699L555.835 162.724H559.785Z" fill="white" fill-opacity="0.98"/>
<rect x="22" y="145" width="344" height="53" rx="13.0556" fill="#4285F4"/>
<path d="M145.156 172.25C145.156 170.533 145.539 169 146.306 167.65C147.089 166.283 148.147 165.225 149.481 164.475C150.831 163.708 152.339 163.325 154.006 163.325C155.956 163.325 157.664 163.825 159.131 164.825C160.597 165.825 161.622 167.208 162.206 168.975H158.181C157.781 168.142 157.214 167.517 156.481 167.1C155.764 166.683 154.931 166.475 153.981 166.475C152.964 166.475 152.056 166.717 151.256 167.2C150.472 167.667 149.856 168.333 149.406 169.2C148.972 170.067 148.756 171.083 148.756 172.25C148.756 173.4 148.972 174.417 149.406 175.3C149.856 176.167 150.472 176.842 151.256 177.325C152.056 177.792 152.964 178.025 153.981 178.025C154.931 178.025 155.764 177.817 156.481 177.4C157.214 176.967 157.781 176.333 158.181 175.5H162.206C161.622 177.283 160.597 178.675 159.131 179.675C157.681 180.658 155.972 181.15 154.006 181.15C152.339 181.15 150.831 180.775 149.481 180.025C148.147 179.258 147.089 178.2 146.306 176.85C145.539 175.5 145.156 173.967 145.156 172.25ZM175.895 177.675H168.945L167.795 181H164.12L170.395 163.525H174.47L180.745 181H177.045L175.895 177.675ZM174.945 174.875L172.42 167.575L169.895 174.875H174.945ZM198.016 181H194.516L186.591 169.025V181H183.091V163.525H186.591L194.516 175.525V163.525H198.016V181ZM200.625 172.25C200.625 170.533 201.008 169 201.775 167.65C202.558 166.283 203.616 165.225 204.95 164.475C206.3 163.708 207.808 163.325 209.475 163.325C211.425 163.325 213.133 163.825 214.6 164.825C216.066 165.825 217.091 167.208 217.675 168.975H213.65C213.25 168.142 212.683 167.517 211.95 167.1C211.233 166.683 210.4 166.475 209.45 166.475C208.433 166.475 207.525 166.717 206.725 167.2C205.941 167.667 205.325 168.333 204.875 169.2C204.441 170.067 204.225 171.083 204.225 172.25C204.225 173.4 204.441 174.417 204.875 175.3C205.325 176.167 205.941 176.842 206.725 177.325C207.525 177.792 208.433 178.025 209.45 178.025C210.4 178.025 211.233 177.817 211.95 177.4C212.683 176.967 213.25 176.333 213.65 175.5H217.675C217.091 177.283 216.066 178.675 214.6 179.675C213.15 180.658 211.441 181.15 209.475 181.15C207.808 181.15 206.3 180.775 204.95 180.025C203.616 179.258 202.558 178.2 201.775 176.85C201.008 175.5 200.625 173.967 200.625 172.25ZM224.164 166.375V170.75H230.039V173.525H224.164V178.15H230.789V181H220.664V163.525H230.789V166.375H224.164ZM237.47 178.225H243.22V181H233.97V163.55H237.47V178.225Z" fill="white" fill-opacity="0.98"/>
</svg>
