<svg width="647" height="221" viewBox="0 0 647 221" fill="none" xmlns="http://www.w3.org/2000/svg">
<rect width="647" height="221" rx="10" fill="white"/>
<path d="M0 15C0 6.71573 6.71573 0 15 0H632C640.284 0 647 6.71573 647 15V107C647 115.284 640.284 122 632 122H15C6.71574 122 0 115.284 0 107V15Z" fill="white"/>
<path d="M25.82 86.09C28.1 86.09 30.07 86.52 31.73 87.38C33.41 88.22 34.69 89.43 35.57 91.01C36.47 92.59 36.92 94.45 36.92 96.59C36.92 98.73 36.47 100.59 35.57 102.17C34.69 103.73 33.41 104.93 31.73 105.77C30.07 106.59 28.1 107 25.82 107H19.31V86.09H25.82ZM25.82 104.75C28.52 104.75 30.58 104.04 32 102.62C33.42 101.18 34.13 99.17 34.13 96.59C34.13 93.99 33.41 91.96 31.97 90.5C30.55 89.04 28.5 88.31 25.82 88.31H22.04V104.75H25.82ZM41.9309 87.89C41.4109 87.89 40.9709 87.71 40.6109 87.35C40.2509 86.99 40.0709 86.55 40.0709 86.03C40.0709 85.51 40.2509 85.07 40.6109 84.71C40.9709 84.35 41.4109 84.17 41.9309 84.17C42.4309 84.17 42.8509 84.35 43.1909 84.71C43.5509 85.07 43.7309 85.51 43.7309 86.03C43.7309 86.55 43.5509 86.99 43.1909 87.35C42.8509 87.71 42.4309 87.89 41.9309 87.89ZM43.2509 90.56V107H40.5209V90.56H43.2509ZM46.8838 98.72C46.8838 97.04 47.2238 95.57 47.9038 94.31C48.5838 93.03 49.5138 92.04 50.6938 91.34C51.8938 90.64 53.2338 90.29 54.7138 90.29C55.9938 90.29 57.1838 90.59 58.2838 91.19C59.3838 91.77 60.2238 92.54 60.8038 93.5V84.8H63.5638V107H60.8038V103.91C60.2638 104.89 59.4638 105.7 58.4038 106.34C57.3438 106.96 56.1038 107.27 54.6838 107.27C53.2238 107.27 51.8938 106.91 50.6938 106.19C49.5138 105.47 48.5838 104.46 47.9038 103.16C47.2238 101.86 46.8838 100.38 46.8838 98.72ZM60.8038 98.75C60.8038 97.51 60.5538 96.43 60.0538 95.51C59.5538 94.59 58.8738 93.89 58.0138 93.41C57.1738 92.91 56.2438 92.66 55.2238 92.66C54.2038 92.66 53.2738 92.9 52.4338 93.38C51.5938 93.86 50.9238 94.56 50.4238 95.48C49.9238 96.4 49.6738 97.48 49.6738 98.72C49.6738 99.98 49.9238 101.08 50.4238 102.02C50.9238 102.94 51.5938 103.65 52.4338 104.15C53.2738 104.63 54.2038 104.87 55.2238 104.87C56.2438 104.87 57.1738 104.63 58.0138 104.15C58.8738 103.65 59.5538 102.94 60.0538 102.02C60.5538 101.08 60.8038 99.99 60.8038 98.75ZM90.3352 90.56L80.4352 114.74H77.6152L80.8552 106.82L74.2252 90.56H77.2552L82.4152 103.88L87.5152 90.56H90.3352ZM100.25 107.27C98.7095 107.27 97.3095 106.92 96.0495 106.22C94.8095 105.52 93.8295 104.53 93.1095 103.25C92.4095 101.95 92.0595 100.45 92.0595 98.75C92.0595 97.07 92.4195 95.59 93.1395 94.31C93.8795 93.01 94.8795 92.02 96.1395 91.34C97.3995 90.64 98.8095 90.29 100.37 90.29C101.93 90.29 103.34 90.64 104.6 91.34C105.86 92.02 106.85 93 107.57 94.28C108.31 95.56 108.68 97.05 108.68 98.75C108.68 100.45 108.3 101.95 107.54 103.25C106.8 104.53 105.79 105.52 104.51 106.22C103.23 106.92 101.81 107.27 100.25 107.27ZM100.25 104.87C101.23 104.87 102.15 104.64 103.01 104.18C103.87 103.72 104.56 103.03 105.08 102.11C105.62 101.19 105.89 100.07 105.89 98.75C105.89 97.43 105.63 96.31 105.11 95.39C104.59 94.47 103.91 93.79 103.07 93.35C102.23 92.89 101.32 92.66 100.34 92.66C99.3395 92.66 98.4195 92.89 97.5795 93.35C96.7595 93.79 96.0995 94.47 95.5995 95.39C95.0995 96.31 94.8495 97.43 94.8495 98.75C94.8495 100.09 95.0895 101.22 95.5695 102.14C96.0695 103.06 96.7295 103.75 97.5495 104.21C98.3695 104.65 99.2695 104.87 100.25 104.87ZM126.849 90.56V107H124.119V104.57C123.599 105.41 122.869 106.07 121.929 106.55C121.009 107.01 119.989 107.24 118.869 107.24C117.589 107.24 116.439 106.98 115.419 106.46C114.399 105.92 113.589 105.12 112.989 104.06C112.409 103 112.119 101.71 112.119 100.19V90.56H114.819V99.83C114.819 101.45 115.229 102.7 116.049 103.58C116.869 104.44 117.989 104.87 119.409 104.87C120.869 104.87 122.019 104.42 122.859 103.52C123.699 102.62 124.119 101.31 124.119 99.59V90.56H126.849ZM147.616 90.26C148.856 90.26 149.976 90.53 150.976 91.07C151.976 91.59 152.756 92.38 153.316 93.44C153.896 94.5 154.186 95.79 154.186 97.31V107H151.486V97.7C151.486 96.06 151.076 94.81 150.256 93.95C149.436 93.07 148.316 92.63 146.896 92.63C145.456 92.63 144.306 93.08 143.446 93.98C142.606 94.88 142.186 96.19 142.186 97.91V107H139.456V84.8H142.186V92.9C142.726 92.06 143.466 91.41 144.406 90.95C145.366 90.49 146.436 90.26 147.616 90.26ZM173.646 98.15C173.646 98.67 173.616 99.22 173.556 99.8H160.416C160.516 101.42 161.066 102.69 162.066 103.61C163.086 104.51 164.316 104.96 165.756 104.96C166.936 104.96 167.916 104.69 168.696 104.15C169.496 103.59 170.056 102.85 170.376 101.93H173.316C172.876 103.51 171.996 104.8 170.676 105.8C169.356 106.78 167.716 107.27 165.756 107.27C164.196 107.27 162.796 106.92 161.556 106.22C160.336 105.52 159.376 104.53 158.676 103.25C157.976 101.95 157.626 100.45 157.626 98.75C157.626 97.05 157.966 95.56 158.646 94.28C159.326 93 160.276 92.02 161.496 91.34C162.736 90.64 164.156 90.29 165.756 90.29C167.316 90.29 168.696 90.63 169.896 91.31C171.096 91.99 172.016 92.93 172.656 94.13C173.316 95.31 173.646 96.65 173.646 98.15ZM170.826 97.58C170.826 96.54 170.596 95.65 170.136 94.91C169.676 94.15 169.046 93.58 168.246 93.2C167.466 92.8 166.596 92.6 165.636 92.6C164.256 92.6 163.076 93.04 162.096 93.92C161.136 94.8 160.586 96.02 160.446 97.58H170.826ZM179.979 84.8V107H177.249V84.8H179.979ZM187.362 93.59C187.902 92.65 188.702 91.87 189.762 91.25C190.842 90.61 192.092 90.29 193.512 90.29C194.972 90.29 196.292 90.64 197.472 91.34C198.672 92.04 199.612 93.03 200.292 94.31C200.972 95.57 201.312 97.04 201.312 98.72C201.312 100.38 200.972 101.86 200.292 103.16C199.612 104.46 198.672 105.47 197.472 106.19C196.292 106.91 194.972 107.27 193.512 107.27C192.112 107.27 190.872 106.96 189.792 106.34C188.732 105.7 187.922 104.91 187.362 103.97V114.8H184.632V90.56H187.362V93.59ZM198.522 98.72C198.522 97.48 198.272 96.4 197.772 95.48C197.272 94.56 196.592 93.86 195.732 93.38C194.892 92.9 193.962 92.66 192.942 92.66C191.942 92.66 191.012 92.91 190.152 93.41C189.312 93.89 188.632 94.6 188.112 95.54C187.612 96.46 187.362 97.53 187.362 98.75C187.362 99.99 187.612 101.08 188.112 102.02C188.632 102.94 189.312 103.65 190.152 104.15C191.012 104.63 191.942 104.87 192.942 104.87C193.962 104.87 194.892 104.63 195.732 104.15C196.592 103.65 197.272 102.94 197.772 102.02C198.272 101.08 198.522 99.98 198.522 98.72ZM216.234 92.81V102.5C216.234 103.3 216.404 103.87 216.744 104.21C217.084 104.53 217.674 104.69 218.514 104.69H220.524V107H218.064C216.544 107 215.404 106.65 214.644 105.95C213.884 105.25 213.504 104.1 213.504 102.5V92.81H211.374V90.56H213.504V86.42H216.234V90.56H220.524V92.81H216.234ZM231.991 90.26C233.231 90.26 234.351 90.53 235.351 91.07C236.351 91.59 237.131 92.38 237.691 93.44C238.271 94.5 238.561 95.79 238.561 97.31V107H235.861V97.7C235.861 96.06 235.451 94.81 234.631 93.95C233.811 93.07 232.691 92.63 231.271 92.63C229.831 92.63 228.681 93.08 227.821 93.98C226.981 94.88 226.561 96.19 226.561 97.91V107H223.831V84.8H226.561V92.9C227.101 92.06 227.841 91.41 228.781 90.95C229.741 90.49 230.811 90.26 231.991 90.26ZM244.431 87.89C243.911 87.89 243.471 87.71 243.111 87.35C242.751 86.99 242.571 86.55 242.571 86.03C242.571 85.51 242.751 85.07 243.111 84.71C243.471 84.35 243.911 84.17 244.431 84.17C244.931 84.17 245.351 84.35 245.691 84.71C246.051 85.07 246.231 85.51 246.231 86.03C246.231 86.55 246.051 86.99 245.691 87.35C245.351 87.71 244.931 87.89 244.431 87.89ZM245.751 90.56V107H243.021V90.56H245.751ZM256.224 107.27C254.964 107.27 253.834 107.06 252.834 106.64C251.834 106.2 251.044 105.6 250.464 104.84C249.884 104.06 249.564 103.17 249.504 102.17H252.324C252.404 102.99 252.784 103.66 253.464 104.18C254.164 104.7 255.074 104.96 256.194 104.96C257.234 104.96 258.054 104.73 258.654 104.27C259.254 103.81 259.554 103.23 259.554 102.53C259.554 101.81 259.234 101.28 258.594 100.94C257.954 100.58 256.964 100.23 255.624 99.89C254.404 99.57 253.404 99.25 252.624 98.93C251.864 98.59 251.204 98.1 250.644 97.46C250.104 96.8 249.834 95.94 249.834 94.88C249.834 94.04 250.084 93.27 250.584 92.57C251.084 91.87 251.794 91.32 252.714 90.92C253.634 90.5 254.684 90.29 255.864 90.29C257.684 90.29 259.154 90.75 260.274 91.67C261.394 92.59 261.994 93.85 262.074 95.45H259.344C259.284 94.59 258.934 93.9 258.294 93.38C257.674 92.86 256.834 92.6 255.774 92.6C254.794 92.6 254.014 92.81 253.434 93.23C252.854 93.65 252.564 94.2 252.564 94.88C252.564 95.42 252.734 95.87 253.074 96.23C253.434 96.57 253.874 96.85 254.394 97.07C254.934 97.27 255.674 97.5 256.614 97.76C257.794 98.08 258.754 98.4 259.494 98.72C260.234 99.02 260.864 99.48 261.384 100.1C261.924 100.72 262.204 101.53 262.224 102.53C262.224 103.43 261.974 104.24 261.474 104.96C260.974 105.68 260.264 106.25 259.344 106.67C258.444 107.07 257.404 107.27 256.224 107.27ZM276.806 93.59C277.346 92.65 278.146 91.87 279.206 91.25C280.286 90.61 281.536 90.29 282.956 90.29C284.416 90.29 285.736 90.64 286.916 91.34C288.116 92.04 289.056 93.03 289.736 94.31C290.416 95.57 290.756 97.04 290.756 98.72C290.756 100.38 290.416 101.86 289.736 103.16C289.056 104.46 288.116 105.47 286.916 106.19C285.736 106.91 284.416 107.27 282.956 107.27C281.556 107.27 280.316 106.96 279.236 106.34C278.176 105.7 277.366 104.91 276.806 103.97V114.8H274.076V90.56H276.806V93.59ZM287.966 98.72C287.966 97.48 287.716 96.4 287.216 95.48C286.716 94.56 286.036 93.86 285.176 93.38C284.336 92.9 283.406 92.66 282.386 92.66C281.386 92.66 280.456 92.91 279.596 93.41C278.756 93.89 278.076 94.6 277.556 95.54C277.056 96.46 276.806 97.53 276.806 98.75C276.806 99.99 277.056 101.08 277.556 102.02C278.076 102.94 278.756 103.65 279.596 104.15C280.456 104.63 281.386 104.87 282.386 104.87C283.406 104.87 284.336 104.63 285.176 104.15C286.036 103.65 286.716 102.94 287.216 102.02C287.716 101.08 287.966 99.98 287.966 98.72ZM309.349 98.15C309.349 98.67 309.319 99.22 309.259 99.8H296.119C296.219 101.42 296.769 102.69 297.769 103.61C298.789 104.51 300.019 104.96 301.459 104.96C302.639 104.96 303.619 104.69 304.399 104.15C305.199 103.59 305.759 102.85 306.079 101.93H309.019C308.579 103.51 307.699 104.8 306.379 105.8C305.059 106.78 303.419 107.27 301.459 107.27C299.899 107.27 298.499 106.92 297.259 106.22C296.039 105.52 295.079 104.53 294.379 103.25C293.679 101.95 293.329 100.45 293.329 98.75C293.329 97.05 293.669 95.56 294.349 94.28C295.029 93 295.979 92.02 297.199 91.34C298.439 90.64 299.859 90.29 301.459 90.29C303.019 90.29 304.399 90.63 305.599 91.31C306.799 91.99 307.719 92.93 308.359 94.13C309.019 95.31 309.349 96.65 309.349 98.15ZM306.529 97.58C306.529 96.54 306.299 95.65 305.839 94.91C305.379 94.15 304.749 93.58 303.949 93.2C303.169 92.8 302.299 92.6 301.339 92.6C299.959 92.6 298.779 93.04 297.799 93.92C296.839 94.8 296.289 96.02 296.149 97.58H306.529ZM315.683 93.23C316.163 92.29 316.843 91.56 317.723 91.04C318.623 90.52 319.713 90.26 320.993 90.26V93.08H320.273C317.213 93.08 315.683 94.74 315.683 98.06V107H312.953V90.56H315.683V93.23ZM329.964 107.27C328.704 107.27 327.574 107.06 326.574 106.64C325.574 106.2 324.784 105.6 324.204 104.84C323.624 104.06 323.304 103.17 323.244 102.17H326.064C326.144 102.99 326.524 103.66 327.204 104.18C327.904 104.7 328.814 104.96 329.934 104.96C330.974 104.96 331.794 104.73 332.394 104.27C332.994 103.81 333.294 103.23 333.294 102.53C333.294 101.81 332.974 101.28 332.334 100.94C331.694 100.58 330.704 100.23 329.364 99.89C328.144 99.57 327.144 99.25 326.364 98.93C325.604 98.59 324.944 98.1 324.384 97.46C323.844 96.8 323.574 95.94 323.574 94.88C323.574 94.04 323.824 93.27 324.324 92.57C324.824 91.87 325.534 91.32 326.454 90.92C327.374 90.5 328.424 90.29 329.604 90.29C331.424 90.29 332.894 90.75 334.014 91.67C335.134 92.59 335.734 93.85 335.814 95.45H333.084C333.024 94.59 332.674 93.9 332.034 93.38C331.414 92.86 330.574 92.6 329.514 92.6C328.534 92.6 327.754 92.81 327.174 93.23C326.594 93.65 326.304 94.2 326.304 94.88C326.304 95.42 326.474 95.87 326.814 96.23C327.174 96.57 327.614 96.85 328.134 97.07C328.674 97.27 329.414 97.5 330.354 97.76C331.534 98.08 332.494 98.4 333.234 98.72C333.974 99.02 334.604 99.48 335.124 100.1C335.664 100.72 335.944 101.53 335.964 102.53C335.964 103.43 335.714 104.24 335.214 104.96C334.714 105.68 334.004 106.25 333.084 106.67C332.184 107.07 331.144 107.27 329.964 107.27ZM346.988 107.27C345.448 107.27 344.048 106.92 342.788 106.22C341.548 105.52 340.568 104.53 339.848 103.25C339.148 101.95 338.798 100.45 338.798 98.75C338.798 97.07 339.158 95.59 339.878 94.31C340.618 93.01 341.618 92.02 342.878 91.34C344.138 90.64 345.548 90.29 347.108 90.29C348.668 90.29 350.078 90.64 351.338 91.34C352.598 92.02 353.588 93 354.308 94.28C355.048 95.56 355.418 97.05 355.418 98.75C355.418 100.45 355.038 101.95 354.278 103.25C353.538 104.53 352.528 105.52 351.248 106.22C349.968 106.92 348.548 107.27 346.988 107.27ZM346.988 104.87C347.968 104.87 348.888 104.64 349.748 104.18C350.608 103.72 351.298 103.03 351.818 102.11C352.358 101.19 352.628 100.07 352.628 98.75C352.628 97.43 352.368 96.31 351.848 95.39C351.328 94.47 350.648 93.79 349.808 93.35C348.968 92.89 348.058 92.66 347.078 92.66C346.078 92.66 345.158 92.89 344.318 93.35C343.498 93.79 342.838 94.47 342.338 95.39C341.838 96.31 341.588 97.43 341.588 98.75C341.588 100.09 341.828 101.22 342.308 102.14C342.808 103.06 343.468 103.75 344.288 104.21C345.108 104.65 346.008 104.87 346.988 104.87ZM367.017 90.26C369.017 90.26 370.637 90.87 371.877 92.09C373.117 93.29 373.737 95.03 373.737 97.31V107H371.037V97.7C371.037 96.06 370.627 94.81 369.807 93.95C368.987 93.07 367.867 92.63 366.447 92.63C365.007 92.63 363.857 93.08 362.997 93.98C362.157 94.88 361.737 96.19 361.737 97.91V107H359.007V90.56H361.737V92.9C362.277 92.06 363.007 91.41 363.927 90.95C364.867 90.49 365.897 90.26 367.017 90.26ZM383.537 85.82C385.517 85.82 387.117 86.38 388.337 87.5C389.557 88.62 390.167 90.12 390.167 92C390.167 94.1 389.517 95.66 388.217 96.68C386.917 97.68 385.157 98.18 382.937 98.18L382.847 101.03H380.477L380.357 96.29H381.227C383.207 96.29 384.757 95.99 385.877 95.39C386.997 94.79 387.557 93.66 387.557 92C387.557 90.8 387.197 89.85 386.477 89.15C385.757 88.45 384.787 88.1 383.567 88.1C382.327 88.1 381.347 88.44 380.627 89.12C379.927 89.78 379.577 90.69 379.577 91.85H376.997C376.997 90.65 377.267 89.6 377.807 88.7C378.347 87.78 379.107 87.07 380.087 86.57C381.087 86.07 382.237 85.82 383.537 85.82ZM381.647 107.18C381.127 107.18 380.687 107 380.327 106.64C379.967 106.28 379.787 105.84 379.787 105.32C379.787 104.8 379.967 104.36 380.327 104C380.687 103.64 381.127 103.46 381.647 103.46C382.147 103.46 382.567 103.64 382.907 104C383.267 104.36 383.447 104.8 383.447 105.32C383.447 105.84 383.267 106.28 382.907 106.64C382.567 107 382.147 107.18 381.647 107.18Z" fill="black"/>
<path d="M18.12 30.61C18.12 28.1833 18.6217 26.025 19.625 24.135C20.6517 22.2217 22.0983 20.74 23.965 19.69C25.8317 18.6167 27.9783 18.08 30.405 18.08C33.485 18.08 36.075 18.9083 38.175 20.565C40.275 22.1983 41.6283 24.4267 42.235 27.25H34.85C34.4067 26.3167 33.7883 25.605 32.995 25.115C32.225 24.625 31.3267 24.38 30.3 24.38C28.7133 24.38 27.4417 24.9517 26.485 26.095C25.5517 27.215 25.085 28.72 25.085 30.61C25.085 32.5233 25.5517 34.0517 26.485 35.195C27.4417 36.315 28.7133 36.875 30.3 36.875C31.3267 36.875 32.225 36.63 32.995 36.14C33.7883 35.65 34.4067 34.9383 34.85 34.005H42.235C41.6283 36.8283 40.275 39.0683 38.175 40.725C36.075 42.3583 33.485 43.175 30.405 43.175C27.9783 43.175 25.8317 42.65 23.965 41.6C22.0983 40.5267 20.6517 39.045 19.625 37.155C18.6217 35.2417 18.12 33.06 18.12 30.61ZM54.6184 43.245C52.6584 43.245 50.8968 42.8367 49.3334 42.02C47.7934 41.2033 46.5801 40.0367 45.6934 38.52C44.8068 37.0033 44.3634 35.2183 44.3634 33.165C44.3634 31.135 44.8068 29.3617 45.6934 27.845C46.6034 26.3283 47.8284 25.1617 49.3684 24.345C50.9318 23.5283 52.6934 23.12 54.6534 23.12C56.6134 23.12 58.3634 23.5283 59.9034 24.345C61.4668 25.1617 62.6918 26.3283 63.5784 27.845C64.4884 29.3617 64.9434 31.135 64.9434 33.165C64.9434 35.195 64.4884 36.98 63.5784 38.52C62.6918 40.0367 61.4668 41.2033 59.9034 42.02C58.3401 42.8367 56.5784 43.245 54.6184 43.245ZM54.6184 37.295C55.5751 37.295 56.3684 36.945 56.9984 36.245C57.6518 35.5217 57.9784 34.495 57.9784 33.165C57.9784 31.835 57.6518 30.82 56.9984 30.12C56.3684 29.42 55.5868 29.07 54.6534 29.07C53.7201 29.07 52.9384 29.42 52.3084 30.12C51.6784 30.82 51.3634 31.835 51.3634 33.165C51.3634 34.5183 51.6668 35.545 52.2734 36.245C52.8801 36.945 53.6618 37.295 54.6184 37.295ZM80.5794 23.19C82.8427 23.19 84.6394 23.9483 85.9694 25.465C87.2994 26.9583 87.9644 28.9883 87.9644 31.555V43H81.1044V32.465C81.1044 31.345 80.8127 30.47 80.2294 29.84C79.6461 29.1867 78.8644 28.86 77.8844 28.86C76.8577 28.86 76.0527 29.1867 75.4694 29.84C74.8861 30.47 74.5944 31.345 74.5944 32.465V43H67.7344V23.365H74.5944V26.165C75.2011 25.2783 76.0177 24.5667 77.0444 24.03C78.0711 23.47 79.2494 23.19 80.5794 23.19ZM102.334 29.07H99.2536V43H92.3586V29.07H90.2236V23.365H92.3586V23.19C92.3586 20.67 93.0936 18.745 94.5636 17.415C96.0569 16.0617 98.1919 15.385 100.969 15.385C101.529 15.385 101.96 15.3967 102.264 15.42V21.265C102.077 21.2417 101.82 21.23 101.494 21.23C100.747 21.23 100.199 21.405 99.8486 21.755C99.4986 22.0817 99.3002 22.6183 99.2536 23.365H102.334V29.07ZM108.25 21.545C107.037 21.545 106.057 21.2183 105.31 20.565C104.587 19.8883 104.225 19.0483 104.225 18.045C104.225 17.0183 104.587 16.1667 105.31 15.49C106.057 14.8133 107.037 14.475 108.25 14.475C109.44 14.475 110.397 14.8133 111.12 15.49C111.867 16.1667 112.24 17.0183 112.24 18.045C112.24 19.0483 111.867 19.8883 111.12 20.565C110.397 21.2183 109.44 21.545 108.25 21.545ZM111.645 23.365V43H104.785V23.365H111.645ZM122.412 26.83C123.182 25.71 124.115 24.8233 125.212 24.17C126.308 23.5167 127.487 23.19 128.747 23.19V30.505H126.822C125.328 30.505 124.22 30.7967 123.497 31.38C122.773 31.9633 122.412 32.9783 122.412 34.425V43H115.552V23.365H122.412V26.83ZM156.861 23.19C159.334 23.19 161.271 23.9367 162.671 25.43C164.094 26.9233 164.806 28.965 164.806 31.555V43H157.946V32.465C157.946 31.415 157.654 30.5983 157.071 30.015C156.488 29.4317 155.694 29.14 154.691 29.14C153.688 29.14 152.894 29.4317 152.311 30.015C151.728 30.5983 151.436 31.415 151.436 32.465V43H144.576V32.465C144.576 31.415 144.284 30.5983 143.701 30.015C143.141 29.4317 142.359 29.14 141.356 29.14C140.329 29.14 139.524 29.4317 138.941 30.015C138.358 30.5983 138.066 31.415 138.066 32.465V43H131.206V23.365H138.066V25.955C138.673 25.115 139.454 24.45 140.411 23.96C141.391 23.4467 142.511 23.19 143.771 23.19C145.218 23.19 146.501 23.505 147.621 24.135C148.764 24.765 149.663 25.6517 150.316 26.795C151.016 25.7217 151.938 24.8583 153.081 24.205C154.224 23.5283 155.484 23.19 156.861 23.19Z" fill="#F10A0A"/>
<rect x="382" y="145.152" width="244" height="52.6609" rx="13.0556" fill="#34A853"/>
<path d="M446.478 171.424C446.478 169.707 446.861 168.174 447.628 166.824C448.411 165.457 449.469 164.399 450.803 163.649C452.153 162.882 453.661 162.499 455.328 162.499C457.278 162.499 458.986 162.999 460.453 163.999C461.919 164.999 462.944 166.382 463.528 168.149H459.503C459.103 167.315 458.536 166.69 457.803 166.274C457.086 165.857 456.253 165.649 455.303 165.649C454.286 165.649 453.378 165.89 452.578 166.374C451.794 166.84 451.178 167.507 450.728 168.374C450.294 169.24 450.078 170.257 450.078 171.424C450.078 172.574 450.294 173.59 450.728 174.474C451.178 175.34 451.794 176.015 452.578 176.499C453.378 176.965 454.286 177.199 455.303 177.199C456.253 177.199 457.086 176.99 457.803 176.574C458.536 176.14 459.103 175.507 459.503 174.674H463.528C462.944 176.457 461.919 177.849 460.453 178.849C459.003 179.832 457.294 180.324 455.328 180.324C453.661 180.324 452.153 179.949 450.803 179.199C449.469 178.432 448.411 177.374 447.628 176.024C446.861 174.674 446.478 173.14 446.478 171.424ZM474.617 180.349C472.984 180.349 471.484 179.965 470.117 179.199C468.751 178.432 467.667 177.374 466.867 176.024C466.067 174.657 465.667 173.115 465.667 171.399C465.667 169.699 466.067 168.174 466.867 166.824C467.667 165.457 468.751 164.39 470.117 163.624C471.484 162.857 472.984 162.474 474.617 162.474C476.267 162.474 477.767 162.857 479.117 163.624C480.484 164.39 481.559 165.457 482.342 166.824C483.142 168.174 483.542 169.699 483.542 171.399C483.542 173.115 483.142 174.657 482.342 176.024C481.559 177.374 480.484 178.432 479.117 179.199C477.751 179.965 476.251 180.349 474.617 180.349ZM474.617 177.224C475.667 177.224 476.592 176.99 477.392 176.524C478.192 176.04 478.817 175.357 479.267 174.474C479.717 173.59 479.942 172.565 479.942 171.399C479.942 170.232 479.717 169.215 479.267 168.349C478.817 167.465 478.192 166.79 477.392 166.324C476.592 165.857 475.667 165.624 474.617 165.624C473.567 165.624 472.634 165.857 471.817 166.324C471.017 166.79 470.392 167.465 469.942 168.349C469.492 169.215 469.267 170.232 469.267 171.399C469.267 172.565 469.492 173.59 469.942 174.474C470.392 175.357 471.017 176.04 471.817 176.524C472.634 176.99 473.567 177.224 474.617 177.224ZM501.071 180.174H497.571L489.646 168.199V180.174H486.146V162.699H489.646L497.571 174.699V162.699H501.071V180.174ZM515.305 162.724V165.549H508.03V170.024H513.605V172.799H508.03V180.174H504.53V162.724H515.305ZM521.287 162.724V180.174H517.787V162.724H521.287ZM533.745 180.174L529.895 173.374H528.245V180.174H524.745V162.724H531.295C532.645 162.724 533.795 162.965 534.745 163.449C535.695 163.915 536.403 164.557 536.87 165.374C537.353 166.174 537.595 167.074 537.595 168.074C537.595 169.224 537.261 170.265 536.595 171.199C535.928 172.115 534.936 172.749 533.62 173.099L537.795 180.174H533.745ZM528.245 170.749H531.17C532.12 170.749 532.828 170.524 533.295 170.074C533.761 169.607 533.995 168.965 533.995 168.149C533.995 167.349 533.761 166.732 533.295 166.299C532.828 165.849 532.12 165.624 531.17 165.624H528.245V170.749ZM559.785 162.724V180.174H556.285V168.824L551.61 180.174H548.96L544.26 168.824V180.174H540.76V162.724H544.735L550.285 175.699L555.835 162.724H559.785Z" fill="white" fill-opacity="0.98"/>
<rect x="22" y="145" width="344" height="53" rx="13.0556" fill="#4285F4"/>
<path d="M145.156 172.25C145.156 170.533 145.539 169 146.306 167.65C147.089 166.283 148.147 165.225 149.481 164.475C150.831 163.708 152.339 163.325 154.006 163.325C155.956 163.325 157.664 163.825 159.131 164.825C160.597 165.825 161.622 167.208 162.206 168.975H158.181C157.781 168.142 157.214 167.517 156.481 167.1C155.764 166.683 154.931 166.475 153.981 166.475C152.964 166.475 152.056 166.717 151.256 167.2C150.472 167.667 149.856 168.333 149.406 169.2C148.972 170.067 148.756 171.083 148.756 172.25C148.756 173.4 148.972 174.417 149.406 175.3C149.856 176.167 150.472 176.842 151.256 177.325C152.056 177.792 152.964 178.025 153.981 178.025C154.931 178.025 155.764 177.817 156.481 177.4C157.214 176.967 157.781 176.333 158.181 175.5H162.206C161.622 177.283 160.597 178.675 159.131 179.675C157.681 180.658 155.972 181.15 154.006 181.15C152.339 181.15 150.831 180.775 149.481 180.025C148.147 179.258 147.089 178.2 146.306 176.85C145.539 175.5 145.156 173.967 145.156 172.25ZM175.895 177.675H168.945L167.795 181H164.12L170.395 163.525H174.47L180.745 181H177.045L175.895 177.675ZM174.945 174.875L172.42 167.575L169.895 174.875H174.945ZM198.016 181H194.516L186.591 169.025V181H183.091V163.525H186.591L194.516 175.525V163.525H198.016V181ZM200.625 172.25C200.625 170.533 201.008 169 201.775 167.65C202.558 166.283 203.616 165.225 204.95 164.475C206.3 163.708 207.808 163.325 209.475 163.325C211.425 163.325 213.133 163.825 214.6 164.825C216.066 165.825 217.091 167.208 217.675 168.975H213.65C213.25 168.142 212.683 167.517 211.95 167.1C211.233 166.683 210.4 166.475 209.45 166.475C208.433 166.475 207.525 166.717 206.725 167.2C205.941 167.667 205.325 168.333 204.875 169.2C204.441 170.067 204.225 171.083 204.225 172.25C204.225 173.4 204.441 174.417 204.875 175.3C205.325 176.167 205.941 176.842 206.725 177.325C207.525 177.792 208.433 178.025 209.45 178.025C210.4 178.025 211.233 177.817 211.95 177.4C212.683 176.967 213.25 176.333 213.65 175.5H217.675C217.091 177.283 216.066 178.675 214.6 179.675C213.15 180.658 211.441 181.15 209.475 181.15C207.808 181.15 206.3 180.775 204.95 180.025C203.616 179.258 202.558 178.2 201.775 176.85C201.008 175.5 200.625 173.967 200.625 172.25ZM224.164 166.375V170.75H230.039V173.525H224.164V178.15H230.789V181H220.664V163.525H230.789V166.375H224.164ZM237.47 178.225H243.22V181H233.97V163.55H237.47V178.225Z" fill="white" fill-opacity="0.98"/>
</svg>
