<svg width="720" height="1280" viewBox="0 0 720 1280" fill="none" xmlns="http://www.w3.org/2000/svg">
<g clip-path="url(#clip0_219_15263)">
<rect width="720" height="1280" rx="24" fill="#FA7800" fill-opacity="0.33"/>
<path d="M170.999 1215.02H163.367L161.903 1219H160.127L166.247 1202.44H168.143L174.239 1219H172.463L170.999 1215.02ZM170.495 1213.62L167.183 1204.55L163.871 1213.62H170.495ZM178.616 1201.24V1219H176.936V1201.24H178.616ZM184.1 1208.22C184.468 1207.41 185.028 1206.78 185.78 1206.33C186.548 1205.88 187.484 1205.66 188.588 1205.66V1207.41H188.132C186.916 1207.41 185.94 1207.74 185.204 1208.39C184.468 1209.05 184.1 1210.14 184.1 1211.68V1219H182.42V1205.9H184.1V1208.22ZM202.971 1211.78C202.971 1212.35 202.955 1212.79 202.923 1213.1H192.051C192.099 1214.09 192.339 1214.94 192.771 1215.64C193.203 1216.34 193.771 1216.88 194.475 1217.25C195.179 1217.6 195.947 1217.78 196.779 1217.78C197.867 1217.78 198.779 1217.51 199.515 1216.98C200.267 1216.46 200.763 1215.74 201.003 1214.85H202.779C202.459 1216.13 201.771 1217.18 200.715 1217.99C199.675 1218.79 198.363 1219.19 196.779 1219.19C195.547 1219.19 194.443 1218.92 193.467 1218.38C192.491 1217.82 191.723 1217.03 191.163 1216.02C190.619 1215 190.347 1213.81 190.347 1212.45C190.347 1211.09 190.619 1209.9 191.163 1208.87C191.707 1207.85 192.467 1207.06 193.443 1206.52C194.419 1205.98 195.531 1205.7 196.779 1205.7C198.027 1205.7 199.115 1205.98 200.043 1206.52C200.987 1207.06 201.707 1207.8 202.203 1208.73C202.715 1209.64 202.971 1210.66 202.971 1211.78ZM201.267 1211.73C201.283 1210.75 201.083 1209.92 200.667 1209.23C200.267 1208.54 199.715 1208.02 199.011 1207.67C198.307 1207.32 197.539 1207.14 196.707 1207.14C195.459 1207.14 194.395 1207.54 193.515 1208.34C192.635 1209.14 192.147 1210.27 192.051 1211.73H201.267ZM205.277 1212.42C205.277 1211.08 205.541 1209.9 206.069 1208.9C206.613 1207.87 207.357 1207.09 208.301 1206.54C209.261 1205.98 210.341 1205.7 211.541 1205.7C212.789 1205.7 213.861 1205.99 214.757 1206.57C215.669 1207.14 216.325 1207.88 216.725 1208.78V1205.9H218.405V1219H216.725V1216.1C216.309 1216.99 215.645 1217.74 214.733 1218.33C213.837 1218.9 212.765 1219.19 211.517 1219.19C210.333 1219.19 209.261 1218.91 208.301 1218.35C207.357 1217.79 206.613 1217 206.069 1215.98C205.541 1214.95 205.277 1213.77 205.277 1212.42ZM216.725 1212.45C216.725 1211.39 216.509 1210.46 216.077 1209.66C215.645 1208.86 215.053 1208.25 214.301 1207.82C213.565 1207.38 212.749 1207.17 211.853 1207.17C210.925 1207.17 210.093 1207.38 209.357 1207.79C208.621 1208.21 208.037 1208.82 207.605 1209.62C207.189 1210.4 206.981 1211.34 206.981 1212.42C206.981 1213.5 207.189 1214.44 207.605 1215.26C208.037 1216.06 208.621 1216.67 209.357 1217.1C210.093 1217.52 210.925 1217.73 211.853 1217.73C212.749 1217.73 213.565 1217.51 214.301 1217.08C215.053 1216.65 215.645 1216.03 216.077 1215.23C216.509 1214.43 216.725 1213.5 216.725 1212.45ZM221.472 1212.42C221.472 1211.08 221.744 1209.9 222.288 1208.9C222.832 1207.87 223.576 1207.09 224.52 1206.54C225.48 1205.98 226.56 1205.7 227.76 1205.7C228.912 1205.7 229.952 1205.98 230.88 1206.54C231.808 1207.1 232.488 1207.83 232.92 1208.73V1201.24H234.6V1219H232.92V1216.07C232.52 1216.98 231.864 1217.74 230.952 1218.33C230.04 1218.9 228.968 1219.19 227.736 1219.19C226.536 1219.19 225.456 1218.91 224.496 1218.35C223.552 1217.79 222.808 1217 222.264 1215.98C221.736 1214.95 221.472 1213.77 221.472 1212.42ZM232.92 1212.45C232.92 1211.39 232.704 1210.46 232.272 1209.66C231.84 1208.86 231.248 1208.25 230.496 1207.82C229.76 1207.38 228.944 1207.17 228.048 1207.17C227.12 1207.17 226.288 1207.38 225.552 1207.79C224.816 1208.21 224.232 1208.82 223.8 1209.62C223.384 1210.4 223.176 1211.34 223.176 1212.42C223.176 1213.5 223.384 1214.44 223.8 1215.26C224.232 1216.06 224.816 1216.67 225.552 1217.1C226.288 1217.52 227.12 1217.73 228.048 1217.73C228.944 1217.73 229.76 1217.51 230.496 1217.08C231.248 1216.65 231.84 1216.03 232.272 1215.23C232.704 1214.43 232.92 1213.5 232.92 1212.45ZM249.236 1205.9L241.46 1225.17H239.708L242.252 1218.93L236.876 1205.9H238.724L243.188 1217.08L247.508 1205.9H249.236ZM264.34 1205.66C265.332 1205.66 266.22 1205.86 267.004 1206.28C267.804 1206.7 268.428 1207.34 268.876 1208.2C269.34 1209.05 269.572 1210.09 269.572 1211.32V1219H267.916V1211.51C267.916 1210.09 267.556 1209 266.836 1208.25C266.132 1207.5 265.164 1207.12 263.932 1207.12C262.668 1207.12 261.66 1207.52 260.908 1208.32C260.156 1209.12 259.78 1210.3 259.78 1211.85V1219H258.1V1201.24H259.78V1208.13C260.196 1207.34 260.804 1206.74 261.604 1206.3C262.42 1205.87 263.332 1205.66 264.34 1205.66ZM272.519 1212.42C272.519 1211.08 272.783 1209.9 273.311 1208.9C273.855 1207.87 274.599 1207.09 275.543 1206.54C276.503 1205.98 277.583 1205.7 278.783 1205.7C280.031 1205.7 281.103 1205.99 281.999 1206.57C282.911 1207.14 283.567 1207.88 283.967 1208.78V1205.9H285.647V1219H283.967V1216.1C283.551 1216.99 282.887 1217.74 281.975 1218.33C281.079 1218.9 280.007 1219.19 278.759 1219.19C277.575 1219.19 276.503 1218.91 275.543 1218.35C274.599 1217.79 273.855 1217 273.311 1215.98C272.783 1214.95 272.519 1213.77 272.519 1212.42ZM283.967 1212.45C283.967 1211.39 283.751 1210.46 283.319 1209.66C282.887 1208.86 282.295 1208.25 281.543 1207.82C280.807 1207.38 279.991 1207.17 279.095 1207.17C278.167 1207.17 277.335 1207.38 276.599 1207.79C275.863 1208.21 275.279 1208.82 274.847 1209.62C274.431 1210.4 274.223 1211.34 274.223 1212.42C274.223 1213.5 274.431 1214.44 274.847 1215.26C275.279 1216.06 275.863 1216.67 276.599 1217.1C277.335 1217.52 278.167 1217.73 279.095 1217.73C279.991 1217.73 280.807 1217.51 281.543 1217.08C282.295 1216.65 282.887 1216.03 283.319 1215.23C283.751 1214.43 283.967 1213.5 283.967 1212.45ZM294.139 1217.37L298.555 1205.9H300.331L295.075 1219H293.179L287.923 1205.9H289.723L294.139 1217.37ZM314.464 1211.78C314.464 1212.35 314.448 1212.79 314.416 1213.1H303.544C303.592 1214.09 303.832 1214.94 304.264 1215.64C304.696 1216.34 305.264 1216.88 305.968 1217.25C306.672 1217.6 307.44 1217.78 308.272 1217.78C309.36 1217.78 310.272 1217.51 311.008 1216.98C311.76 1216.46 312.256 1215.74 312.496 1214.85H314.272C313.952 1216.13 313.264 1217.18 312.208 1217.99C311.168 1218.79 309.856 1219.19 308.272 1219.19C307.04 1219.19 305.936 1218.92 304.96 1218.38C303.984 1217.82 303.216 1217.03 302.656 1216.02C302.112 1215 301.84 1213.81 301.84 1212.45C301.84 1211.09 302.112 1209.9 302.656 1208.87C303.2 1207.85 303.96 1207.06 304.936 1206.52C305.912 1205.98 307.024 1205.7 308.272 1205.7C309.52 1205.7 310.608 1205.98 311.536 1206.52C312.48 1207.06 313.2 1207.8 313.696 1208.73C314.208 1209.64 314.464 1210.66 314.464 1211.78ZM312.76 1211.73C312.776 1210.75 312.576 1209.92 312.16 1209.23C311.76 1208.54 311.208 1208.02 310.504 1207.67C309.8 1207.32 309.032 1207.14 308.2 1207.14C306.952 1207.14 305.888 1207.54 305.008 1208.34C304.128 1209.14 303.64 1210.27 303.544 1211.73H312.76ZM323.355 1212.42C323.355 1211.08 323.619 1209.9 324.147 1208.9C324.691 1207.87 325.435 1207.09 326.379 1206.54C327.339 1205.98 328.419 1205.7 329.619 1205.7C330.867 1205.7 331.939 1205.99 332.835 1206.57C333.747 1207.14 334.403 1207.88 334.803 1208.78V1205.9H336.483V1219H334.803V1216.1C334.387 1216.99 333.723 1217.74 332.811 1218.33C331.915 1218.9 330.843 1219.19 329.595 1219.19C328.411 1219.19 327.339 1218.91 326.379 1218.35C325.435 1217.79 324.691 1217 324.147 1215.98C323.619 1214.95 323.355 1213.77 323.355 1212.42ZM334.803 1212.45C334.803 1211.39 334.587 1210.46 334.155 1209.66C333.723 1208.86 333.131 1208.25 332.379 1207.82C331.643 1207.38 330.827 1207.17 329.931 1207.17C329.003 1207.17 328.171 1207.38 327.435 1207.79C326.699 1208.21 326.115 1208.82 325.683 1209.62C325.267 1210.4 325.059 1211.34 325.059 1212.42C325.059 1213.5 325.267 1214.44 325.683 1215.26C326.115 1216.06 326.699 1216.67 327.435 1217.1C328.171 1217.52 329.003 1217.73 329.931 1217.73C330.827 1217.73 331.643 1217.51 332.379 1217.08C333.131 1216.65 333.723 1216.03 334.155 1215.23C334.587 1214.43 334.803 1213.5 334.803 1212.45ZM346.462 1205.66C348.03 1205.66 349.31 1206.14 350.302 1207.12C351.294 1208.08 351.79 1209.48 351.79 1211.32V1219H350.134V1211.51C350.134 1210.09 349.774 1209 349.054 1208.25C348.35 1207.5 347.382 1207.12 346.15 1207.12C344.886 1207.12 343.878 1207.52 343.126 1208.32C342.374 1209.12 341.998 1210.3 341.998 1211.85V1219H340.318V1205.9H341.998V1208.13C342.414 1207.33 343.014 1206.72 343.798 1206.3C344.582 1205.87 345.47 1205.66 346.462 1205.66ZM361.324 1212.42C361.324 1211.08 361.588 1209.9 362.116 1208.9C362.66 1207.87 363.404 1207.09 364.348 1206.54C365.308 1205.98 366.388 1205.7 367.588 1205.7C368.836 1205.7 369.908 1205.99 370.804 1206.57C371.716 1207.14 372.372 1207.88 372.772 1208.78V1205.9H374.452V1219H372.772V1216.1C372.356 1216.99 371.692 1217.74 370.78 1218.33C369.884 1218.9 368.812 1219.19 367.564 1219.19C366.38 1219.19 365.308 1218.91 364.348 1218.35C363.404 1217.79 362.66 1217 362.116 1215.98C361.588 1214.95 361.324 1213.77 361.324 1212.42ZM372.772 1212.45C372.772 1211.39 372.556 1210.46 372.124 1209.66C371.692 1208.86 371.1 1208.25 370.348 1207.82C369.612 1207.38 368.796 1207.17 367.9 1207.17C366.972 1207.17 366.14 1207.38 365.404 1207.79C364.668 1208.21 364.084 1208.82 363.652 1209.62C363.236 1210.4 363.028 1211.34 363.028 1212.42C363.028 1213.5 363.236 1214.44 363.652 1215.26C364.084 1216.06 364.668 1216.67 365.404 1217.1C366.14 1217.52 366.972 1217.73 367.9 1217.73C368.796 1217.73 369.612 1217.51 370.348 1217.08C371.1 1216.65 371.692 1216.03 372.124 1215.23C372.556 1214.43 372.772 1213.5 372.772 1212.45ZM377.519 1212.45C377.519 1211.09 377.791 1209.9 378.335 1208.9C378.879 1207.87 379.631 1207.09 380.591 1206.54C381.551 1205.98 382.647 1205.7 383.879 1205.7C385.495 1205.7 386.823 1206.1 387.863 1206.9C388.919 1207.7 389.599 1208.79 389.903 1210.17H388.103C387.879 1209.22 387.391 1208.49 386.639 1207.96C385.903 1207.42 384.983 1207.14 383.879 1207.14C382.999 1207.14 382.207 1207.34 381.503 1207.74C380.799 1208.14 380.239 1208.74 379.823 1209.54C379.423 1210.33 379.223 1211.3 379.223 1212.45C379.223 1213.6 379.423 1214.58 379.823 1215.38C380.239 1216.18 380.799 1216.78 381.503 1217.18C382.207 1217.58 382.999 1217.78 383.879 1217.78C384.983 1217.78 385.903 1217.51 386.639 1216.98C387.391 1216.44 387.879 1215.69 388.103 1214.73H389.903C389.599 1216.07 388.919 1217.15 387.863 1217.97C386.807 1218.78 385.479 1219.19 383.879 1219.19C382.647 1219.19 381.551 1218.92 380.591 1218.38C379.631 1217.82 378.879 1217.03 378.335 1216.02C377.791 1215 377.519 1213.81 377.519 1212.45ZM392.238 1212.45C392.238 1211.09 392.51 1209.9 393.054 1208.9C393.598 1207.87 394.35 1207.09 395.31 1206.54C396.27 1205.98 397.366 1205.7 398.598 1205.7C400.214 1205.7 401.542 1206.1 402.582 1206.9C403.638 1207.7 404.318 1208.79 404.622 1210.17H402.822C402.598 1209.22 402.11 1208.49 401.358 1207.96C400.622 1207.42 399.702 1207.14 398.598 1207.14C397.718 1207.14 396.926 1207.34 396.222 1207.74C395.518 1208.14 394.958 1208.74 394.542 1209.54C394.142 1210.33 393.942 1211.3 393.942 1212.45C393.942 1213.6 394.142 1214.58 394.542 1215.38C394.958 1216.18 395.518 1216.78 396.222 1217.18C396.926 1217.58 397.718 1217.78 398.598 1217.78C399.702 1217.78 400.622 1217.51 401.358 1216.98C402.11 1216.44 402.598 1215.69 402.822 1214.73H404.622C404.318 1216.07 403.638 1217.15 402.582 1217.97C401.526 1218.78 400.198 1219.19 398.598 1219.19C397.366 1219.19 396.27 1218.92 395.31 1218.38C394.35 1217.82 393.598 1217.03 393.054 1216.02C392.51 1215 392.238 1213.81 392.238 1212.45ZM413.461 1219.19C412.229 1219.19 411.117 1218.92 410.125 1218.38C409.149 1217.82 408.373 1217.03 407.797 1216.02C407.237 1215 406.957 1213.81 406.957 1212.45C406.957 1211.09 407.245 1209.9 407.821 1208.9C408.397 1207.87 409.181 1207.09 410.173 1206.54C411.165 1205.98 412.277 1205.7 413.509 1205.7C414.741 1205.7 415.853 1205.98 416.845 1206.54C417.853 1207.09 418.637 1207.87 419.197 1208.9C419.773 1209.9 420.061 1211.09 420.061 1212.45C420.061 1213.79 419.773 1214.98 419.197 1216C418.621 1217.02 417.829 1217.82 416.821 1218.38C415.813 1218.92 414.693 1219.19 413.461 1219.19ZM413.461 1217.73C414.325 1217.73 415.125 1217.54 415.861 1217.15C416.597 1216.75 417.189 1216.16 417.637 1215.38C418.101 1214.58 418.333 1213.6 418.333 1212.45C418.333 1211.3 418.109 1210.33 417.661 1209.54C417.213 1208.74 416.621 1208.15 415.885 1207.77C415.149 1207.37 414.349 1207.17 413.485 1207.17C412.621 1207.17 411.821 1207.37 411.085 1207.77C410.349 1208.15 409.757 1208.74 409.309 1209.54C408.877 1210.33 408.661 1211.3 408.661 1212.45C408.661 1213.6 408.877 1214.58 409.309 1215.38C409.757 1216.16 410.341 1216.75 411.061 1217.15C411.797 1217.54 412.597 1217.73 413.461 1217.73ZM434.475 1205.9V1219H432.795V1216.7C432.411 1217.51 431.819 1218.14 431.019 1218.57C430.219 1219 429.323 1219.22 428.331 1219.22C426.763 1219.22 425.483 1218.74 424.491 1217.78C423.499 1216.8 423.003 1215.39 423.003 1213.55V1205.9H424.659V1213.36C424.659 1214.78 425.011 1215.87 425.715 1216.62C426.435 1217.38 427.411 1217.75 428.643 1217.75C429.907 1217.75 430.915 1217.35 431.667 1216.55C432.419 1215.75 432.795 1214.58 432.795 1213.02V1205.9H434.475ZM444.455 1205.66C446.023 1205.66 447.303 1206.14 448.295 1207.12C449.287 1208.08 449.783 1209.48 449.783 1211.32V1219H448.127V1211.51C448.127 1210.09 447.767 1209 447.047 1208.25C446.343 1207.5 445.375 1207.12 444.143 1207.12C442.879 1207.12 441.871 1207.52 441.119 1208.32C440.367 1209.12 439.991 1210.3 439.991 1211.85V1219H438.311V1205.9H439.991V1208.13C440.407 1207.33 441.007 1206.72 441.791 1206.3C442.575 1205.87 443.463 1205.66 444.455 1205.66ZM455.682 1207.31V1215.45C455.682 1216.25 455.834 1216.8 456.138 1217.1C456.442 1217.41 456.978 1217.56 457.746 1217.56H459.282V1219H457.482C456.298 1219 455.418 1218.73 454.842 1218.18C454.266 1217.62 453.978 1216.71 453.978 1215.45V1207.31H452.154V1205.9H453.978V1202.61H455.682V1205.9H459.282V1207.31H455.682ZM466.109 1202.01C467.133 1202.01 468.037 1202.21 468.821 1202.61C469.621 1203.01 470.237 1203.58 470.669 1204.34C471.117 1205.07 471.341 1205.93 471.341 1206.9C471.341 1208.63 470.805 1209.9 469.733 1210.72C468.677 1211.52 467.229 1211.92 465.389 1211.92L465.317 1214.56H463.877L463.781 1210.72H464.405C466.053 1210.72 467.349 1210.46 468.293 1209.95C469.253 1209.42 469.733 1208.41 469.733 1206.9C469.733 1205.85 469.397 1205.01 468.725 1204.38C468.069 1203.76 467.197 1203.45 466.109 1203.45C465.021 1203.45 464.157 1203.74 463.517 1204.34C462.877 1204.93 462.557 1205.74 462.557 1206.76H460.949C460.949 1205.8 461.165 1204.97 461.597 1204.26C462.045 1203.54 462.653 1202.99 463.421 1202.61C464.205 1202.21 465.101 1202.01 466.109 1202.01ZM464.597 1219.12C464.245 1219.12 463.949 1219 463.709 1218.76C463.485 1218.52 463.373 1218.22 463.373 1217.87C463.373 1217.52 463.485 1217.23 463.709 1217.01C463.949 1216.77 464.245 1216.65 464.597 1216.65C464.933 1216.65 465.213 1216.77 465.437 1217.01C465.677 1217.23 465.797 1217.52 465.797 1217.87C465.797 1218.22 465.677 1218.52 465.437 1218.76C465.213 1219 464.933 1219.12 464.597 1219.12Z" fill="black"/>
<path d="M486.584 1219.17C485.352 1219.17 484.248 1218.97 483.272 1218.57C482.296 1218.17 481.512 1217.58 480.92 1216.79C480.344 1216.01 480.04 1215.06 480.008 1213.96H484.376C484.44 1214.58 484.656 1215.06 485.024 1215.4C485.392 1215.72 485.872 1215.88 486.464 1215.88C487.072 1215.88 487.552 1215.74 487.904 1215.47C488.256 1215.18 488.432 1214.79 488.432 1214.3C488.432 1213.88 488.288 1213.54 488 1213.26C487.728 1212.99 487.384 1212.77 486.968 1212.59C486.568 1212.42 485.992 1212.22 485.24 1211.99C484.152 1211.66 483.264 1211.32 482.576 1210.98C481.888 1210.65 481.296 1210.15 480.8 1209.5C480.304 1208.84 480.056 1207.98 480.056 1206.93C480.056 1205.36 480.624 1204.14 481.76 1203.26C482.896 1202.36 484.376 1201.91 486.2 1201.91C488.056 1201.91 489.552 1202.36 490.688 1203.26C491.824 1204.14 492.432 1205.37 492.512 1206.95H488.072C488.04 1206.41 487.84 1205.98 487.472 1205.68C487.104 1205.36 486.632 1205.2 486.056 1205.2C485.56 1205.2 485.16 1205.34 484.856 1205.61C484.552 1205.86 484.4 1206.24 484.4 1206.74C484.4 1207.28 484.656 1207.7 485.168 1208.01C485.68 1208.31 486.48 1208.64 487.568 1208.99C488.656 1209.36 489.536 1209.71 490.208 1210.05C490.896 1210.38 491.488 1210.87 491.984 1211.51C492.48 1212.15 492.728 1212.98 492.728 1213.98C492.728 1214.94 492.48 1215.82 491.984 1216.6C491.504 1217.38 490.8 1218.01 489.872 1218.47C488.944 1218.94 487.848 1219.17 486.584 1219.17ZM497.318 1204.22C496.598 1204.22 496.006 1204.01 495.542 1203.59C495.094 1203.16 494.87 1202.63 494.87 1202.01C494.87 1201.37 495.094 1200.84 495.542 1200.42C496.006 1199.99 496.598 1199.78 497.318 1199.78C498.022 1199.78 498.598 1199.99 499.046 1200.42C499.51 1200.84 499.742 1201.37 499.742 1202.01C499.742 1202.63 499.51 1203.16 499.046 1203.59C498.598 1204.01 498.022 1204.22 497.318 1204.22ZM499.358 1205.61V1219H495.254V1205.61H499.358ZM507.42 1205.42C508.364 1205.42 509.188 1205.61 509.892 1205.99C510.612 1206.38 511.164 1206.88 511.548 1207.5V1205.61H515.652V1218.98C515.652 1220.21 515.404 1221.32 514.908 1222.31C514.428 1223.32 513.684 1224.12 512.676 1224.71C511.684 1225.3 510.444 1225.6 508.956 1225.6C506.972 1225.6 505.364 1225.13 504.132 1224.18C502.9 1223.26 502.196 1221.99 502.02 1220.39H506.076C506.204 1220.9 506.508 1221.3 506.988 1221.59C507.468 1221.9 508.06 1222.05 508.764 1222.05C509.612 1222.05 510.284 1221.8 510.78 1221.3C511.292 1220.82 511.548 1220.05 511.548 1218.98V1217.08C511.148 1217.7 510.596 1218.22 509.892 1218.62C509.188 1219 508.364 1219.19 507.42 1219.19C506.316 1219.19 505.316 1218.91 504.42 1218.35C503.524 1217.78 502.812 1216.97 502.284 1215.93C501.772 1214.87 501.516 1213.66 501.516 1212.28C501.516 1210.9 501.772 1209.7 502.284 1208.66C502.812 1207.62 503.524 1206.82 504.42 1206.26C505.316 1205.7 506.316 1205.42 507.42 1205.42ZM511.548 1212.3C511.548 1211.28 511.26 1210.47 510.684 1209.88C510.124 1209.29 509.436 1208.99 508.62 1208.99C507.804 1208.99 507.108 1209.29 506.532 1209.88C505.972 1210.46 505.692 1211.26 505.692 1212.28C505.692 1213.3 505.972 1214.12 506.532 1214.73C507.108 1215.32 507.804 1215.62 508.62 1215.62C509.436 1215.62 510.124 1215.32 510.684 1214.73C511.26 1214.14 511.548 1213.33 511.548 1212.3ZM526.781 1205.46C528.349 1205.46 529.597 1205.98 530.525 1207C531.469 1208.01 531.941 1209.4 531.941 1211.18V1219H527.861V1211.73C527.861 1210.83 527.629 1210.14 527.165 1209.64C526.701 1209.14 526.077 1208.9 525.293 1208.9C524.509 1208.9 523.885 1209.14 523.421 1209.64C522.957 1210.14 522.725 1210.83 522.725 1211.73V1219H518.621V1205.61H522.725V1207.38C523.141 1206.79 523.701 1206.33 524.405 1205.99C525.109 1205.64 525.901 1205.46 526.781 1205.46ZM543.983 1202.15V1219H539.879V1202.15H543.983ZM555.117 1205.46C556.685 1205.46 557.933 1205.98 558.861 1207C559.805 1208.01 560.277 1209.4 560.277 1211.18V1219H556.197V1211.73C556.197 1210.83 555.965 1210.14 555.501 1209.64C555.037 1209.14 554.413 1208.9 553.629 1208.9C552.845 1208.9 552.221 1209.14 551.757 1209.64C551.293 1210.14 551.061 1210.83 551.061 1211.73V1219H546.957V1205.61H551.061V1207.38C551.477 1206.79 552.037 1206.33 552.741 1205.99C553.445 1205.64 554.237 1205.46 555.117 1205.46Z" fill="#E7740A"/>
<path d="M479 1221.4H561.645V1222.6H479V1221.4Z" fill="#E7740A"/>
<g filter="url(#filter0_d_219_15263)">
<rect x="185" y="1041" width="350" height="77.5385" rx="13.0556" fill="#E7740A" fill-opacity="0.45" shape-rendering="crispEdges"/>
</g>
<path d="M309.989 1087.21C308.449 1087.21 307.069 1086.96 305.849 1086.46C304.629 1085.96 303.649 1085.22 302.909 1084.24C302.189 1083.26 301.809 1082.08 301.769 1080.7H307.229C307.309 1081.48 307.579 1082.08 308.039 1082.5C308.499 1082.9 309.099 1083.1 309.839 1083.1C310.599 1083.1 311.199 1082.93 311.639 1082.59C312.079 1082.23 312.299 1081.74 312.299 1081.12C312.299 1080.6 312.119 1080.17 311.759 1079.83C311.419 1079.49 310.989 1079.21 310.469 1078.99C309.969 1078.77 309.249 1078.52 308.309 1078.24C306.949 1077.82 305.839 1077.4 304.979 1076.98C304.119 1076.56 303.379 1075.94 302.759 1075.12C302.139 1074.3 301.829 1073.23 301.829 1071.91C301.829 1069.95 302.539 1068.42 303.959 1067.32C305.379 1066.2 307.229 1065.64 309.509 1065.64C311.829 1065.64 313.699 1066.2 315.119 1067.32C316.539 1068.42 317.299 1069.96 317.399 1071.94H311.849C311.809 1071.26 311.559 1070.73 311.099 1070.35C310.639 1069.95 310.049 1069.75 309.329 1069.75C308.709 1069.75 308.209 1069.92 307.829 1070.26C307.449 1070.58 307.259 1071.05 307.259 1071.67C307.259 1072.35 307.579 1072.88 308.219 1073.26C308.859 1073.64 309.859 1074.05 311.219 1074.49C312.579 1074.95 313.679 1075.39 314.519 1075.81C315.379 1076.23 316.119 1076.84 316.739 1077.64C317.359 1078.44 317.669 1079.47 317.669 1080.73C317.669 1081.93 317.359 1083.02 316.739 1084C316.139 1084.98 315.259 1085.76 314.099 1086.34C312.939 1086.92 311.569 1087.21 309.989 1087.21ZM323.406 1068.52C322.506 1068.52 321.766 1068.26 321.186 1067.74C320.626 1067.2 320.346 1066.54 320.346 1065.76C320.346 1064.96 320.626 1064.3 321.186 1063.78C321.766 1063.24 322.506 1062.97 323.406 1062.97C324.286 1062.97 325.006 1063.24 325.566 1063.78C326.146 1064.3 326.436 1064.96 326.436 1065.76C326.436 1066.54 326.146 1067.2 325.566 1067.74C325.006 1068.26 324.286 1068.52 323.406 1068.52ZM325.956 1070.26V1087H320.826V1070.26H325.956ZM336.033 1070.02C337.213 1070.02 338.243 1070.26 339.123 1070.74C340.023 1071.22 340.713 1071.85 341.193 1072.63V1070.26H346.323V1086.97C346.323 1088.51 346.013 1089.9 345.393 1091.14C344.793 1092.4 343.863 1093.4 342.603 1094.14C341.363 1094.88 339.813 1095.25 337.953 1095.25C335.473 1095.25 333.463 1094.66 331.923 1093.48C330.383 1092.32 329.503 1090.74 329.283 1088.74H334.353C334.513 1089.38 334.893 1089.88 335.493 1090.24C336.093 1090.62 336.833 1090.81 337.713 1090.81C338.773 1090.81 339.613 1090.5 340.233 1089.88C340.873 1089.28 341.193 1088.31 341.193 1086.97V1084.6C340.693 1085.38 340.003 1086.02 339.123 1086.52C338.243 1087 337.213 1087.24 336.033 1087.24C334.653 1087.24 333.403 1086.89 332.283 1086.19C331.163 1085.47 330.273 1084.46 329.613 1083.16C328.973 1081.84 328.653 1080.32 328.653 1078.6C328.653 1076.88 328.973 1075.37 329.613 1074.07C330.273 1072.77 331.163 1071.77 332.283 1071.07C333.403 1070.37 334.653 1070.02 336.033 1070.02ZM341.193 1078.63C341.193 1077.35 340.833 1076.34 340.113 1075.6C339.413 1074.86 338.553 1074.49 337.533 1074.49C336.513 1074.49 335.643 1074.86 334.923 1075.6C334.223 1076.32 333.873 1077.32 333.873 1078.6C333.873 1079.88 334.223 1080.9 334.923 1081.66C335.643 1082.4 336.513 1082.77 337.533 1082.77C338.553 1082.77 339.413 1082.4 340.113 1081.66C340.833 1080.92 341.193 1079.91 341.193 1078.63ZM360.235 1070.08C362.195 1070.08 363.755 1070.72 364.915 1072C366.095 1073.26 366.685 1075 366.685 1077.22V1087H361.585V1077.91C361.585 1076.79 361.295 1075.92 360.715 1075.3C360.135 1074.68 359.355 1074.37 358.375 1074.37C357.395 1074.37 356.615 1074.68 356.035 1075.3C355.455 1075.92 355.165 1076.79 355.165 1077.91V1087H350.035V1070.26H355.165V1072.48C355.685 1071.74 356.385 1071.16 357.265 1070.74C358.145 1070.3 359.135 1070.08 360.235 1070.08ZM381.647 1065.94V1078.54C381.647 1079.8 381.957 1080.77 382.577 1081.45C383.197 1082.13 384.107 1082.47 385.307 1082.47C386.507 1082.47 387.427 1082.13 388.067 1081.45C388.707 1080.77 389.027 1079.8 389.027 1078.54V1065.94H394.157V1078.51C394.157 1080.39 393.757 1081.98 392.957 1083.28C392.157 1084.58 391.077 1085.56 389.717 1086.22C388.377 1086.88 386.877 1087.21 385.217 1087.21C383.557 1087.21 382.067 1086.89 380.747 1086.25C379.447 1085.59 378.417 1084.61 377.657 1083.31C376.897 1081.99 376.517 1080.39 376.517 1078.51V1065.94H381.647ZM402.889 1072.63C403.389 1071.85 404.079 1071.22 404.959 1070.74C405.839 1070.26 406.869 1070.02 408.049 1070.02C409.429 1070.02 410.679 1070.37 411.799 1071.07C412.919 1071.77 413.799 1072.77 414.439 1074.07C415.099 1075.37 415.429 1076.88 415.429 1078.6C415.429 1080.32 415.099 1081.84 414.439 1083.16C413.799 1084.46 412.919 1085.47 411.799 1086.19C410.679 1086.89 409.429 1087.24 408.049 1087.24C406.889 1087.24 405.859 1087 404.959 1086.52C404.079 1086.04 403.389 1085.42 402.889 1084.66V1094.98H397.759V1070.26H402.889V1072.63ZM410.209 1078.6C410.209 1077.32 409.849 1076.32 409.129 1075.6C408.429 1074.86 407.559 1074.49 406.519 1074.49C405.499 1074.49 404.629 1074.86 403.909 1075.6C403.209 1076.34 402.859 1077.35 402.859 1078.63C402.859 1079.91 403.209 1080.92 403.909 1081.66C404.629 1082.4 405.499 1082.77 406.519 1082.77C407.539 1082.77 408.409 1082.4 409.129 1081.66C409.849 1080.9 410.209 1079.88 410.209 1078.6Z" fill="white" fill-opacity="0.98"/>
<rect x="44" y="812" width="631.68" height="72.5123" rx="8" fill="white"/>
<path d="M76.382 841.236C76.382 842.848 75.8793 844.105 74.874 845.006C73.8686 845.89 72.378 846.332 70.402 846.332H66.502V854.34H65.332V836.088H70.402C72.4126 836.088 73.912 836.556 74.9 837.492C75.888 838.411 76.382 839.659 76.382 841.236ZM70.402 845.292C73.6086 845.292 75.212 843.94 75.212 841.236C75.212 839.901 74.8306 838.887 74.068 838.194C73.3053 837.483 72.0833 837.128 70.402 837.128H66.502V845.292H70.402ZM78.7973 847.268C78.7973 845.812 79.0833 844.538 79.6553 843.446C80.2446 842.354 81.0506 841.513 82.0733 840.924C83.1133 840.335 84.292 840.04 85.6093 840.04C87.1 840.04 88.3653 840.404 89.4053 841.132C90.4453 841.86 91.1733 842.787 91.5893 843.914V840.222H92.7593V854.34H91.5893V850.622C91.1733 851.766 90.4366 852.711 89.3793 853.456C88.3393 854.184 87.0826 854.548 85.6093 854.548C84.292 854.548 83.1133 854.253 82.0733 853.664C81.0506 853.057 80.2446 852.208 79.6553 851.116C79.0833 850.007 78.7973 848.724 78.7973 847.268ZM91.5893 847.268C91.5893 846.037 91.3293 844.954 90.8093 844.018C90.3066 843.065 89.6133 842.337 88.7293 841.834C87.8453 841.314 86.8573 841.054 85.7653 841.054C84.6213 841.054 83.616 841.305 82.7493 841.808C81.8826 842.293 81.2066 843.004 80.7213 843.94C80.236 844.876 79.9933 845.985 79.9933 847.268C79.9933 848.551 80.236 849.66 80.7213 850.596C81.2066 851.532 81.8826 852.251 82.7493 852.754C83.6333 853.257 84.6386 853.508 85.7653 853.508C86.8573 853.508 87.8453 853.257 88.7293 852.754C89.6306 852.234 90.3326 851.506 90.8353 850.57C91.338 849.617 91.5893 848.516 91.5893 847.268ZM101.725 854.548C100.148 854.548 98.8568 854.201 97.8515 853.508C96.8635 852.815 96.3088 851.827 96.1875 850.544H97.3835C97.4701 851.463 97.8861 852.191 98.6315 852.728C99.3941 853.265 100.425 853.534 101.725 853.534C102.8 853.534 103.649 853.265 104.273 852.728C104.915 852.173 105.235 851.497 105.235 850.7C105.235 850.145 105.062 849.695 104.715 849.348C104.386 848.984 103.97 848.707 103.467 848.516C102.965 848.325 102.28 848.117 101.413 847.892C100.373 847.615 99.5328 847.346 98.8915 847.086C98.2501 846.809 97.7041 846.401 97.2535 845.864C96.8028 845.327 96.5775 844.607 96.5775 843.706C96.5775 843.047 96.7768 842.441 97.1755 841.886C97.5741 841.314 98.1288 840.863 98.8395 840.534C99.5501 840.205 100.356 840.04 101.257 840.04C102.731 840.04 103.918 840.413 104.819 841.158C105.738 841.886 106.232 842.9 106.301 844.2H105.131C105.079 843.264 104.715 842.501 104.039 841.912C103.363 841.323 102.427 841.028 101.231 841.028C100.226 841.028 99.3941 841.288 98.7355 841.808C98.0768 842.328 97.7475 842.961 97.7475 843.706C97.7475 844.365 97.9295 844.902 98.2935 845.318C98.6748 845.717 99.1341 846.029 99.6715 846.254C100.226 846.462 100.954 846.687 101.855 846.93C102.843 847.19 103.632 847.45 104.221 847.71C104.828 847.953 105.339 848.317 105.755 848.802C106.171 849.27 106.379 849.903 106.379 850.7C106.379 851.428 106.18 852.087 105.781 852.676C105.383 853.265 104.828 853.725 104.117 854.054C103.407 854.383 102.609 854.548 101.725 854.548ZM114.649 854.548C113.072 854.548 111.781 854.201 110.775 853.508C109.787 852.815 109.233 851.827 109.111 850.544H110.307C110.394 851.463 110.81 852.191 111.555 852.728C112.318 853.265 113.349 853.534 114.649 853.534C115.724 853.534 116.573 853.265 117.197 852.728C117.839 852.173 118.159 851.497 118.159 850.7C118.159 850.145 117.986 849.695 117.639 849.348C117.31 848.984 116.894 848.707 116.391 848.516C115.889 848.325 115.204 848.117 114.337 847.892C113.297 847.615 112.457 847.346 111.815 847.086C111.174 846.809 110.628 846.401 110.177 845.864C109.727 845.327 109.501 844.607 109.501 843.706C109.501 843.047 109.701 842.441 110.099 841.886C110.498 841.314 111.053 840.863 111.763 840.534C112.474 840.205 113.28 840.04 114.181 840.04C115.655 840.04 116.842 840.413 117.743 841.158C118.662 841.886 119.156 842.9 119.225 844.2H118.055C118.003 843.264 117.639 842.501 116.963 841.912C116.287 841.323 115.351 841.028 114.155 841.028C113.15 841.028 112.318 841.288 111.659 841.808C111.001 842.328 110.671 842.961 110.671 843.706C110.671 844.365 110.853 844.902 111.217 845.318C111.599 845.717 112.058 846.029 112.595 846.254C113.15 846.462 113.878 846.687 114.779 846.93C115.767 847.19 116.556 847.45 117.145 847.71C117.752 847.953 118.263 848.317 118.679 848.802C119.095 849.27 119.303 849.903 119.303 850.7C119.303 851.428 119.104 852.087 118.705 852.676C118.307 853.265 117.752 853.725 117.041 854.054C116.331 854.383 115.533 854.548 114.649 854.548ZM141.327 840.222L136.881 854.34H135.763L131.265 841.834L126.741 854.34H125.623L121.177 840.222H122.399L126.195 853.014L130.719 840.222H131.837L136.335 852.962L140.131 840.222H141.327ZM150.105 854.548C148.787 854.548 147.6 854.253 146.543 853.664C145.485 853.075 144.653 852.234 144.047 851.142C143.457 850.033 143.163 848.741 143.163 847.268C143.163 845.812 143.466 844.538 144.073 843.446C144.679 842.337 145.511 841.496 146.569 840.924C147.643 840.335 148.839 840.04 150.157 840.04C151.474 840.04 152.661 840.335 153.719 840.924C154.776 841.496 155.599 842.328 156.189 843.42C156.795 844.512 157.099 845.795 157.099 847.268C157.099 848.741 156.795 850.033 156.189 851.142C155.582 852.234 154.741 853.075 153.667 853.664C152.609 854.253 151.422 854.548 150.105 854.548ZM150.105 853.508C151.127 853.508 152.081 853.283 152.965 852.832C153.866 852.364 154.585 851.662 155.123 850.726C155.66 849.79 155.929 848.637 155.929 847.268C155.929 845.916 155.66 844.772 155.123 843.836C154.585 842.9 153.875 842.207 152.991 841.756C152.107 841.288 151.153 841.054 150.131 841.054C149.108 841.054 148.155 841.288 147.271 841.756C146.404 842.207 145.702 842.9 145.165 843.836C144.627 844.772 144.359 845.916 144.359 847.268C144.359 848.637 144.619 849.79 145.139 850.726C145.676 851.662 146.378 852.364 147.245 852.832C148.129 853.283 149.082 853.508 150.105 853.508ZM161.818 843.134C162.165 842.094 162.78 841.305 163.664 840.768C164.548 840.213 165.675 839.936 167.044 839.936V841.158H166.654C165.268 841.158 164.115 841.557 163.196 842.354C162.278 843.134 161.818 844.417 161.818 846.202V854.34H160.648V840.222H161.818V843.134ZM169.01 847.268C169.01 845.812 169.296 844.538 169.868 843.446C170.458 842.354 171.264 841.513 172.286 840.924C173.326 840.335 174.505 840.04 175.822 840.04C177.261 840.04 178.509 840.404 179.566 841.132C180.624 841.843 181.369 842.77 181.802 843.914V835.1H182.972V854.34H181.802V850.596C181.386 851.757 180.658 852.711 179.618 853.456C178.578 854.184 177.313 854.548 175.822 854.548C174.505 854.548 173.326 854.253 172.286 853.664C171.264 853.057 170.458 852.208 169.868 851.116C169.296 850.007 169.01 848.724 169.01 847.268ZM181.802 847.268C181.802 846.037 181.542 844.954 181.022 844.018C180.52 843.065 179.826 842.337 178.942 841.834C178.058 841.314 177.07 841.054 175.978 841.054C174.834 841.054 173.829 841.305 172.962 841.808C172.096 842.293 171.42 843.004 170.934 843.94C170.449 844.876 170.206 845.985 170.206 847.268C170.206 848.551 170.449 849.66 170.934 850.596C171.42 851.532 172.096 852.251 172.962 852.754C173.846 853.257 174.852 853.508 175.978 853.508C177.07 853.508 178.058 853.257 178.942 852.754C179.844 852.234 180.546 851.506 181.048 850.57C181.551 849.617 181.802 848.516 181.802 847.268Z" fill="black" fill-opacity="0.74"/>
<rect x="44" y="900" width="631.68" height="72.5123" rx="8" fill="white"/>
<path d="M64.604 933.24C64.604 931.437 64.9766 929.834 65.722 928.43C66.4846 927.009 67.5246 925.899 68.842 925.102C70.1766 924.305 71.6673 923.906 73.314 923.906C75.394 923.906 77.1446 924.391 78.566 925.362C79.9873 926.333 81.0273 927.693 81.686 929.444H80.334C79.814 928.057 78.9473 926.965 77.734 926.168C76.538 925.353 75.0646 924.946 73.314 924.946C71.91 924.946 70.636 925.284 69.492 925.96C68.348 926.619 67.4466 927.581 66.788 928.846C66.1293 930.094 65.8 931.559 65.8 933.24C65.8 934.904 66.1293 936.36 66.788 937.608C67.4466 938.839 68.348 939.792 69.492 940.468C70.636 941.144 71.91 941.482 73.314 941.482C75.0646 941.482 76.538 941.083 77.734 940.286C78.9473 939.471 79.814 938.371 80.334 936.984H81.686C81.0273 938.735 79.9873 940.095 78.566 941.066C77.1446 942.037 75.394 942.522 73.314 942.522C71.6673 942.522 70.1766 942.132 68.842 941.352C67.5246 940.555 66.4846 939.454 65.722 938.05C64.9766 936.629 64.604 935.025 64.604 933.24ZM91.5538 942.548C90.2364 942.548 89.0491 942.253 87.9918 941.664C86.9344 941.075 86.1024 940.234 85.4958 939.142C84.9064 938.033 84.6118 936.741 84.6118 935.268C84.6118 933.812 84.9151 932.538 85.5218 931.446C86.1284 930.337 86.9604 929.496 88.0178 928.924C89.0924 928.335 90.2884 928.04 91.6058 928.04C92.9231 928.04 94.1104 928.335 95.1678 928.924C96.2251 929.496 97.0484 930.328 97.6378 931.42C98.2444 932.512 98.5478 933.795 98.5478 935.268C98.5478 936.741 98.2444 938.033 97.6378 939.142C97.0311 940.234 96.1904 941.075 95.1158 941.664C94.0584 942.253 92.8711 942.548 91.5538 942.548ZM91.5538 941.508C92.5764 941.508 93.5298 941.283 94.4138 940.832C95.3151 940.364 96.0344 939.662 96.5718 938.726C97.1091 937.79 97.3778 936.637 97.3778 935.268C97.3778 933.916 97.1091 932.772 96.5718 931.836C96.0344 930.9 95.3238 930.207 94.4398 929.756C93.5558 929.288 92.6024 929.054 91.5798 929.054C90.5571 929.054 89.6038 929.288 88.7198 929.756C87.8531 930.207 87.1511 930.9 86.6138 931.836C86.0764 932.772 85.8078 933.916 85.8078 935.268C85.8078 936.637 86.0678 937.79 86.5878 938.726C87.1251 939.662 87.8271 940.364 88.6938 940.832C89.5778 941.283 90.5311 941.508 91.5538 941.508ZM108.468 927.936C110.149 927.936 111.518 928.456 112.576 929.496C113.633 930.519 114.162 932.044 114.162 934.072V942.34H113.018V934.15C113.018 932.469 112.593 931.186 111.744 930.302C110.894 929.401 109.742 928.95 108.286 928.95C106.76 928.95 105.538 929.435 104.62 930.406C103.718 931.377 103.268 932.815 103.268 934.722V942.34H102.098V928.222H103.268V931.212C103.666 930.155 104.325 929.349 105.244 928.794C106.18 928.222 107.254 927.936 108.468 927.936ZM123.679 929.262H120.013V942.34H118.843V929.262H116.711V928.222H118.843V927.234C118.843 925.761 119.215 924.669 119.961 923.958C120.706 923.23 121.928 922.866 123.627 922.866V923.906C122.275 923.906 121.33 924.166 120.793 924.686C120.273 925.206 120.013 926.055 120.013 927.234V928.222H123.679V929.262ZM127.274 925.076C126.996 925.076 126.762 924.989 126.572 924.816C126.381 924.625 126.286 924.374 126.286 924.062C126.286 923.767 126.381 923.525 126.572 923.334C126.762 923.143 126.996 923.048 127.274 923.048C127.551 923.048 127.785 923.143 127.976 923.334C128.166 923.525 128.262 923.767 128.262 924.062C128.262 924.374 128.166 924.625 127.976 924.816C127.785 924.989 127.551 925.076 127.274 925.076ZM127.846 928.222V942.34H126.676V928.222H127.846ZM133.305 931.134C133.651 930.094 134.267 929.305 135.151 928.768C136.035 928.213 137.161 927.936 138.531 927.936V929.158H138.141C136.754 929.158 135.601 929.557 134.683 930.354C133.764 931.134 133.305 932.417 133.305 934.202V942.34H132.135V928.222H133.305V931.134ZM157.917 927.936C159.529 927.936 160.846 928.456 161.869 929.496C162.891 930.519 163.403 932.044 163.403 934.072V942.34H162.259V934.15C162.259 932.469 161.851 931.186 161.037 930.302C160.239 929.401 159.139 928.95 157.735 928.95C156.279 928.95 155.109 929.453 154.225 930.458C153.341 931.463 152.899 932.919 152.899 934.826V942.34H151.755V934.15C151.755 932.469 151.347 931.186 150.533 930.302C149.735 929.401 148.635 928.95 147.231 928.95C145.775 928.95 144.605 929.453 143.721 930.458C142.837 931.463 142.395 932.919 142.395 934.826V942.34H141.225V928.222H142.395V931.29C142.793 930.181 143.435 929.349 144.319 928.794C145.22 928.222 146.251 927.936 147.413 927.936C148.695 927.936 149.796 928.274 150.715 928.95C151.651 929.609 152.292 930.588 152.639 931.888C152.968 930.588 153.609 929.609 154.563 928.95C155.516 928.274 156.634 927.936 157.917 927.936ZM176.062 931.94C176.461 930.796 177.18 929.86 178.22 929.132C179.278 928.404 180.552 928.04 182.042 928.04C183.36 928.04 184.53 928.335 185.552 928.924C186.592 929.513 187.398 930.354 187.97 931.446C188.56 932.538 188.854 933.812 188.854 935.268C188.854 936.724 188.56 938.007 187.97 939.116C187.398 940.208 186.592 941.057 185.552 941.664C184.53 942.253 183.36 942.548 182.042 942.548C180.569 942.548 179.304 942.184 178.246 941.456C177.206 940.711 176.478 939.775 176.062 938.648V948.996H174.892V928.222H176.062V931.94ZM187.658 935.268C187.658 933.985 187.416 932.876 186.93 931.94C186.445 931.004 185.76 930.293 184.876 929.808C184.01 929.305 183.004 929.054 181.86 929.054C180.768 929.054 179.78 929.314 178.896 929.834C178.012 930.337 177.319 931.065 176.816 932.018C176.314 932.954 176.062 934.037 176.062 935.268C176.062 936.516 176.314 937.617 176.816 938.57C177.319 939.506 178.012 940.234 178.896 940.754C179.78 941.257 180.768 941.508 181.86 941.508C183.004 941.508 184.01 941.257 184.876 940.754C185.76 940.251 186.445 939.532 186.93 938.596C187.416 937.66 187.658 936.551 187.658 935.268ZM191.659 935.268C191.659 933.812 191.945 932.538 192.517 931.446C193.106 930.354 193.912 929.513 194.935 928.924C195.975 928.335 197.153 928.04 198.471 928.04C199.961 928.04 201.227 928.404 202.267 929.132C203.307 929.86 204.035 930.787 204.451 931.914V928.222H205.621V942.34H204.451V938.622C204.035 939.766 203.298 940.711 202.241 941.456C201.201 942.184 199.944 942.548 198.471 942.548C197.153 942.548 195.975 942.253 194.935 941.664C193.912 941.057 193.106 940.208 192.517 939.116C191.945 938.007 191.659 936.724 191.659 935.268ZM204.451 935.268C204.451 934.037 204.191 932.954 203.671 932.018C203.168 931.065 202.475 930.337 201.591 929.834C200.707 929.314 199.719 929.054 198.627 929.054C197.483 929.054 196.477 929.305 195.611 929.808C194.744 930.293 194.068 931.004 193.583 931.94C193.097 932.876 192.855 933.985 192.855 935.268C192.855 936.551 193.097 937.66 193.583 938.596C194.068 939.532 194.744 940.251 195.611 940.754C196.495 941.257 197.5 941.508 198.627 941.508C199.719 941.508 200.707 941.257 201.591 940.754C202.492 940.234 203.194 939.506 203.697 938.57C204.199 937.617 204.451 936.516 204.451 935.268ZM214.587 942.548C213.009 942.548 211.718 942.201 210.713 941.508C209.725 940.815 209.17 939.827 209.049 938.544H210.245C210.331 939.463 210.747 940.191 211.493 940.728C212.255 941.265 213.287 941.534 214.587 941.534C215.661 941.534 216.511 941.265 217.135 940.728C217.776 940.173 218.097 939.497 218.097 938.7C218.097 938.145 217.923 937.695 217.577 937.348C217.247 936.984 216.831 936.707 216.329 936.516C215.826 936.325 215.141 936.117 214.275 935.892C213.235 935.615 212.394 935.346 211.753 935.086C211.111 934.809 210.565 934.401 210.115 933.864C209.664 933.327 209.439 932.607 209.439 931.706C209.439 931.047 209.638 930.441 210.037 929.886C210.435 929.314 210.99 928.863 211.701 928.534C212.411 928.205 213.217 928.04 214.119 928.04C215.592 928.04 216.779 928.413 217.681 929.158C218.599 929.886 219.093 930.9 219.163 932.2H217.993C217.941 931.264 217.577 930.501 216.901 929.912C216.225 929.323 215.289 929.028 214.093 929.028C213.087 929.028 212.255 929.288 211.597 929.808C210.938 930.328 210.609 930.961 210.609 931.706C210.609 932.365 210.791 932.902 211.155 933.318C211.536 933.717 211.995 934.029 212.533 934.254C213.087 934.462 213.815 934.687 214.717 934.93C215.705 935.19 216.493 935.45 217.083 935.71C217.689 935.953 218.201 936.317 218.617 936.802C219.033 937.27 219.241 937.903 219.241 938.7C219.241 939.428 219.041 940.087 218.643 940.676C218.244 941.265 217.689 941.725 216.979 942.054C216.268 942.383 215.471 942.548 214.587 942.548ZM227.511 942.548C225.933 942.548 224.642 942.201 223.637 941.508C222.649 940.815 222.094 939.827 221.973 938.544H223.169C223.255 939.463 223.671 940.191 224.417 940.728C225.179 941.265 226.211 941.534 227.511 941.534C228.585 941.534 229.435 941.265 230.059 940.728C230.7 940.173 231.021 939.497 231.021 938.7C231.021 938.145 230.847 937.695 230.501 937.348C230.171 936.984 229.755 936.707 229.253 936.516C228.75 936.325 228.065 936.117 227.199 935.892C226.159 935.615 225.318 935.346 224.677 935.086C224.035 934.809 223.489 934.401 223.039 933.864C222.588 933.327 222.363 932.607 222.363 931.706C222.363 931.047 222.562 930.441 222.961 929.886C223.359 929.314 223.914 928.863 224.625 928.534C225.335 928.205 226.141 928.04 227.043 928.04C228.516 928.04 229.703 928.413 230.605 929.158C231.523 929.886 232.017 930.9 232.087 932.2H230.917C230.865 931.264 230.501 930.501 229.825 929.912C229.149 929.323 228.213 929.028 227.017 929.028C226.011 929.028 225.179 929.288 224.521 929.808C223.862 930.328 223.533 930.961 223.533 931.706C223.533 932.365 223.715 932.902 224.079 933.318C224.46 933.717 224.919 934.029 225.457 934.254C226.011 934.462 226.739 934.687 227.641 934.93C228.629 935.19 229.417 935.45 230.007 935.71C230.613 935.953 231.125 936.317 231.541 936.802C231.957 937.27 232.165 937.903 232.165 938.7C232.165 939.428 231.965 940.087 231.567 940.676C231.168 941.265 230.613 941.725 229.903 942.054C229.192 942.383 228.395 942.548 227.511 942.548ZM254.188 928.222L249.742 942.34H248.624L244.126 929.834L239.602 942.34H238.484L234.038 928.222H235.26L239.056 941.014L243.58 928.222H244.698L249.196 940.962L252.992 928.222H254.188ZM262.966 942.548C261.649 942.548 260.461 942.253 259.404 941.664C258.347 941.075 257.515 940.234 256.908 939.142C256.319 938.033 256.024 936.741 256.024 935.268C256.024 933.812 256.327 932.538 256.934 931.446C257.541 930.337 258.373 929.496 259.43 928.924C260.505 928.335 261.701 928.04 263.018 928.04C264.335 928.04 265.523 928.335 266.58 928.924C267.637 929.496 268.461 930.328 269.05 931.42C269.657 932.512 269.96 933.795 269.96 935.268C269.96 936.741 269.657 938.033 269.05 939.142C268.443 940.234 267.603 941.075 266.528 941.664C265.471 942.253 264.283 942.548 262.966 942.548ZM262.966 941.508C263.989 941.508 264.942 941.283 265.826 940.832C266.727 940.364 267.447 939.662 267.984 938.726C268.521 937.79 268.79 936.637 268.79 935.268C268.79 933.916 268.521 932.772 267.984 931.836C267.447 930.9 266.736 930.207 265.852 929.756C264.968 929.288 264.015 929.054 262.992 929.054C261.969 929.054 261.016 929.288 260.132 929.756C259.265 930.207 258.563 930.9 258.026 931.836C257.489 932.772 257.22 933.916 257.22 935.268C257.22 936.637 257.48 937.79 258 938.726C258.537 939.662 259.239 940.364 260.106 940.832C260.99 941.283 261.943 941.508 262.966 941.508ZM274.68 931.134C275.026 930.094 275.642 929.305 276.526 928.768C277.41 928.213 278.536 927.936 279.906 927.936V929.158H279.516C278.129 929.158 276.976 929.557 276.058 930.354C275.139 931.134 274.68 932.417 274.68 934.202V942.34H273.51V928.222H274.68V931.134ZM281.872 935.268C281.872 933.812 282.158 932.538 282.73 931.446C283.319 930.354 284.125 929.513 285.148 928.924C286.188 928.335 287.366 928.04 288.684 928.04C290.122 928.04 291.37 928.404 292.428 929.132C293.485 929.843 294.23 930.77 294.664 931.914V923.1H295.834V942.34H294.664V938.596C294.248 939.757 293.52 940.711 292.48 941.456C291.44 942.184 290.174 942.548 288.684 942.548C287.366 942.548 286.188 942.253 285.148 941.664C284.125 941.057 283.319 940.208 282.73 939.116C282.158 938.007 281.872 936.724 281.872 935.268ZM294.664 935.268C294.664 934.037 294.404 932.954 293.884 932.018C293.381 931.065 292.688 930.337 291.804 929.834C290.92 929.314 289.932 929.054 288.84 929.054C287.696 929.054 286.69 929.305 285.824 929.808C284.957 930.293 284.281 931.004 283.796 931.94C283.31 932.876 283.068 933.985 283.068 935.268C283.068 936.551 283.31 937.66 283.796 938.596C284.281 939.532 284.957 940.251 285.824 940.754C286.708 941.257 287.713 941.508 288.84 941.508C289.932 941.508 290.92 941.257 291.804 940.754C292.705 940.234 293.407 939.506 293.91 938.57C294.412 937.617 294.664 936.516 294.664 935.268Z" fill="black" fill-opacity="0.74"/>
<rect x="44" y="724" width="631.68" height="72.5123" rx="8" fill="white"/>
<path d="M66.502 749.076V756.694H73.782V757.682H66.502V765.352H74.562V766.34H65.332V748.088H74.562V749.076H66.502ZM94.7954 751.936C96.4074 751.936 97.7248 752.456 98.7474 753.496C99.7701 754.519 100.281 756.044 100.281 758.072V766.34H99.1374V758.15C99.1374 756.469 98.7301 755.186 97.9154 754.302C97.1181 753.401 96.0174 752.95 94.6134 752.95C93.1574 752.95 91.9874 753.453 91.1034 754.458C90.2194 755.463 89.7774 756.919 89.7774 758.826V766.34H88.6334V758.15C88.6334 756.469 88.2261 755.186 87.4114 754.302C86.6141 753.401 85.5134 752.95 84.1094 752.95C82.6534 752.95 81.4834 753.453 80.5994 754.458C79.7154 755.463 79.2734 756.919 79.2734 758.826V766.34H78.1034V752.222H79.2734V755.29C79.6721 754.181 80.3134 753.349 81.1974 752.794C82.0988 752.222 83.1301 751.936 84.2914 751.936C85.5741 751.936 86.6748 752.274 87.5934 752.95C88.5294 753.609 89.1708 754.588 89.5174 755.888C89.8468 754.588 90.4881 753.609 91.4414 752.95C92.3948 752.274 93.5128 751.936 94.7954 751.936ZM103.706 759.268C103.706 757.812 103.992 756.538 104.564 755.446C105.153 754.354 105.959 753.513 106.982 752.924C108.022 752.335 109.2 752.04 110.518 752.04C112.008 752.04 113.274 752.404 114.314 753.132C115.354 753.86 116.082 754.787 116.498 755.914V752.222H117.668V766.34H116.498V762.622C116.082 763.766 115.345 764.711 114.288 765.456C113.248 766.184 111.991 766.548 110.518 766.548C109.2 766.548 108.022 766.253 106.982 765.664C105.959 765.057 105.153 764.208 104.564 763.116C103.992 762.007 103.706 760.724 103.706 759.268ZM116.498 759.268C116.498 758.037 116.238 756.954 115.718 756.018C115.215 755.065 114.522 754.337 113.638 753.834C112.754 753.314 111.766 753.054 110.674 753.054C109.53 753.054 108.524 753.305 107.658 753.808C106.791 754.293 106.115 755.004 105.63 755.94C105.144 756.876 104.902 757.985 104.902 759.268C104.902 760.551 105.144 761.66 105.63 762.596C106.115 763.532 106.791 764.251 107.658 764.754C108.542 765.257 109.547 765.508 110.674 765.508C111.766 765.508 112.754 765.257 113.638 764.754C114.539 764.234 115.241 763.506 115.744 762.57C116.246 761.617 116.498 760.516 116.498 759.268ZM122.526 749.076C122.248 749.076 122.014 748.989 121.824 748.816C121.633 748.625 121.538 748.374 121.538 748.062C121.538 747.767 121.633 747.525 121.824 747.334C122.014 747.143 122.248 747.048 122.526 747.048C122.803 747.048 123.037 747.143 123.228 747.334C123.418 747.525 123.514 747.767 123.514 748.062C123.514 748.374 123.418 748.625 123.228 748.816C123.037 748.989 122.803 749.076 122.526 749.076ZM123.098 752.222V766.34H121.928V752.222H123.098ZM128.557 747.1V766.34H127.387V747.1H128.557Z" fill="black" fill-opacity="0.74"/>
<rect x="44.16" y="635.271" width="631.68" height="72.5123" rx="8" fill="white"/>
<path d="M66.558 659.359V670.773C66.558 672.836 67.026 674.352 67.962 675.323C68.898 676.276 70.172 676.753 71.784 676.753C73.3787 676.753 74.6353 676.276 75.554 675.323C76.4727 674.37 76.932 672.853 76.932 670.773V659.359H78.102V670.747C78.102 673.122 77.53 674.89 76.386 676.051C75.242 677.212 73.708 677.793 71.784 677.793C69.86 677.793 68.3087 677.212 67.13 676.051C65.9687 674.872 65.388 673.104 65.388 670.747V659.359H66.558ZM86.9558 677.819C85.3785 677.819 84.0871 677.472 83.0818 676.779C82.0938 676.086 81.5391 675.098 81.4178 673.815H82.6138C82.7005 674.734 83.1165 675.462 83.8618 675.999C84.6245 676.536 85.6558 676.805 86.9558 676.805C88.0305 676.805 88.8798 676.536 89.5038 675.999C90.1451 675.444 90.4658 674.768 90.4658 673.971C90.4658 673.416 90.2925 672.966 89.9458 672.619C89.6165 672.255 89.2005 671.978 88.6978 671.787C88.1951 671.596 87.5105 671.388 86.6438 671.163C85.6038 670.886 84.7631 670.617 84.1218 670.357C83.4805 670.08 82.9345 669.672 82.4838 669.135C82.0331 668.598 81.8078 667.878 81.8078 666.977C81.8078 666.318 82.0071 665.712 82.4058 665.157C82.8045 664.585 83.3591 664.134 84.0698 663.805C84.7805 663.476 85.5865 663.311 86.4878 663.311C87.9611 663.311 89.1485 663.684 90.0498 664.429C90.9685 665.157 91.4625 666.171 91.5318 667.471H90.3618C90.3098 666.535 89.9458 665.772 89.2698 665.183C88.5938 664.594 87.6578 664.299 86.4618 664.299C85.4565 664.299 84.6245 664.559 83.9658 665.079C83.3071 665.599 82.9778 666.232 82.9778 666.977C82.9778 667.636 83.1598 668.173 83.5238 668.589C83.9051 668.988 84.3645 669.3 84.9018 669.525C85.4565 669.733 86.1845 669.958 87.0858 670.201C88.0738 670.461 88.8625 670.721 89.4518 670.981C90.0585 671.224 90.5698 671.588 90.9858 672.073C91.4018 672.541 91.6098 673.174 91.6098 673.971C91.6098 674.699 91.4105 675.358 91.0118 675.947C90.6131 676.536 90.0585 676.996 89.3478 677.325C88.6371 677.654 87.8398 677.819 86.9558 677.819ZM107.888 669.603C107.888 670.227 107.87 670.695 107.836 671.007H95.6416C95.6763 672.272 95.9536 673.338 96.4736 674.205C96.9936 675.072 97.6783 675.722 98.5276 676.155C99.377 676.588 100.304 676.805 101.31 676.805C102.696 676.805 103.858 676.467 104.794 675.791C105.73 675.098 106.319 674.162 106.562 672.983H107.784C107.506 674.422 106.796 675.592 105.652 676.493C104.508 677.377 103.06 677.819 101.31 677.819C99.9923 677.819 98.8136 677.524 97.7736 676.935C96.7336 676.346 95.919 675.505 95.3296 674.413C94.7403 673.304 94.4456 672.012 94.4456 670.539C94.4456 669.066 94.7316 667.783 95.3036 666.691C95.893 665.599 96.7076 664.767 97.7476 664.195C98.7876 663.606 99.975 663.311 101.31 663.311C102.662 663.311 103.832 663.606 104.82 664.195C105.825 664.767 106.588 665.538 107.108 666.509C107.628 667.462 107.888 668.494 107.888 669.603ZM106.718 670.045C106.77 668.797 106.544 667.74 106.042 666.873C105.556 666.006 104.889 665.365 104.04 664.949C103.19 664.516 102.272 664.299 101.284 664.299C100.296 664.299 99.377 664.516 98.5276 664.949C97.6956 665.365 97.011 666.006 96.4736 666.873C95.9536 667.74 95.6763 668.797 95.6416 670.045H106.718ZM112.594 666.405C112.94 665.365 113.556 664.576 114.44 664.039C115.324 663.484 116.45 663.207 117.82 663.207V664.429H117.43C116.043 664.429 114.89 664.828 113.972 665.625C113.053 666.405 112.594 667.688 112.594 669.473V677.611H111.424V663.493H112.594V666.405ZM140.903 677.611H139.733L129.021 661.283V677.611H127.851V659.385H129.021L139.733 675.661V659.385H140.903V677.611ZM144.465 670.539C144.465 669.083 144.751 667.809 145.323 666.717C145.912 665.625 146.718 664.784 147.741 664.195C148.781 663.606 149.96 663.311 151.277 663.311C152.768 663.311 154.033 663.675 155.073 664.403C156.113 665.131 156.841 666.058 157.257 667.185V663.493H158.427V677.611H157.257V673.893C156.841 675.037 156.104 675.982 155.047 676.727C154.007 677.455 152.75 677.819 151.277 677.819C149.96 677.819 148.781 677.524 147.741 676.935C146.718 676.328 145.912 675.479 145.323 674.387C144.751 673.278 144.465 671.995 144.465 670.539ZM157.257 670.539C157.257 669.308 156.997 668.225 156.477 667.289C155.974 666.336 155.281 665.608 154.397 665.105C153.513 664.585 152.525 664.325 151.433 664.325C150.289 664.325 149.284 664.576 148.417 665.079C147.55 665.564 146.874 666.275 146.389 667.211C145.904 668.147 145.661 669.256 145.661 670.539C145.661 671.822 145.904 672.931 146.389 673.867C146.874 674.803 147.55 675.522 148.417 676.025C149.301 676.528 150.306 676.779 151.433 676.779C152.525 676.779 153.513 676.528 154.397 676.025C155.298 675.505 156 674.777 156.503 673.841C157.006 672.888 157.257 671.787 157.257 670.539ZM179.379 663.207C180.991 663.207 182.309 663.727 183.331 664.767C184.354 665.79 184.865 667.315 184.865 669.343V677.611H183.721V669.421C183.721 667.74 183.314 666.457 182.499 665.573C181.702 664.672 180.601 664.221 179.197 664.221C177.741 664.221 176.571 664.724 175.687 665.729C174.803 666.734 174.361 668.19 174.361 670.097V677.611H173.217V669.421C173.217 667.74 172.81 666.457 171.995 665.573C171.198 664.672 170.097 664.221 168.693 664.221C167.237 664.221 166.067 664.724 165.183 665.729C164.299 666.734 163.857 668.19 163.857 670.097V677.611H162.687V663.493H163.857V666.561C164.256 665.452 164.897 664.62 165.781 664.065C166.683 663.493 167.714 663.207 168.875 663.207C170.158 663.207 171.259 663.545 172.177 664.221C173.113 664.88 173.755 665.859 174.101 667.159C174.431 665.859 175.072 664.88 176.025 664.221C176.979 663.545 178.097 663.207 179.379 663.207ZM201.731 669.603C201.731 670.227 201.714 670.695 201.679 671.007H189.485C189.52 672.272 189.797 673.338 190.317 674.205C190.837 675.072 191.522 675.722 192.371 676.155C193.221 676.588 194.148 676.805 195.153 676.805C196.54 676.805 197.701 676.467 198.637 675.791C199.573 675.098 200.163 674.162 200.405 672.983H201.627C201.35 674.422 200.639 675.592 199.495 676.493C198.351 677.377 196.904 677.819 195.153 677.819C193.836 677.819 192.657 677.524 191.617 676.935C190.577 676.346 189.763 675.505 189.173 674.413C188.584 673.304 188.289 672.012 188.289 670.539C188.289 669.066 188.575 667.783 189.147 666.691C189.737 665.599 190.551 664.767 191.591 664.195C192.631 663.606 193.819 663.311 195.153 663.311C196.505 663.311 197.675 663.606 198.663 664.195C199.669 664.767 200.431 665.538 200.951 666.509C201.471 667.462 201.731 668.494 201.731 669.603ZM200.561 670.045C200.613 668.797 200.388 667.74 199.885 666.873C199.4 666.006 198.733 665.365 197.883 664.949C197.034 664.516 196.115 664.299 195.127 664.299C194.139 664.299 193.221 664.516 192.371 664.949C191.539 665.365 190.855 666.006 190.317 666.873C189.797 667.74 189.52 668.797 189.485 670.045H200.561Z" fill="black" fill-opacity="0.74"/>
<g clip-path="url(#clip1_219_15263)">
<path d="M330.049 334.754C326.394 342.14 333.277 354.584 326.34 357.168L326.912 356.497C331.099 350.457 322.347 337.671 326.534 331.631C327.185 330.744 327.743 329.771 328.198 328.73" fill="#2F2E41"/>
<path d="M364.279 443.104C364.399 442.365 364.379 441.604 364.221 440.875C364.063 440.145 363.771 439.466 363.365 438.884C362.959 438.301 362.449 437.831 361.871 437.505C361.293 437.178 360.661 437.005 360.019 436.996L350.984 406.209L345.984 413.685L355.536 442.453C355.595 443.718 356.048 444.913 356.808 445.812C357.568 446.712 358.584 447.253 359.661 447.333C360.739 447.413 361.804 447.027 362.655 446.248C363.507 445.468 364.084 444.349 364.279 443.104L364.279 443.104Z" fill="#FFB8B8"/>
<path d="M324.565 368.77C324.565 368.77 324.284 357.626 332.78 364.01C341.277 370.394 359.777 430.2 359.777 430.2L350.571 436.042L329.671 381.313L324.565 368.77Z" fill="#E7740A"/>
<path d="M349.633 559.783L345.39 561.91L336.377 543.727L342.64 540.588L349.633 559.783Z" fill="#FFB6B6"/>
<path d="M355.013 567.283L351.971 568.808L350.2 565.711L350.036 569.778L341.967 573.822C341.58 574.016 341.15 574.06 340.741 573.947C340.331 573.835 339.963 573.571 339.69 573.196C339.417 572.82 339.254 572.352 339.224 571.86C339.193 571.368 339.298 570.878 339.523 570.46L344.065 562.01L342.824 558.604L349.775 555.681L355.013 567.283Z" fill="#2F2E41"/>
<path d="M283.122 565.951L278.513 565.687L277.189 544.712L283.991 545.102L283.122 565.951Z" fill="#FFB6B6"/>
<path d="M285.164 575.456L281.859 575.266L281.421 571.573L279.758 575.146L270.993 574.643C270.573 574.619 270.17 574.438 269.844 574.127C269.517 573.815 269.285 573.39 269.179 572.912C269.074 572.435 269.101 571.93 269.258 571.472C269.414 571.014 269.691 570.626 270.049 570.366L277.285 565.097L277.439 561.397L284.78 562.335L285.164 575.456Z" fill="#2F2E41"/>
<path d="M418.906 562.609C419.211 562.622 419.513 562.525 419.769 562.33C420.026 562.136 420.225 561.853 420.34 561.521C420.455 561.19 420.481 560.824 420.413 560.475C420.345 560.126 420.187 559.809 419.961 559.568C419.922 559.394 419.894 559.268 419.855 559.094C420.14 558.22 420.641 557.467 421.293 556.929C421.946 556.392 422.72 556.095 423.517 556.078C424.315 556.06 425.098 556.322 425.767 556.83C426.437 557.338 426.962 558.069 427.274 558.929C429.079 563.756 431.405 568.748 430.312 574.1C437.667 555.357 434.926 532.175 423.703 516.342C420.621 514.395 418.107 510.903 417.427 506.823C418.949 507.41 420.829 505.941 419.673 504.078C419.173 503.367 418.668 502.662 418.167 501.951C423.873 494.686 430.834 505.926 424.567 515.716C426.668 518.745 428.493 522.023 430.012 525.498C429.637 521.795 430.018 518.04 431.122 514.543C432.243 511.283 434.372 508.525 436.243 505.696C438.518 502.25 443.271 503.775 443.617 508.112C441.498 508.956 441.251 512.56 443.686 513.025C443.115 521.107 438.678 528.578 432.512 532.189C434.86 539.692 435.819 547.695 435.323 555.667C436.341 546.346 444.842 543.992 450.766 540.225C451.143 539.936 451.583 539.781 452.033 539.781C452.484 539.78 452.924 539.933 453.302 540.221C453.679 540.509 453.977 540.919 454.159 541.402C454.341 541.885 454.399 542.42 454.326 542.941C453.507 543.343 452.725 543.838 451.99 544.421C451.645 544.698 451.382 545.093 451.237 545.553C451.092 546.012 451.071 546.513 451.178 546.987C451.285 547.46 451.514 547.884 451.834 548.199C452.154 548.513 452.549 548.705 452.965 548.746C450.035 557.492 442.322 563.43 434.352 563.486C433.617 567.398 432.539 571.211 431.132 574.862L419.303 574.994C419.259 574.84 419.22 574.681 419.181 574.527C420.276 574.596 421.375 574.507 422.452 574.262C419.522 570.272 417.265 568.244 418.906 562.609L418.906 562.609Z" fill="#F2F2F2"/>
<path d="M294.763 429.607C294.763 429.607 285.392 459.563 285.24 462.915C285.089 466.268 282.416 508.659 280.175 511.122C277.933 513.585 271.08 551.772 276.413 554.759C281.745 557.746 298.568 552.798 298.568 552.798L304.42 507.69L306.408 473.132C306.408 473.132 312.46 554.51 323.438 554.271C334.415 554.032 347.792 549.129 347.792 549.129L332.427 499.845C332.427 499.845 332.644 441.5 329.083 429.732C325.522 417.964 294.763 429.607 294.763 429.607Z" fill="#2F2E41"/>
<path d="M322.572 352.428L310.021 353.777L307.999 361.057C307.999 361.057 297.496 367.822 299.822 370.896C302.147 373.97 299.301 394.684 299.301 394.684L299.944 411.497C299.944 411.497 299.254 423.146 297.188 425.83C295.121 428.514 289.716 435.096 293.535 431.947C306.928 420.907 330.337 430.222 330.337 430.222L326.993 406.198C326.993 406.198 334.589 366.863 331.591 363.541C328.593 360.22 325.765 359.8 325.765 359.8L322.572 352.428Z" fill="#E7740A"/>
<path d="M256.623 428.635C257.254 428.497 257.851 428.199 258.373 427.761C258.894 427.324 259.328 426.757 259.643 426.102C259.957 425.446 260.146 424.718 260.195 423.968C260.244 423.218 260.152 422.464 259.925 421.76L281.094 400.696L273.337 397.949L253.962 418.845C252.979 419.369 252.194 420.299 251.756 421.456C251.318 422.614 251.257 423.92 251.585 425.127C251.913 426.333 252.607 427.357 253.536 428.004C254.464 428.65 255.563 428.875 256.623 428.635V428.635Z" fill="#FFB8B8"/>
<path d="M310.383 373.536C310.383 373.536 314.554 363.517 304.569 365.228C294.584 366.94 256.72 412.495 256.72 412.495L263.057 422.267L301.324 382.497L310.383 373.536Z" fill="#E7740A"/>
<path d="M294.123 356.541L254.536 416.028C253.851 417.06 253.543 418.369 253.679 419.667C253.816 420.966 254.385 422.147 255.263 422.954C264.457 449.135 291.96 468.55 324.314 486.172C325.194 486.977 326.31 487.338 327.418 487.178C328.525 487.018 329.532 486.349 330.22 485.319L369.807 425.833C370.493 424.8 370.801 423.491 370.665 422.193C370.528 420.894 369.958 419.712 369.079 418.906C341.928 400.924 318.592 380.09 300.028 355.688C299.148 354.885 298.032 354.523 296.925 354.683C295.818 354.843 294.811 355.512 294.123 356.541V356.541Z" fill="#E6E6E6"/>
<path d="M367.028 424.479L354.978 442.586C347.618 453.581 336.847 460.711 325.018 462.421C313.189 464.131 301.264 460.281 291.848 451.712L258.078 420.794C257.578 420.336 257.253 419.664 257.175 418.925C257.097 418.187 257.272 417.442 257.661 416.854L295.915 359.372C296.306 358.786 296.88 358.406 297.51 358.316C298.14 358.226 298.775 358.432 299.275 358.89C316.358 384.763 339.224 404.897 366.615 420.542C367.114 421 367.438 421.672 367.516 422.41C367.593 423.148 367.418 423.892 367.028 424.479Z" fill="white"/>
<path d="M293.334 389.015L285.486 400.808C285.278 401.12 284.972 401.322 284.637 401.371C284.301 401.419 283.963 401.309 283.696 401.065C283.43 400.821 283.257 400.463 283.215 400.07C283.174 399.676 283.267 399.279 283.475 398.967L291.323 387.174C291.426 387.019 291.554 386.89 291.7 386.793C291.845 386.696 292.006 386.633 292.172 386.609C292.339 386.585 292.507 386.6 292.669 386.652C292.83 386.704 292.982 386.794 293.114 386.914C293.246 387.035 293.356 387.186 293.439 387.357C293.521 387.528 293.574 387.716 293.595 387.911C293.615 388.107 293.603 388.304 293.558 388.494C293.513 388.683 293.437 388.86 293.334 389.015H293.334Z" fill="#CCCCCC"/>
<path d="M308.053 380.268L290.819 406.165C290.716 406.32 290.588 406.449 290.442 406.546C290.297 406.643 290.136 406.705 289.97 406.729C289.803 406.753 289.635 406.738 289.473 406.686C289.312 406.634 289.161 406.544 289.029 406.424C288.897 406.303 288.787 406.153 288.704 405.982C288.621 405.811 288.568 405.622 288.548 405.427C288.527 405.232 288.54 405.035 288.585 404.845C288.629 404.656 288.705 404.479 288.808 404.324L306.042 378.427C306.145 378.272 306.273 378.142 306.419 378.045C306.565 377.948 306.726 377.885 306.892 377.861C307.058 377.837 307.227 377.851 307.389 377.904C307.55 377.956 307.702 378.045 307.834 378.166C307.966 378.287 308.077 378.438 308.159 378.609C308.242 378.78 308.295 378.969 308.315 379.164C308.335 379.359 308.323 379.557 308.278 379.746C308.233 379.936 308.157 380.113 308.053 380.268H308.053Z" fill="#CCCCCC"/>
<path d="M278.66 423.464C283.299 423.464 287.06 419.052 287.06 413.611C287.06 408.169 283.299 403.758 278.66 403.758C274.021 403.758 270.26 408.169 270.26 413.611C270.26 419.052 274.021 423.464 278.66 423.464Z" fill="#E7740A"/>
<path d="M308.968 400.735L287.801 432.542C287.58 432.806 287.285 432.965 286.97 432.989C286.655 433.014 286.344 432.901 286.096 432.674C285.847 432.446 285.679 432.119 285.622 431.755C285.566 431.392 285.626 431.016 285.791 430.701L306.957 398.894C307.178 398.63 307.474 398.471 307.789 398.447C308.103 398.423 308.415 398.535 308.663 398.762C308.912 398.99 309.08 399.317 309.136 399.681C309.193 400.044 309.133 400.42 308.968 400.735Z" fill="#CCCCCC"/>
<path d="M322.7 393.473L293.156 437.867C292.935 438.131 292.639 438.291 292.324 438.315C292.01 438.339 291.699 438.227 291.45 437.999C291.202 437.772 291.033 437.445 290.977 437.081C290.921 436.717 290.981 436.342 291.145 436.026L320.689 391.632C320.91 391.369 321.206 391.209 321.52 391.185C321.835 391.161 322.146 391.273 322.395 391.5C322.643 391.728 322.812 392.055 322.868 392.419C322.924 392.782 322.864 393.158 322.7 393.473V393.473Z" fill="#CCCCCC"/>
<path d="M322.597 413.213L301.43 445.019C301.209 445.283 300.913 445.442 300.599 445.467C300.284 445.491 299.973 445.379 299.725 445.151C299.476 444.924 299.308 444.597 299.251 444.233C299.195 443.869 299.255 443.494 299.42 443.178L320.586 411.372C320.807 411.108 321.103 410.949 321.418 410.925C321.732 410.9 322.044 411.012 322.292 411.24C322.541 411.468 322.709 411.794 322.765 412.158C322.822 412.522 322.762 412.897 322.597 413.213Z" fill="#CCCCCC"/>
<path d="M350.604 417.135L329.438 448.942C329.217 449.206 328.921 449.365 328.606 449.389C328.292 449.414 327.98 449.301 327.732 449.074C327.483 448.846 327.315 448.519 327.259 448.155C327.202 447.792 327.262 447.416 327.427 447.101L348.594 415.294C348.815 415.03 349.111 414.871 349.425 414.847C349.74 414.823 350.051 414.935 350.299 415.162C350.548 415.39 350.716 415.717 350.773 416.081C350.829 416.444 350.769 416.82 350.604 417.135Z" fill="#E7740A"/>
<path d="M332.475 429.515L302.931 473.91C302.71 474.173 302.414 474.333 302.1 474.357C301.785 474.381 301.474 474.269 301.225 474.042C300.977 473.814 300.809 473.487 300.752 473.123C300.696 472.759 300.756 472.384 300.92 472.069L330.464 427.675C330.685 427.411 330.981 427.251 331.296 427.227C331.61 427.203 331.921 427.315 332.17 427.543C332.419 427.77 332.587 428.097 332.643 428.461C332.699 428.825 332.64 429.2 332.475 429.515V429.515Z" fill="#CCCCCC"/>
<path d="M301.53 333.635C301.529 336.028 302.029 338.385 302.987 340.499C303.944 342.613 305.329 344.419 307.02 345.758C308.711 347.098 310.657 347.93 312.686 348.181C314.715 348.433 316.766 348.096 318.659 347.201C320.551 346.306 322.228 344.88 323.541 343.047C324.853 341.215 325.763 339.032 326.189 336.692C326.614 334.351 326.544 331.923 325.983 329.622C325.422 327.321 324.389 325.216 322.972 323.493L322.913 323.422C322.813 323.3 322.713 323.177 322.608 323.06C322.608 323.06 322.607 323.06 322.607 323.059C322.606 323.059 322.605 323.059 322.605 323.058C322.604 323.058 322.604 323.057 322.604 323.056C322.604 323.055 322.603 323.055 322.603 323.054C322.474 322.914 322.344 322.773 322.209 322.639C320.408 320.786 318.19 319.582 315.82 319.17C313.45 318.758 311.029 319.156 308.847 320.317C306.665 321.477 304.815 323.35 303.517 325.712C302.219 328.074 301.529 330.825 301.53 333.635V333.635Z" fill="#2F2E41"/>
<path d="M317.068 349.279C322.841 349.279 327.522 343.789 327.522 337.018C327.522 330.246 322.841 324.756 317.068 324.756C311.295 324.756 306.614 330.246 306.614 337.018C306.614 343.789 311.295 349.279 317.068 349.279Z" fill="#FFB8B8"/>
<path d="M305.924 340.285C304.902 334.884 306.379 328.833 309.599 325.228C311.218 323.45 313.233 322.244 315.41 321.749C317.588 321.254 319.84 321.49 321.909 322.429C322.172 322.553 322.435 322.69 322.693 322.832L322.813 322.898V322.919C322.836 322.938 322.859 322.958 322.882 322.978C322.931 323.031 322.991 323.07 323.055 323.089C323.963 323.062 324.865 323.259 325.703 323.669C326.541 324.079 327.296 324.691 327.918 325.467C329.539 327.529 330.301 330.862 330.068 334.85L330.06 334.975L329.97 335.041C328.743 335.953 327.47 336.776 326.158 337.506C321.569 340.037 317.379 340.506 313.353 338.938L313.279 338.909L311.589 335.587C311.242 337.878 311.427 345.479 309.436 345.891L305.967 340.514L305.924 340.285Z" fill="#2F2E41"/>
<path d="M283.918 350.961C287.475 348.807 282.9 340.991 283.82 336.421C284.739 331.851 291.359 330.381 291.781 325.712C292.203 321.042 293.195 316.226 295.822 312.683C297.501 310.419 299.974 308.748 302.521 309.031C303.382 309.127 304.216 309.44 304.966 309.948C305.715 310.456 306.362 311.148 306.863 311.975C307.364 312.803 307.707 313.748 307.869 314.745C308.03 315.743 308.007 316.769 307.8 317.755C308.525 316.55 310.401 316.811 310.866 318.182C311.279 319.4 310.366 320.876 309.293 320.984C307.888 323.019 306.279 325.178 304.079 325.589C303.728 325.683 303.364 325.683 303.013 325.588C302.663 325.493 302.335 325.306 302.055 325.041C301.537 324.458 301.497 323.292 302.111 322.856C299.346 324.145 297.724 327.652 297.314 331.109C296.903 334.566 297.471 338.064 297.845 341.527C298.219 344.99 298.381 348.632 297.223 351.848C295.855 355.647 292.707 358.37 289.27 359.243C285.834 360.117 282.174 359.263 279.064 357.34C275.953 355.417 273.359 352.482 271.24 349.191C274.89 352.231 279.94 353.369 283.918 350.961Z" fill="#2F2E41"/>
<path d="M312.074 336.225C308.419 343.611 315.302 356.054 308.365 358.639L308.937 357.968C313.124 351.928 304.372 339.142 308.559 333.101C309.21 332.215 309.768 331.242 310.223 330.201" fill="#2F2E41"/>
<path d="M306.412 340.173C306.412 340.173 309.509 326.616 322.783 323.487C322.798 323.481 322.848 323.457 322.913 323.422C322.952 323.393 323.002 323.364 323.052 323.335C322.903 323.235 322.758 323.147 322.608 323.06C322.608 323.06 322.607 323.06 322.606 323.059C322.606 323.059 322.605 323.058 322.605 323.058C322.604 323.057 322.604 323.057 322.604 323.056C322.604 323.055 322.603 323.055 322.603 323.054C322.474 322.913 322.344 322.773 322.209 322.639L321.83 322.656C321.83 322.656 308.511 320.182 306.412 340.173Z" fill="#FD6584"/>
<path d="M210 575.416C210 575.493 210.013 575.569 210.037 575.64C210.062 575.711 210.099 575.775 210.145 575.83C210.192 575.884 210.246 575.927 210.307 575.956C210.367 575.985 210.432 576 210.497 576H509.503C509.635 576 509.761 575.938 509.854 575.829C509.948 575.72 510 575.571 510 575.416C510 575.262 509.948 575.113 509.854 575.004C509.761 574.894 509.635 574.833 509.503 574.833H210.497C210.432 574.833 210.367 574.848 210.307 574.877C210.246 574.906 210.192 574.949 210.145 575.003C210.099 575.058 210.062 575.122 210.037 575.193C210.013 575.264 210 575.34 210 575.416V575.416Z" fill="#CCCCCC"/>
</g>
<path d="M162.836 213.5C162.836 210.067 163.603 207 165.136 204.3C166.703 201.567 168.819 199.45 171.486 197.95C174.186 196.417 177.203 195.65 180.536 195.65C184.436 195.65 187.853 196.65 190.786 198.65C193.719 200.65 195.769 203.417 196.936 206.95H188.886C188.086 205.283 186.953 204.033 185.486 203.2C184.053 202.367 182.386 201.95 180.486 201.95C178.453 201.95 176.636 202.433 175.036 203.4C173.469 204.333 172.236 205.667 171.336 207.4C170.469 209.133 170.036 211.167 170.036 213.5C170.036 215.8 170.469 217.833 171.336 219.6C172.236 221.333 173.469 222.683 175.036 223.65C176.636 224.583 178.453 225.05 180.486 225.05C182.386 225.05 184.053 224.633 185.486 223.8C186.953 222.933 188.086 221.667 188.886 220H196.936C195.769 223.567 193.719 226.35 190.786 228.35C187.886 230.317 184.469 231.3 180.536 231.3C177.203 231.3 174.186 230.55 171.486 229.05C168.819 227.517 166.703 225.4 165.136 222.7C163.603 220 162.836 216.933 162.836 213.5ZM209.915 207.6C210.815 206.133 211.982 204.983 213.415 204.15C214.882 203.317 216.548 202.9 218.415 202.9V210.25H216.565C214.365 210.25 212.698 210.767 211.565 211.8C210.465 212.833 209.915 214.633 209.915 217.2V231H202.915V203.3H209.915V207.6ZM248.88 216.55C248.88 217.55 248.813 218.45 248.68 219.25H228.43C228.596 221.25 229.296 222.817 230.53 223.95C231.763 225.083 233.28 225.65 235.08 225.65C237.68 225.65 239.53 224.533 240.63 222.3H248.18C247.38 224.967 245.846 227.167 243.58 228.9C241.313 230.6 238.53 231.45 235.23 231.45C232.563 231.45 230.163 230.867 228.03 229.7C225.93 228.5 224.28 226.817 223.08 224.65C221.913 222.483 221.33 219.983 221.33 217.15C221.33 214.283 221.913 211.767 223.08 209.6C224.246 207.433 225.88 205.767 227.98 204.6C230.08 203.433 232.496 202.85 235.23 202.85C237.863 202.85 240.213 203.417 242.28 204.55C244.38 205.683 245.996 207.3 247.13 209.4C248.296 211.467 248.88 213.85 248.88 216.55ZM241.63 214.55C241.596 212.75 240.946 211.317 239.68 210.25C238.413 209.15 236.863 208.6 235.03 208.6C233.296 208.6 231.83 209.133 230.63 210.2C229.463 211.233 228.746 212.683 228.48 214.55H241.63ZM252.189 217.05C252.189 214.25 252.739 211.767 253.839 209.6C254.972 207.433 256.489 205.767 258.389 204.6C260.322 203.433 262.472 202.85 264.839 202.85C266.906 202.85 268.706 203.267 270.239 204.1C271.806 204.933 273.056 205.983 273.989 207.25V203.3H281.039V231H273.989V226.95C273.089 228.25 271.839 229.333 270.239 230.2C268.672 231.033 266.856 231.45 264.789 231.45C262.456 231.45 260.322 230.85 258.389 229.65C256.489 228.45 254.972 226.767 253.839 224.6C252.739 222.4 252.189 219.883 252.189 217.05ZM273.989 217.15C273.989 215.45 273.656 214 272.989 212.8C272.322 211.567 271.422 210.633 270.289 210C269.156 209.333 267.939 209 266.639 209C265.339 209 264.139 209.317 263.039 209.95C261.939 210.583 261.039 211.517 260.339 212.75C259.672 213.95 259.339 215.383 259.339 217.05C259.339 218.717 259.672 220.183 260.339 221.45C261.039 222.683 261.939 223.633 263.039 224.3C264.172 224.967 265.372 225.3 266.639 225.3C267.939 225.3 269.156 224.983 270.289 224.35C271.422 223.683 272.322 222.75 272.989 221.55C273.656 220.317 273.989 218.85 273.989 217.15ZM296.026 209.05V222.45C296.026 223.383 296.242 224.067 296.676 224.5C297.142 224.9 297.909 225.1 298.976 225.1H302.226V231H297.826C291.926 231 288.976 228.133 288.976 222.4V209.05H285.676V203.3H288.976V196.45H296.026V203.3H302.226V209.05H296.026ZM333.011 216.55C333.011 217.55 332.944 218.45 332.811 219.25H312.561C312.727 221.25 313.427 222.817 314.661 223.95C315.894 225.083 317.411 225.65 319.211 225.65C321.811 225.65 323.661 224.533 324.761 222.3H332.311C331.511 224.967 329.977 227.167 327.711 228.9C325.444 230.6 322.661 231.45 319.361 231.45C316.694 231.45 314.294 230.867 312.161 229.7C310.061 228.5 308.411 226.817 307.211 224.65C306.044 222.483 305.461 219.983 305.461 217.15C305.461 214.283 306.044 211.767 307.211 209.6C308.377 207.433 310.011 205.767 312.111 204.6C314.211 203.433 316.627 202.85 319.361 202.85C321.994 202.85 324.344 203.417 326.411 204.55C328.511 205.683 330.127 207.3 331.261 209.4C332.427 211.467 333.011 213.85 333.011 216.55ZM325.761 214.55C325.727 212.75 325.077 211.317 323.811 210.25C322.544 209.15 320.994 208.6 319.161 208.6C317.427 208.6 315.961 209.133 314.761 210.2C313.594 211.233 312.877 212.683 312.611 214.55H325.761ZM371.434 224.35H357.534L355.234 231H347.884L360.434 196.05H368.584L381.134 231H373.734L371.434 224.35ZM369.534 218.75L364.484 204.15L359.434 218.75H369.534ZM384.025 217.15C384.025 214.283 384.608 211.783 385.775 209.65C386.942 207.483 388.558 205.817 390.625 204.65C392.692 203.45 395.058 202.85 397.725 202.85C401.158 202.85 403.992 203.717 406.225 205.45C408.492 207.15 410.008 209.55 410.775 212.65H403.225C402.825 211.45 402.142 210.517 401.175 209.85C400.242 209.15 399.075 208.8 397.675 208.8C395.675 208.8 394.092 209.533 392.925 211C391.758 212.433 391.175 214.483 391.175 217.15C391.175 219.783 391.758 221.833 392.925 223.3C394.092 224.733 395.675 225.45 397.675 225.45C400.508 225.45 402.358 224.183 403.225 221.65H410.775C410.008 224.65 408.492 227.033 406.225 228.8C403.958 230.567 401.125 231.45 397.725 231.45C395.058 231.45 392.692 230.867 390.625 229.7C388.558 228.5 386.942 226.833 385.775 224.7C384.608 222.533 384.025 220.017 384.025 217.15ZM414.103 217.15C414.103 214.283 414.686 211.783 415.853 209.65C417.02 207.483 418.636 205.817 420.703 204.65C422.77 203.45 425.136 202.85 427.803 202.85C431.236 202.85 434.07 203.717 436.303 205.45C438.57 207.15 440.086 209.55 440.853 212.65H433.303C432.903 211.45 432.22 210.517 431.253 209.85C430.32 209.15 429.153 208.8 427.753 208.8C425.753 208.8 424.17 209.533 423.003 211C421.836 212.433 421.253 214.483 421.253 217.15C421.253 219.783 421.836 221.833 423.003 223.3C424.17 224.733 425.753 225.45 427.753 225.45C430.586 225.45 432.436 224.183 433.303 221.65H440.853C440.086 224.65 438.57 227.033 436.303 228.8C434.036 230.567 431.203 231.45 427.803 231.45C425.136 231.45 422.77 230.867 420.703 229.7C418.636 228.5 417.02 226.833 415.853 224.7C414.686 222.533 414.103 220.017 414.103 217.15ZM458.281 231.45C455.615 231.45 453.215 230.867 451.081 229.7C448.948 228.5 447.265 226.817 446.031 224.65C444.831 222.483 444.231 219.983 444.231 217.15C444.231 214.317 444.848 211.817 446.081 209.65C447.348 207.483 449.065 205.817 451.231 204.65C453.398 203.45 455.815 202.85 458.481 202.85C461.148 202.85 463.565 203.45 465.731 204.65C467.898 205.817 469.598 207.483 470.831 209.65C472.098 211.817 472.731 214.317 472.731 217.15C472.731 219.983 472.081 222.483 470.781 224.65C469.515 226.817 467.781 228.5 465.581 229.7C463.415 230.867 460.981 231.45 458.281 231.45ZM458.281 225.35C459.548 225.35 460.731 225.05 461.831 224.45C462.965 223.817 463.865 222.883 464.531 221.65C465.198 220.417 465.531 218.917 465.531 217.15C465.531 214.517 464.831 212.5 463.431 211.1C462.065 209.667 460.381 208.95 458.381 208.95C456.381 208.95 454.698 209.667 453.331 211.1C451.998 212.5 451.331 214.517 451.331 217.15C451.331 219.783 451.981 221.817 453.281 223.25C454.615 224.65 456.281 225.35 458.281 225.35ZM504.016 203.3V231H496.966V227.5C496.066 228.7 494.883 229.65 493.416 230.35C491.983 231.017 490.416 231.35 488.716 231.35C486.549 231.35 484.633 230.9 482.966 230C481.299 229.067 479.983 227.717 479.016 225.95C478.083 224.15 477.616 222.017 477.616 219.55V203.3H484.616V218.55C484.616 220.75 485.166 222.45 486.266 223.65C487.366 224.817 488.866 225.4 490.766 225.4C492.699 225.4 494.216 224.817 495.316 223.65C496.416 222.45 496.966 220.75 496.966 218.55V203.3H504.016ZM526.273 202.9C529.573 202.9 532.239 203.95 534.273 206.05C536.306 208.117 537.323 211.017 537.323 214.75V231H530.323V215.7C530.323 213.5 529.773 211.817 528.673 210.65C527.573 209.45 526.073 208.85 524.173 208.85C522.239 208.85 520.706 209.45 519.573 210.65C518.473 211.817 517.923 213.5 517.923 215.7V231H510.923V203.3H517.923V206.75C518.856 205.55 520.039 204.617 521.473 203.95C522.939 203.25 524.539 202.9 526.273 202.9ZM552.129 209.05V222.45C552.129 223.383 552.346 224.067 552.779 224.5C553.246 224.9 554.013 225.1 555.079 225.1H558.329V231H553.929C548.029 231 545.079 228.133 545.079 222.4V209.05H541.779V203.3H545.079V196.45H552.129V203.3H558.329V209.05H552.129Z" fill="black"/>
<ellipse cx="-37.7797" cy="101.927" rx="173.22" ry="170.073" fill="#E7740A" fill-opacity="0.45"/>
<ellipse cx="126.78" cy="-23.927" rx="173.22" ry="170.073" fill="#E7740A" fill-opacity="0.45"/>
</g>
<defs>
<filter id="filter0_d_219_15263" x="181" y="1041" width="358" height="85.5385" filterUnits="userSpaceOnUse" color-interpolation-filters="sRGB">
<feFlood flood-opacity="0" result="BackgroundImageFix"/>
<feColorMatrix in="SourceAlpha" type="matrix" values="0 0 0 0 0 0 0 0 0 0 0 0 0 0 0 0 0 0 127 0" result="hardAlpha"/>
<feOffset dy="4"/>
<feGaussianBlur stdDeviation="2"/>
<feComposite in2="hardAlpha" operator="out"/>
<feColorMatrix type="matrix" values="0 0 0 0 0 0 0 0 0 0 0 0 0 0 0 0 0 0 0.25 0"/>
<feBlend mode="normal" in2="BackgroundImageFix" result="effect1_dropShadow_219_15263"/>
<feBlend mode="normal" in="SourceGraphic" in2="effect1_dropShadow_219_15263" result="shape"/>
</filter>
<clipPath id="clip0_219_15263">
<rect width="720" height="1280" rx="24" fill="white"/>
</clipPath>
<clipPath id="clip1_219_15263">
<rect width="300" height="267" fill="white" transform="translate(210 309)"/>
</clipPath>
</defs>
</svg>
